<svg xmlns="http://www.w3.org/2000/svg" xmlns:xlink="http://www.w3.org/1999/xlink" viewBox="0 0 145.8 132.77" width="165" height="150"><defs><style>.cls-1{fill:none;}.cls-2{isolation:isolate;}.cls-3,.cls-5,.cls-6{fill:#fbd0b4;}.cls-4{fill:#b56a4d;}.cls-10,.cls-11,.cls-12,.cls-16,.cls-18,.cls-25,.cls-26,.cls-37,.cls-39,.cls-40,.cls-43,.cls-5,.cls-7{mix-blend-mode:multiply;}.cls-5,.cls-7{opacity:0.6;}.cls-31,.cls-38,.cls-6{mix-blend-mode:screen;}.cls-8{fill:#fcee21;}.cls-9{fill:#f7931e;}.cls-11,.cls-12,.cls-17{fill:#fcd221;}.cls-11,.cls-25,.cls-37{opacity:0.5;}.cls-13{fill:#fff;}.cls-14{fill:#f7913d;}.cls-15{fill:#9b4a0d;}.cls-16{opacity:0.52;}.cls-18{opacity:0.46;}.cls-19{clip-path:url(#clip-path);}.cls-20{fill:#89d5ed;}.cls-21{fill:#306977;}.cls-22{fill:#9e4c0b;}.cls-23{fill:#fef6ec;}.cls-24{fill:#9e5116;}.cls-26{fill:#bbac9a;}.cls-27{fill:#984c08;}.cls-28{fill:#a0a427;}.cls-29{fill:#9a5648;}.cls-30{fill:#0a010b;}.cls-32{fill:#fde4c7;}.cls-33{fill:#8c5742;}.cls-34{fill:#be8d75;}.cls-35,.cls-37,.cls-38{fill:#a05b23;}.cls-36{fill:#602e09;}.cls-39,.cls-40{opacity:0.7;}.cls-39{fill:url(#radial-gradient);}.cls-40{fill:url(#radial-gradient-2);}.cls-41{fill:#19aacc;}.cls-42,.cls-43{fill:#aee0e8;}.cls-44{fill:#73cee5;}</style><clipPath id="clip-path"><path class="cls-1" d="M37.86,82.37,47.6,96.74s-1.29,6.53-2.36,10.7-3.64,4-2.67,5.35.85,1.71-.11,2.57-.64,3.32-1.18,6.21-3.74,2.56-4.92-1.39c-1.5-6.1-9.2-5.14-9.1-6.1s2.36-2.79,4.07-3.11c-.43-1.6,1.93-3.32,3.42-9.09C36.68,92.78,37.86,82.37,37.86,82.37Zm84,32.67c-3.75-4.82-7.82-3.27-7.82-3.27,4.5-4.81,9.9-18.19,4-29.91s-15-15-28.36-13.59S66.86,66,66.86,66s-7.38,28.58-14,33.39a38,38,0,0,0,12.78,12.67,1.68,1.68,0,0,1-1,.82c-2.47.64-1.4,3.32-4.07,3.86-3.53,1.07-2.68,1.92,2.46,3.74,7.49,2.36,9.34,7.09,12.06,6.26s2.72-2.66,2.34-5.52a16.43,16.43,0,0,1,.25-4.19,19.52,19.52,0,0,0,7,.66c-.21,4.28,1.82,6.64,8.56,9.42,10.81,3.75,22.37.32,29.75-1.71C126.18,124.55,125.61,119.85,121.87,115Z"/></clipPath><radialGradient id="radial-gradient" cx="988.75" cy="-1134.11" r="8.67" gradientTransform="matrix(-0.9, -0.44, -0.44, 0.9, 421.25, 1499.4)" gradientUnits="userSpaceOnUse"><stop offset="0.12" stop-color="#f6a0a0"/><stop offset="1" stop-color="#fff"/></radialGradient><radialGradient id="radial-gradient-2" cx="-116.91" cy="-1675.09" r="6.67" gradientTransform="translate(854.95 1499.4) rotate(-26.29)" xlink:href="#radial-gradient"/></defs><g class="cls-2"><g id="Layer_2" data-name="Layer 2"><g id="Layer_1-2" data-name="Layer 1"><path class="cls-3" d="M29,113.85s-2.21,3.28-3.84,3.34c-2.11.09-3.67-.34-6,.19s-2.93,1.14-2.64,2.12,1.85.85,2.25.85c0,0-2.93,2.13-2.4,3.78.43,1.18,2.3.7,2.3.7s-2,2.54-.05,3.75c1.18.5,3.13-1.05,3.13-1.05a1.66,1.66,0,0,0,1.44,1.34c1.29.19,2.73-1.69,3.94-2.76s1.82-1,3.15-1a11.13,11.13,0,0,0,3.08-.27c.83-.27,1.5.94,2.22,1.85s1.42,2.75,3.32,2.14.85-2.22.21-3.16a13.09,13.09,0,0,1-1.55-4.28C37.38,120,36.62,114.37,29,113.85Z"/><path class="cls-4" d="M38.21,129.12c-1.18,0-1.84-1-2.34-1.76-.14-.21-.27-.41-.4-.57l-.39-.51c-.55-.75-1.08-1.45-1.63-1.28a8.94,8.94,0,0,1-2.6.27H30a3.33,3.33,0,0,0-2.74,1c-.27.24-.56.52-.85.82-1.06,1.05-2.16,2.14-3.23,2a1.81,1.81,0,0,1-1.52-1.21c-.56.39-2.07,1.35-3.1.9a1.85,1.85,0,0,1-.95-1.29,3.63,3.63,0,0,1,.67-2.37c-.62.08-1.73.06-2.07-.88-.44-1.38,1.22-3,2-3.67-.66,0-1.65-.15-1.89-1a1.26,1.26,0,0,1,.07-1c.32-.54,1.15-.94,2.7-1.29a13.51,13.51,0,0,1,4-.23c.65,0,1.32.06,2.05,0,1.52-.06,3.67-3.23,3.69-3.27a.21.21,0,0,1,.17-.08c3.46.24,7.79,1.75,8.72,7.61v.08a12.78,12.78,0,0,0,1.52,4.21c.55.79,1.1,1.7.84,2.48A1.63,1.63,0,0,1,39,129,2.49,2.49,0,0,1,38.21,129.12Zm-4.58-4.51c.67,0,1.21.74,1.74,1.45l.38.5q.21.27.42.6c.6.91,1.29,1.94,2.7,1.48a1.26,1.26,0,0,0,.91-.71c.23-.68-.43-1.65-.79-2.17a13.08,13.08,0,0,1-1.58-4.35v-.08c-.71-4.48-3.5-6.94-8.28-7.3-.38.54-2.36,3.28-3.92,3.35-.75,0-1.43,0-2.09,0a13.12,13.12,0,0,0-3.88.22c-1.42.32-2.2.68-2.46,1.13a.89.89,0,0,0-.05.76c.23.76,1.43.73,1.94.72h.14a.17.17,0,0,1,.17.13.18.18,0,0,1-.07.2s-2.81,2.07-2.33,3.59c.37,1,2.07.58,2.09.57a.2.2,0,0,1,.19.08.17.17,0,0,1,0,.21,3.84,3.84,0,0,0-.85,2.45,1.48,1.48,0,0,0,.75,1c.86.37,2.41-.62,2.93-1a.19.19,0,0,1,.18,0,.19.19,0,0,1,.11.15,1.45,1.45,0,0,0,1.29,1.18c.9.13,2-.94,2.92-1.88.3-.3.59-.58.87-.83a3.67,3.67,0,0,1,3-1.06h.83a8.8,8.8,0,0,0,2.49-.25A.82.82,0,0,1,33.63,124.61Z"/><path class="cls-5" d="M18.55,120.49c.48-.31,1-.57,1.36-.78,1.31-.7,3.2-1.23,4.55-1.84-.85.17-2.18.38-3,.58a9.75,9.75,0,0,1-3.21.46,1.48,1.48,0,0,1-1.26-.78,1.08,1.08,0,0,0-.28,1.61A2.35,2.35,0,0,0,18.55,120.49Z"/><path class="cls-5" d="M19.59,123.54c.4-.49.69-1.06,1.09-1.55,1.49-1.81,4.39-1.61,5.82-3.36a39.84,39.84,0,0,0-3.89,1.05,10,10,0,0,0-3.19,2.51c-.69.76-2.47,2.53-2.6.8a1.81,1.81,0,0,1,.25-1.07,2.37,2.37,0,0,0-.76,1.79c.11,1.08,1.19,1.44,2.14,1.32A18.34,18.34,0,0,1,19.59,123.54Z"/><path class="cls-5" d="M39.56,128.63a1.37,1.37,0,0,0,.27-.47,1.71,1.71,0,0,0,.06-.84c-.51.29-1.34-.1-1.72-.51-1.14-1.21-1.58-2.92-2.7-4.13-1.55-1.64-4.77-1-6.63-.14s-2.76,2.53-4.26,3.72c-.43.34-1.86,1.42-2.09.32-.11-.54.47-1.3.76-1.68a9.34,9.34,0,0,1,1.94-2,16.89,16.89,0,0,1,4.47-2.34,9.1,9.1,0,0,0-4.08-.18,6.83,6.83,0,0,0-4.15,3.26c-.33.52-2.22,4.23-3.34,3.48-.39-.26-.23-1-.05-1.45h0a2,2,0,0,0,.18,2.59c1.1,1,2.63.23,3.66-.54a1.5,1.5,0,0,0,.19.32c1.18,1.59,3,.37,4.07-.68s1.82-2,3.34-2.15a25.47,25.47,0,0,0,3.19-.23.18.18,0,0,0,.2,0c1.94-.76,2.9,2.25,4,3.3A2.07,2.07,0,0,0,39.56,128.63Z"/><path class="cls-6" d="M30,120.71A6.36,6.36,0,0,0,26.44,122c-1.33.92-3.1,2.35-3.43,4a.11.11,0,0,0,.18.1c.89-.84,1.6-1.91,2.43-2.82a8.1,8.1,0,0,1,2-1.52,5.58,5.58,0,0,1,1.94-1C29.62,120.78,30.09,120.71,30,120.71Z"/><path class="cls-6" d="M26.18,119.18c-2.53,1.29-3.34,1.12-4.71,2.51a21.53,21.53,0,0,0-2.23,3,6,6,0,0,0-.92,2.11c0,.14.17.22.22.08A17.87,17.87,0,0,1,21.85,122c1.31-1.51,2.17-1.52,3.85-2.43C25.82,119.55,26.31,119.12,26.18,119.18Z"/><path class="cls-6" d="M24.79,118a27.1,27.1,0,0,0-3.11,1.28,14.85,14.85,0,0,0-2.82,1.67c-.75.59-2.32,1.5-2.13,2.63a.23.23,0,0,0,.46,0c.07-1.11,1.94-2.36,2.77-3,1.34-1,3.07-1.53,4.52-2.39C24.57,118.09,24.9,117.92,24.79,118Z"/><path class="cls-6" d="M25.92,117.18c-1.49.65-3.71-.07-5.59.19-.7.1-4,.95-3.21,1.25.24.09.26,0,.41,0,1.29-.21,2.17-.71,3.51-.83,1.7-.17,3.24.11,4.9-.46C26,117.27,26,117.16,25.92,117.18Z"/><path class="cls-6" d="M38.83,126.49c-.54-1.63-1-4.12-3-4.53-.1,0-.14.13-.07.18,1.54,1.11,1.83,3,2.94,4.41A.06.06,0,0,0,38.83,126.49Z"/><g class="cls-7"><path class="cls-3" d="M35.24,119.48c.83,2.56,1.67,3.76,3,4.35a14.27,14.27,0,0,1-.68-2.45c-.21-1.34-1-7-8.56-7.53a17.16,17.16,0,0,1-1.27,1.6C29.73,115.83,34.48,117,35.24,119.48Z"/></g><path class="cls-8" d="M37.86,82.37s-1.18,10.41-3.11,19.51c-1.49,5.77-3.85,7.49-3.42,9.09-1.71.32-4,2.14-4.07,3.11s7.6,0,9.1,6.1c1.18,3.95,4.39,4.28,4.92,1.39s.22-5.35,1.18-6.21,1.07-1.18.11-2.57,1.6-1.18,2.67-5.35,2.36-10.7,2.36-10.7Z"/><path class="cls-9" d="M39.44,123.66c-1.12,0-2.54-1-3.25-3.43-1-4.22-5.18-5-7.41-5.4-1.13-.21-1.75-.33-1.7-.77.12-1.08,2.33-2.82,4-3.23-.12-.77.31-1.56.93-2.71a26.41,26.41,0,0,0,2.53-6.29c1.9-9,3.09-19.37,3.1-19.48a.19.19,0,0,1,.14-.15.17.17,0,0,1,.19.07l9.74,14.37a.2.2,0,0,1,0,.13c0,.07-1.29,6.58-2.35,10.72a7.58,7.58,0,0,1-2.29,3.94c-.61.59-.76.76-.41,1.26,1,1.46.89,1.89-.14,2.81-.55.49-.65,1.65-.77,3.13a27.55,27.55,0,0,1-.35,3c-.23,1.24-1,2-1.92,2.06ZM38,82.88c-.26,2.16-1.39,11.14-3.06,19a25.86,25.86,0,0,1-2.57,6.38c-.65,1.21-1,1.95-.85,2.63a.2.2,0,0,1,0,.15.17.17,0,0,1-.12.08c-1.66.31-3.82,2.07-3.92,2.94a4.25,4.25,0,0,0,1.41.38c2.3.43,6.6,1.22,7.69,5.66.67,2.26,2,3.22,3,3.17.8,0,1.39-.71,1.58-1.77a26.61,26.61,0,0,0,.35-2.93c.13-1.56.23-2.79.89-3.38.86-.76,1-1,.08-2.33-.54-.77-.12-1.17.45-1.72a7.23,7.23,0,0,0,2.2-3.77c1-3.89,2.19-9.89,2.33-10.62Z"/><g class="cls-10"><path class="cls-11" d="M45.24,107.44c1.07-4.17,2.36-10.7,2.36-10.7L37.86,82.37s-.9,8-2.41,16h0s2-10.38,3.61-6.64c1.88,4.42,5.71,5.65,4,12.44-1.48,5.31-1.24,6.67-5.44,5.69s-.37.24,1.73,1.85-1.48,1.11-2.71,1.11,3.12-.15,2.84,3c-.22,2.35-1.22,1.77-3.24-.63s-4.09-1.83-5.53-1.88.05-1.58,1.78-1.53c1.54,0-.67,0-.37-3.45-.62,1.16-1,1.92-.81,2.65-1.71.32-4,2.14-4.07,3.11s7.6,0,9.1,6.1c1.18,3.95,4.39,4.28,4.92,1.39s.22-5.35,1.18-6.21,1.07-1.18.11-2.57S44.17,111.61,45.24,107.44Z"/></g><path class="cls-12" d="M45.24,107.44c1.07-4.17,2.36-10.7,2.36-10.7L37.86,82.37s-.22,1.95-.62,4.9a.35.35,0,0,1,0-.08c.83-1.5.75,1,2.33,4.26a63.84,63.84,0,0,0,4.92,7.92c1.92,2.92,0,5.92-.83,9.09s-2.25,2.5-3.5,2.42c1.08,1.84,1.83,2.25.5,2.59.58,1.58-.17,1.42-.25,4.42s-.59,5.25-2.09,2.67-3.34-5.76-8.26-5.84c0,.06,0,.12,0,.18,2.33.52,5.4,1.66,6.29,5.28,1.18,3.95,4.39,4.28,4.92,1.39s.22-5.35,1.18-6.21,1.07-1.18.11-2.57S44.17,111.61,45.24,107.44Z"/><path class="cls-13" d="M36,96.73a41.08,41.08,0,0,1-1.28,6.1c-.28,1-.59,1.94-1,2.88s-.78,1.72-1,2.62c-.13.45.3.24.45,0a13.12,13.12,0,0,0,1.3-2.82,27.17,27.17,0,0,0,.94-2.94,25.56,25.56,0,0,0,.75-6C36.13,96.5,36,96.66,36,96.73Z"/><path class="cls-14" d="M117.87,112.92s1.2-6.23,6.31-4.87,7,4.08,10.78,6,9.19,1.76,10.47,6.47-3.84,6.39-11,4.88a64.12,64.12,0,0,0-12-1.52Z"/><path class="cls-15" d="M139.11,126.11a22.79,22.79,0,0,1-4.74-.55,65.16,65.16,0,0,0-12-1.51.18.18,0,0,1-.17-.11l-4.55-11a.17.17,0,0,1,0-.1c0-.13.64-3.2,2.83-4.57a4.49,4.49,0,0,1,3.71-.44,20.37,20.37,0,0,1,7.2,3.69,28.51,28.51,0,0,0,3.62,2.31,22.62,22.62,0,0,0,3.6,1.33c3,.91,6,1.84,6.95,5.26a3.87,3.87,0,0,1-.74,3.87C143.76,125.5,141.73,126.11,139.11,126.11Zm-16.57-2.42a66.53,66.53,0,0,1,11.9,1.52c4.75,1,8.55.59,10.15-1.11a3.5,3.5,0,0,0,.66-3.54c-.87-3.22-3.71-4.09-6.71-5a23.52,23.52,0,0,1-3.66-1.36,26.78,26.78,0,0,1-3.66-2.34,20.09,20.09,0,0,0-7.09-3.63,4.2,4.2,0,0,0-3.42.39c-1.91,1.2-2.56,3.88-2.65,4.29Z"/><g class="cls-16"><path class="cls-14" d="M145.43,120.51a5.87,5.87,0,0,0-.8-1.75c.44,1.93-.57,2.63-1.36,1.28-1.12-1.92-2.09-.88-2.17-1.84s-1.28-1.45-2.73-1.45a9.74,9.74,0,0,1-5.77-1.52,95.3,95.3,0,0,0-9-4.82,6.44,6.44,0,0,1-2.57-2.17c-2.5,1.17-3.17,4.68-3.17,4.68l4.55,11a64.12,64.12,0,0,1,12,1.52C141.59,126.9,146.71,125.23,145.43,120.51Z"/></g><g class="cls-16"><path class="cls-14" d="M144.63,118.76a4.57,4.57,0,0,1,.1.75c.5,2.59-1.34,4.24-3.79,4.3-3,.08-3.13-2.65-3-5.53-1.68,1.36-.4,4.57-2,4.41s-3.13-1.44-4.9-1.2-3.61-.41-5.38-5.06c-1.77-4.39-4.77-5.85-6.65-6.34a9.1,9.1,0,0,0-1.17,2.83l4.55,11a64.12,64.12,0,0,1,12,1.52c7.19,1.51,12.31-.16,11-4.88A5.87,5.87,0,0,0,144.63,118.76Z"/></g><path class="cls-15" d="M137.69,118.94s-1,3.88.95,6.63C137.24,124.67,136.34,121.86,137.69,118.94Z"/><path class="cls-8" d="M60.44,106.26s-5.14,3.75-4.5,9.21,10.71,8.34,10.71,8.34l4.06-12Z"/><path class="cls-9" d="M66.65,124H66.6a29.84,29.84,0,0,1-5.15-2.14C58,120,56,117.78,55.76,115.49c-.64-5.5,4.52-9.34,4.57-9.37a.18.18,0,0,1,.2,0l10.27,5.57a.17.17,0,0,1,.08.22l-4.06,12A.19.19,0,0,1,66.65,124Zm-6.19-17.52c-.68.53-4.91,4.07-4.34,9s9.11,7.73,10.41,8.14l4-11.68Z"/><path class="cls-17" d="M60.44,106.26s-5.14,3.75-4.5,9.21,10.71,8.34,10.71,8.34l4.06-12Z"/><path class="cls-12" d="M60.44,106.26a13.32,13.32,0,0,0-2.9,3.15,2.21,2.21,0,0,1,2.24,0,4.46,4.46,0,0,1,1.28,1.13,2.35,2.35,0,0,1,.52,1.09A4.52,4.52,0,0,1,61,114.1a6.4,6.4,0,0,1-3.45,3c-.32.13-.65.23-1,.33,2.38,4.18,10,6.38,10,6.38l4.06-12Z"/><path class="cls-3" d="M60.59,119A18.9,18.9,0,0,0,55,121c-2.45,1.47-3.59,2.56-5.44,2.61s-1.85,1.63-.66,2.61,3.54.33,3.54.33-1.36,5,2.56,4.25c.87,1.68,3.27,1.52,3.7.43.66,1.69,3.27,1.42,3.65.76,1,1.26,9.42.44,6.31-2.55,2.24-1.09,4-2.78,3.22-4.31S60.59,119,60.59,119Z"/><path class="cls-4" d="M64.75,132.77a4.46,4.46,0,0,1-2.4-.49,2.54,2.54,0,0,1-1.76.42,2.36,2.36,0,0,1-1.92-1.06,2,2,0,0,1-1.43.63A2.6,2.6,0,0,1,54.88,131a2.34,2.34,0,0,1-2.22-.55c-.93-1-.64-2.92-.48-3.66-.69.15-2.4.4-3.41-.43a2,2,0,0,1-.83-2c.11-.33.46-.88,1.59-.91,1.36,0,2.34-.67,3.81-1.62.46-.29,1-.62,1.55-1a19.26,19.26,0,0,1,5.67-2,.18.18,0,0,1,.1,0c.43.19,10.52,4.67,11.36,6.23a1.88,1.88,0,0,1,.12,1.47,6.17,6.17,0,0,1-3.19,3,1.56,1.56,0,0,1,.52,1.48c-.27.94-1.73,1.38-2.58,1.55A10.79,10.79,0,0,1,64.75,132.77Zm-2.42-.93a.21.21,0,0,1,.14.07c.43.52,2.55.66,4.35.29,1.3-.27,2.14-.74,2.3-1.3.11-.37-.09-.81-.6-1.3a.19.19,0,0,1,0-.16.17.17,0,0,1,.09-.14c1.72-.83,2.92-1.9,3.23-2.86a1.45,1.45,0,0,0-.09-1.19c-.65-1.2-8.21-4.75-11.13-6a18.65,18.65,0,0,0-5.5,2c-.57.35-1.08.67-1.54,1-1.52,1-2.52,1.63-4,1.67-.67,0-1.12.26-1.26.67a1.62,1.62,0,0,0,.72,1.62c1.11.91,3.35.3,3.37.3a.19.19,0,0,1,.18,0,.2.2,0,0,1,.05.18s-.67,2.53.33,3.6a2.06,2.06,0,0,0,2,.42.17.17,0,0,1,.19.09,2.18,2.18,0,0,0,2.08,1.16,1.41,1.41,0,0,0,1.29-.71.18.18,0,0,1,.17-.11.18.18,0,0,1,.17.12,2,2,0,0,0,1.77,1.14,1.92,1.92,0,0,0,1.55-.41.22.22,0,0,1,.14-.09Z"/><path class="cls-4" d="M56.94,125.65a4,4,0,0,0-2.18,2.45,4.1,4.1,0,0,0-.14,1.84,2.79,2.79,0,0,0,.75,1.7c.09.07.22-.19.19-.26-.11-.26-.27-.48-.39-.73a4.2,4.2,0,0,1-.26-.78,3.71,3.71,0,0,1,0-1.69,3.91,3.91,0,0,1,2-2.41S57,125.62,56.94,125.65Z"/><path class="cls-4" d="M60.94,126.7a3.44,3.44,0,0,0-2.24,1.84,3.5,3.5,0,0,0-.4,1.62,3.42,3.42,0,0,0,.08.84,1.36,1.36,0,0,0,.34.75c.09.08.23-.19.22-.26a5.68,5.68,0,0,0-.22-.7,4.1,4.1,0,0,1-.12-.7,3.13,3.13,0,0,1,.24-1.48,3.47,3.47,0,0,1,2.07-1.81S61,126.68,60.94,126.7Z"/><path class="cls-4" d="M63.82,128.3a4.06,4.06,0,0,0-1.68,1.82,2.3,2.3,0,0,0-.26,1.26c0,.33.23.85.62.87.1,0,.21-.18.16-.26s-.19-.24-.28-.38a1.06,1.06,0,0,1-.19-.45,1.88,1.88,0,0,1,.21-1.09,4.31,4.31,0,0,1,1.41-1.62S63.92,128.25,63.82,128.3Z"/><path class="cls-4" d="M68.84,129.47c-.14-.18-.46-.22-.67-.26a4.08,4.08,0,0,0-.77-.07,3.44,3.44,0,0,0-1.48.36s-.07.11,0,.09a4.75,4.75,0,0,1,1.41-.19,4.1,4.1,0,0,1,.68.09l.36.1a.87.87,0,0,0,.36.09C68.78,129.68,68.9,129.53,68.84,129.47Z"/><path class="cls-4" d="M55.4,123.67a4.44,4.44,0,0,0-2,1.21,5.44,5.44,0,0,0-.76,1,4.29,4.29,0,0,0-.31.55,1.62,1.62,0,0,0-.19.56c0,.16.15,0,.19,0,.2-.31.32-.66.51-1a4.38,4.38,0,0,1,.67-.87,6.39,6.39,0,0,1,1.84-1.32S55.46,123.65,55.4,123.67Z"/><path class="cls-6" d="M55.35,124a3.62,3.62,0,0,0-1.38.67A4.59,4.59,0,0,0,52.91,126a4.83,4.83,0,0,0-.57,1.73,5.24,5.24,0,0,0,0,1,1.7,1.7,0,0,0,.25.89c.12.15.3-.22.3-.31,0-.28-.1-.53-.14-.8a4.39,4.39,0,0,1,0-.81,3.89,3.89,0,0,1,.41-1.56,4.51,4.51,0,0,1,2.21-2S55.37,124,55.35,124Z"/><g class="cls-7"><path class="cls-3" d="M58.64,131.43l0-.17a.6.6,0,0,1-.06.11S58.63,131.41,58.64,131.43Z"/><path class="cls-3" d="M56.89,125.91c-3.61.38-2.5,4-3.84,3.74a1.62,1.62,0,0,1-.78-.4c.22,1.05.9,1.93,2.71,1.58l.05,0A3.75,3.75,0,0,1,56.89,125.91Z"/><path class="cls-3" d="M55.38,123.78c-1.11,0-2.86,1.37-5.11,1.59a2.52,2.52,0,0,1-2.21-.72,2,2,0,0,0,.82,1.6c1.11.9,3.17.43,3.49.34A6.49,6.49,0,0,1,55.38,123.78Z"/><path class="cls-3" d="M60.82,126.86c-2.19.1-3.11,2.3-3.27,3.7s-2.2.43-2.52.29l0,.14c.91,1.45,3,1.33,3.54.38C57.83,129,59.27,127.59,60.82,126.86Z"/><path class="cls-3" d="M55,130.83c0,.06.07.11.1.16l0-.14Z"/><path class="cls-3" d="M71.86,125.16C71,123.64,60.59,119,60.59,119a21.41,21.41,0,0,0-2.85.77c2.91.31,9.68,3,11.53,4.68s.11,3.33-1.07,3.69-1.82.32-2.73,1.76c1.12-.21,3.16-.16,2.94,1-.13.67-1.83,1.3-3.19,1.7,2.54-.12,5.46-1.15,3.42-3.11C70.88,128.38,72.67,126.69,71.86,125.16Z"/><path class="cls-3" d="M63.82,128.3a3.26,3.26,0,0,0-2.47,2.47c-.54,1.55-2.67.49-2.67.49.62,1.6,3,1.44,3.57.87C61.77,130.8,62.54,129.43,63.82,128.3Z"/></g><path class="cls-6" d="M49.06,123.85a4.71,4.71,0,0,0,3.09-.8c1.63-1.06,3.82-2.77,5.77-3.12a20.27,20.27,0,0,0-4.23,2.4C52.32,123.42,51,124.59,49.06,123.85Z"/><path class="cls-6" d="M63.81,128.45s-2.66,1.67-1.15,3.54A3,3,0,0,1,63.81,128.45Z"/><path class="cls-6" d="M60.82,126.86A3.26,3.26,0,0,0,59,131.63C58.89,130.1,58.45,128.35,60.82,126.86Z"/><path class="cls-6" d="M56.92,125.77s-3,1.1-1.7,5C55.22,128.79,55.2,127.1,56.92,125.77Z"/><path class="cls-8" d="M66.86,66s9.47,3.7,22.79,2.25S112.07,70.14,118,81.86s.54,25.1-4,29.91c0,0,4.07-1.55,7.82,3.27s4.31,9.51,1.17,10.38c-7.38,2-18.94,5.46-29.75,1.71-6.74-2.78-8.77-5.14-8.56-9.42-3.74.75-22-2.24-31.84-18.3C59.48,94.6,66.86,66,66.86,66Z"/><path class="cls-9" d="M103.86,129a32.35,32.35,0,0,1-10.63-1.69c-6.6-2.72-8.82-5.11-8.69-9.37-4.23.61-22-2.4-31.8-18.42a.18.18,0,0,1,0-.24c6.45-4.73,13.82-33,13.89-33.29a.23.23,0,0,1,.1-.12.19.19,0,0,1,.15,0,53.23,53.23,0,0,0,22.71,2.23c14.35-1.55,22.88,2.54,28.54,13.69,6.14,12.12.32,25-3.6,29.68,1.29-.23,4.48-.32,7.43,3.47,2.58,3.32,3.75,6.7,3,8.81a2.71,2.71,0,0,1-2,1.85l-.74.21C117.42,127.16,110.82,129,103.86,129ZM84.73,117.53a.17.17,0,0,1,.12,0,.15.15,0,0,1,.06.14c-.21,4.27,1.84,6.52,8.45,9.24,10.39,3.6,21.53.53,28.89-1.51l.75-.21a2.37,2.37,0,0,0,1.72-1.61c.65-2-.52-5.3-3-8.48-3.61-4.65-7.44-3.27-7.6-3.21a.19.19,0,0,1-.22-.06.21.21,0,0,1,0-.23c4.29-4.6,9.85-18,3.93-29.7-5.57-11-14-15-28.18-13.5A54,54,0,0,1,67,66.26C66.67,67.46,64.91,74,62.52,81,59,91.12,55.86,97.34,53.14,99.46a38.78,38.78,0,0,0,18,15.24c6.13,2.6,11.61,3.22,13.55,2.84Z"/><g class="cls-10"><path class="cls-17" d="M114.05,111.77c4.5-4.81,9.9-18.19,4-29.91-.13-.26-.26-.51-.4-.76,3.16,7.86.78,17.94-1.73,23.53-4.22,9.36-13.37,12-19,14.31-6.24,2.58-12.33,2.74-11.85-1.1s6.07-9.25,12.31-9.86,10.65-3.5,11.26-8.53c-13.7,6.09-22.38-.61-20.24-7.15,2.5-7.69-1.07-10.66-3-15.53s-1.06-7.61,6.24-8.52c.55-.07,1-.15,1.49-.24-1.09,0-2.2.14-3.36.26C76.33,69.72,66.86,66,66.86,66s-7.38,28.58-14,33.39c9.8,16.06,28.1,19,31.84,18.3-.21,4.28,1.82,6.64,8.56,9.42,10.81,3.75,22.37.32,29.75-1.71,3.14-.87,2.57-5.57-1.17-10.38S114.05,111.77,114.05,111.77Z"/></g><g class="cls-10"><path class="cls-17" d="M88.86,111.74c4.85-4.5,11.76-4.84,11.76-4.84s-3.11-1.39-8.47.17c-5.36,1.38-11.24,2.42-11.49-6.49-2.32,6.48-12.71,8-14.44-1.29,0,1.73,1,10.72-1.9,8.13s-4.15-4.85.69-11.93c2.57-6.95,1.83-16.48.42-24.33C63,79.61,57.72,95.89,52.89,99.41c9.67,15.84,27.6,19,31.67,18.33A15.5,15.5,0,0,1,88.86,111.74Z"/></g><path class="cls-8" d="M66.16,96s-4.5-23.37,6-26c6.11-1.54,12.74,5,9.09,28.49-1.6,9.78-4.25,19.28-3.79,22.76.38,2.86.38,4.69-2.34,5.52s-4.57-3.9-12.06-6.26c-5.14-1.82-6-2.67-2.46-3.74,2.67-.54,1.6-3.22,4.07-3.86S67.17,104.56,66.16,96Z"/><path class="cls-9" d="M74.5,127c-1.11,0-2.14-.82-3.49-1.89a23.54,23.54,0,0,0-8-4.48c-3.51-1.24-4.75-1.93-4.73-2.66,0-.52.69-1,2.27-1.43a2.62,2.62,0,0,0,2-1.86,2.93,2.93,0,0,1,2-2c2-.53,2.53-6.77,1.35-16.7A63.5,63.5,0,0,1,65,84c.25-8.17,2.7-13.07,7.08-14.17a6.32,6.32,0,0,1,6,1.51c5.73,5.22,4.52,19.27,3.29,27.19-.59,3.62-1.34,7.26-2,10.47-1.11,5.4-2.08,10.07-1.79,12.24.37,2.79.41,4.84-2.47,5.72A2.33,2.33,0,0,1,74.5,127ZM73.84,70a7.19,7.19,0,0,0-1.63.2C62,72.73,66.29,95.73,66.34,96h0c.72,6,1.46,16.3-1.62,17.1a2.61,2.61,0,0,0-1.8,1.79,2.93,2.93,0,0,1-2.28,2.06c-1.63.5-2,.87-2,1.09,0,.72,3.14,1.83,4.48,2.31a23.79,23.79,0,0,1,8.11,4.54c1.58,1.26,2.63,2.08,3.83,1.72,2.62-.8,2.58-2.54,2.22-5.33-.29-2.22.63-6.69,1.79-12.36.66-3.2,1.41-6.83,2-10.45,2.84-18.27-.77-24.67-3.17-26.86A5.94,5.94,0,0,0,73.84,70Z"/><g class="cls-10"><path class="cls-17" d="M81.44,97.29a24.6,24.6,0,0,0-.78,3.29c-1,6.9-5.23,14.43-4.18,19s-1.26,5.44-5,2.72-4.6-4.18-2.93-5.85,6.28,4.81,4.18,1.25-3.76-5.23-2.3-7.32,2.93-4.18,1.47-10,1.67-9.83-.42-14.85-3.14-10,.63-14.22c1.52-1.7,3.67-1.23,5.68-.07A6.13,6.13,0,0,0,72.17,70c-10.51,2.64-6,26-6,26,1,8.56,1,16.26-1.48,16.9s-1.4,3.32-4.07,3.86c-3.53,1.07-2.68,1.92,2.46,3.74,7.49,2.36,9.34,7.09,12.06,6.26s2.72-2.66,2.34-5.52c-.46-3.48,2.19-13,3.79-22.76C81.33,98.07,81.38,97.68,81.44,97.29Z"/></g><path class="cls-4" d="M29.6,120.54a10.22,10.22,0,0,0-5,2.33,8.9,8.9,0,0,0-1.91,2.06,4.17,4.17,0,0,0-1,2.92c.06.29.43-.18.43-.32a3.41,3.41,0,0,1,.28-1.45,7.74,7.74,0,0,1,.74-1.2A14.1,14.1,0,0,1,24.84,123a11.73,11.73,0,0,1,4.71-2.34S29.65,120.54,29.6,120.54Z"/><path class="cls-4" d="M25.75,119.3a6.48,6.48,0,0,0-2.3.83,17.18,17.18,0,0,0-2.12,1.39,8.59,8.59,0,0,0-1.76,1.7,6.69,6.69,0,0,0-1.35,2.22c0,.19.12.19.22.06.48-.62.82-1.33,1.3-2a18.83,18.83,0,0,1,1.66-1.8,9.22,9.22,0,0,1,2-1.37c.74-.4,1.53-.65,2.3-1C25.73,119.38,25.78,119.3,25.75,119.3Z"/><path class="cls-4" d="M24.46,117.89a11.05,11.05,0,0,0-1.55.56c-.52.21-1.05.41-1.56.66s-.94.47-1.41.71a12,12,0,0,0-1.49.83.33.33,0,0,0-.15.23c0,.05,0,.16.08.12.48-.24.92-.56,1.38-.83s1-.52,1.49-.77,1.06-.53,1.61-.76,1.06-.4,1.57-.64C24.46,118,24.52,117.87,24.46,117.89Z"/><path class="cls-9" d="M98.56,107.18a17.62,17.62,0,0,0-8.39,3.27,18.21,18.21,0,0,0-3.43,3.13,12.13,12.13,0,0,0-2.52,4.22c-.22.78.53.42.78,0-.18.27.2-.23.23-.28s.2-.35.3-.53.33-.58.5-.87a16.88,16.88,0,0,1,1.18-1.72,20.91,20.91,0,0,1,3.11-3.2,19.51,19.51,0,0,1,8.16-3.84C98.54,107.38,98.64,107.17,98.56,107.18Z"/><path class="cls-9" d="M114.92,110.89a9.18,9.18,0,0,0-1.45,1.19c-.55.47-1.12.91-1.71,1.34a26.8,26.8,0,0,1-3.36,2.13,46.49,46.49,0,0,1-7.63,3c-.1,0-.27.37-.09.33a22.15,22.15,0,0,0,4.06-1.17,12.75,12.75,0,0,0-2.39,2.79c0,.06-.11.21,0,.27s.19-.09.22-.14a15.71,15.71,0,0,1,3.52-3.48c.78-.35,1.54-.73,2.29-1.14,1.2-.67,2.38-1.37,3.52-2.16a13.45,13.45,0,0,0,3.11-2.55C115.07,111.22,115.25,110.72,114.92,110.89Z"/><path class="cls-12" d="M69.87,122.83c-2-2.16-2.16-2.27-5.84-3.67s-1-2.06.54-3.79,5.62.44,4.76-.54-2.6-1.29-1.52-3.67,1-4.76.44-11.35-2-7.68-.65-11.35,1.19-4.87.75-11.36a20.44,20.44,0,0,1,.16-4.81C62.86,78.87,66.16,96,66.16,96c1,8.56,1,16.26-1.48,16.9s-1.4,3.32-4.07,3.86c-3.53,1.07-2.68,1.92,2.46,3.74,7.49,2.36,9.34,7.09,12.06,6.26a4.66,4.66,0,0,0,1.12-.49C74,126.38,71.18,124.29,69.87,122.83Z"/><g class="cls-10"><path class="cls-17" d="M121.87,115c-3.75-4.82-7.82-3.27-7.82-3.27s.23-.25.35-.38c-1.69,1.55-7.3,6.31-13.63,7.2a6.75,6.75,0,0,0,2.77,0c.4-.13-1.25,1.44-1.57,3a51.79,51.79,0,0,1,12.08-6.43c4.82-1.61,7.23,1.44,8.19,5s-6.42,6.58-15.57,7.55-15.41-.32-20.39-5l0,.1c1.31,1.55,3.54,2.89,7.06,4.34,10.81,3.75,22.37.32,29.75-1.71C126.18,124.55,125.61,119.85,121.87,115Z"/></g><path class="cls-13" d="M76.93,71.41s5.51,6.77,3.38,27.07C82.94,90.34,82.19,75.05,76.93,71.41Z"/><path class="cls-13" d="M102.5,69.28s12.65,5.51,15,17.42C118.54,80.56,111.64,71.66,102.5,69.28Z"/><path class="cls-13" d="M96,108.4s-9.85,4.5-9.2,10.92C84.84,117,86.87,111.4,96,108.4Z"/><g class="cls-18"><g class="cls-19"><path class="cls-14" d="M23.49,70.07a1.4,1.4,0,1,1-1.4-1.4A1.4,1.4,0,0,1,23.49,70.07Z"/><path class="cls-14" d="M31.41,70.07a1.4,1.4,0,1,1-1.4-1.4A1.4,1.4,0,0,1,31.41,70.07Z"/><path class="cls-14" d="M39.33,70.07a1.4,1.4,0,1,1-1.4-1.4A1.4,1.4,0,0,1,39.33,70.07Z"/><path class="cls-14" d="M47.25,70.07a1.4,1.4,0,1,1-1.4-1.4A1.4,1.4,0,0,1,47.25,70.07Z"/><path class="cls-14" d="M55.17,70.07a1.4,1.4,0,1,1-1.4-1.4A1.4,1.4,0,0,1,55.17,70.07Z"/><path class="cls-14" d="M63.08,70.07a1.4,1.4,0,1,1-1.39-1.4A1.4,1.4,0,0,1,63.08,70.07Z"/><path class="cls-14" d="M71,70.07a1.4,1.4,0,1,1-1.39-1.4A1.4,1.4,0,0,1,71,70.07Z"/><path class="cls-14" d="M78.92,70.07a1.4,1.4,0,1,1-1.4-1.4A1.4,1.4,0,0,1,78.92,70.07Z"/><path class="cls-14" d="M86.84,70.07a1.4,1.4,0,1,1-1.4-1.4A1.4,1.4,0,0,1,86.84,70.07Z"/><path class="cls-14" d="M94.76,70.07a1.4,1.4,0,1,1-1.4-1.4A1.4,1.4,0,0,1,94.76,70.07Z"/><path class="cls-14" d="M102.68,70.07a1.4,1.4,0,1,1-1.4-1.4A1.4,1.4,0,0,1,102.68,70.07Z"/><path class="cls-14" d="M110.6,70.07a1.4,1.4,0,1,1-1.4-1.4A1.4,1.4,0,0,1,110.6,70.07Z"/><path class="cls-14" d="M118.52,70.07a1.4,1.4,0,1,1-1.4-1.4A1.4,1.4,0,0,1,118.52,70.07Z"/><path class="cls-14" d="M126.44,70.07a1.4,1.4,0,1,1-1.4-1.4A1.4,1.4,0,0,1,126.44,70.07Z"/><path class="cls-14" d="M134.36,70.07a1.4,1.4,0,1,1-1.4-1.4A1.4,1.4,0,0,1,134.36,70.07Z"/><path class="cls-14" d="M19.42,76.28a1.4,1.4,0,1,1-1.4-1.4A1.39,1.39,0,0,1,19.42,76.28Z"/><path class="cls-14" d="M27.34,76.28a1.4,1.4,0,1,1-1.4-1.4A1.4,1.4,0,0,1,27.34,76.28Z"/><path class="cls-14" d="M35.26,76.28a1.4,1.4,0,1,1-1.4-1.4A1.4,1.4,0,0,1,35.26,76.28Z"/><path class="cls-14" d="M43.18,76.28a1.4,1.4,0,1,1-1.4-1.4A1.4,1.4,0,0,1,43.18,76.28Z"/><path class="cls-14" d="M51.1,76.28a1.4,1.4,0,1,1-1.4-1.4A1.4,1.4,0,0,1,51.1,76.28Z"/><path class="cls-14" d="M59,76.28a1.4,1.4,0,1,1-1.4-1.4A1.4,1.4,0,0,1,59,76.28Z"/><path class="cls-14" d="M66.94,76.28a1.4,1.4,0,1,1-1.4-1.4A1.4,1.4,0,0,1,66.94,76.28Z"/><path class="cls-14" d="M74.86,76.28a1.4,1.4,0,1,1-1.4-1.4A1.4,1.4,0,0,1,74.86,76.28Z"/><path class="cls-14" d="M82.78,76.28a1.4,1.4,0,1,1-1.4-1.4A1.4,1.4,0,0,1,82.78,76.28Z"/><path class="cls-14" d="M90.7,76.28a1.4,1.4,0,1,1-1.4-1.4A1.4,1.4,0,0,1,90.7,76.28Z"/><path class="cls-14" d="M98.61,76.28a1.4,1.4,0,1,1-1.39-1.4A1.39,1.39,0,0,1,98.61,76.28Z"/><path class="cls-14" d="M106.53,76.28a1.4,1.4,0,1,1-1.4-1.4A1.39,1.39,0,0,1,106.53,76.28Z"/><path class="cls-14" d="M114.45,76.28a1.4,1.4,0,1,1-1.4-1.4A1.39,1.39,0,0,1,114.45,76.28Z"/><path class="cls-14" d="M122.37,76.28a1.4,1.4,0,1,1-1.4-1.4A1.39,1.39,0,0,1,122.37,76.28Z"/><path class="cls-14" d="M130.29,76.28a1.4,1.4,0,1,1-1.4-1.4A1.39,1.39,0,0,1,130.29,76.28Z"/><path class="cls-14" d="M23.49,82.91a1.4,1.4,0,1,1-1.4-1.4A1.4,1.4,0,0,1,23.49,82.91Z"/><path class="cls-14" d="M31.41,82.91a1.4,1.4,0,1,1-1.4-1.4A1.4,1.4,0,0,1,31.41,82.91Z"/><path class="cls-14" d="M39.33,82.91a1.4,1.4,0,1,1-1.4-1.4A1.4,1.4,0,0,1,39.33,82.91Z"/><path class="cls-14" d="M47.25,82.91a1.4,1.4,0,1,1-1.4-1.4A1.4,1.4,0,0,1,47.25,82.91Z"/><path class="cls-14" d="M55.17,82.91a1.4,1.4,0,1,1-1.4-1.4A1.4,1.4,0,0,1,55.17,82.91Z"/><path class="cls-14" d="M63.08,82.91a1.4,1.4,0,1,1-1.39-1.4A1.4,1.4,0,0,1,63.08,82.91Z"/><path class="cls-14" d="M71,82.91a1.4,1.4,0,1,1-1.39-1.4A1.4,1.4,0,0,1,71,82.91Z"/><path class="cls-14" d="M78.92,82.91a1.4,1.4,0,1,1-1.4-1.4A1.4,1.4,0,0,1,78.92,82.91Z"/><path class="cls-14" d="M86.84,82.91a1.4,1.4,0,1,1-1.4-1.4A1.4,1.4,0,0,1,86.84,82.91Z"/><path class="cls-14" d="M94.76,82.91a1.4,1.4,0,1,1-1.4-1.4A1.4,1.4,0,0,1,94.76,82.91Z"/><path class="cls-14" d="M102.68,82.91a1.4,1.4,0,1,1-1.4-1.4A1.4,1.4,0,0,1,102.68,82.91Z"/><path class="cls-14" d="M110.6,82.91a1.4,1.4,0,1,1-1.4-1.4A1.4,1.4,0,0,1,110.6,82.91Z"/><path class="cls-14" d="M118.52,82.91a1.4,1.4,0,1,1-1.4-1.4A1.4,1.4,0,0,1,118.52,82.91Z"/><path class="cls-14" d="M126.44,82.91a1.4,1.4,0,1,1-1.4-1.4A1.4,1.4,0,0,1,126.44,82.91Z"/><path class="cls-14" d="M134.36,82.91a1.4,1.4,0,1,1-1.4-1.4A1.4,1.4,0,0,1,134.36,82.91Z"/><path class="cls-14" d="M19.42,89.12a1.4,1.4,0,1,1-1.4-1.4A1.4,1.4,0,0,1,19.42,89.12Z"/><path class="cls-14" d="M27.34,89.12a1.4,1.4,0,1,1-1.4-1.4A1.4,1.4,0,0,1,27.34,89.12Z"/><path class="cls-14" d="M35.26,89.12a1.4,1.4,0,1,1-1.4-1.4A1.4,1.4,0,0,1,35.26,89.12Z"/><circle class="cls-14" cx="41.78" cy="89.12" r="1.4"/><path class="cls-14" d="M51.1,89.12a1.4,1.4,0,1,1-1.4-1.4A1.4,1.4,0,0,1,51.1,89.12Z"/><circle class="cls-14" cx="57.62" cy="89.12" r="1.4"/><path class="cls-14" d="M66.94,89.12a1.4,1.4,0,1,1-1.4-1.4A1.4,1.4,0,0,1,66.94,89.12Z"/><path class="cls-14" d="M74.86,89.12a1.4,1.4,0,1,1-1.4-1.4A1.4,1.4,0,0,1,74.86,89.12Z"/><path class="cls-14" d="M82.78,89.12a1.4,1.4,0,1,1-1.4-1.4A1.4,1.4,0,0,1,82.78,89.12Z"/><path class="cls-14" d="M90.7,89.12a1.4,1.4,0,1,1-1.4-1.4A1.4,1.4,0,0,1,90.7,89.12Z"/><path class="cls-14" d="M98.61,89.12a1.4,1.4,0,1,1-1.39-1.4A1.4,1.4,0,0,1,98.61,89.12Z"/><path class="cls-14" d="M106.53,89.12a1.4,1.4,0,1,1-1.4-1.4A1.4,1.4,0,0,1,106.53,89.12Z"/><circle class="cls-14" cx="113.05" cy="89.12" r="1.4"/><path class="cls-14" d="M122.37,89.12a1.4,1.4,0,1,1-1.4-1.4A1.4,1.4,0,0,1,122.37,89.12Z"/><circle class="cls-14" cx="128.89" cy="89.12" r="1.4"/><path class="cls-14" d="M23.49,95.75a1.4,1.4,0,1,1-1.4-1.4A1.4,1.4,0,0,1,23.49,95.75Z"/><path class="cls-14" d="M31.41,95.75a1.4,1.4,0,1,1-1.4-1.4A1.4,1.4,0,0,1,31.41,95.75Z"/><path class="cls-14" d="M39.33,95.75a1.4,1.4,0,1,1-1.4-1.4A1.4,1.4,0,0,1,39.33,95.75Z"/><path class="cls-14" d="M47.25,95.75a1.4,1.4,0,1,1-1.4-1.4A1.4,1.4,0,0,1,47.25,95.75Z"/><path class="cls-14" d="M55.17,95.75a1.4,1.4,0,1,1-1.4-1.4A1.4,1.4,0,0,1,55.17,95.75Z"/><path class="cls-14" d="M63.08,95.75a1.4,1.4,0,1,1-1.39-1.4A1.39,1.39,0,0,1,63.08,95.75Z"/><path class="cls-14" d="M71,95.75a1.4,1.4,0,1,1-1.39-1.4A1.39,1.39,0,0,1,71,95.75Z"/><path class="cls-14" d="M78.92,95.75a1.4,1.4,0,1,1-1.4-1.4A1.39,1.39,0,0,1,78.92,95.75Z"/><path class="cls-14" d="M86.84,95.75a1.4,1.4,0,1,1-1.4-1.4A1.39,1.39,0,0,1,86.84,95.75Z"/><path class="cls-14" d="M94.76,95.75a1.4,1.4,0,1,1-1.4-1.4A1.39,1.39,0,0,1,94.76,95.75Z"/><path class="cls-14" d="M102.68,95.75a1.4,1.4,0,1,1-1.4-1.4A1.4,1.4,0,0,1,102.68,95.75Z"/><path class="cls-14" d="M110.6,95.75a1.4,1.4,0,1,1-1.4-1.4A1.4,1.4,0,0,1,110.6,95.75Z"/><path class="cls-14" d="M118.52,95.75a1.4,1.4,0,1,1-1.4-1.4A1.4,1.4,0,0,1,118.52,95.75Z"/><path class="cls-14" d="M126.44,95.75a1.4,1.4,0,1,1-1.4-1.4A1.4,1.4,0,0,1,126.44,95.75Z"/><path class="cls-14" d="M134.36,95.75a1.4,1.4,0,1,1-1.4-1.4A1.4,1.4,0,0,1,134.36,95.75Z"/><path class="cls-14" d="M19.42,102a1.4,1.4,0,1,1-1.4-1.4A1.4,1.4,0,0,1,19.42,102Z"/><path class="cls-14" d="M27.34,102a1.4,1.4,0,1,1-1.4-1.4A1.4,1.4,0,0,1,27.34,102Z"/><path class="cls-14" d="M35.26,102a1.4,1.4,0,1,1-1.4-1.4A1.4,1.4,0,0,1,35.26,102Z"/><path class="cls-14" d="M43.18,102a1.4,1.4,0,1,1-1.4-1.4A1.4,1.4,0,0,1,43.18,102Z"/><path class="cls-14" d="M51.1,102a1.4,1.4,0,1,1-1.4-1.4A1.4,1.4,0,0,1,51.1,102Z"/><path class="cls-14" d="M59,102a1.4,1.4,0,1,1-1.4-1.4A1.4,1.4,0,0,1,59,102Z"/><path class="cls-14" d="M66.94,102a1.4,1.4,0,1,1-1.4-1.4A1.4,1.4,0,0,1,66.94,102Z"/><path class="cls-14" d="M74.86,102a1.4,1.4,0,1,1-1.4-1.4A1.4,1.4,0,0,1,74.86,102Z"/><path class="cls-14" d="M82.78,102a1.4,1.4,0,1,1-1.4-1.4A1.4,1.4,0,0,1,82.78,102Z"/><path class="cls-14" d="M90.7,102a1.4,1.4,0,1,1-1.4-1.4A1.4,1.4,0,0,1,90.7,102Z"/><path class="cls-14" d="M98.61,102a1.4,1.4,0,1,1-1.39-1.4A1.4,1.4,0,0,1,98.61,102Z"/><path class="cls-14" d="M106.53,102a1.4,1.4,0,1,1-1.4-1.4A1.4,1.4,0,0,1,106.53,102Z"/><path class="cls-14" d="M114.45,102a1.4,1.4,0,1,1-1.4-1.4A1.4,1.4,0,0,1,114.45,102Z"/><path class="cls-14" d="M122.37,102a1.4,1.4,0,1,1-1.4-1.4A1.4,1.4,0,0,1,122.37,102Z"/><path class="cls-14" d="M130.29,102a1.4,1.4,0,1,1-1.4-1.4A1.4,1.4,0,0,1,130.29,102Z"/><path class="cls-14" d="M23.49,108.59a1.4,1.4,0,1,1-1.4-1.39A1.4,1.4,0,0,1,23.49,108.59Z"/><circle class="cls-14" cx="30.01" cy="108.59" r="1.4"/><path class="cls-14" d="M39.33,108.59a1.4,1.4,0,1,1-1.4-1.39A1.4,1.4,0,0,1,39.33,108.59Z"/><circle class="cls-14" cx="45.85" cy="108.59" r="1.4"/><circle class="cls-14" cx="53.77" cy="108.59" r="1.4"/><circle class="cls-14" cx="61.69" cy="108.59" r="1.4"/><path class="cls-14" d="M71,108.59a1.4,1.4,0,1,1-1.39-1.39A1.39,1.39,0,0,1,71,108.59Z"/><path class="cls-14" d="M78.92,108.59a1.4,1.4,0,1,1-1.4-1.39A1.39,1.39,0,0,1,78.92,108.59Z"/><path class="cls-14" d="M86.84,108.59a1.4,1.4,0,1,1-1.4-1.39A1.39,1.39,0,0,1,86.84,108.59Z"/><path class="cls-14" d="M94.76,108.59a1.4,1.4,0,1,1-1.4-1.39A1.39,1.39,0,0,1,94.76,108.59Z"/><circle class="cls-14" cx="101.28" cy="108.59" r="1.4"/><path class="cls-14" d="M110.6,108.59a1.4,1.4,0,1,1-1.4-1.39A1.4,1.4,0,0,1,110.6,108.59Z"/><circle class="cls-14" cx="117.12" cy="108.59" r="1.4"/><circle class="cls-14" cx="125.04" cy="108.59" r="1.4"/><circle class="cls-14" cx="132.96" cy="108.59" r="1.4"/><path class="cls-14" d="M19.42,114.8a1.4,1.4,0,1,1-1.4-1.4A1.4,1.4,0,0,1,19.42,114.8Z"/><path class="cls-14" d="M27.34,114.8a1.4,1.4,0,1,1-1.4-1.4A1.4,1.4,0,0,1,27.34,114.8Z"/><path class="cls-14" d="M35.26,114.8a1.4,1.4,0,1,1-1.4-1.4A1.4,1.4,0,0,1,35.26,114.8Z"/><path class="cls-14" d="M43.18,114.8a1.4,1.4,0,1,1-1.4-1.4A1.4,1.4,0,0,1,43.18,114.8Z"/><path class="cls-14" d="M51.1,114.8a1.4,1.4,0,1,1-1.4-1.4A1.4,1.4,0,0,1,51.1,114.8Z"/><path class="cls-14" d="M59,114.8a1.4,1.4,0,1,1-1.4-1.4A1.4,1.4,0,0,1,59,114.8Z"/><path class="cls-14" d="M66.94,114.8a1.4,1.4,0,1,1-1.4-1.4A1.4,1.4,0,0,1,66.94,114.8Z"/><path class="cls-14" d="M74.86,114.8a1.4,1.4,0,1,1-1.4-1.4A1.4,1.4,0,0,1,74.86,114.8Z"/><path class="cls-14" d="M82.78,114.8a1.4,1.4,0,1,1-1.4-1.4A1.4,1.4,0,0,1,82.78,114.8Z"/><path class="cls-14" d="M90.7,114.8a1.4,1.4,0,1,1-1.4-1.4A1.4,1.4,0,0,1,90.7,114.8Z"/><path class="cls-14" d="M98.61,114.8a1.4,1.4,0,1,1-1.39-1.4A1.4,1.4,0,0,1,98.61,114.8Z"/><path class="cls-14" d="M106.53,114.8a1.4,1.4,0,1,1-1.4-1.4A1.4,1.4,0,0,1,106.53,114.8Z"/><path class="cls-14" d="M114.45,114.8a1.4,1.4,0,1,1-1.4-1.4A1.4,1.4,0,0,1,114.45,114.8Z"/><path class="cls-14" d="M122.37,114.8a1.4,1.4,0,1,1-1.4-1.4A1.4,1.4,0,0,1,122.37,114.8Z"/><path class="cls-14" d="M130.29,114.8a1.4,1.4,0,1,1-1.4-1.4A1.4,1.4,0,0,1,130.29,114.8Z"/><path class="cls-14" d="M23.49,121.44a1.4,1.4,0,1,1-1.4-1.4A1.4,1.4,0,0,1,23.49,121.44Z"/><circle class="cls-14" cx="30.01" cy="121.44" r="1.4"/><path class="cls-14" d="M39.33,121.44a1.4,1.4,0,1,1-1.4-1.4A1.4,1.4,0,0,1,39.33,121.44Z"/><circle class="cls-14" cx="45.85" cy="121.44" r="1.4"/><circle class="cls-14" cx="53.77" cy="121.44" r="1.4"/><circle class="cls-14" cx="61.69" cy="121.44" r="1.4"/><path class="cls-14" d="M71,121.44a1.4,1.4,0,1,1-1.39-1.4A1.4,1.4,0,0,1,71,121.44Z"/><path class="cls-14" d="M78.92,121.44a1.4,1.4,0,1,1-1.4-1.4A1.4,1.4,0,0,1,78.92,121.44Z"/><path class="cls-14" d="M86.84,121.44a1.4,1.4,0,1,1-1.4-1.4A1.4,1.4,0,0,1,86.84,121.44Z"/><path class="cls-14" d="M94.76,121.44a1.4,1.4,0,1,1-1.4-1.4A1.4,1.4,0,0,1,94.76,121.44Z"/><circle class="cls-14" cx="101.28" cy="121.44" r="1.4"/><path class="cls-14" d="M110.6,121.44a1.4,1.4,0,1,1-1.4-1.4A1.4,1.4,0,0,1,110.6,121.44Z"/><circle class="cls-14" cx="117.12" cy="121.44" r="1.4"/><circle class="cls-14" cx="125.04" cy="121.44" r="1.4"/><circle class="cls-14" cx="132.96" cy="121.44" r="1.4"/><path class="cls-14" d="M19.42,127.64a1.4,1.4,0,1,1-1.4-1.39A1.39,1.39,0,0,1,19.42,127.64Z"/><path class="cls-14" d="M27.34,127.64a1.4,1.4,0,1,1-1.4-1.39A1.4,1.4,0,0,1,27.34,127.64Z"/><path class="cls-14" d="M35.26,127.64a1.4,1.4,0,1,1-1.4-1.39A1.4,1.4,0,0,1,35.26,127.64Z"/><path class="cls-14" d="M43.18,127.64a1.4,1.4,0,1,1-1.4-1.39A1.4,1.4,0,0,1,43.18,127.64Z"/><path class="cls-14" d="M51.1,127.64a1.4,1.4,0,1,1-1.4-1.39A1.4,1.4,0,0,1,51.1,127.64Z"/><path class="cls-14" d="M59,127.64a1.4,1.4,0,1,1-1.4-1.39A1.4,1.4,0,0,1,59,127.64Z"/><path class="cls-14" d="M66.94,127.64a1.4,1.4,0,1,1-1.4-1.39A1.4,1.4,0,0,1,66.94,127.64Z"/><path class="cls-14" d="M74.86,127.64a1.4,1.4,0,1,1-1.4-1.39A1.4,1.4,0,0,1,74.86,127.64Z"/><path class="cls-14" d="M82.78,127.64a1.4,1.4,0,1,1-1.4-1.39A1.4,1.4,0,0,1,82.78,127.64Z"/><path class="cls-14" d="M90.7,127.64a1.4,1.4,0,1,1-1.4-1.39A1.4,1.4,0,0,1,90.7,127.64Z"/><path class="cls-14" d="M98.61,127.64a1.4,1.4,0,1,1-1.39-1.39A1.39,1.39,0,0,1,98.61,127.64Z"/><path class="cls-14" d="M106.53,127.64a1.4,1.4,0,1,1-1.4-1.39A1.39,1.39,0,0,1,106.53,127.64Z"/><path class="cls-14" d="M114.45,127.64a1.4,1.4,0,1,1-1.4-1.39A1.39,1.39,0,0,1,114.45,127.64Z"/><path class="cls-14" d="M122.37,127.64a1.4,1.4,0,1,1-1.4-1.39A1.39,1.39,0,0,1,122.37,127.64Z"/><path class="cls-14" d="M130.29,127.64a1.4,1.4,0,1,1-1.4-1.39A1.39,1.39,0,0,1,130.29,127.64Z"/></g></g><path class="cls-14" d="M51.77,92.45c8.53-1.14,10.78-15.31,10.6-21.24C54.23,76.12,49.67,79.56,39.51,82,40.78,85.64,44.37,93.43,51.77,92.45Z"/><path class="cls-15" d="M50.51,92.71c-6.71,0-10-7.34-11.17-10.65a.25.25,0,0,1,0-.15.18.18,0,0,1,.12-.09c8.68-2.08,13.22-4.88,19.51-8.74,1.05-.65,2.14-1.32,3.3-2a.17.17,0,0,1,.18,0,.2.2,0,0,1,.1.15c.18,6.23-2.27,20.28-10.76,21.42h0A9.5,9.5,0,0,1,50.51,92.71Zm1.26-.26h0Zm-12-10.32c1.26,3.52,4.82,11.09,12,10.14h0c8.11-1.08,10.54-14.46,10.45-20.74l-3,1.85C52.9,77.24,48.36,80,39.75,82.13Z"/><path class="cls-20" d="M65.74,69.23c-1.2.69-2.31,1.35-3.37,2,.18,5.93-2.07,20.1-10.6,21.24-7.4,1-11-6.81-12.26-10.45l-1.65.37s3.1,19.54,15,19.11S70.23,78.55,65.74,69.23Z"/><path class="cls-21" d="M52.43,101.67c-11.56,0-14.71-19.07-14.75-19.27a.18.18,0,0,1,.15-.2l1.64-.38a.2.2,0,0,1,.22.12c1.19,3.43,4.75,11.31,12.06,10.33,8.25-1.1,10.62-14.92,10.44-21a.17.17,0,0,1,.09-.16c1.2-.72,2.3-1.37,3.37-2a.17.17,0,0,1,.14,0,.18.18,0,0,1,.11.1c3,6.15,1.62,17.76-3,25.34-2.74,4.54-6.25,7-10.14,7.16ZM38.07,82.51c.34,1.89,3.68,18.8,14.36,18.8h.37c4.75-.17,8-3.9,9.84-7,4.47-7.42,5.83-18.72,3-24.82-1,.57-2,1.17-3.1,1.83.15,6.28-2.32,20.18-10.76,21.31a9.5,9.5,0,0,1-1.29.08c-6.6,0-9.92-7.12-11.11-10.5Z"/><g class="cls-10"><path class="cls-20" d="M65.74,69.23c-1.2.69-2.31,1.35-3.37,2,.18,5.93-2.07,20.1-10.6,21.24-7.4,1-11-6.81-12.26-10.45l-1.65.37a38.17,38.17,0,0,0,1,4.06c.29-.74.84-.79,1.85,1,4.57,8,14.16,11.18,19.89.17,3.43-7,5.45-1.49,1.32,5.81S48.75,104,42.06,93.92a1.6,1.6,0,0,1-.1.23c2.31,4,5.78,7.51,10.85,7.33C64.66,101.05,70.23,78.55,65.74,69.23Z"/></g><g class="cls-10"><path class="cls-14" d="M62.37,71.21C54.23,76.12,49.67,79.56,39.51,82a27.39,27.39,0,0,0,1.17,2.82,23.89,23.89,0,0,0,13.53-4c6.62-4.64,6.11,7.48-2.06,9.19s-10.91-4.21-10.91-4.21h0c1.94,3.54,5.28,7.3,10.55,6.6C60.3,91.31,62.55,77.14,62.37,71.21Z"/></g><path class="cls-13" d="M49.43,98.62c-1-.66-2.15-1.21-3.15-2A17.75,17.75,0,0,1,43.5,94a19.34,19.34,0,0,1-3.58-6.36c0-.07-.15.08-.13.13a15.62,15.62,0,0,0,3.35,6.78,17.74,17.74,0,0,0,2.65,2.55,11.2,11.2,0,0,0,3.36,1.94C49.32,99.12,49.59,98.72,49.43,98.62Z"/><path class="cls-13" d="M51.08,99.24l-.57-.14L49.93,99s-.08,0-.1,0a.44.44,0,0,0-.09.11s-.08.19,0,.21l.54.21c.17.07.36.12.54.18S51.31,99.29,51.08,99.24Z"/><path class="cls-3" d="M23.53,4.22S39.79-3.55,57.91,2.45C75.17,8.16,86.56,30.16,80,49.74c1.07,6.35-3.48,13.17-7.74,13.52,0,0-11.84,19.39-34.64,20.19C12.74,84.33-3.17,64.67,3.25,48.13c1.61-3.85,1.76-5.81.64-11.39C2.45,29.51,2.79,14.84,23.53,4.22Z"/><path class="cls-4" d="M36,83.66c-12.41,0-23.43-5.16-29.7-14-4.78-6.72-6-14.6-3.24-21.6,1.61-3.86,1.72-5.86.63-11.3A25.67,25.67,0,0,1,5.23,21.68c3-7,9.1-13,18.22-17.62h0C23.62,4,40-3.67,58,2.28c8.24,2.73,15.47,9.31,19.84,18a38.78,38.78,0,0,1,2.36,29.43,13.83,13.83,0,0,1-2.79,10.37,7.87,7.87,0,0,1-5,3.31c-.87,1.34-12.84,19.42-34.74,20.19Q36.82,83.66,36,83.66ZM23.61,4.38c-9,4.63-15.11,10.5-18,17.44A25.34,25.34,0,0,0,4.07,36.7c1.1,5.52,1,7.57-.65,11.5C.74,55.09,1.91,62.84,6.61,69.46c6.47,9.1,18.05,14.27,31,13.81C60,82.48,72,63.36,72.08,63.17a.24.24,0,0,1,.14-.09,7.43,7.43,0,0,0,4.88-3.17,13.49,13.49,0,0,0,2.7-10.14.28.28,0,0,1,0-.09,38.41,38.41,0,0,0-2.33-29.19C73.16,11.83,66,5.32,57.85,2.62,40.07-3.27,23.87,4.26,23.61,4.38Z"/><path class="cls-13" d="M13.63,74.14a10,10,0,0,0-1.76-1.47c-.61-.47-1.2-1-1.78-1.48A24.66,24.66,0,0,1,2.88,59.11c0-.12-.19.09-.17.16a22.13,22.13,0,0,0,3.53,9.11,22.72,22.72,0,0,0,3,3.61,19.52,19.52,0,0,0,1.82,1.57,5.7,5.7,0,0,0,2.15,1.19C13.45,74.8,13.76,74.3,13.63,74.14Z"/><path class="cls-13" d="M15,75.59v0a.2.2,0,0,0,0-.11l-.08-.1a.34.34,0,0,0-.09-.08l0,0a1.33,1.33,0,0,1-.19-.14.1.1,0,0,0-.09,0,.21.21,0,0,0-.11,0l-.08.06a.63.63,0,0,0-.11.12.88.88,0,0,0-.12.26l0,.09a.26.26,0,0,0,0,.15l.15.19a.81.81,0,0,0,.12.14l.09.08a.11.11,0,0,0,.1,0,.21.21,0,0,0,.11,0l.08-.07a.49.49,0,0,0,.12-.13l0-.06h0l.06-.11s0,0,0-.06,0,0,0,0Z"/><g class="cls-7"><path class="cls-3" d="M74.53,61.58c-1.86.05-3.93-1.3-4.1-3.27a3,3,0,0,1,1.13-2.49,4.52,4.52,0,0,1,1.58-.67c.7-.21,1.41-.39,2.09-.64.39-.13,1.14-.35,1.31-.76s-.78-1.1-1.13-1.23c-.76-.3-1.71,0-2.39-.54a2.73,2.73,0,0,1-.75-2.81,3.34,3.34,0,0,1,1.91-1.92A4.16,4.16,0,0,1,76.89,47a6.19,6.19,0,0,1,2.47,1.42,10,10,0,0,1,.73.73C86.35,29.65,75,7.94,57.88,2.27,39.76-3.72,23.51,4,23.51,4c-14.9,7.63-19.28,17.35-20,24.9a10.45,10.45,0,0,1,3.59-3.5c3.52-2.11,5.64-3,9.34-9.52S23.59,6.43,33.36,4.63c11.47-2.12,24.7,4.58,32.28,22.93S66.7,76.25,39,81.19C27.22,83.58,14.42,78.48,7.77,71.11,14,78.54,24.53,83.73,37.58,83.27c22.79-.8,34.63-20.18,34.63-20.18a6.36,6.36,0,0,0,3.51-1.66A6.68,6.68,0,0,1,74.53,61.58Z"/></g><path class="cls-4" d="M76.57,43.73a7.13,7.13,0,0,0-7.69.44,7.25,7.25,0,0,0-2.65,3.32c0,.14.08.1.12,0a7.1,7.1,0,0,1,8-3.75,7,7,0,0,1,3.85,2.76,7.41,7.41,0,0,1,1,2.15,16,16,0,0,1,.37,2.27c0,.32.43-.17.46-.28C80.66,48,78.83,45.07,76.57,43.73Z"/><path class="cls-4" d="M72.5,63.06c-.61-.07-1.23-.1-1.84-.23a8.27,8.27,0,0,1-1.83-.64,9.25,9.25,0,0,1-3-2.32c-.08-.1-.26.16-.2.24a7,7,0,0,0,2.88,2.68,6.55,6.55,0,0,0,3.82.76C72.46,63.53,72.71,63.09,72.5,63.06Z"/><path class="cls-22" d="M70.74,52.74a7,7,0,0,0,.76,6.19c.08.11.12,0,.09-.12a7.09,7.09,0,0,1-.77-3.58,2.55,2.55,0,0,0,1,1.31,2.92,2.92,0,0,0,3.14,0c.16-.12,0-.62-.21-.61-.69,0-1.33.26-2,.21a2.24,2.24,0,0,1-1.89-1.45,8,8,0,0,1,.48-2,5.51,5.51,0,0,1,1.5-2.23c.9-.83,1.79-.4,2.81-.27.29,0,.09-.49,0-.57C73.1,48.12,71.47,50.54,70.74,52.74Z"/><path class="cls-5" d="M2.69,49.73a10.92,10.92,0,0,1,8.36,2.17l-.32-1.21s4.54-1.46,2.91-8c-.48-1.94-2.36-5.11-4.51-5.48C6.72,36.77,5,38.68,4.47,40.8a15.1,15.1,0,0,0-.09,4.14,17.42,17.42,0,0,0,.69,2.88A4.67,4.67,0,0,0,2.69,49.73Z"/><path class="cls-4" d="M3.31,49.37a2.54,2.54,0,0,1,.32-.11,6.69,6.69,0,0,1,.87-.17c.19,0,.39,0,.6,0a3.06,3.06,0,0,1,.67,0l.7.09c.24,0,.48.12.72.18s.47.14.7.23l.64.31c.21.09.41.2.59.29a5.19,5.19,0,0,1,.49.35c.59.43,1,.74,1,.74s-.44-.22-1.07-.57c-.16-.09-.32-.2-.51-.29l-.6-.24-.63-.28c-.22-.08-.45-.13-.68-.2s-.45-.15-.68-.2l-.68-.11a4.81,4.81,0,0,0-.64-.07l-.58,0c-.35,0-.66,0-.86,0Z"/><path class="cls-23" d="M12.92,42.09a8.28,8.28,0,0,1-.23,5.67A4,4,0,0,1,8.85,50a5,5,0,0,1-3.53-3.32C4.38,44,4.53,40,6.92,38.4c2.11-1.42,4.53.34,5.52,2.44A9,9,0,0,1,12.92,42.09Z"/><path class="cls-24" d="M12.92,42.09l.09.35a8,8,0,0,1,.22,1,9.72,9.72,0,0,1,.09,1.62A8.71,8.71,0,0,1,13,47.14c-.07.19-.14.37-.2.56a5.61,5.61,0,0,1-.29.54c-.12.17-.26.34-.4.51s-.31.31-.48.45A3.9,3.9,0,0,1,9,50.1,4.1,4.1,0,0,1,8.25,50a7.28,7.28,0,0,1-.71-.31,5,5,0,0,1-1.19-1,6.34,6.34,0,0,1-1.44-2.75,9.79,9.79,0,0,1-.27-3.09A6.94,6.94,0,0,1,5.41,40a4.28,4.28,0,0,1,2-1.91,3,3,0,0,1,2.45.11,5,5,0,0,1,1.65,1.28,6,6,0,0,1,.89,1.34C12.75,41.6,12.92,42.09,12.92,42.09Zm0,0s-.18-.48-.52-1.31a6,6,0,0,0-.9-1.33,4.75,4.75,0,0,0-1.66-1.22,2.88,2.88,0,0,0-2.34,0,4.06,4.06,0,0,0-1.85,1.88,8.64,8.64,0,0,0-.38,5.76A6,6,0,0,0,6.6,48.46,3.92,3.92,0,0,0,9,49.84a3.65,3.65,0,0,0,2.49-.77c.18-.13.33-.28.49-.42s.27-.31.39-.47a5.72,5.72,0,0,0,.3-.52c.08-.18.15-.36.22-.54a7.75,7.75,0,0,0,.39-2,9.87,9.87,0,0,0-.07-1.61,8.72,8.72,0,0,0-.2-1Z"/><g class="cls-25"><path class="cls-26" d="M6.92,38.4l.23-.12C5,39.78,4.83,43.41,5.7,45.83a4.52,4.52,0,0,0,3.24,3,3.66,3.66,0,0,0,3.51-2,7.56,7.56,0,0,0,.22-5.21,8.67,8.67,0,0,0-.44-1.14,3.55,3.55,0,0,0-.23-.43,5.43,5.43,0,0,1,.44.77,9,9,0,0,1,.48,1.25,8.28,8.28,0,0,1-.23,5.67A4,4,0,0,1,8.85,50a5,5,0,0,1-3.53-3.32C4.38,44,4.53,40,6.92,38.4Z"/></g><path class="cls-27" d="M5.9,44.24C6,46.89,7.19,49,9.09,49.11s3.44-1.7,3.28-4.35-1.91-5.12-3.6-5.17S5.79,41.59,5.9,44.24Z"/><g class="cls-10"><path class="cls-28" d="M9.09,49.11c1.89.15,3.44-1.7,3.28-4.35s-1.91-5.12-3.6-5.17-3,2-2.87,4.65S7.19,49,9.09,49.11ZM6.1,44C6,41.52,7.23,39.67,8.79,39.72s3.14,2.29,3.32,4.74-1.28,4.17-3.06,4S6.2,46.4,6.1,44Z"/></g><g class="cls-7"><path class="cls-29" d="M9.09,49.11c1.89.15,3.44-1.7,3.28-4.35s-1.91-5.12-3.6-5.17-3,2-2.87,4.65S7.19,49,9.09,49.11ZM6.85,42c.61-.71.7-.25.48.39s-.89,2.77.14,4.18c.49.67,1.17.94,1.21,1.17s-1.42.3-2-1.14A5.25,5.25,0,0,1,6.85,42Z"/></g><g class="cls-7"><path class="cls-29" d="M6.93,44.65c0-1.8.91-3.12,2.16-3a1.18,1.18,0,0,1,.25,0,.8.8,0,0,1,.62-.54c.54,0,1.14.64,1.32,1.5a2.24,2.24,0,0,1,0,1,4.54,4.54,0,0,1,.3,1.4c.11,1.78-1,3-2.35,2.92S7,46.44,6.93,44.65Z"/></g><path class="cls-30" d="M7.52,44.64c0,1.33.75,2.42,1.76,2.51s1.84-.86,1.78-2.2a2.58,2.58,0,0,0-1.89-2.56C8.22,42.3,7.49,43.29,7.52,44.64Z"/><g class="cls-7"><path class="cls-29" d="M8.56,42.93c.57,1.22,1.81,2,2.62,1.71s.89-1.61.3-2.79S9.78,39.7,9,40.08,8,41.7,8.56,42.93Z"/></g><path class="cls-13" d="M9.17,42.71c.43.93,1.35,1.54,1.94,1.31s.65-1.22.19-2.11S10,40.29,9.45,40.56,8.73,41.78,9.17,42.71Z"/><g class="cls-31"><path class="cls-27" d="M6.68,43.5c-.06,1.06,0,3.14,1.5,3.92.87.46-1.18.46-1.72-1.78C6,43.93,6.76,42.16,6.68,43.5Z"/></g><g class="cls-31"><path class="cls-27" d="M6.84,42.34c.23.06.14.63-.17.56S6.53,42.28,6.84,42.34Z"/></g><path class="cls-5" d="M42.57,43.93a15,15,0,0,0-9.67,6.12l-.09-1.59s-6.36.14-7.06-8.47c-.2-2.53.8-6.13,3.36-7.48C32,31,35,32.57,36.53,34.92a15,15,0,0,1,1.92,4.36,15.94,15.94,0,0,1,.3,3.34A6.44,6.44,0,0,1,42.57,43.93Z"/><path class="cls-4" d="M41.62,43.76a3.77,3.77,0,0,0-.43.09,11.39,11.39,0,0,0-1.11.31c-.23.07-.46.18-.71.28a5.89,5.89,0,0,0-.77.35l-.81.43a7.56,7.56,0,0,0-.79.51c-.25.18-.52.34-.77.52l-.69.6-.66.55c-.2.18-.36.39-.53.56-.64.7-1.11,1.15-1.11,1.15s.35-.54.92-1.32c.15-.19.29-.42.48-.62l.63-.62c.22-.21.45-.42.68-.65s.53-.37.8-.55a8,8,0,0,1,.82-.52l.86-.4a3.92,3.92,0,0,1,.82-.31c.27-.07.52-.16.76-.21a7,7,0,0,1,1.17-.15A2.5,2.5,0,0,1,41.62,43.76Z"/><path class="cls-23" d="M27,39.58a9.43,9.43,0,0,0,2.49,6.27,5.06,5.06,0,0,0,5.36,1,5.89,5.89,0,0,0,2.86-5.09c.07-3.33-1.65-7.73-5.1-8.61-3-.78-5.18,2.14-5.53,4.88A10.39,10.39,0,0,0,27,39.58Z"/><path class="cls-24" d="M27,39.58s0,.15,0,.44a10.49,10.49,0,0,0,.16,1.24c.07.26.14.55.22.87s.2.64.35,1A8.24,8.24,0,0,0,29,45.26a4.93,4.93,0,0,0,5.57,1.48,4.77,4.77,0,0,0,2.29-2.45,6.78,6.78,0,0,0,.55-3.49,11,11,0,0,0-.81-3.49,8.59,8.59,0,0,0-1.93-2.87,4.85,4.85,0,0,0-2.89-1.33,3.7,3.7,0,0,0-2.68.93,5.77,5.77,0,0,0-1.48,2,6.62,6.62,0,0,0-.55,1.85c-.06.54-.06,1-.08,1.25Zm0,0s0-.15,0-.44,0-.71.07-1.25A6.71,6.71,0,0,1,27.62,36,6.28,6.28,0,0,1,29.07,34a3.85,3.85,0,0,1,2.77-1.05,5.11,5.11,0,0,1,3.08,1.29A8.22,8.22,0,0,1,37,37.15a11.44,11.44,0,0,1,.89,3.63,7.09,7.09,0,0,1-.64,3.68,5.93,5.93,0,0,1-1,1.54,6.64,6.64,0,0,1-.71.6,4.79,4.79,0,0,1-.78.43,4.88,4.88,0,0,1-3.35,0,5.56,5.56,0,0,1-1.4-.7,6.44,6.44,0,0,1-.56-.48L29,45.33a9.77,9.77,0,0,1-1.25-2.2c-.14-.35-.24-.69-.34-1s-.14-.61-.2-.87c-.08-.54-.14-1-.15-1.25S27,39.58,27,39.58Z"/><g class="cls-25"><path class="cls-26" d="M32.61,33.12c-.1,0-.21,0-.31-.06C35.45,33.89,37,37.9,37,41a5.43,5.43,0,0,1-2.62,4.68,4.66,4.66,0,0,1-4.92-.9A8.61,8.61,0,0,1,27.12,39a10.06,10.06,0,0,1,.07-1.45A5.54,5.54,0,0,1,27.3,37a6.31,6.31,0,0,0-.22,1A10.39,10.39,0,0,0,27,39.58a9.43,9.43,0,0,0,2.49,6.27,5.06,5.06,0,0,0,5.36,1,5.89,5.89,0,0,0,2.86-5.09C37.78,38.4,36.06,34,32.61,33.12Z"/></g><path class="cls-27" d="M28.65,40.52c.11,3.08,1.49,5.49,3.7,5.67s4-2,3.81-5.06-2.22-6-4.17-6S28.52,37.44,28.65,40.52Z"/><g class="cls-10"><path class="cls-28" d="M32.35,46.19c2.2.18,4-2,3.81-5.06s-2.22-6-4.17-6-3.47,2.31-3.34,5.39S30.14,46,32.35,46.19Zm-3.47-6c-.11-2.83,1.31-5,3.13-4.93s3.64,2.67,3.85,5.51-1.49,4.84-3.56,4.67S29,43,28.88,40.2Z"/></g><g class="cls-7"><path class="cls-29" d="M32.35,46.19c2.2.18,4-2,3.81-5.06s-2.22-6-4.17-6-3.47,2.31-3.34,5.39S30.14,46,32.35,46.19Zm-2.6-8.27c.71-.82.81-.28.55.46s-1,3.22.17,4.86c.57.77,1.36,1.09,1.4,1.36s-1.65.35-2.38-1.33C28.63,41.35,29,38.76,29.75,37.92Z"/></g><g class="cls-7"><path class="cls-29" d="M29.85,41c-.06-2.09,1-3.63,2.5-3.48a1.17,1.17,0,0,1,.3,0,.9.9,0,0,1,.72-.63c.62,0,1.32.75,1.52,1.74a2.38,2.38,0,0,1,0,1.16,5.38,5.38,0,0,1,.36,1.63c.12,2.07-1.18,3.53-2.74,3.4S29.92,43.09,29.85,41Z"/></g><path class="cls-30" d="M30.53,41c0,1.55.87,2.82,2,2.92s2.14-1,2.06-2.56-1.09-2.87-2.2-3S30.49,39.43,30.53,41Z"/><g class="cls-7"><path class="cls-29" d="M31.74,39c.65,1.42,2.1,2.36,3,2s1-1.87.35-3.23-2-2.51-2.85-2.06S31.1,37.58,31.74,39Z"/></g><path class="cls-13" d="M32.44,38.75C33,39.83,34,40.54,34.7,40.27s.76-1.41.22-2.45-1.49-1.88-2.16-1.57S31.93,37.67,32.44,38.75Z"/><g class="cls-31"><path class="cls-27" d="M29.56,39.67c-.08,1.23,0,3.65,1.74,4.55,1,.53-1.37.54-2-2.06C28.81,40.16,29.65,38.12,29.56,39.67Z"/></g><g class="cls-31"><path class="cls-27" d="M29.74,38.33c.26.06.16.72-.2.64S29.38,38.26,29.74,38.33Z"/></g><path class="cls-5" d="M15.34,53c-2.4-.63-2.49-2-.94-2.25a2.28,2.28,0,0,0-3,1.65,2.59,2.59,0,0,0,.8,2.16c1.06,1.06,3.12,2,4.61,1.52.76-.26,2.54-.64,1.6-2.66C17.94,52.39,18.37,53.83,15.34,53Z"/><path class="cls-5" d="M13,51.77a1.44,1.44,0,0,1,.7-.81c-1,.16-1.35,1.6-.94,2.66a3.87,3.87,0,0,0,1.62,1.93,3,3,0,0,0,2.53.14,1.2,1.2,0,0,0,.74-1.53l-.22-.51a1.48,1.48,0,0,1-1.36.93,3.54,3.54,0,0,1-2.3-1C13.36,53.18,12.76,52.36,13,51.77Z"/><path class="cls-24" d="M17.24,53.8c-.71,1.6-3.16,0-3.76-.91a1.78,1.78,0,0,1-.31-1c0-.66.61-.9,1.14-1s.68,0,1.12-.21c.16-.09.25-.12,0,0-.56.17-1.39-.11-2,.27s-.56,1.33-.22,2c.63,1.21,3.3,2.8,4.11,1C17.36,53.72,17.31,53.63,17.24,53.8Z"/><path class="cls-32" d="M17.19,52.51a3.29,3.29,0,0,1-1.29-.08,4.44,4.44,0,0,1-1-.47c-.29-.17-.47-.42-.75-.58a.19.19,0,0,0-.28.14c.05,1.28,2.47,1.47,3.34,1C17.21,52.54,17.21,52.51,17.19,52.51Z"/><path class="cls-33" d="M33.05,27.55a5.31,5.31,0,0,0-4.11-1,5.78,5.78,0,0,0-3.58,1.89c-.05.06-.13.37,0,.25a6.75,6.75,0,0,1,3.45-1.41,7.67,7.67,0,0,1,3.81.87C32.89,28.3,33.25,27.72,33.05,27.55Z"/><path class="cls-33" d="M8.17,33.14a2.88,2.88,0,0,0-1.44-.33,3.44,3.44,0,0,0-1.35.2,2.47,2.47,0,0,0-1.59,1.77c0,.09,0,.13.12.12s.17-.14.2-.22a1.83,1.83,0,0,1,1.3-1,18.2,18.2,0,0,1,2.45,0,.44.44,0,0,0,.3-.25C8.2,33.39,8.28,33.2,8.17,33.14Z"/><path class="cls-34" d="M24.69,3.9C27.06,2.36,18,6,14.6,8.72,10,12.41,8.47,8.54,8.47,8.54s-1.61,1.7.86,3.58c-4.17,1.11-5.88,6.89-5,9.51,1.57-3.94,3.44-4.22,3.44-4.22a23,23,0,0,0-2.28,4c-.77,1.91-3,4-5.34,3.56,3.24,1,9.12-2.07,12.49-7.46C16.36,11.62,16.18,9.43,24.69,3.9Z"/><path class="cls-33" d="M1.57,25.36a5.27,5.27,0,0,1-1.44-.19A.18.18,0,0,1,0,25a.17.17,0,0,1,.2-.14c2.17.41,4.35-1.47,5.14-3.44a20.67,20.67,0,0,1,2-3.55c-.64.37-1.77,1.35-2.77,3.87a.18.18,0,0,1-.17.12.19.19,0,0,1-.17-.12,8.56,8.56,0,0,1,.92-6.14A7,7,0,0,1,9,12.05a3,3,0,0,1-1.17-2,2.29,2.29,0,0,1,.56-1.66.21.21,0,0,1,.17-.05.16.16,0,0,1,.13.11,2.86,2.86,0,0,0,1.75,1.58c1.12.3,2.5-.2,4.1-1.47,2.87-2.3,10.08-5.44,10.64-5.21a.24.24,0,0,1,.13.18c0,.14-.1.26-.47.5h0c-6.71,4.36-8,6.6-10.06,10.31-.53,1-1.14,2-1.91,3.26C10.33,21.61,5.42,25.36,1.57,25.36ZM7.8,17.23a.22.22,0,0,1,.16.09.2.2,0,0,1,0,.2,22.69,22.69,0,0,0-2.27,4,6.32,6.32,0,0,1-3.34,3.42c3.16-.42,7.43-3.1,10.17-7.49.77-1.22,1.37-2.3,1.91-3.25,2.09-3.73,3.36-6,10-10.32a42,42,0,0,0-9.7,5c-1.7,1.35-3.19,1.87-4.43,1.54A3.1,3.1,0,0,1,8.44,8.89,1.88,1.88,0,0,0,8.14,10,2.88,2.88,0,0,0,9.44,12a.2.2,0,0,1,.07.18.23.23,0,0,1-.13.14,6.47,6.47,0,0,0-4,3.43,8.75,8.75,0,0,0-1,5.34c1.54-3.53,3.3-3.82,3.37-3.84ZM24.69,3.9Z"/><path class="cls-35" d="M24.69,3.9C27.06,2.36,18,6,14.6,8.72,10,12.41,8.47,8.54,8.47,8.54s-1.61,1.7.86,3.58c-4.17,1.11-5.88,6.89-5,9.51,1.57-3.94,3.44-4.22,3.44-4.22a23,23,0,0,0-2.28,4c-.77,1.91-3,4-5.34,3.56,3.24,1,9.12-2.07,12.49-7.46C16.36,11.62,16.18,9.43,24.69,3.9Z"/><path class="cls-36" d="M1.57,25.36a5.27,5.27,0,0,1-1.44-.19A.18.18,0,0,1,0,25a.17.17,0,0,1,.2-.14c2.17.41,4.35-1.47,5.14-3.44a20.67,20.67,0,0,1,2-3.55c-.64.37-1.77,1.35-2.77,3.87a.18.18,0,0,1-.17.12.19.19,0,0,1-.17-.12,8.56,8.56,0,0,1,.92-6.14A7,7,0,0,1,9,12.05a3,3,0,0,1-1.17-2,2.29,2.29,0,0,1,.56-1.66.21.21,0,0,1,.17-.05.16.16,0,0,1,.13.11,2.86,2.86,0,0,0,1.75,1.58c1.12.3,2.5-.2,4.1-1.47,2.87-2.3,10.08-5.44,10.64-5.21a.24.24,0,0,1,.13.18c0,.14-.1.26-.47.5h0c-6.71,4.36-8,6.6-10.06,10.31-.53,1-1.14,2-1.91,3.26C10.33,21.61,5.42,25.36,1.57,25.36ZM7.8,17.23a.22.22,0,0,1,.16.09.2.2,0,0,1,0,.2,22.69,22.69,0,0,0-2.27,4,6.32,6.32,0,0,1-3.34,3.42c3.16-.42,7.43-3.1,10.17-7.49.77-1.22,1.37-2.3,1.91-3.25,2.09-3.73,3.36-6,10-10.32a42,42,0,0,0-9.7,5c-1.7,1.35-3.19,1.87-4.43,1.54A3.1,3.1,0,0,1,8.44,8.89,1.88,1.88,0,0,0,8.14,10,2.88,2.88,0,0,0,9.44,12a.2.2,0,0,1,.07.18.23.23,0,0,1-.13.14,6.47,6.47,0,0,0-4,3.43,8.75,8.75,0,0,0-1,5.34c1.54-3.53,3.3-3.82,3.37-3.84ZM24.69,3.9Z"/><g class="cls-10"><path class="cls-34" d="M11.14,14.57c-7.38-.15-6.78,7.06-6.78,7.06,1.47-3.69,3.2-4.17,3.42-4.21A12.91,12.91,0,0,1,11.14,14.57Z"/><path class="cls-34" d="M8.19,9c-.32.62-.59,1.83,1.1,3.14.32-.11.8-.26,1.54-.47C9.09,10.82,8.39,9.84,8.19,9Z"/><path class="cls-37" d="M22.34,4.48a17.43,17.43,0,0,1-4.16,3c-2.94,1.61-3.48,1.55-4.6,3.59C15.08,9.82,15.93,10,15.93,10c-2.19,1.66-2.46,3.43-4.65,7.44C8.44,22,5.21,23.83,2.71,24.56A3.88,3.88,0,0,1,.18,25c3.24,1,9.12-2.07,12.49-7.46,3.69-5.91,3.51-8.1,12-13.63C25.79,3.19,24.44,3.59,22.34,4.48Z"/></g><path class="cls-38" d="M5,17.47a7,7,0,0,1,5.7-4.41C8.91,12.14,6,13.26,5,17.47Z"/><path class="cls-38" d="M10.65,15.17A9.83,9.83,0,0,0,7.3,18.59C6,21.1,5,23.25,3.59,24c2.12-1.09,3.11-2.47,4.34-5A11.24,11.24,0,0,1,10.65,15.17Z"/><path class="cls-38" d="M8.6,8.75s1.28,2.71,4.54,1.31C11.69,11.68,8.74,11.29,8.6,8.75Z"/><g class="cls-7"><path class="cls-3" d="M74.35,43.75c2.11.06,4.41,2.09,5.88,4.9C86.17,29.3,74.87,7.9,57.88,2.27A47.75,47.75,0,0,0,35.12.69l.08.09S75.89-6.22,74.35,43.75Z"/><path class="cls-3" d="M44.69,82.39C62.13,78.6,71.48,64.25,72.17,63.16a6.47,6.47,0,0,1-3.34-1C67.09,67.28,61,77.18,44.69,82.39Z"/></g><path class="cls-39" d="M35,53c1.14,2.71,3.27,2.51,5.28,1.14,3.53-2.4,5-5.56,4-7.46S41,43.66,38,45.4,33.75,49.91,35,53Z"/><path class="cls-13" d="M40.87,46c.12.25-.24.6-.82.77s-1.15.1-1.28-.16.24-.59.82-.77S40.74,45.74,40.87,46Z"/><path class="cls-13" d="M42.29,46.27c0,.14-.18.25-.41.26s-.39-.11-.39-.25.19-.25.41-.26S42.3,46.13,42.29,46.27Z"/><path class="cls-40" d="M9.68,55.78c-.88,2.09-2.51,1.93-4.06.88-2.72-1.85-3.86-4.28-3.07-5.74s2.54-2.29,4.85-1S10.67,53.44,9.68,55.78Z"/><path class="cls-13" d="M5.19,50.43c-.1.19.19.46.63.59s.88.08,1-.12-.18-.46-.63-.59S5.29,50.23,5.19,50.43Z"/><path class="cls-13" d="M4.1,50.64c0,.1.13.19.31.19s.3-.08.3-.19-.15-.19-.32-.19S4.09,50.53,4.1,50.64Z"/><path class="cls-5" d="M34.89,74.25c-2.63,5.2-9.8,6.86-16,3.72s-9.12-9.91-6.5-15.11,9.8-6.86,16-3.71S37.52,69.06,34.89,74.25Z"/><path class="cls-41" d="M32.13,65.89a1.34,1.34,0,0,0-.07-.18,7.87,7.87,0,0,0-.32-.74C28.47,58.35,15.81,55.1,12,62.42c-2.2,3-1.55,6.55,0,9.79.8,1.65,2.88,3.13,4.37,4.14a14.31,14.31,0,0,0,5,2.05c3.14.7,7.09,0,9.22-2.62A10,10,0,0,0,32.13,65.89Z"/><path class="cls-42" d="M29.35,75.72c-2.37,2.39-6.11,2.49-9.14,1.58-6-1.8-11.68-9.16-7.39-14.86,2.63-2.37,7.3-2.24,10.52-1.36.07,0,.17-.09.09-.11-2.38-.78-6.39-1.14-9.24,0,2.68-2.15,6.4-1.85,9.53-.82a17.56,17.56,0,0,1,4.47,2.36,21,21,0,0,1,2.28,1.79,12.16,12.16,0,0,1,1,1.53A6.93,6.93,0,0,1,32,67.64a13.36,13.36,0,0,0-4.92-5.06s-.14,0-.09.08C29.62,64.45,31.84,67,32.06,70A10,10,0,0,1,29.35,75.72Z"/><path class="cls-43" d="M28.79,63.82A11.51,11.51,0,0,1,32,67.64a6.93,6.93,0,0,0-.58-1.77,12.16,12.16,0,0,0-1-1.53,21,21,0,0,0-2.28-1.79l0,0A8.55,8.55,0,0,1,28.79,63.82Z"/><path class="cls-42" d="M20.1,77.27a10.62,10.62,0,0,0,2.83-.39c3.89-1.16,5.82-5.06,5.81-9a10.53,10.53,0,0,0-1-4.72c-.24-.19-.48-.37-.73-.54,0,0,0-.11.09-.08l.51.34a6.76,6.76,0,0,0-1-1.41,14.58,14.58,0,0,0-2.83-1.32c-3.13-1-6.85-1.33-9.53.82,2.85-1.18,6.86-.82,9.24,0,.08,0,0,.13-.09.11-3.22-.88-7.89-1-10.52,1.36C8.55,68.1,14.1,75.4,20.1,77.27Z"/><path class="cls-43" d="M32.06,70A9,9,0,0,0,29,64.22a10.24,10.24,0,0,1,.53,2.72c.19,3.92-1.17,8.68-5.16,10.27a10.93,10.93,0,0,1-2,.54,8.31,8.31,0,0,0,7-2A10,10,0,0,0,32.06,70Z"/><path class="cls-41" d="M27,69.78l.12,0A2,2,0,0,0,27.78,67a3.38,3.38,0,0,0-3-1.54,1.86,1.86,0,0,0-2.08,1.38c-.09.6.39,1.8,1.08,2,0,.24,0,.45-.06.6-.11,1.34-.35,3.38-3,2.67a5,5,0,0,1-2.44-1.79c-1-1.28.73-2.42,1.42-3.39a1.8,1.8,0,0,0,1.75-1.76A2.58,2.58,0,0,0,19.24,63a3.3,3.3,0,0,0-3,.95,1.21,1.21,0,0,0,.14,1.78,4.55,4.55,0,0,0-1.22,1.72c-1.07,1.84-.58,3.81.91,5.54a7.52,7.52,0,0,0,7.49,2.53c2.06-.6,3.21-2.91,3.37-5C26.92,70.26,27,70,27,69.78Z"/><path class="cls-44" d="M23.49,67c-.15-1,1.05-.92,1.68-.84,1.4.17,2.77,1.69,1.8,2.9A2.35,2.35,0,0,0,25.53,67c-1-.46-1.4.4-1.59,1.26A2.54,2.54,0,0,1,23.49,67Z"/><path class="cls-44" d="M16.81,64.07a1.9,1.9,0,0,1,1-.51,2.87,2.87,0,0,1,1.48.12c1,.33,2.26,2.26.67,2.72.5-1.24-.13-2.3-1.58-2a.27.27,0,0,0-.16.1,4.85,4.85,0,0,0-1.48.78C16.46,65,16.46,64.57,16.81,64.07Z"/><path class="cls-44" d="M25.57,72.45a.25.25,0,0,1-.15.15,4.14,4.14,0,0,1-.74,1.2,3.43,3.43,0,0,1-2,1,1.82,1.82,0,0,1-.33,0c-2.15.58-4.81-1.58-6-3.07-1.69-2.09-1-4.2.71-5.64.44-.46.93-1.09,1.64-1h0l.07,0a.75.75,0,0,1,.62.92,2,2,0,0,1-.39.75,1.53,1.53,0,0,1-.6.72l-.39.44a4.52,4.52,0,0,0-.81,1.26c-.42.93.43,1.82,1,2.41,1.2,1.16,4.23,1.87,5.34.17a5.68,5.68,0,0,0,.85-2.57c-.09-.6-.07-1.51.67-1.53a1.22,1.22,0,0,1,1.3.91C26.72,69.84,26.05,71.28,25.57,72.45Z"/><path class="cls-13" d="M17.2,71c-.56-.9-1-1.46-.56-2.54a20.27,20.27,0,0,1,1.26-2.16c.06-.12-.14-.12-.19,0-.95,1.33-3.19,3.7-.93,5C17,71.44,17.34,71.25,17.2,71Z"/><path class="cls-13" d="M16.31,61.37c-3.11,1.24-5.36,4-4.26,7.55.13.4.77.12.72-.24A8.07,8.07,0,0,1,13,64.46a6.09,6.09,0,0,1,3.33-3A.07.07,0,1,0,16.31,61.37Z"/><path class="cls-13" d="M13.32,71c-.1-.22-.22-.43-.33-.64s-.28,0-.24.11.15.49.25.72S13.39,71.15,13.32,71Z"/></g></g></g></svg>