<svg xmlns="http://www.w3.org/2000/svg" xmlns:xlink="http://www.w3.org/1999/xlink" viewBox="0 0 96.91 166.28"><defs><style>.cls-1{isolation:isolate;}.cls-2{fill:#edb391;}.cls-3{fill:#89421a;}.cls-18,.cls-22,.cls-26,.cls-4{fill:#fbd0b4;}.cls-5{fill:#b56a4d;}.cls-6{fill:#fff;}.cls-7{fill:#414d54;}.cls-13,.cls-17,.cls-18,.cls-21,.cls-24,.cls-26,.cls-29,.cls-30,.cls-37,.cls-43,.cls-44,.cls-50,.cls-8{mix-blend-mode:multiply;}.cls-8{opacity:0.9;}.cls-9{fill:#c3c6cb;}.cls-10{fill:#3173c1;}.cls-11,.cls-13{fill:#1f5c93;}.cls-12{fill:#0f2440;}.cls-13{opacity:0.45;}.cls-14{fill:#0a1827;}.cls-15{fill:#8cc63f;}.cls-16{fill:#009245;}.cls-19{fill:#fcece3;}.cls-20{fill:#a05b23;}.cls-21,.cls-32{fill:#efc2a7;}.cls-22,.cls-42,.cls-47{mix-blend-mode:screen;}.cls-23{opacity:0.48;}.cls-24,.cls-26{opacity:0.6;}.cls-25{fill:#fae1d1;}.cls-27{fill:red;}.cls-28{fill:#97272d;}.cls-29{opacity:0.5;}.cls-30,.cls-31{fill:#9e272d;}.cls-30{opacity:0.55;}.cls-33,.cls-47{fill:#582e18;}.cls-34{fill:#33160a;}.cls-35{fill:#fef6ec;}.cls-36{fill:#9e5116;}.cls-37{fill:#bbac9a;}.cls-38{fill:#984c08;}.cls-39{fill:#a0a427;}.cls-40{fill:#9a5648;}.cls-41{fill:#0a010b;}.cls-43,.cls-44{opacity:0.7;}.cls-43{fill:url(#radial-gradient);}.cls-44{fill:url(#radial-gradient-2);}.cls-45{fill:#fde4c7;}.cls-46{fill:#9e4c0b;}.cls-48{opacity:0.46;}.cls-49{fill:none;}.cls-50{opacity:0.52;}.cls-51{fill:#c46634;}.cls-52{fill:#c92337;}.cls-53{fill:#fffaf7;}.cls-54{fill:#ef7673;}</style><radialGradient id="radial-gradient" cx="418.71" cy="-1180.7" r="14.15" gradientTransform="matrix(-0.8, -0.6, -0.6, 0.8, -330.87, 1241.36)" gradientUnits="userSpaceOnUse"><stop offset="0.12" stop-color="#f6a0a0"/><stop offset="1" stop-color="#fff"/></radialGradient><radialGradient id="radial-gradient-2" cx="-169.73" cy="-1509.65" r="9.71" gradientTransform="matrix(0.93, -0.36, 0.36, 0.93, 716.28, 1395.28)" xlink:href="#radial-gradient"/></defs><g class="cls-1"><g id="Layer_2" data-name="Layer 2"><g id="Layer_1-2" data-name="Layer 1"><path class="cls-2" d="M93.43,124.74l-1-.54a18.74,18.74,0,0,0-6,4.21,8.7,8.7,0,0,0-4.21,1.23c-10.36-.53-24.74,7.37-28.87,9.78.08.15.18.31.29.48,1.17,1.89,3.68,6,4.23,8.49,0,0,15.17-3.3,26.49-6.6C97.1,138.06,99.64,127.43,93.43,124.74Z"/><path class="cls-3" d="M93.64,124.68c-2-1-3,.17-4.86,1.43-.67.46-2,2.19-2.71,2.21a10.22,10.22,0,0,0-1.67.28c-1,.21-1.91.91-2.89.91a31.27,31.27,0,0,0-3.62.23c-8.72,1-17.27,5.27-24.77,9.65a0,0,0,0,0,0,.06c1.7,2.85,3.64,5.71,4.51,8.94,0,.12.28.09.36.08,3.63-.8,7.26-1.65,10.87-2.51,6.23-1.5,12.84-2.75,18.78-5.23,3.74-1.57,7.81-4.65,8.94-8.76.84-3,0-5.91-3-7.3-.11-.06-.56,0-.33.14,3.44,1.64,3.71,5.34,2.29,8.5-2.28,5.07-8,7.45-13,8.86-5.38,1.53-10.82,2.87-16.26,4.16-2,.47-4,.94-6,1.39l-1.83.41c-.94.21-.47.26-.62-.3A25.52,25.52,0,0,0,55.09,142c-.13-.24-1.69-2.41-1.28-2.65.74-.43,1.48-.84,2.23-1.25a87.62,87.62,0,0,1,13.86-6.17,43.69,43.69,0,0,1,8.12-2,38.87,38.87,0,0,1,4.18-.2c1.08,0,2.37-1,3.54-1.17,1.5-.23,2.2-1.41,3.46-2.35a16.88,16.88,0,0,1,2.89-1.73c.52-.26.42-.06,1.14.32C93.34,124.85,93.78,124.76,93.64,124.68Z"/><path class="cls-4" d="M93.43,124.74l-1-.54a18.74,18.74,0,0,0-6,4.21,8.7,8.7,0,0,0-4.21,1.23c-10.36-.53-24.74,7.37-28.87,9.78.08.15.18.31.29.48,1.17,1.89,3.68,6,4.23,8.49,0,0,15.17-3.3,26.49-6.6C97.1,138.06,99.64,127.43,93.43,124.74Z"/><path class="cls-5" d="M93.6,124.69c-2-1-3,.11-4.81,1.4-.55.38-2.11,2.23-2.53,2.23a5.37,5.37,0,0,0-1.27.13c-1,.24-2.47,1.1-3.54,1.06a25.49,25.49,0,0,0-3.6.22c-8.7,1-17.25,5.27-24.73,9.62a.08.08,0,0,0,0,.08c1.7,2.85,3.65,5.72,4.52,9,0,.12.32.09.39.08,3.38-.73,6.75-1.53,10.11-2.33C74.3,144.66,81,143.5,86.9,141c4.17-1.74,8.17-4.58,9.65-9a5.77,5.77,0,0,0-3-7.3c-.11-.06-.57,0-.34.1,3.44,1.64,3.73,5.33,2.31,8.49-2.14,4.78-7.47,7.29-12.2,8.66-8.46,2.45-17.06,4.48-25.67,6.36.87-.18-2.3-5.78-2.6-6.32-.14-.24-1.69-2.43-1.3-2.66.6-.35,1.22-.69,1.84-1a89.84,89.84,0,0,1,13.55-6.16A48.22,48.22,0,0,1,77.33,130a26.06,26.06,0,0,1,4.22-.31c1.19,0,2-.6,3.13-1,.63-.2,1.29-.08,1.88-.27a18.57,18.57,0,0,0,2.63-2.27c1.26-1,2.61-2.18,4.07-1.43C93.37,124.85,93.82,124.79,93.6,124.69Z"/><path class="cls-3" d="M85.54,128.48l.28-.09a6.2,6.2,0,0,1,.76-.18,10.16,10.16,0,0,1,1.08-.12h.62c.21,0,.42,0,.64,0l.62.09a3.09,3.09,0,0,1,.62.12c.19.05.38.1.55.16a1.44,1.44,0,0,1,.48.17,8.51,8.51,0,0,1,1,.48s-.42-.07-1-.23c-.3-.08-.68-.09-1-.17l-.3,0-.29,0-.61-.06c-.21,0-.41,0-.62,0l-.6-.05c-.39,0-.75,0-1.06,0H85.54Z"/><path class="cls-6" d="M42.79,154.65c0-2.49-.87-3.15-1.89-3.58a18.63,18.63,0,0,1-2.6-1.58c-1,0-3-.1-5.6-.24-1.09,2-2.31,5.48.22,7.6a15.12,15.12,0,0,0,7.07,3,6,6,0,0,0,3-1.69A28.19,28.19,0,0,1,42.79,154.65Z"/><path class="cls-7" d="M43,154.7c-.16-3.09-1.54-3.24-3.88-4.76-1.82-1.19-4.4-.69-6.52-.81,0,0-.11,0-.14.05a7.93,7.93,0,0,0-1,5.82c.55,2,3,3.13,4.71,3.85,1.31.56,3.16,1.35,4.58.93.69-.2,2.2-.84,2.46-1.56S43,155.63,43,154.7c0-.12-.45-.26-.45-.1,0,.91.48,3.17-.23,3.85-1.5,1.44-3.13,1.21-4.93.66-2.14-.64-4.62-1.84-5.53-4a6,6,0,0,1,.26-4c.52-1.57,1.2-1.68,2.81-1.6,1,.05,2.1.08,3.15.12.68,0,1.61,1,2.24,1.31,1.7.8,2.14,1.87,2.23,3.69C42.57,154.73,43,154.85,43,154.7Z"/><path class="cls-6" d="M32.7,149.25l-1.61-.09c-.67,1.55-1.93,5.11-.77,7.58,1.07,2.25,5.92,4,9.67,3.09a15.12,15.12,0,0,1-7.07-3C30.39,154.73,31.61,151.29,32.7,149.25Z"/><path class="cls-7" d="M32.7,149.16l-1.54-.1c-.07,0-.26,0-.3.07-1.19,2.84-2.25,6.68.39,9,2.29,2,6,2.4,8.86,1.79.13,0,.14-.13,0-.16-2.78-.51-5.91-1.48-7.74-3.77-1.53-1.92-.4-4.84.56-6.7.07-.12-.39-.17-.45-.05-.86,1.67-1.83,4-1,5.85,1,2.39,3.84,3.66,6.2,4.32.57.15,1.14.3,1.72.42a5.68,5.68,0,0,1-1.84.18,11.39,11.39,0,0,1-2.37-.34,7.49,7.49,0,0,1-4.39-2.6c-.91-1.2-.71-3.07-.5-4.46A13.7,13.7,0,0,1,31,150c.28-.81,1-.65,1.69-.61C33,149.37,33,149.18,32.7,149.16Z"/><g class="cls-8"><path class="cls-9" d="M42.79,154.65c0-2.49-.87-3.15-1.89-3.58a18.63,18.63,0,0,1-2.6-1.58c-1,0-3-.1-5.6-.24-1.09,2-2.31,5.48.22,7.6a15.12,15.12,0,0,0,7.07,3,6,6,0,0,0,3-1.69A28.19,28.19,0,0,1,42.79,154.65Zm-5,4c-5-.57-6.48-5.36-5.18-7.67.83-1.47,4.37,1,6.62,2.22S42.78,159.21,37.8,158.65Z"/></g><g class="cls-8"><path class="cls-9" d="M31.72,155.2c-.77-2,.14-4.38,1-5.95l-1.61-.09a13.33,13.33,0,0,0-1.23,5.65A2.15,2.15,0,0,1,31.72,155.2Z"/></g><path class="cls-10" d="M40.83,136.77a4.82,4.82,0,0,0-4.54,2.3c0,.05.06.09.1.11l1.38.33c.09,0,.27.06.35,0A10.49,10.49,0,0,1,41,136.92c.15-.08-.3-.18-.4-.12a10.35,10.35,0,0,0-3,2.6l.34,0c-.16,0-1.29-.2-1.11-.46a5,5,0,0,1,1-1.11,4,4,0,0,1,2.87-.83C41.1,137,41.11,136.79,40.83,136.77Z"/><path class="cls-10" d="M37.77,139.51c.68.16,1.37.33,2,.47.08,0,.29,0,.31-.07.29-1.35,2.09-2,3.22-2.28.09,0,.08-.1,0-.14-.66-.3-2-1-2.69-.7a7.83,7.83,0,0,0-3,2.61c-.09.1.35.19.44.08a11.23,11.23,0,0,1,2.59-2.37,1,1,0,0,1,1,0c.18,0,1.16.41,1,.46a6.27,6.27,0,0,0-1.4.55,3,3,0,0,0-1.62,1.76l.3-.07c-.64-.14-1.3-.29-1.94-.45C37.89,139.33,37.48,139.45,37.77,139.51Z"/><path class="cls-11" d="M86.4,128.41a18.74,18.74,0,0,1,6-4.21l1,.54a5.59,5.59,0,0,0,.18-1c.06-1-4.14-3.49-5.11-2.35,0,0-2.06,2-3.87,4a12.33,12.33,0,0,0-2.44,4.18A8.7,8.7,0,0,1,86.4,128.41Z"/><path class="cls-12" d="M86.63,128.44a20.65,20.65,0,0,1,4.66-3.56c1.24-.69.9-.62,1.94-.09.09,0,.4.09.44-.05.54-2.15-2.84-4.14-4.82-3.66-1.29.31-2.53,2.28-3.36,3.15A14.58,14.58,0,0,0,82,129.64c0,.11.35.08.41.06a8.63,8.63,0,0,1,4-1.19c.27,0,.27-.19,0-.19a8.85,8.85,0,0,0-2.22.34c-.37.09-1.53.33-1.69.76a13.35,13.35,0,0,1,.72-1.59A21.15,21.15,0,0,1,87,123.17c.49-.51,1-1,1.5-1.51.92-.91,2.48,0,3.34.54a5.08,5.08,0,0,1,1.4,1.21,1.11,1.11,0,0,1,0,1.06c.32.2.27.18-.16-.06-.24-.12-.59-.4-.89-.28a18.72,18.72,0,0,0-6,4.26C86.1,128.46,86.53,128.53,86.63,128.44Z"/><path class="cls-11" d="M10.59,128.2s-.34-.34-2.65.21-2.85,1.5-2.85,1.5v.47s1.7-1.06,7.29,2.69c0,0,1.72.22,4.15.65A15.61,15.61,0,0,0,10.59,128.2Z"/><path class="cls-12" d="M10.76,128.15c-1.3-.89-5.91.48-5.91,2.2,0,.15.35.16.44.11,1.49-.85,4.33,1.08,5.55,1.77,1.91,1.12,3.43,1.19,5.67,1.6,0,0,.31,0,.25-.1a15.34,15.34,0,0,0-6-5.58c-.1-.06-.57,0-.34.1a15.29,15.29,0,0,1,5.51,4.88c.38.54-1.93.07-2.12,0L12.45,133c-.66-.1-1.82-1.16-2.47-1.51a17,17,0,0,0-1.56-.72,5.93,5.93,0,0,0-3.1-.57c-.63.12-.27.17,0-.25.71-1.06,4.1-2.36,5.09-1.68C10.51,128.31,11,128.29,10.76,128.15Z"/><path class="cls-11" d="M73.84,119.63C72.68,123.11,62.17,129.72,52,131s-21.78-2.21-23.17-4.18a3.27,3.27,0,0,1-.55-1.15c-3.75-.1-11.26,0-17.7,2.51a15.61,15.61,0,0,1,5.94,5.52,69.79,69.79,0,0,1,9.83,2.45,138.22,138.22,0,0,0,13.53,3.73s.53-2.78,6.74-2.67c5.66.11,5.81.66,6.69,2.19,4.13-2.41,18.51-10.31,28.87-9.78a12.33,12.33,0,0,1,2.44-4.18c1.81-2,3.87-4,3.87-4A50.76,50.76,0,0,0,73.84,119.63Z"/><path class="cls-13" d="M73.84,119.63C72.68,123.11,62.17,129.72,52,131s-21.78-2.21-23.17-4.18a3.27,3.27,0,0,1-.55-1.15c-1.09,0-2.49,0-4.08,0a3,3,0,0,1,.48,1.38c.31,2.85,6.59,7.23,11.65,9.41,2.78.78,0-2.09-2-3.49,0,0,13.43,3.11,21.4.57,1.9-.44-.88,4.78-2.59,4.15s-9.62-1.46-12.85-.45-3.36,2.22-8.55,0S22.4,134,20.26,133.23c-2.47-.88.63-2,1.52-3.61a5.9,5.9,0,0,0,.09-3.77,40.67,40.67,0,0,0-11.28,2.35,15.61,15.61,0,0,1,5.94,5.52,69.79,69.79,0,0,1,9.83,2.45,138.22,138.22,0,0,0,13.53,3.73s.53-2.78,6.74-2.67c5.66.11,5.81.66,6.69,2.19,4.13-2.41,18.51-10.31,28.87-9.78a12.33,12.33,0,0,1,2.44-4.18c1.81-2,3.87-4,3.87-4A50.76,50.76,0,0,0,73.84,119.63Z"/><path class="cls-12" d="M73.61,119.6c-1.13,2.94-4.62,5-7.18,6.62-4.66,3-8,3.35-13,4.45-5.72,1.27-11.55.41-17.2-1.08-2.69-.7-6.73-1.06-7.75-3.93,0-.06-.18-.07-.23-.07a48.93,48.93,0,0,0-17.86,2.53c-.1,0-.09.09,0,.14A15.82,15.82,0,0,1,15.85,133c.71,1,.2.71,1.4.94,2.12.38,4.21.87,6.28,1.44,5.44,1.47,10.72,3.36,16.24,4.57.09,0,.33.05.36-.08.43-1.89,3.29-2.35,4.79-2.51,2.64-.31,6.68-.55,8.17,2.06.07.11.34.09.44,0,8.44-4.92,18.66-10.09,28.65-9.76.08,0,.22,0,.24-.08,1.06-3.31,3.88-5.83,6.31-8.19,0-.06-.08-.1-.1-.12a53.91,53.91,0,0,0-14.79-1.8c-.28,0-.29.2,0,.2a56.86,56.86,0,0,1,12.06,1.14c.94.19,2.76.13,1.77,1.1a53.54,53.54,0,0,0-3.89,4.23,10.56,10.56,0,0,0-1.7,3.06c-.17.48-2.2.29-2.74.32a38,38,0,0,0-8.24,1.66,83.12,83.12,0,0,0-15.44,6.69c-.76.41-1.51.84-2.26,1.28.1-.06-.54-.87-.62-.94-1-.87-2.39-.92-3.63-1-2.43-.21-8.27-.71-9.43,2.46-.07.18.44.14-.4-.05-1-.24-2.11-.48-3.15-.75C32.61,138,29.09,137,25.6,135.8a55.78,55.78,0,0,0-5.54-1.47c-1.75-.39-3.08-.42-4.23-2a15,15,0,0,0-4.88-4.1c-.32-.19,1.44-.54,1.58-.6,1.17-.38,2.38-.64,3.58-.91a51.92,51.92,0,0,1,6.08-.82c1.66-.13,3.32-.16,5-.15,1.08,0,1.29,1,2,1.67,2.57,2.36,5.13,2.31,8.37,3.39,4.52,1.5,10.53,1.37,15.25.66s9.7-1.52,13.64-4.25c2.82-2,6.34-4.23,7.63-7.57C74.11,119.52,73.66,119.48,73.61,119.6Z"/><path class="cls-12" d="M56.9,136.29s.12-.16.35-.43.57-.64,1-1.07.94-.92,1.52-1.41,1.21-1,1.87-1.46c.33-.23.66-.47,1-.68s.67-.41,1-.59.65-.37,1-.5.61-.3.9-.4a10.14,10.14,0,0,1,1.39-.48l.53-.14-.5.22-.58.26c-.21.12-.46.25-.73.38a9,9,0,0,0-.85.46c-.3.16-.6.37-.93.56s-.63.41-1,.62-.66.45-1,.67-.65.48-1,.7-.62.47-.92.7c-.58.48-1.13.9-1.6,1.29s-.84.7-1.11.94Z"/><path class="cls-12" d="M29.08,132.08l1.36.82,1.38.82c.5.31,1,.63,1.58.93s1.09.61,1.6.89l.76.38.68.33c.43.17.79.35,1,.43l.42.16-.44-.07a10.12,10.12,0,0,1-1.12-.27,15.49,15.49,0,0,1-1.52-.59c-.26-.13-.55-.25-.82-.4s-.56-.29-.84-.45c-.54-.32-1.09-.65-1.57-1s-.93-.66-1.31-1-.67-.56-.88-.74S29.08,132.08,29.08,132.08Z"/><path class="cls-4" d="M35.34,138.81c-2.65-.67-6-1.61-9-2.64a82.37,82.37,0,0,0-14-3.1c-5.59-3.75-7.29-2.69-7.29-2.69s-6,2.56-4.53,10.2c1.26,6.51,23.45,8.25,33.54,8.74C36.5,144.53,36,140.77,35.34,138.81Z"/><path class="cls-5" d="M35.49,138.73c-5.13-1.33-10.09-3.25-15.27-4.38-2.11-.45-4.24-.85-6.38-1.18-1.86-.29-3.19-1.43-4.91-2.23-3.49-1.62-6-.18-7.85,3.11-1.47,2.58-1.61,6.65.64,8.8s5.58,2.91,8.36,3.62c7.77,2,16,2.56,24,2.95.07,0,.24,0,.28-.09,1.57-3.35,2.31-6.92,1.24-10.54,0-.15-.5-.08-.47,0a13.43,13.43,0,0,1,.49,4.55,14.48,14.48,0,0,1-.91,4.07c-.56,1.66-1,1.76-2.55,1.67q-6-.33-12-1.06a74.31,74.31,0,0,1-12.09-2.39c-2.55-.77-6.22-2-7.22-4.8a9,9,0,0,1,3.2-9.72c2.33-1.78,5.08.11,7.26,1.43s5.38,1.27,7.9,1.79c5.42,1.13,10.59,3.14,16,4.52C35.28,138.91,35.73,138.79,35.49,138.73Z"/><path class="cls-3" d="M5.68,133.57A10.76,10.76,0,0,1,7,133.18c.19-.05.41-.09.64-.13s.47-.09.72-.12l.78-.08a7.32,7.32,0,0,1,.81,0h.82a5.16,5.16,0,0,1,.79,0l.73.07a4.22,4.22,0,0,1,.65.1c.4.08.72.17,1,.22l.36.1h-.38l-1,0a4.64,4.64,0,0,0-.66,0h-.72c-.5,0-1,0-1.57,0-.26,0-.53,0-.79,0l-.77,0-1.37.1-1,.09Z"/><path class="cls-6" d="M57.84,148.39c-.55-2.45-3.06-6.6-4.23-8.49-.93-1.49-.87-2.2-3.79-2.5.91.79,2.18,2.59,3.5,6.63,2.3,7.05,5.08,16.29-.92,22h.09c2.83-.24,4.24-.57,5.56-4.22C60.4,155.31,57.84,148.39,57.84,148.39Z"/><path class="cls-7" d="M58.06,148.42c-.86-3.23-2.78-6.08-4.48-8.91-1-1.61-1.95-2-3.8-2.22-.05,0-.27,0-.18.11,3.28,3.09,4.38,8.93,5.39,13.15,1.29,5.41,1.31,11.21-2.8,15.41-.11.1.26.19.31.19,8.2-.22,7.58-12.12,5.56-17.73,0-.13-.49-.19-.45-.07,1.74,4.87,2,11.53-1,15.91a4.33,4.33,0,0,1-3,1.54c-1.27.22.65-1.48,1-2.08a15.26,15.26,0,0,0,1.63-8.51A38.17,38.17,0,0,0,51.34,139a8.12,8.12,0,0,0-1.08-1.41c1.6,1.71,2,.22,2.86,1.83.27.45.56.9.83,1.35a29.61,29.61,0,0,1,3.66,7.55C57.65,148.48,58.1,148.55,58.06,148.42Z"/><path class="cls-12" d="M40.9,151.07a2.8,2.8,0,0,1,1,.64,7.06,7.06,0,0,1-1.36-2.22H38.3A18.63,18.63,0,0,0,40.9,151.07Z"/><path class="cls-14" d="M40.73,151.13a3.79,3.79,0,0,1,1,.63c.08.09.51,0,.43-.07a7.19,7.19,0,0,1-1.36-2.23c0-.06-.18-.07-.23-.07H38.3s-.33.06-.2.15a15.34,15.34,0,0,0,2.63,1.59c.11.05.56,0,.34-.13a14.79,14.79,0,0,1-2.56-1.55l-.21.14h2.26l-.23-.08a7.72,7.72,0,0,0,1.36,2.23l.43-.07a4,4,0,0,0-1-.67C41,151,40.5,151,40.73,151.13Z"/><path class="cls-6" d="M43.35,143.38s.66-2-.23-2.54a15.55,15.55,0,0,0-3.23-.94s-1.9-.42-4.55-1.09c.62,2,1.16,5.72-1.24,10.51,1.9.1,3.38.14,4.2.17h2.26a4.62,4.62,0,0,1,2.79-6.11Z"/><path class="cls-7" d="M43.59,143.41c.63-2.12-.14-2.71-2.05-3.24s-4.1-.93-6.13-1.44c-.07,0-.34,0-.31.08a14.52,14.52,0,0,1-1.22,10.47c-.06.1.15.14.21.14,2.18.1,4.35.17,6.52.17.06,0,.21,0,.18-.1a4.66,4.66,0,0,1,2.71-6c.25-.09-.2-.21-.31-.17A4.8,4.8,0,0,0,40,148.22c0,.42.53,1.17.14,1.17H38.35c-.71,0-1.41,0-2.11-.07-2-.07-1.45-.87-1-2.16a14.29,14.29,0,0,0,.81-5.47,11.59,11.59,0,0,0-.32-2.18c-.2-.89,1.12-.21,1.65-.09.91.22,1.81.44,2.72.62,1.9.4,3.64,1.1,3,3.32C43.08,143.47,43.55,143.55,43.59,143.41Z"/><path class="cls-6" d="M44.08,162c1.21,2.44,3.62,4.41,8.32,4,5.28-5,3.77-12.79,1.76-19.37C46.27,147.83,43.41,156.29,44.08,162Z"/><path class="cls-7" d="M43.85,162a7.62,7.62,0,0,0,4.45,3.77c1.5.52,3.72.93,4.91-.28,4.84-5,2.92-13,1.18-18.82,0-.09-.27-.11-.34-.09-7.23,1.29-10.88,8.49-10.2,15.41,0,.14.47.16.46,0a17,17,0,0,1,1.52-8.79c.87-1.84,7.38-9.13,8.55-5s1.89,8.32.91,12.49c-.38,1.62-1.77,5.18-3.85,5.27a7.35,7.35,0,0,1-7.13-4C44.24,161.88,43.78,161.9,43.85,162Z"/><path class="cls-15" d="M49.82,137.4c-.81-.08-1.85-.14-3.19-.17-6.21-.11-6.74,2.67-6.74,2.67a15.55,15.55,0,0,1,3.23.94c.89.5.23,2.54.23,2.54a4.8,4.8,0,0,0-3,3.47c-.5,2.4,1.25,4.47,1.61,4.86,0,0,0,0,.06.07h0a4.16,4.16,0,0,1,.81,2.86c0,1.31-.08,4.63,1.29,7.35-.67-5.71,2.19-14.17,10.08-15.33q-.42-1.36-.84-2.64C52,140,50.73,138.19,49.82,137.4Z"/><path class="cls-16" d="M49.78,137.29c-2.41-.2-9.29-1-10.12,2.56,0,.08.16.13.22.14,1.83.36,3.82,1,3.28,3.23-.09.32-2,1.42-2.27,1.77a4.63,4.63,0,0,0-.69,4.08c.13.64,1,2.62,1.69,2.62-.07,0-.17,0-.12.11,1.08,1.46.76,3.46.87,5.17a13.85,13.85,0,0,0,1.21,5c0,.1.47.19.46.06-.66-6.76,2.85-14,10-15.28,0,0,.08,0,.07-.08-1-3.14-1.87-6.94-4.36-9.3-.1-.08-.54-.1-.43,0,1.47,1.38,5.68,8.81,3,9.47A10.86,10.86,0,0,0,46,152a16.88,16.88,0,0,0-2.22,9.39c-.09-1.95-.73-4.14-.75-6.27,0-.57.06-3.25-.94-3.25.06,0,.18,0,.11-.11-2.16-2.3-2.38-5.73.24-7.74.22-.17,1.07-.39,1.18-.73.15-.52.46-1.72,0-2.18a4.21,4.21,0,0,0-2.06-.95c-.38-.12-.77-.2-1.16-.29-.55-.12-.31.11-.22-.14,1.19-3.24,7.24-2.47,9.68-2.26C50.19,137.53,50,137.31,49.78,137.29Z"/><g class="cls-8"><path class="cls-9" d="M54.16,146.67c-7.89,1.16-10.75,9.62-10.08,15.33,1.21,2.44,3.62,4.41,8.32,4C57.68,161,56.17,153.25,54.16,146.67Zm-8.93,12c-1.44-6.79,8.67-15.53,9.77-5.28S46.65,165.34,45.23,158.64Z"/></g><g class="cls-17"><path class="cls-15" d="M54.16,146.67q-.42-1.36-.84-2.64c-1.32-4-2.59-5.84-3.5-6.63-.81-.08-1.85-.14-3.19-.17-6.21-.11-6.74,2.67-6.74,2.67a15.55,15.55,0,0,1,3.23.94c.89.5.23,2.54.23,2.54a4.8,4.8,0,0,0-3,3.47c-.5,2.4,1.25,4.47,1.61,4.86,0,0,0,0,.06.07h0a4.16,4.16,0,0,1,.81,2.86c0,1.31-.08,4.63,1.29,7.35C43.41,156.29,46.27,147.83,54.16,146.67Zm-13,1.72c-.44-2.29.91-3.47,2.4-4.24a2.63,2.63,0,0,0,1.52-3.61c-.49-1.56-1.16-2.67,1.92-2.87s4.64,3,5.15,5.84-3.27,3.81-6,6S41.61,150.67,41.18,148.39Z"/></g><g class="cls-8"><path class="cls-9" d="M58.11,149.25c-.23,1.89-1.63,2.19-3,.85,1.38,5.7,1.68,11.76-2.7,15.94h.09c2.83-.24,4.24-.57,5.56-4.22C59.9,156.7,58.7,151.31,58.11,149.25Z"/></g><g class="cls-8"><path class="cls-9" d="M43.12,140.84a15.55,15.55,0,0,0-3.23-.94s-1.9-.42-4.55-1.09c.62,2,1.16,5.72-1.24,10.51,1.9.1,3.38.14,4.2.17h2.26a4.62,4.62,0,0,1,2.79-6.11S44,141.34,43.12,140.84ZM41,142.79c-1.74,1.57-.53,4.66-3.61,4.47s-.7-.71-.87-4.23-.8-3.75.69-3.4C40.29,140.35,42.74,141.23,41,142.79Z"/></g><path class="cls-18" d="M35.34,138.81c-2.65-.67-6-1.61-9-2.64a82.37,82.37,0,0,0-14-3.1c-5.59-3.75-7.29-2.69-7.29-2.69a8,8,0,0,0-2.43,1.8c1.16-.37,2.17-.15,2,1.88-.44,4.5-.65,8,3.62,8.45s5.27-1.1,5.71-.88c2.63,1.1,4.61-.33,4.94-1.1,2.19.33,3-2,2.85-3.18s1.43-.88,7.79.77,6.47,6.47,2.31,7.46S15.17,146.9,5,143.28C1.49,142,.57,140,.33,138.15a12.65,12.65,0,0,0,.23,2.43c1.26,6.51,23.45,8.25,33.54,8.74C36.5,144.53,36,140.77,35.34,138.81Z"/><path class="cls-18" d="M69.35,142c-6.88,1.74-11.27,1.46-11.82-1.65s8.52-6.14,12.37-7.24,5.95-2,5.77-.28-1.56,3.58,1,3.67,2.75-2.38,2.84-4.13,1.92-.82,2.84,3.21,2.47,4.58,4.67,4.22,5.74-5.12,6.29-8.79-1.89-5-.06-5.14a2.74,2.74,0,0,1,2.57.84,5.26,5.26,0,0,0-2.4-2l-1-.54a18.74,18.74,0,0,0-6,4.21,8.7,8.7,0,0,0-4.21,1.23c-10.36-.53-24.74,7.37-28.87,9.78.08.15.18.31.29.48,1.17,1.89,3.68,6,4.23,8.49,0,0,15.17-3.3,26.49-6.6.78-.23,1.52-.48,2.22-.76a19.42,19.42,0,0,1-3.82-1.66S76.22,140.29,69.35,142Z"/><path class="cls-19" d="M73.84,132.13a7.1,7.1,0,0,0-1.8.36c-.63.15-1.26.31-1.88.49q-1.91.56-3.75,1.26a38.16,38.16,0,0,0-7,3.49s-.08.15,0,.11a55.58,55.58,0,0,1,6.94-3.27c1.17-.44,2.35-.83,3.56-1.17.62-.17,1.24-.33,1.87-.48a17.59,17.59,0,0,0,1.91-.43C73.79,132.46,74,132.13,73.84,132.13Z"/><path class="cls-19" d="M33.05,139.4a25.71,25.71,0,0,0-5-1.77,28.43,28.43,0,0,0-5.34-.93c-.05,0-.12.14-.06.14,1.72.28,3.44.61,5.13,1.06s3.39,1.12,5.08,1.74C33,139.68,33.14,139.44,33.05,139.4Z"/><path class="cls-19" d="M2.86,132.4a6.25,6.25,0,0,0-2,3.44,2.86,2.86,0,0,0-.08,1.33c.06.21.27-.14.28-.21.08-.41.1-.83.18-1.24a5.26,5.26,0,0,1,.35-1.15,6.54,6.54,0,0,1,1.34-2C3,132.48,3,132.29,2.86,132.4Z"/><path class="cls-19" d="M95,126.4c-.07-.11-.27.17-.21.26a7.87,7.87,0,0,1,.93,2.53,10.6,10.6,0,0,1,0,2.64c0,.31.33-.05.36-.17A6.54,6.54,0,0,0,95,126.4Z"/><path class="cls-4" d="M35.35,78.42S29.92,76.23,25.58,87s-10.37,30.58-15.36,34.48c-3.27,2.56-9.81,2.31-8.86,5s5.73.6,5.73.6-2.15,3-1.91,8.45,3.94,4.83,3.83,3.62c1.68,1.9,4.41.6,4.65-.6,1.44,1.81,4.3,1.08,3.71-.85,2.15,1.33,3.46-1.45,1.67-2.89s-2.24-4,.24-6.21,1.41-5.46,1-6.52c2.48-5.55,6.5-17.15,6.5-17.15Z"/><path class="cls-5" d="M11.1,140.33a3,3,0,0,1-2-.75,1.05,1.05,0,0,1-.32.35A1.85,1.85,0,0,1,7,140c-.69-.35-1.88-1.38-2-4.42a15.41,15.41,0,0,1,1.61-8c-1,.34-2.93.87-4.25.29a2,2,0,0,1-1.17-1.25,1.39,1.39,0,0,1,0-1.15c.47-.92,2-1.38,3.85-1.91a15.53,15.53,0,0,0,5.05-2.14c3.69-2.89,8-14.62,11.75-25,1.26-3.44,2.45-6.7,3.54-9.41,1.82-4.53,4-7.38,6.61-8.47a4.77,4.77,0,0,1,3.44-.27.23.23,0,0,1,.13.27L27,105c0,.12-4,11.57-6.48,17.1,1,2.79.63,5.09-1.11,6.67A4.28,4.28,0,0,0,17.78,132a3.5,3.5,0,0,0,1.39,2.63,2.21,2.21,0,0,1,.58,3,1.66,1.66,0,0,1-2.09.5,1.5,1.5,0,0,1-.84,1.46,2.76,2.76,0,0,1-3.08-.6A2.84,2.84,0,0,1,12,140.21,3.39,3.39,0,0,1,11.1,140.33ZM9,138.93a.21.21,0,0,1,.16.08,2.58,2.58,0,0,0,2.69.78,2.15,2.15,0,0,0,1.59-1.29.22.22,0,0,1,.38-.09,2.32,2.32,0,0,0,2.79.76,1.1,1.1,0,0,0,.54-1.4.22.22,0,0,1,.07-.24.23.23,0,0,1,.25,0,1.32,1.32,0,0,0,1.92-.18,1.77,1.77,0,0,0-.5-2.36A4,4,0,0,1,17.34,132a4.75,4.75,0,0,1,1.79-3.59c2-1.85,1.65-4.44,1-6.28a.2.2,0,0,1,0-.17c2.45-5.48,6.46-17,6.5-17.13l8.48-26.29c-1-.24-5.56-.76-9.3,8.55-1.09,2.71-2.27,6-3.53,9.4-3.8,10.41-8.1,22.21-11.89,25.17a15.71,15.71,0,0,1-5.19,2.22c-1.73.5-3.21.93-3.59,1.68a1,1,0,0,0,0,.82,1.63,1.63,0,0,0,.93,1c1.62.71,4.48-.5,4.51-.52a.22.22,0,0,1,.25.07.21.21,0,0,1,0,.26,14.26,14.26,0,0,0-1.87,8.31c.12,2.82,1.16,3.74,1.77,4a1.42,1.42,0,0,0,1.4,0,.45.45,0,0,0,.22-.4.22.22,0,0,1,.13-.22Z"/><path class="cls-20" d="M17.57,137.66A4.81,4.81,0,0,0,17,137a6.88,6.88,0,0,1-.54-.67,7.6,7.6,0,0,1-.83-1.6,7.42,7.42,0,0,1-.33-3.59c0-.1-.11,0-.12.06a6.38,6.38,0,0,0,.15,3.62,7.12,7.12,0,0,0,.83,1.71,7.34,7.34,0,0,0,.59.76,2.11,2.11,0,0,0,.69.61C17.49,137.94,17.62,137.74,17.57,137.66Z"/><path class="cls-20" d="M13.31,136c-.74-1.4-2.34-3-1.64-4.71.06-.15-.08-.1-.13,0-1.43,2.95,3.43,5.24,1.49,8.1-.06.08,0,.24.09.14A2.1,2.1,0,0,0,13.8,138,3.83,3.83,0,0,0,13.31,136Z"/><path class="cls-20" d="M9.24,136.26c-.46-1.53-1.75-3.51-.71-5.09.05-.07,0-.17-.07-.07-.91,1.2-.59,2.67-.09,4s1.35,3.26.08,4.49c-.07.07-.2.45,0,.32C9.59,139.09,9.61,137.48,9.24,136.26Z"/><path class="cls-21" d="M13.66,138.55l0,0h0Z"/><path class="cls-22" d="M6.64,137.68a9.21,9.21,0,0,1-.34-.87,9,9,0,0,1-.42-1.92,8.14,8.14,0,0,1,0-1.91,15.21,15.21,0,0,1,.43-1.89c0-.13-.09,0-.12,0a7.85,7.85,0,0,0-.72,3.94,8.28,8.28,0,0,0,.33,2,7.32,7.32,0,0,0,.33.93c.11.26.24.73.52.85s.31-.23.3-.35A2.37,2.37,0,0,0,6.64,137.68Z"/><g class="cls-23"><path class="cls-21" d="M26.8,104.93l8.55-26.51S29.92,76.23,25.58,87s-10.16,30.45-15.36,34.48c-3.28,2.55-9.81,2.31-8.86,5h0a2.31,2.31,0,0,1,2.08-1.41,13,13,0,0,0,7.76-3c2-1.87,3.49-1.27,4.19-.51s3.48-.85,4.71,1.62c.1.21.65.84.77,1a13.91,13.91,0,0,0-.63-2.19C22.73,116.48,26.8,104.93,26.8,104.93Z"/></g><g class="cls-24"><path class="cls-18" d="M19,134.81c-1.79-1.45-2.24-4,.24-6.21a3.88,3.88,0,0,0,1.08-1.7,2.09,2.09,0,0,0-.36.45c-1.08,1.93-3.5,2.45-5.66,2.89s-5.75.62-5.48-1.4,4.4-.52,4.49-1.84a4.84,4.84,0,0,1-4.58-1.4,3.23,3.23,0,0,0-1.68,1.48s-2.15,3-1.91,8.45a7.68,7.68,0,0,0,.52,2.61c-.24-2-.42-5.27.63-7,.89-1.33,1.25-.27,1.08,1.66-.19,2.13.51,2.19,1,3.62a3.46,3.46,0,0,1-.73,3.57c.77.13,1.42-.28,1.37-.79a2.72,2.72,0,0,0,.64.55,4.43,4.43,0,0,0,.25-3.14c-.64-2.81-1.92-4.74-.06-5.49,1.22-.25.58,2.25,2,4A5.14,5.14,0,0,1,13,139.47a1.65,1.65,0,0,0,.66-.92,3.15,3.15,0,0,0,.6.56,8.89,8.89,0,0,0-.95-3.12c-1.42-2.8-1.29-4.67,0-4.86s1,2,1.15,3.18,1.45,2.92,2.8,4.46a1.38,1.38,0,0,0,.06-1.07,2.24,2.24,0,0,0,.52.25,8.55,8.55,0,0,1-2.35-4.57c-.13-1.75.19-2.37,1-2.19s-.07,2.44,1.79,3.87a14.4,14.4,0,0,1,1.59,1.36A2.15,2.15,0,0,0,19,134.81Z"/></g><path class="cls-22" d="M18.75,128.27c-.32.15-.61.37-.93.54a7.6,7.6,0,0,1-1,.49,10.28,10.28,0,0,1-2.24.59,11.34,11.34,0,0,1-4.53-.31c-.08,0-.22.21-.14.24a8.57,8.57,0,0,0,4.59.55,9.94,9.94,0,0,0,2.22-.58,6.34,6.34,0,0,0,2-1.14C18.76,128.61,19,128.18,18.75,128.27Z"/><path class="cls-22" d="M7.22,126.39c-.47.06-.93.21-1.4.3a7.48,7.48,0,0,1-1.5.14,2.71,2.71,0,0,1-2.42-1c-.07-.1-.21.14-.2.21.2,1,1.3,1.33,2.2,1.37a5.77,5.77,0,0,0,3.2-.64C7.16,126.75,7.41,126.36,7.22,126.39Z"/><path class="cls-25" d="M10.19,135.81A18,18,0,0,0,9,132.11c0-.07-.15.1-.14.15.18,1.24.62,2.42.84,3.66a7.86,7.86,0,0,1,.15,1.75,4.92,4.92,0,0,1-.09.86,7.51,7.51,0,0,0-.19.82c0,.23.23.05.29,0a3.65,3.65,0,0,0,.4-1.65A7.64,7.64,0,0,0,10.19,135.81Z"/><path class="cls-22" d="M14.86,137.68c-.14-.22-.27-.43-.39-.66a12.58,12.58,0,0,1-.64-1.27,22.62,22.62,0,0,1-1-2.74c0-.12-.18.08-.18.15a11.29,11.29,0,0,0,.78,3,13.43,13.43,0,0,0,.68,1.37c.12.22.25.45.39.66s.23.39.47.45.23-.21.22-.3A1.44,1.44,0,0,0,14.86,137.68Z"/><path class="cls-22" d="M18.05,137a3.73,3.73,0,0,0-.44-.45c-.15-.16-.29-.32-.43-.49a5.93,5.93,0,0,1-.68-1.1,6.84,6.84,0,0,1-.64-2.42c0-.12-.17.07-.17.13a5.18,5.18,0,0,0,.43,2.63,5.91,5.91,0,0,0,.67,1.17c.13.17.27.34.42.5a1.71,1.71,0,0,0,.53.44C17.9,137.48,18.13,137.13,18.05,137Z"/><g class="cls-24"><path class="cls-18" d="M35.35,78.42S29.92,76.23,25.58,87l-.27.7c.58-1.15,1.6-2.59,2.86-2.27,2,.53,1.61,4.07.32,7.1a86.82,86.82,0,0,0-4,16.06c-.1.8-.13,2.56-.23,3.32a70.87,70.87,0,0,0,2.5-7Z"/></g><path class="cls-26" d="M15.32,113.43s-.22,6.84,6.48,4.95a13.45,13.45,0,0,0-1.43,3.12c-.61-1.57-3.47-2-5.1-1.91a11.92,11.92,0,0,0-3.64.41S15,114.83,15.32,113.43Z"/><path class="cls-20" d="M14.88,126.8a7.44,7.44,0,0,1-6.47-1.17s-.08.07-.06.1a6.41,6.41,0,0,0,6.45,1.35C14.88,127.05,15,126.76,14.88,126.8Z"/><path class="cls-4" d="M45.43,85.59c6.7-.7,7.92-6.38,8.31-10.75C48.65,75.08,42.12,76,38,76.67,37.94,80.19,38.84,86.27,45.43,85.59Z"/><path class="cls-5" d="M44.44,85.86a6,6,0,0,1-4.18-1.47c-2.11-1.91-2.53-5.26-2.51-7.73a.22.22,0,0,1,.18-.21c4.44-.7,10.79-1.59,15.8-1.83a.2.2,0,0,1,.16.07.18.18,0,0,1,.06.17c-.42,4.72-1.76,10.24-8.5,10.94h0A9,9,0,0,1,44.44,85.86Zm1-.27Zm-7.25-8.74c0,2.36.43,5.46,2.37,7.22a6,6,0,0,0,4.85,1.3h0c6.31-.65,7.67-5.8,8.1-10.3C48.62,75.32,42.53,76.17,38.18,76.85Z"/><path class="cls-21" d="M42.29,80.68a30.07,30.07,0,0,0,11-2.6,27.9,27.9,0,0,0,.48-3.24C48.65,75.08,42.12,76,38,76.67a16.4,16.4,0,0,0,.35,3.61A17,17,0,0,0,42.29,80.68Z"/><path class="cls-27" d="M61.75,88.08c-3.27-5-2.11-7.29-1.54-12.86a20.15,20.15,0,0,0-6.47-.38c-.39,4.37-1.61,10-8.31,10.75s-7.49-5.4-7.46-8.92c-2.47.39-4.1.68-4.1.68s-.26,3.24-.78,8.15c-.52,4.4-9.55,15.64-7.25,39.45,6.72,9.79,37.27,12,53.79-3.71C74.44,99,66,93.84,61.75,88.08Z"/><path class="cls-28" d="M48.12,132.89a50.24,50.24,0,0,1-5.17-.26c-8.16-.85-14.62-3.68-17.29-7.56a.17.17,0,0,1,0-.1c-1.74-17.93,3-29,5.6-34.91a20.53,20.53,0,0,0,1.65-4.58c.51-4.86.77-8.11.77-8.15a.2.2,0,0,1,.18-.19s1.66-.3,4.1-.69a.24.24,0,0,1,.18,0,.24.24,0,0,1,.07.17c0,2.38.38,5.6,2.37,7.4a6,6,0,0,0,4.85,1.3c6.43-.67,7.72-6,8.12-10.55a.22.22,0,0,1,.21-.2,20.36,20.36,0,0,1,6.55.39.22.22,0,0,1,.15.23c-.1,1-.23,1.88-.33,2.67-.51,3.75-.82,6,1.83,10a42.22,42.22,0,0,0,3,3.58c4.53,5,10.73,11.87,14.87,29.65a.21.21,0,0,1-.06.2C70.84,129.92,58.36,132.89,48.12,132.89Zm-22.07-8c2.61,3.76,8.94,6.49,17,7.33,10.78,1.12,26-1.19,36.39-11-4.11-17.58-10.26-24.38-14.75-29.34a47.06,47.06,0,0,1-3.07-3.62h0c-2.74-4.18-2.42-6.5-1.9-10.35.1-.74.21-1.57.31-2.48a21.26,21.26,0,0,0-6-.33c-.44,4.69-1.84,10.07-8.49,10.76a6.39,6.39,0,0,1-5.19-1.41c-2-1.85-2.5-5-2.51-7.47l-3.68.61c-.06.73-.32,3.75-.76,8a21,21,0,0,1-1.68,4.71C28.9,96.54,24.34,107.08,26.05,124.87Z"/><g class="cls-29"><path class="cls-30" d="M61.75,88.08c-3.27-5-2.11-7.29-1.54-12.86a20.15,20.15,0,0,0-6.47-.38c-.39,4.37-1.61,10-8.31,10.75s-7.49-5.4-7.46-8.92c-2.47.39-4.1.68-4.1.68s-.07.88-.21,2.4a16.67,16.67,0,0,0,2.66.18s-1.76,9.59,6.75,9.46S53.31,88,57.63,97.15s6.62,22.55-4.19,25.79c5.4.68,10.4-5.13,12-2s.43,10.47-19,9.38-19.17-5.67-19.31-8.1,1.08-3,5.54-1.35c-5-5.54-5.13-11.61-4.05-17.42s4.05-11.88,4.32-16.88c0-.11,0-.21,0-.31-1.26,4.85-9.29,16.12-7.1,38.71,6.72,9.79,37.27,12,53.79-3.71C74.44,99,66,93.84,61.75,88.08Z"/></g><g class="cls-29"><path class="cls-31" d="M61.75,88.08c-3.27-5-2.11-7.29-1.54-12.86a20.15,20.15,0,0,0-6.47-.38c-.39,4.37-1.61,10-8.31,10.75s-7.49-5.4-7.46-8.92c-.62.09-1.18.18-1.67.27.33,3.46,1.69,9.39,7.07,10.32,7.67,1.34,11.34-4.17,12-8.34l1.53.12s-1.75,6,1.26,8.81A32.67,32.67,0,0,1,68.51,104.7c2.5,9.51.21,10.92-.79,12.09s1.84.67,4.67-1.5,2.84,1.83,3.67,5c.57,2.14-1.38,4.95-5.71,7.38a37.78,37.78,0,0,0,9.28-6.43C74.44,99,66,93.84,61.75,88.08Z"/></g><path class="cls-4" d="M73.46,56.66c10,4.61,12.92-12.85,7.43-14.6-3.79-1.2-6.66,1.16-7.68,5.89-3.59-4.09,0-11.52-3.59-15.61-.25,4.35-2.3,5.63-2.3,5.63a21.76,21.76,0,0,0-1.8-10c.77,5.64-1.79,6.66-1.79,6.66S65.52,28,56.82,23.12s-6.91-9-6.91-9c-3.84,4.09-1,7.68-1,7.68s-4.61-3.59-3.58-8.71c-3.59,6.66-9.73,5.64-9.73,5.64s4.1-3.08,2-5.89c-5.89,7.68-12,4.61-12,4.61s3.58-1,2.81-4.36a44,44,0,0,1-17.13,9A19.2,19.2,0,0,0,7.31,35c.46,7.7-.24,9.33-1.64,14.47s-2,24.3,23.76,28.46c25.34,4.09,36.44-10,36.44-10C69.54,64.51,72.44,61.78,73.46,56.66Z"/><path class="cls-5" d="M38.29,78.86a55.19,55.19,0,0,1-8.9-.74c-9.92-1.6-17-5.56-21-11.77a22.73,22.73,0,0,1-3-17c.12-.45.24-.86.35-1.26C7,43.91,7.51,42,7.09,35a19.55,19.55,0,0,1,4-13,.19.19,0,0,1,.11-.07,44.35,44.35,0,0,0,17-9,.2.2,0,0,1,.21,0,.19.19,0,0,1,.14.15,3.78,3.78,0,0,1-2.43,4.41,8.17,8.17,0,0,0,3.22.35c2.9-.25,5.68-2,8.05-5.1a.18.18,0,0,1,.17-.08.2.2,0,0,1,.17.09c1.74,2.39-.67,4.94-1.68,5.84,1.52.07,6.12-.22,9-5.56a.21.21,0,0,1,.26-.1.22.22,0,0,1,.14.25c-.69,3.47,1.31,6.25,2.57,7.6-.56-1.44-.92-4,1.67-6.77A.21.21,0,0,1,50,14a.22.22,0,0,1,.08.26s-1.58,4,6.82,8.69c4.56,2.55,6.22,5.6,6.82,7.71A8.92,8.92,0,0,1,64,34.17c.64-.56,1.81-2.17,1.27-6.16a.22.22,0,0,1,.16-.24.21.21,0,0,1,.25.13,22.8,22.8,0,0,1,1.85,9.56,7.81,7.81,0,0,0,1.83-5.14.23.23,0,0,1,.15-.19.22.22,0,0,1,.23.06c1.85,2.11,1.85,5.08,1.85,8,0,2.64,0,5.36,1.46,7.33.63-2.53,1.79-4.34,3.39-5.27A5.45,5.45,0,0,1,81,41.86c1.39.44,2.36,1.84,2.73,3.94.61,3.43-.54,8.35-3.5,10.63a6.23,6.23,0,0,1-6.56.54C72.52,62.07,69.5,64.84,66,68,65.94,68.14,57.26,78.86,38.29,78.86ZM11.39,22.34A19.27,19.27,0,0,0,7.52,35C8,42,7.41,44,6.23,48.24L5.88,49.5a22.3,22.3,0,0,0,2.9,16.61c3.93,6.1,10.89,10,20.68,11.58C42.48,79.8,51.64,77,57,74.25a27.63,27.63,0,0,0,8.67-6.51c3.51-3.23,6.52-6,7.55-11.13a.21.21,0,0,1,.11-.15.21.21,0,0,1,.19,0c2.41,1.11,4.61,1,6.37-.38,2.83-2.18,3.92-6.9,3.34-10.2-.34-1.94-1.21-3.22-2.44-3.61a5,5,0,0,0-4.13.31c-1.57.91-2.7,2.78-3.27,5.42a.22.22,0,0,1-.16.16A.23.23,0,0,1,73,48.1C71.2,46,71.2,43,71.2,40.14c0-2.59,0-5.28-1.41-7.24-.39,4-2.27,5.2-2.36,5.25a.2.2,0,0,1-.23,0,.21.21,0,0,1-.1-.21,21.17,21.17,0,0,0-1.22-8.45c.16,4.4-2,5.31-2.07,5.35a.2.2,0,0,1-.22,0,.22.22,0,0,1-.07-.22,7.77,7.77,0,0,0-.2-3.84c-.57-2-2.19-5-6.61-7.43-6.54-3.66-7.26-6.91-7.17-8.39-2.87,3.64-.59,6.65-.49,6.78A.23.23,0,0,1,49,22a.22.22,0,0,1-.29,0s-4.07-3.23-3.8-7.85a10.21,10.21,0,0,1-5.8,4.49,8.81,8.81,0,0,1-3.62.33.21.21,0,0,1-.17-.16.22.22,0,0,1,.08-.23s3.66-2.8,2.16-5.34c-3,3.83-6.11,4.85-8.19,5a7.93,7.93,0,0,1-3.92-.6.22.22,0,0,1-.12-.21.21.21,0,0,1,.16-.19c.13,0,3.12-.94,2.73-3.74A44.72,44.72,0,0,1,11.39,22.34Z"/><g class="cls-17"><path class="cls-32" d="M80.89,42.06c-3.79-1.2-6.66,1.16-7.68,5.89-3.59-4.09,0-11.52-3.59-15.61-.25,4.35-2.3,5.63-2.3,5.63a21.76,21.76,0,0,0-1.8-10c.77,5.64-1.79,6.66-1.79,6.66S65.52,28,56.82,23.12s-6.91-9-6.91-9c-3.84,4.09-1,7.68-1,7.68s-4.61-3.59-3.58-8.71c-3.59,6.66-9.73,5.64-9.73,5.64s4.1-3.08,2-5.89c-5.89,7.68-12,4.61-12,4.61s3.58-1,2.81-4.36a44,44,0,0,1-17.13,9,16.51,16.51,0,0,0-1.91,3,7.1,7.1,0,0,0,4.73-1.57,5.64,5.64,0,0,1-2.31,2.94C19.86,27.13,22,23.49,23,22.21a3.15,3.15,0,0,1-.33,2.13c5.05.24,10.46-2.89,11.42-4.81l-.84,2.53s6.26-.12,10.47-4.33a14.39,14.39,0,0,0,7.69,9.5,5.11,5.11,0,0,1-.72-4.69s13.83,6.13,10.95,19.24a10.16,10.16,0,0,0,3-4.45s2,.51,1.51,8.57c1.67-.76,2-4.22,2-4.22s4.87,40.84-40.45,35.84l-.85-.09q1.21.27,2.52.48c25.34,4.09,36.44-10,36.44-10,3.67-3.37,6.57-6.1,7.59-11.22C83.45,61.27,86.38,43.81,80.89,42.06Z"/></g><path class="cls-33" d="M16.73,20.28s.92,1.43-.75,3.22c0,0,5.38.51,9.61-6a3.44,3.44,0,0,1-.65,3.45c4.87.13,11.14-3.33,12.68-8.06,2.05,2.81-2,5.89-2,5.89s6.14,1,9.73-5.64c-1,5.12,3.58,8.71,3.58,8.71s-2.81-3.59,1-7.68c0,0-1.79,4.09,6.91,9s6.91,11.52,6.91,11.52,2.56-1,1.79-6.66a21.76,21.76,0,0,1,1.8,10s2.05-1.28,2.3-5.63c3.59,4.09,0,11.52,3.59,15.61,1-4.73,3.89-7.09,7.68-5.89,5.49,1.75,2.56,19.21-7.43,14.6-1,5.12-3.92,7.85-7.59,11.22,0,0,19.83-2.8,20.06-24.73,2.57,4,5.14,1.86,5.14,1.86s-4.9-2.56-4.2-7.93S83.13,11.65,70.77,8.62c0,0,4-2.34,6.3-.24-3-5.83-7.24-2.1-7.24-2.1A6.3,6.3,0,0,0,65.4.22c2.33,1.86,1.17,5.6,1.17,5.6-12.83-11-37.8-3.27-44.33.93-5.83,3.74-9.1,4.9-11,.7C9.87,13.28,14.54,14,14.54,14s-6.19.69-7.86,6.33a14.78,14.78,0,0,1,7-2.63s-1.32,5.07-8.42,4.44C8.2,26.3,16.07,22.82,16.73,20.28Z"/><path class="cls-34" d="M65.87,68.1a.22.22,0,0,1-.2-.13.21.21,0,0,1,0-.25c3.49-3.21,6.5-6,7.53-11.11a.21.21,0,0,1,.11-.15.21.21,0,0,1,.19,0c2.41,1.11,4.61,1,6.37-.38,2.83-2.18,3.92-6.9,3.34-10.2-.34-1.94-1.21-3.22-2.44-3.61a5,5,0,0,0-4.13.31c-1.57.91-2.7,2.78-3.27,5.42a.22.22,0,0,1-.16.16A.23.23,0,0,1,73,48.1C71.2,46,71.2,43,71.2,40.14c0-2.59,0-5.28-1.41-7.24-.39,4-2.27,5.2-2.36,5.25a.2.2,0,0,1-.23,0,.21.21,0,0,1-.1-.21,21.17,21.17,0,0,0-1.22-8.45c.16,4.4-2,5.31-2.07,5.35a.2.2,0,0,1-.22,0,.22.22,0,0,1-.07-.22,7.77,7.77,0,0,0-.2-3.84c-.57-2-2.19-5-6.61-7.43-6.54-3.66-7.26-6.91-7.17-8.39-2.87,3.64-.59,6.65-.49,6.78A.23.23,0,0,1,49,22a.22.22,0,0,1-.29,0s-4.07-3.23-3.8-7.85A9.9,9.9,0,0,1,35.53,19a.21.21,0,0,1-.17-.16.22.22,0,0,1,.08-.23s3.55-2.71,2.23-5.22c-1.84,4.76-8.07,7.91-12.73,7.79a.22.22,0,0,1-.19-.12.21.21,0,0,1,0-.23A3.53,3.53,0,0,0,25.52,18C21.31,24.15,16,23.72,16,23.72a.22.22,0,0,1-.18-.14.22.22,0,0,1,.05-.23,2.71,2.71,0,0,0,.89-2.49c-.8,1.4-3.23,2.83-5.73,3.28s-4.71-.21-5.89-1.9a.21.21,0,0,1,0-.23.21.21,0,0,1,.21-.11c5.8.52,7.65-2.9,8.08-4a14.36,14.36,0,0,0-6.57,2.54.21.21,0,0,1-.26,0,.22.22,0,0,1-.08-.24c1.3-4.41,5.36-5.87,7.16-6.31a4.5,4.5,0,0,1-2.05-1.63,6,6,0,0,1-.52-4.91.22.22,0,0,1,.19-.17.23.23,0,0,1,.22.13,3.94,3.94,0,0,0,2.3,2.42c1.9.56,4.71-.87,8.35-3.21,6.24-4,31.29-11.88,44.32-1.14.21-.93.63-3.6-1.17-5a.22.22,0,0,1-.06-.28.22.22,0,0,1,.26-.1A6.56,6.56,0,0,1,70,5.85a4.79,4.79,0,0,1,3.5-.9c1.46.27,2.71,1.39,3.72,3.33a.21.21,0,0,1-.06.27.2.2,0,0,1-.28,0C75.2,7,72.47,8,71.37,8.55,83.26,12,87.82,31.42,87.08,37.11c-.67,5.15,4,7.69,4.09,7.71a.25.25,0,0,1,.11.17.2.2,0,0,1-.08.19,3,3,0,0,1-2.28.57,4.5,4.5,0,0,1-2.78-1.93c-.33,11-5.7,17-10.2,20.1a26.13,26.13,0,0,1-10,4.17ZM73.62,57c-1,4.82-3.8,7.56-7,10.55,3.58-.79,18.93-5.31,19.14-24.38a.21.21,0,0,1,.15-.2.2.2,0,0,1,.24.09A4.51,4.51,0,0,0,89,45.32a2.62,2.62,0,0,0,1.67-.3c-1.08-.69-4.61-3.32-4-8,.74-5.68-3.88-25.27-15.93-28.22a.23.23,0,0,1-.17-.18.22.22,0,0,1,.11-.22c.15-.09,3.34-1.94,5.75-.75a4.63,4.63,0,0,0-3-2.3A4.56,4.56,0,0,0,70,6.45a.23.23,0,0,1-.24,0,.21.21,0,0,1-.12-.21A6,6,0,0,0,66.27.82c1.43,2,.55,4.92.51,5.06a.28.28,0,0,1-.15.15.24.24,0,0,1-.2,0c-12.79-10.92-37.86-3-44.07.95-3.85,2.47-6.65,3.88-8.72,3.26a3.9,3.9,0,0,1-2.28-2.08,5.27,5.27,0,0,0,.57,4,4.26,4.26,0,0,0,2.64,1.71.2.2,0,0,1,.18.22.21.21,0,0,1-.19.21c-.06,0-5.59.68-7.46,5.53a15.52,15.52,0,0,1,6.58-2.27.23.23,0,0,1,.18.08.22.22,0,0,1,.05.19c0,.06-1.4,5-8.16,4.64,1.49,1.69,3.84,1.58,5.16,1.34,2.63-.47,5.25-2.1,5.61-3.49a.23.23,0,0,1,.18-.16.22.22,0,0,1,.21.1,2.72,2.72,0,0,1-.46,3.13c1.36-.06,5.55-.67,9-5.92a.21.21,0,0,1,.2-.1.21.21,0,0,1,.18.12,3.53,3.53,0,0,1-.43,3.34c4.59-.08,10.59-3.38,12.06-7.92a.23.23,0,0,1,.17-.15.21.21,0,0,1,.21.09c1.74,2.39-.67,4.94-1.68,5.84,1.52.07,6.12-.22,9-5.56a.21.21,0,0,1,.26-.1.22.22,0,0,1,.14.25c-.69,3.47,1.31,6.25,2.57,7.6-.56-1.44-.92-4,1.67-6.77A.21.21,0,0,1,50,14a.22.22,0,0,1,.08.26s-1.58,4,6.82,8.69c4.56,2.55,6.22,5.6,6.82,7.71A8.92,8.92,0,0,1,64,34.17c.64-.56,1.81-2.17,1.27-6.16a.22.22,0,0,1,.16-.24.21.21,0,0,1,.25.13,22.8,22.8,0,0,1,1.85,9.56,7.81,7.81,0,0,0,1.83-5.14.23.23,0,0,1,.15-.19.22.22,0,0,1,.23.06c1.85,2.11,1.85,5.08,1.85,8,0,2.64,0,5.36,1.46,7.33.63-2.53,1.79-4.34,3.39-5.27A5.45,5.45,0,0,1,81,41.86c1.39.44,2.36,1.84,2.73,3.94.61,3.43-.54,8.35-3.5,10.63A6.23,6.23,0,0,1,73.62,57Z"/><path class="cls-26" d="M7,47a11.16,11.16,0,0,1,8.11,3.48l-.15-1.27s4.81-.78,4.18-7.66c-.18-2-1.6-5.52-3.71-6.23-2.37-.78-4.44.88-5.26,2.94a15.39,15.39,0,0,0-.73,4.16,16.91,16.91,0,0,0,.26,3A4.82,4.82,0,0,0,7,47Z"/><path class="cls-5" d="M7.66,46.76,8,46.7a7.36,7.36,0,0,1,.91,0c.19,0,.39.05.6.07a2.65,2.65,0,0,1,.67.13l.7.2a5.93,5.93,0,0,1,.69.29c.23.11.46.21.68.34l.6.41c.2.13.38.26.55.39a6,6,0,0,1,.44.42c.53.53.86.9.86.9s-.41-.29-1-.75c-.14-.11-.29-.24-.47-.36l-.56-.34-.6-.38c-.21-.11-.44-.2-.66-.3s-.43-.23-.65-.31l-.67-.21A4,4,0,0,0,9.47,47c-.21-.05-.4-.1-.58-.13-.37,0-.67-.09-.88-.09Z"/><path class="cls-35" d="M18.48,40.89a8.42,8.42,0,0,1-1.11,5.69,4.09,4.09,0,0,1-4.21,1.64,5,5,0,0,1-3.05-3.89c-.55-2.82.21-6.81,2.89-8.08,2.34-1.11,4.52,1,5.19,3.31A8.52,8.52,0,0,1,18.48,40.89Z"/><path class="cls-36" d="M18.48,40.89s0,.13,0,.37a9,9,0,0,1,.06,1.07A9.78,9.78,0,0,1,18.42,44a8.3,8.3,0,0,1-.67,2c-.09.18-.19.35-.29.53s-.25.33-.37.51l-.48.45-.56.38a3.94,3.94,0,0,1-2.78.5,4.55,4.55,0,0,1-.71-.25,7.57,7.57,0,0,1-.67-.42,5,5,0,0,1-1.05-1.16,6.34,6.34,0,0,1-1-3A10.11,10.11,0,0,1,10,40.38a7.42,7.42,0,0,1,1.23-2.81A4.41,4.41,0,0,1,13.56,36a3.06,3.06,0,0,1,2.45.49A5.11,5.11,0,0,1,17.49,38a6.09,6.09,0,0,1,.69,1.5C18.38,40.38,18.48,40.89,18.48,40.89Zm0,0s-.11-.51-.32-1.4A6.32,6.32,0,0,0,17.45,38,4.87,4.87,0,0,0,16,36.52a2.92,2.92,0,0,0-2.36-.39,4.08,4.08,0,0,0-2.16,1.6,8.84,8.84,0,0,0-1.27,5.77,6.14,6.14,0,0,0,.94,2.85,4,4,0,0,0,2.21,1.77,3.81,3.81,0,0,0,2.64-.4c.19-.11.37-.24.55-.35L17,47c.13-.17.28-.32.38-.48l.31-.52a7.73,7.73,0,0,0,.7-2,8.87,8.87,0,0,0,.18-1.63,9.9,9.9,0,0,0,0-1.07C18.49,41,18.48,40.89,18.48,40.89Z"/><g class="cls-29"><path class="cls-37" d="M13,36.25l.24-.09c-2.43,1.17-3.13,4.82-2.63,7.39a4.63,4.63,0,0,0,2.81,3.57,3.73,3.73,0,0,0,3.86-1.5,7.79,7.79,0,0,0,1-5.22A8.58,8.58,0,0,0,18,39.18a4.34,4.34,0,0,0-.16-.47,5.88,5.88,0,0,1,.32.85,8.52,8.52,0,0,1,.29,1.33,8.42,8.42,0,0,1-1.11,5.69,4.09,4.09,0,0,1-4.21,1.64,5,5,0,0,1-3.05-3.89C9.56,41.51,10.32,37.52,13,36.25Z"/></g><path class="cls-38" d="M11.28,42.16c-.16,2.65.81,4.82,2.68,5.17s3.6-1.36,3.69-4S16.26,38,14.59,37.83,11.43,39.52,11.28,42.16Z"/><g class="cls-17"><path class="cls-39" d="M14,47.33c1.87.33,3.6-1.36,3.69-4S16.26,38,14.59,37.83s-3.16,1.69-3.31,4.33S12.09,47,14,47.33ZM11.5,41.91c.15-2.43,1.55-4.16,3.1-3.95s2.89,2.59,2.83,5S15.74,47,14,46.69,11.36,44.35,11.5,41.91Z"/></g><g class="cls-24"><path class="cls-40" d="M14,47.33c1.87.33,3.6-1.36,3.69-4S16.26,38,14.59,37.83s-3.16,1.69-3.31,4.33S12.09,47,14,47.33ZM12.44,40c.68-.64.72-.17.44.44s-1.16,2.67-.28,4.17c.43.71,1.07,1,1.09,1.29s-1.44.15-1.92-1.34A5.23,5.23,0,0,1,12.44,40Z"/></g><g class="cls-24"><path class="cls-40" d="M12.26,42.68c.13-1.79,1.21-3,2.44-2.76L15,40a.78.78,0,0,1,.67-.47c.53,0,1.06.75,1.16,1.62a2.23,2.23,0,0,1-.1,1,4.46,4.46,0,0,1,.16,1.42c-.07,1.79-1.31,2.93-2.62,2.68S12.15,44.47,12.26,42.68Z"/></g><path class="cls-41" d="M12.85,42.72c-.11,1.33.5,2.49,1.5,2.68s1.92-.68,2-2a2.57,2.57,0,0,0-1.63-2.73C13.77,40.47,13,41.38,12.85,42.72Z"/><g class="cls-24"><path class="cls-40" d="M14.05,41.12c.44,1.28,1.6,2.2,2.44,2s1-1.51.57-2.74-1.48-2.31-2.27-2S13.62,39.85,14.05,41.12Z"/></g><path class="cls-6" d="M14.68,41c.33,1,1.19,1.67,1.8,1.49s.76-1.14.39-2.07-1.11-1.74-1.71-1.53S14.33,40,14.68,41Z"/><g class="cls-42"><path class="cls-38" d="M12.13,41.51c-.17,1.05-.3,3.13,1.1,4,.82.55-1.22.35-1.54-1.93C11.44,41.87,12.34,40.19,12.13,41.51Z"/></g><g class="cls-42"><path class="cls-38" d="M12.4,40.38c.22.07.08.64-.23.53S12.1,40.29,12.4,40.38Z"/></g><path class="cls-26" d="M51,47.71A15.28,15.28,0,0,0,40.14,52l.21-1.62s-6.4-1.07-5.47-9.83c.28-2.58,2-6,4.8-6.87,3.17-1,5.91,1.19,7,3.83a15,15,0,0,1,1.09,4.74,16.22,16.22,0,0,1-.33,3.41A6.55,6.55,0,0,1,51,47.71Z"/><path class="cls-5" d="M50.08,47.35h-.45a11,11,0,0,0-1.17.11c-.24,0-.49.09-.76.14a5.54,5.54,0,0,0-.85.21l-.89.27c-.3.09-.58.25-.88.36l-.88.38-.81.47-.76.43a6.87,6.87,0,0,0-.63.45c-.78.58-1.34,1-1.34,1s.45-.47,1.17-1.15a5.4,5.4,0,0,1,.61-.53l.74-.5.81-.52c.29-.15.6-.27.91-.41s.6-.27.92-.36l.93-.24a4.73,4.73,0,0,1,.89-.15c.28,0,.55-.06.8-.07a7.63,7.63,0,0,1,1.2.07A2.28,2.28,0,0,1,50.08,47.35Z"/><path class="cls-35" d="M36.22,40.38a9.58,9.58,0,0,0,1.3,6.76,5.17,5.17,0,0,0,5.19,2,6,6,0,0,0,3.83-4.56c.72-3.33-.17-8.07-3.47-9.61-2.88-1.35-5.61,1.16-6.48,3.84A10.53,10.53,0,0,0,36.22,40.38Z"/><path class="cls-36" d="M36.22,40.38s0,.16,0,.45a10,10,0,0,0-.07,1.28c0,.27,0,.57,0,.9s.08.69.16,1.06a8.44,8.44,0,0,0,.87,2.4,4.63,4.63,0,0,0,2.11,2.06,4.82,4.82,0,0,0,3.2.49,4.93,4.93,0,0,0,2.76-2,6.87,6.87,0,0,0,1.21-3.4,10.91,10.91,0,0,0-.15-3.65,8.4,8.4,0,0,0-1.38-3.24,4.91,4.91,0,0,0-2.65-1.89,3.77,3.77,0,0,0-2.87.42A6,6,0,0,0,37.55,37a6.63,6.63,0,0,0-.9,1.75c-.16.52-.25.95-.32,1.24Zm0,0s0-.15.1-.44.15-.71.3-1.24a7.32,7.32,0,0,1,.89-1.77,6.35,6.35,0,0,1,1.85-1.79,3.91,3.91,0,0,1,3-.53,5.23,5.23,0,0,1,2.85,1.89,8.28,8.28,0,0,1,1.53,3.35,11.85,11.85,0,0,1,.2,3.81,7.35,7.35,0,0,1-1.34,3.57,6.3,6.3,0,0,1-1.33,1.35c-.27.16-.55.34-.82.47a5.54,5.54,0,0,1-.87.28,5,5,0,0,1-3.36-.62,5.87,5.87,0,0,1-1.28-1c-.17-.2-.31-.39-.47-.6l-.36-.63a9.79,9.79,0,0,1-.83-2.44c-.08-.37-.11-.73-.15-1.06s0-.64,0-.91a9.43,9.43,0,0,1,.08-1.28C36.2,40.54,36.22,40.38,36.22,40.38Z"/><g class="cls-29"><path class="cls-37" d="M43.07,35l-.3-.12c3,1.43,3.81,5.76,3.16,8.8a5.55,5.55,0,0,1-3.52,4.19A4.75,4.75,0,0,1,37.65,46a8.82,8.82,0,0,1-1.2-6.2,8.41,8.41,0,0,1,.35-1.44c.06-.19.13-.37.21-.56a7.1,7.1,0,0,0-.42,1,10.53,10.53,0,0,0-.37,1.57,9.58,9.58,0,0,0,1.3,6.76,5.17,5.17,0,0,0,5.19,2,6,6,0,0,0,3.83-4.56C47.26,41.25,46.37,36.51,43.07,35Z"/></g><path class="cls-38" d="M37.45,41.9c-.19,3.17,1,5.77,3.22,6.19s4.3-1.62,4.42-4.8S43.42,37,41.42,36.72,37.63,38.73,37.45,41.9Z"/><g class="cls-17"><path class="cls-39" d="M40.67,48.09c2.23.4,4.3-1.62,4.42-4.8S43.42,37,41.42,36.72s-3.79,2-4,5.18S38.42,47.67,40.67,48.09Zm-3-6.49c.18-2.91,1.85-5,3.71-4.74s3.46,3.1,3.39,6-2,4.81-4.12,4.43S37.54,44.52,37.72,41.6Z"/></g><g class="cls-24"><path class="cls-40" d="M40.67,48.09c2.23.4,4.3-1.62,4.42-4.8S43.42,37,41.42,36.72s-3.79,2-4,5.18S38.42,47.67,40.67,48.09Zm-1.82-8.74c.8-.77.86-.21.51.53s-1.38,3.19-.32,5c.51.85,1.28,1.26,1.3,1.54s-1.72.19-2.31-1.6C37.35,42.75,38,40.14,38.85,39.35Z"/></g><g class="cls-24"><path class="cls-40" d="M38.63,42.52c.16-2.14,1.45-3.61,2.92-3.31a1.35,1.35,0,0,1,.3.08.94.94,0,0,1,.8-.57c.64,0,1.28.9,1.39,1.94a2.64,2.64,0,0,1-.12,1.19,5.92,5.92,0,0,1,.2,1.7c-.09,2.14-1.57,3.5-3.15,3.21S38.49,44.66,38.63,42.52Z"/></g><path class="cls-41" d="M39.33,42.57c-.12,1.6.61,3,1.8,3.21s2.3-.82,2.38-2.42-.83-3-2-3.27S39.45,41,39.33,42.57Z"/><g class="cls-24"><path class="cls-40" d="M40.77,40.66c.53,1.52,1.91,2.62,2.92,2.35s1.25-1.81.68-3.28-1.76-2.77-2.71-2.4S40.26,39.14,40.77,40.66Z"/></g><path class="cls-6" d="M41.52,40.47c.41,1.16,1.43,2,2.16,1.79s.92-1.37.47-2.49-1.34-2.08-2-1.82S41.1,39.32,41.52,40.47Z"/><g class="cls-42"><path class="cls-38" d="M38.47,41.12c-.21,1.25-.36,3.74,1.32,4.84,1,.65-1.46.41-1.84-2.32C37.65,41.55,38.72,39.54,38.47,41.12Z"/></g><g class="cls-42"><path class="cls-38" d="M38.8,39.76c.25.09.09.77-.28.64S38.43,39.65,38.8,39.76Z"/></g><path class="cls-43" d="M40.33,59.52c1,4.7,4.49,5,8.13,3.44,6.39-2.78,9.74-7.39,8.68-10.74s-4.39-5.79-9.75-3.92S39.2,54.25,40.33,59.52Z"/><path class="cls-6" d="M51.82,50.14c.12.44-.57.89-1.55,1s-1.86-.19-2-.65.57-.87,1.56-1S51.69,49.68,51.82,50.14Z"/><path class="cls-6" d="M54,51c-.05.22-.37.35-.73.28s-.6-.29-.55-.51.37-.35.73-.29S54.07,50.78,54,51Z"/><path class="cls-44" d="M15.66,57.52c-1.56,2.91-3.91,2.47-6,.74-3.7-3-5-6.71-3.7-8.72s4-3,7.16-.75S17.39,54.25,15.66,57.52Z"/><path class="cls-6" d="M9.37,49.32c-.17.27.21.7.83,1s1.27.23,1.45-.05-.21-.69-.84-.94S9.54,49.05,9.37,49.32Z"/><path class="cls-6" d="M7.76,49.48c0,.16.17.3.42.33s.45-.08.46-.24-.18-.3-.43-.32S7.76,49.32,7.76,49.48Z"/><path class="cls-26" d="M23.52,53.08c-2.87-.76-3-2.4-1.13-2.7-1.46-.4-3.36.29-3.56,2a3.12,3.12,0,0,0,1,2.59c1.28,1.26,3.74,2.41,5.52,1.81.91-.3,3-.76,1.91-3.18C26.62,52.31,27.14,54,23.52,53.08Z"/><path class="cls-26" d="M20.66,51.57a1.65,1.65,0,0,1,.84-1c-1.16.19-1.62,1.91-1.12,3.17a4.51,4.51,0,0,0,1.93,2.31,3.53,3.53,0,0,0,3,.18,1.45,1.45,0,0,0,.88-1.84c-.08-.2-.17-.4-.26-.6a1.74,1.74,0,0,1-1.63,1.1,4.23,4.23,0,0,1-2.75-1.2C21.14,53.25,20.43,52.27,20.66,51.57Z"/><path class="cls-36" d="M25.79,54c-.85,1.92-3.78,0-4.5-1.09a2.17,2.17,0,0,1-.37-1.18c0-.78.74-1.08,1.37-1.17a2.8,2.8,0,0,0,1.34-.26c.19-.1.3-.14-.06,0-.67.2-1.66-.14-2.38.32s-.68,1.6-.27,2.36c.76,1.44,3.95,3.35,4.92,1.17C25.93,53.9,25.87,53.79,25.79,54Z"/><path class="cls-45" d="M25.73,52.45a3.79,3.79,0,0,1-1.54-.1A5.4,5.4,0,0,1,23,51.79c-.34-.2-.55-.5-.89-.69a.22.22,0,0,0-.33.16c.06,1.53,3,1.76,4,1.24C25.76,52.48,25.75,52.45,25.73,52.45Z"/><path class="cls-21" d="M8.26,36.81s3.39-6.89,10.13-.89C16.64,31.58,11,28.44,8.26,36.81Z"/><path class="cls-21" d="M33.9,35.37s6.47-10.32,13.72-.7C45.52,28.41,38.7,24.9,33.9,35.37Z"/><path class="cls-33" d="M8,35.79s3.39-6.89,10.13-.89C16.4,30.56,10.78,27.42,8,35.79Z"/><path class="cls-34" d="M8,36l-.08,0a.22.22,0,0,1-.13-.27c1.45-4.37,3.53-5.34,5-5.39,2.39-.06,4.59,2.2,5.51,4.49a.21.21,0,0,1-.07.26.21.21,0,0,1-.27,0c-2.13-1.89-4.12-2.67-5.92-2.32a6.21,6.21,0,0,0-3.87,3.15A.24.24,0,0,1,8,36ZM13,30.76h-.11c-1.15,0-2.69.71-4,3.43A5.74,5.74,0,0,1,12,32.32c1.72-.33,3.57.26,5.52,1.78C16.54,32.32,14.82,30.76,13,30.76Z"/><path class="cls-33" d="M33.67,34.34S40.14,24,47.39,33.65C45.29,27.39,38.46,23.88,33.67,34.34Z"/><path class="cls-34" d="M33.67,34.56l-.1,0a.23.23,0,0,1-.1-.29c2.07-4.52,4.81-6.93,7.69-6.78,2.71.14,5.24,2.54,6.43,6.11a.22.22,0,0,1-.1.27.23.23,0,0,1-.28-.07c-2.07-2.76-4.31-4.12-6.55-4-3.93.17-6.78,4.64-6.81,4.69A.2.2,0,0,1,33.67,34.56Zm7.22-5.23c2,0,3.93,1,5.76,3.08C45.4,29.78,43.29,28,41.13,27.9s-4.4,1.47-6.21,4.51a8.73,8.73,0,0,1,5.72-3.07Z"/><path class="cls-46" d="M75.72,49a5.88,5.88,0,0,0,.65,5.25c.06.1.1,0,.07-.1a5.86,5.86,0,0,1-.65-3,2.16,2.16,0,0,0,.88,1.11,2.46,2.46,0,0,0,2.66,0c.14-.1,0-.52-.17-.52a16.81,16.81,0,0,1-1.74.18,1.87,1.87,0,0,1-1.6-1.23,7.58,7.58,0,0,1,.4-1.68,4.81,4.81,0,0,1,1.28-1.89c.77-.7,1.52-.33,2.39-.23.24,0,.07-.41,0-.48C77.72,45,76.34,47.1,75.72,49Z"/><g class="cls-17"><path class="cls-32" d="M78.29,56.41a2.22,2.22,0,0,1-1.67-2,2.72,2.72,0,0,1,1.86-2.54,2.19,2.19,0,0,1,2,.36,2,2,0,0,0-.67-2,8.91,8.91,0,0,0-1.92-.51c-1.3-.47-1.25-2.26-.65-3.28a3,3,0,0,1,2.81-1.35,7,7,0,0,1,3.45,1.18h0c-.25-2.1-1.12-3.81-2.65-4.3-3.79-1.2-6.66,1.16-7.68,5.89-3.59-4.09,0-11.52-3.59-15.61-.25,4.35-2.3,5.63-2.3,5.63a21.76,21.76,0,0,0-1.8-10c.77,5.64-1.79,6.66-1.79,6.66S65.52,28,56.82,23.12s-6.91-9-6.91-9c-3.84,4.09-1,7.68-1,7.68s-4.61-3.59-3.58-8.71c-.21.38-.42.73-.64,1.07,0,2.71,1,6.27,5.15,9.38.06-.29-.87-2.38.06-4.48,0,0-.11,1.81,4.88,4.66s9.3,6.43,8.82,12.58a4.67,4.67,0,0,0,2.21-2,35.32,35.32,0,0,1,1.44,7.49,9.12,9.12,0,0,0,2.5-4.51c.86,7.58,4.7,30.43-19.49,39.65,0,0,0,.09,0,.14,10.72-3,15.63-9.21,15.63-9.21,3.67-3.37,6.57-6.1,7.59-11.22a6.13,6.13,0,0,0,6.05,0A3.91,3.91,0,0,1,78.29,56.41Z"/></g><g class="cls-29"><path class="cls-33" d="M86.87,37.08c.7-5.37-3.74-25.43-16.1-28.46,0,0,4-2.34,6.3-.24-3-5.83-7.24-2.1-7.24-2.1A6.3,6.3,0,0,0,65.4.22c2.33,1.86,1.17,5.6,1.17,5.6-5.5-4.7-13.22-6-20.77-5.56,0,0,0,0,0,.07C62.71-.63,66,8.78,66,8.78s-3.65-1.15-6.33,1.15c7.87-2.11,13,6.34,13,6.34s-.19-3.46-5-6.14c10.18.76,16.9,15,14.59,21.5S83.83,41,83.83,41c-3.84.38-5.18-3.26-7.49-6.14a9.47,9.47,0,0,1-2.94,8.49s-.28-1.27.14-6.07c.85-9.31-4.37-13.26-4.37-13.26S70,30,68.46,31.12c-.14-5.08-4.8-9.88-4.8-9.88s2.26,5.5.71,7.76c-.28-2.82-1.83-6.06-8.75-9.87S50.69,10,50.69,10a6.58,6.58,0,0,0-3.81,7.33C45.47,14.19,45.75,12.07,46,9,43.21,14.89,39,16.73,39,16.73s2.54-4.38-1.84-6.63A13.34,13.34,0,0,1,26.7,18.84s1.41-3.95-.84-5.36c-1.41,5.93-7.62,8-7.62,8s.85-3.24-1.69-3.66A11.08,11.08,0,0,1,5.37,22.24c3,4,10.7.55,11.36-2,0,0,.92,1.43-.75,3.22,0,0,5.38.51,9.61-6a3.44,3.44,0,0,1-.65,3.45c4.87.13,11.14-3.33,12.68-8.06,2.05,2.81-2,5.89-2,5.89s6.14,1,9.73-5.64c-1,5.12,3.58,8.71,3.58,8.71s-2.81-3.59,1-7.68c0,0-1.79,4.09,6.91,9s6.91,11.52,6.91,11.52,2.56-1,1.79-6.66a21.76,21.76,0,0,1,1.8,10s2.05-1.28,2.3-5.63c3.59,4.09,0,11.52,3.59,15.61,1-4.73,3.89-7.09,7.68-5.89,5.49,1.75,2.56,19.21-7.43,14.6-1,5.12-3.92,7.85-7.59,11.22,0,0,19.83-2.8,20.06-24.73,2.57,4,5.14,1.86,5.14,1.86S86.17,42.45,86.87,37.08Z"/></g><path class="cls-47" d="M57.19,13.07a15.31,15.31,0,0,1,5.88,10.46s-1-3.88-5.88-6.76-6.5-5.37-4.88-7.63c-2.75-.87-5.37,3.13-5.37,3.13a5.69,5.69,0,0,1,.25-5.75c-1.63.75-3.51,6.13-6.26,7.5,2-5.25-5.63-6.75-5.63-6.75s.75,4.25-3.88,7.25a8,8,0,0,0,.88-5.88c-.88-3.12-5.76,6.51-3.63,1.5s-2-1.62-4.13,3-4.75,5.25-4.75,5.25,2.88-2.25,2.63-7.25c-4.42,6.18-9.12,1.26-10-.87,0,0,3.87,2.37,9-1.51,4.25-2.88,10-7,22-7.13C37.18,2.51,34.93,5,34.93,5s3-1.51,11.13-2c-5.75,1.5-3.13,4.13,1.13,2.51s3.39-1.29,2.12,1c-.86,1.56.54,2.34,3.56.55S51.71,9,57.19,13.07Z"/><path class="cls-47" d="M67.52,16.67s6.4,4.92,7.22,15.58c1.64-2.79-.17-8.36-.17-8.36s2.79,3.77,3-.33,2.63,1.48,2,7.38,5.41-9.67-5.25-17.55c2.63,5.25,2.63,7.71.17,4.6S77.69,23.73,67.52,16.67Z"/><g class="cls-48"><path class="cls-6" d="M35.68,121.05C35.17,120,34.51,119,34,117.94a33.63,33.63,0,0,1-1.46-3.17,27,27,0,0,1-1.7-6.8,25.71,25.71,0,0,1,2.4-14.11c.11-.24-.12-.26-.22-.07a26.73,26.73,0,0,0-3.33,14.68,24.87,24.87,0,0,0,1.61,7.12,15.46,15.46,0,0,0,3.83,6.28C35.37,122.1,35.79,121.27,35.68,121.05Z"/><path class="cls-6" d="M46.53,129.14c-1.72-.13-3.43-.14-5.14-.41a28.71,28.71,0,0,1-5.23-1.35,25,25,0,0,1-4.57-2.14c-1.51-.92-2.92-2.31-2.87-4.22,0-.18-.19,0-.2.13-.51,3.88,3.58,6,6.62,7.16a21.6,21.6,0,0,0,11.18,1.39C46.47,129.68,46.77,129.15,46.53,129.14Z"/></g><path class="cls-4" d="M60.06,75.35s7.5-.26,15,15.56c7.27,15.81,6.87,24.62,10.91,27.69,3.81,3.21,4.76,5,5.6,7.06s.59,5.1-.26,4.52c0,1.42-1.1,3.74-2.24,4.06A2.9,2.9,0,0,1,87.72,137c.11,1.59-.63,3.08-2.22,2.23s-2.26-6-2.6-7.1-2.92-4.23-4-4.37-1.28,1.21-1,3.14-.6,3.68-2,3.33-1.25-1.12-1-2.42a18.7,18.7,0,0,0,0-4.53c-.26-4.66,2.13-6.54,2.13-6.54S71.2,100.44,65.89,93.48,54.94,83.37,60.06,75.35Z"/><path class="cls-5" d="M86.35,139.66a2,2,0,0,1-.95-.28c-1.23-.65-1.87-3.33-2.43-6-.11-.54-.2-1-.28-1.21-.31-1-2.86-4.09-3.83-4.21a.57.57,0,0,0-.53.16c-.35.37-.42,1.33-.18,2.73a3.64,3.64,0,0,1-.8,3.19,1.53,1.53,0,0,1-1.47.38c-1.6-.39-1.39-1.4-1.14-2.68a10.26,10.26,0,0,0,.09-2.95c0-.43,0-.93-.07-1.52-.23-4.19,1.61-6.17,2.1-6.62-.52-1.77-6.14-20.46-11.14-27-1-1.36-2.06-2.55-3.06-3.7-4.06-4.7-7-8.09-2.79-14.68a.22.22,0,0,1,.18-.1c.3,0,7.73-.08,15.17,15.68A119.38,119.38,0,0,1,81.75,109c1.37,4.77,2.28,7.92,4.32,9.47,3.85,3.25,4.81,5.08,5.66,7.15.7,1.68.73,4.22.06,4.77a.51.51,0,0,1-.32.12c-.12,1.38-1.06,3.42-2.2,3.91a3.19,3.19,0,0,1-1.32,2.7,2.64,2.64,0,0,1-.89,2.37A1.27,1.27,0,0,1,86.35,139.66ZM78.74,127.5h.18c1.22.15,3.86,3.43,4.19,4.52.08.25.17.69.28,1.24.37,1.79,1.07,5.12,2.21,5.73a1.18,1.18,0,0,0,1.23.09,2.38,2.38,0,0,0,.68-2.12.21.21,0,0,1,.11-.2,2.68,2.68,0,0,0,1.19-2.49A.22.22,0,0,1,89,134c1-.28,2.07-2.49,2.08-3.85a.25.25,0,0,1,.12-.19.22.22,0,0,1,.22,0c.08.05.1,0,.12,0,.38-.32.54-2.54-.18-4.28-.83-2-1.76-3.79-5.54-7-2.14-1.63-3.06-4.84-4.46-9.69A118.28,118.28,0,0,0,74.83,91C68,76.56,61.12,75.63,60.17,75.57c-3.93,6.25-1.24,9.36,2.82,14.05,1,1.16,2,2.36,3.08,3.73,5.26,6.91,11.19,27.08,11.25,27.29a.23.23,0,0,1-.08.23s-2.29,1.88-2,6.36c0,.6,0,1.09.08,1.52a11.14,11.14,0,0,1-.1,3.06c-.28,1.39-.32,1.89.82,2.17a1.09,1.09,0,0,0,1.07-.28,3.25,3.25,0,0,0,.66-2.8c-.27-1.58-.17-2.62.29-3.1A1,1,0,0,1,78.74,127.5Z"/><path class="cls-5" d="M86.37,132.22a24.42,24.42,0,0,0-1.12-2.44,10,10,0,0,0-1.4-2.24s-.12.1-.11.14c.37.8.88,1.55,1.28,2.34s.76,1.59,1.08,2.41a25.13,25.13,0,0,1,1.38,5.15c0,.18.31-.1.29-.22A25.57,25.57,0,0,0,86.37,132.22Z"/><path class="cls-5" d="M89.14,133.73c0-.4-.09-.79-.15-1.19-.12-.76-.26-1.53-.44-2.29a17.22,17.22,0,0,0-1.5-4.29c0-.08-.17.09-.15.15.47,1.48,1,2.92,1.37,4.43.16.72.3,1.45.41,2.18,0,.36.09.71.13,1.07a6.85,6.85,0,0,0,.09,1.2c0,.2.31-.12.31-.21A4.6,4.6,0,0,0,89.14,133.73Z"/><path class="cls-5" d="M91.16,128.9a11.3,11.3,0,0,0-.29-1.38A9.44,9.44,0,0,0,89.81,125s-.09,0-.08.08a16.47,16.47,0,0,1,.93,2.72,11.58,11.58,0,0,1,.23,1.31c0,.22,0,.44.07.66a2.44,2.44,0,0,0,.08.66c0,.1.18-.12.19-.15A4.29,4.29,0,0,0,91.16,128.9Z"/><path class="cls-49" d="M82.9,132.09a1.93,1.93,0,0,0-.15-.35A3.35,3.35,0,0,1,82.9,132.09Z"/><path class="cls-21" d="M91.64,126c0,1-.1,1.73-.28,1.72-.5,0-1.61-2.76-1.61-2.76l.91,2.88c.65,2.65-1.83,4.65-2,4.12a44.62,44.62,0,0,0-1.77-5.81s.91,2.89,1.5,5.83-1.17,3-1.17,3a27.05,27.05,0,0,0-3.38-7.44C85.12,129.63,88,138.85,86.2,139s-2.53-4.94-3.3-6.86c.34,1.11,1,6.25,2.6,7.1s2.33-.64,2.22-2.23A2.9,2.9,0,0,0,89,134.24c1.14-.32,2.23-2.64,2.24-4.06C92.08,130.73,92.35,128,91.64,126Z"/><path class="cls-21" d="M78.15,126.79c-1.59.27-1.11,1.54-1.06,4.71,0,1.83-1.23,1.81-2.31,1.46,0,.61.26,1,1.16,1.23,1.39.35,2.32-1.39,2-3.33s-.13-3.27,1-3.14,3.22,2.72,3.86,4C81.87,129.76,79.65,126.53,78.15,126.79Z"/><path class="cls-26" d="M80.31,120c-1.81-3-3.2-10-6.59-18.41S62.59,87.63,61.94,81.27s2.22-4.42,5.08-2.12h.09c-4.07-3.89-7-3.79-7-3.79-5.12,8,.53,11.16,5.83,18.13s11.28,27.29,11.28,27.29-2.45,1.81-2.19,6.47C75,127.24,75.5,121.86,80.31,120Z"/><g class="cls-50"><path class="cls-32" d="M91.53,125.66c-.84-2-1.79-3.85-5.6-7.06-3.24-2.47-3.63-8.64-7.41-19.15-1,1.34-3.21,0-2.64,1,.7,1.24,1.8.37,2.5,1.61,1.14,3.49,4,15.14,5.66,16.11a11.41,11.41,0,0,1,4,3.2c1.33,1.65-.11,2.93-1.62,3.28.07.91-.91,1.68-4.4,1,1.25.76,2,2.11,4.06,7.85,1,3,.71,4.79.14,5.87,1.07.09,1.56-1.16,1.47-2.47A2.9,2.9,0,0,0,89,134.24c1.14-.32,2.23-2.64,2.24-4.06C92.12,130.76,92.37,127.69,91.53,125.66Z"/></g><path class="cls-19" d="M66.86,79.39c4.89,5.88,9.4,12.13,10.52,19.7,0,.14-.16.09-.18,0C75.81,91.54,71,85.7,66.72,79.46,66.65,79.36,66.78,79.29,66.86,79.39Z"/><path class="cls-19" d="M82.38,119.64a1.34,1.34,0,0,0-.77,0,5.06,5.06,0,0,0-.87.23,6.33,6.33,0,0,0-1.56.78,6.68,6.68,0,0,0-1.3,1.12A4.42,4.42,0,0,0,77,123.1c0,.07.05,0,.08,0a9.18,9.18,0,0,1,1-1.2,6.12,6.12,0,0,1,1.23-.91,6.83,6.83,0,0,1,1.39-.59c.51-.15,1.07-.18,1.57-.38C82.29,120,82.52,119.7,82.38,119.64Z"/><path class="cls-19" d="M86.47,135.8c-.08-.56-.18-1.12-.31-1.67a18.77,18.77,0,0,0-1.08-3.25,17.47,17.47,0,0,0-3.92-5.73s-.15.1-.11.14a23.13,23.13,0,0,1,3.68,5.88,19.72,19.72,0,0,1,1.06,3.32c.12.55.22,1.11.3,1.67a9.36,9.36,0,0,0,.22,1.59c0,.12.22-.14.23-.18A6.17,6.17,0,0,0,86.47,135.8Z"/><path class="cls-51" d="M46.57,58.76a3.1,3.1,0,0,0-.5-1.79,1.12,1.12,0,0,0-1.21-.3,5.9,5.9,0,0,0-1.61.84c-.66.43-1.33.87-2,1.28a23,23,0,0,1-4.25,2,29,29,0,0,1-8.84,1.77A21.13,21.13,0,0,1,19,61.15c-.61-.26-1.2-.59-1.8-.88l-.07,0a.86.86,0,0,0-.45-.18,1.91,1.91,0,0,0-.82-.09c-.72.12-1,.8-.92,1.48A4,4,0,0,0,15.48,64a14.86,14.86,0,0,0,2.3,3.14,17.38,17.38,0,0,0,7.15,4.3,16.66,16.66,0,0,0,15.89-2.26,16.5,16.5,0,0,0,4.88-6.51A9.17,9.17,0,0,0,46.57,58.76Z"/><path class="cls-52" d="M45.8,61.08A15.17,15.17,0,0,1,27.17,71.52a20.27,20.27,0,0,1-7.26-3.24,15.1,15.1,0,0,1-2.86-2.79,10.28,10.28,0,0,1-1.47-2.27,1,1,0,0,1,0-.16h0a.08.08,0,0,0,0,0c0-.23-.1-.45-.14-.68a2.45,2.45,0,0,1,.06-1.42,1,1,0,0,1,.69-.57l.27,0c.23.09.46.21.64.3.55.29,1.09.59,1.66.84a20.37,20.37,0,0,0,8.12,1.58,29.11,29.11,0,0,0,8-1.1,29.87,29.87,0,0,0,3.91-1.39,27.45,27.45,0,0,0,3.73-2.09c.55-.35,1.1-.74,1.68-1.06s1.11-.57,1.51-.1a3.16,3.16,0,0,1,.43,1.84A7.92,7.92,0,0,1,45.8,61.08Z"/><path class="cls-53" d="M19,63.16a4.76,4.76,0,0,0,2.14,1.94,16.25,16.25,0,0,0,7.47,1.47,18.18,18.18,0,0,0,7.13-1.64,12.56,12.56,0,0,0,3-1.8A11.32,11.32,0,0,0,41,60.62a11.61,11.61,0,0,0,.95-1.78,24.71,24.71,0,0,1-3.15,1.72A29.87,29.87,0,0,1,34.84,62a29.11,29.11,0,0,1-8,1.1,20.37,20.37,0,0,1-8.12-1.58l-.43-.21A8,8,0,0,0,19,63.16Z"/><path class="cls-54" d="M39.07,67.9a19.37,19.37,0,0,0-4.21.4,22.45,22.45,0,0,0-3.8,1A16.57,16.57,0,0,0,27,71.47l.19,0A15.62,15.62,0,0,0,41.3,68.23,8.08,8.08,0,0,0,39.07,67.9Z"/><path class="cls-53" d="M22.85,65.38a12.44,12.44,0,0,0,6.44,1,28.23,28.23,0,0,0,8.31-1.59,20.62,20.62,0,0,0,6.18-3.54,14.18,14.18,0,0,0,2.31-2.39,2.66,2.66,0,0,0-.42-1.52c-.4-.47-1.05-.15-1.51.1s-1.13.71-1.68,1.06a27.45,27.45,0,0,1-3.73,2.09A29.87,29.87,0,0,1,34.84,62a29.11,29.11,0,0,1-8,1.1,20.8,20.8,0,0,1-7.13-1.18A6.82,6.82,0,0,0,22.85,65.38Z"/></g></g></g></svg>