<svg xmlns="http://www.w3.org/2000/svg" viewBox="0 0 120.8 155.67"><defs><style>.cls-1{isolation:isolate;}.cls-2{fill:none;}.cls-3{fill:#fbd0b4;}.cls-4{fill:#b56a4d;}.cls-5,.cls-7{fill:#f9ceb2;}.cls-10,.cls-21,.cls-22,.cls-23,.cls-26,.cls-31,.cls-5{mix-blend-mode:multiply;}.cls-6{fill:#fbc98f;}.cls-27,.cls-32,.cls-6{mix-blend-mode:screen;}.cls-22,.cls-6{opacity:0.6;}.cls-8{fill:#9e4c0b;}.cls-27,.cls-9{fill:#582e18;}.cls-10{fill:#ebb698;}.cls-11{fill:#33160a;}.cls-12{fill:#fffaf6;}.cls-13{fill:#e3dbd1;}.cls-14{fill:#8e370a;}.cls-15{fill:#faeae1;}.cls-16{fill:#984c08;}.cls-17{fill:#a0a427;}.cls-18{fill:#9a5648;}.cls-19{fill:#0a010b;}.cls-20{fill:#fff;}.cls-21{fill:#660c00;}.cls-22{fill:#b8a997;}.cls-23{fill:#efc2a7;}.cls-24{fill:#602e09;}.cls-25,.cls-26{fill:#a05b23;}.cls-26,.cls-32{opacity:0.5;}.cls-28{fill:#fae656;}.cls-29{fill:#ab9100;}.cls-30,.cls-31{fill:#fade56;}.cls-32{fill:#f5c0bf;}</style></defs><g class="cls-1"><g id="Layer_2" data-name="Layer 2"><g id="Layer_1-2" data-name="Layer 1"><path class="cls-2" d="M103.51,137.58c-.2-1.52-.43-3-.68-4.56-.14-.87-.3-1.74-.46-2.6-.08-.38-.15-.76-.23-1.14-.15-.74-.33-1.47-.51-2.21l-.26,0c-.08.11-.18.19-.26.17-.43-.08-.84-.2-1.26-.31.54,2.2,3.39,14.12,5.76,27.55h.53c-.17-.63-.33-1.27-.48-1.9C104.51,147.62,104.14,142.58,103.51,137.58Z"/><path class="cls-3" d="M20.72,85.31a10.17,10.17,0,0,1-1,1l.33-.2c.3-.17.62-.28.93-.43.14-.07,0,.17,0,.21-.56.36-1.11.74-1.66,1.11a11.27,11.27,0,0,0-1.48,1.18,5.37,5.37,0,0,0-1.13,1.62,15.1,15.1,0,0,0-.57,1.88c0,.07-.28.42-.32.2a3.89,3.89,0,0,1,.49-2.05,7.57,7.57,0,0,1,.65-1.1c-.11.12-.21.25-.31.37a7.82,7.82,0,0,0-.9,1.75,4.12,4.12,0,0,0,0,1.65c0,.15-.35.73-.46.48-1.05-1.94-.32-4.86,2-6.56s2.89-2.5,1.87-3.86-6.29.12-9.52,1.65-2.21,5.7,0,9.1,4.51,3.57,9.18,1.62S23,89.13,24.2,85.31a23.19,23.19,0,0,1,3.4-7.14,3.27,3.27,0,0,1,1.83-1.51A3.06,3.06,0,0,0,28,76.55a4,4,0,0,0-1.23.32,3.93,3.93,0,0,1,1.53-.29c.12,0,0,.28-.11.29a4.94,4.94,0,0,0-3.7,2.65c-.62,1.37-.37,3.18-1.63,4.23-.32.27-.25-.21-.12-.38a4.92,4.92,0,0,0,.86-2.29,9.17,9.17,0,0,1,.27-1,5.69,5.69,0,0,0-.23.74A4.56,4.56,0,0,1,22.55,83,11.52,11.52,0,0,1,20.72,85.31Z"/><path class="cls-3" d="M9.47,77.41c.27.65.59,1.28.9,1.9-.07-.3-.17-.63-.29-1-.55-1.15-1.19-2.6-1.94-4.33,0,.12.09.23.13.34C8.67,75.35,9.05,76.39,9.47,77.41Z"/><path class="cls-3" d="M6.81,83.89c.48-.08.5-.64.15-1.64,0,.12-.1.28-.17.21a16.89,16.89,0,0,1-2.57-3.9,17.24,17.24,0,0,0-2.71-3.83s0-.1,0-.08a8.73,8.73,0,0,1,1.61,1.66,20.37,20.37,0,0,1,1.25,1.92c.4.69.79,1.38,1.21,2.06s.86,1.23,1.3,1.85l0-.09c-.27-.48-.61-1.1-1-1.89-1.7-3.28-3.78-5.72-4.8-5.72a.58.58,0,0,0-.19,0,.8.8,0,0,0-.27.18c.66,1.15,1.69,3,2.77,5C5.21,83.21,6,84.05,6.81,83.89Z"/><path class="cls-3" d="M19.32,81.07c1.6.15.89-4.48.84-6.86,0-.68,0-1.54-.07-2.47,0,.19,0,.38,0,.58,0,1.1-.08,2.2-.09,3.3s.11,2.14.18,3.21c0,.14-.35.39-.4.21a23.42,23.42,0,0,1-.15-6.48,24,24,0,0,0-.37-6.5s.1-.11.11-.06A12.81,12.81,0,0,1,20,68.64c0-.63,0-1.24-.07-1.81-.29-.82-.73-1.16-1.13-1.18h0a1.6,1.6,0,0,0-1.27,1.06c.06,2,.17,4.8.39,7.65C18.25,79.39,17.72,80.92,19.32,81.07Z"/><path class="cls-3" d="M26.16,77.17l.38-.2Z"/><path class="cls-3" d="M10.59,80.65h0a23.17,23.17,0,0,1-2.65-5.92,23.85,23.85,0,0,0-2.85-5.85s0-.06,0-.09a1.3,1.3,0,0,0-1-.06.48.48,0,0,0-.32.27,1,1,0,0,0-.06.31c1.36,3.43,4.36,10.84,5.42,12.07C9.88,82.2,10.65,82.12,10.59,80.65Z"/><path class="cls-3" d="M16.81,107.94c.68,5.47.8,12.2,4.44,18.92s5.48,6.84,9.81,4.79,9.8-9.46,10.26-11.74c0,0-4.08-1.77-5.75-3.9s-2.29.76-3.36,5.79-3.05,6.11-3.05,6.11a22.1,22.1,0,0,0,1.23-10.24c-.49-1.43-1.63-3.8-2.82-6.28-.9-1.86-1.83-3.79-2.56-5.47-1.62-3.75-3.26-8.4-3.82-10a17,17,0,0,1-5,1.79C13.84,97.91,16.12,102.47,16.81,107.94Zm5.56-7.6c2,4.35,3.75,8.8,5.64,13.2a30.34,30.34,0,0,1,2.23,6.1,8.12,8.12,0,0,1-.74,5.77c-.19.28-.49.28-.35-.11a9,9,0,0,0,.69-3,11.58,11.58,0,0,0-.39-3,46.83,46.83,0,0,0-2.23-6.17c-1.68-4.19-3.4-8.36-4.95-12.6C22.26,100.41,22.34,100.29,22.37,100.34Z"/><path class="cls-3" d="M14.59,80.69c.27,0,.39-.47.39-1.14h0c-1.09-2-1.47-4.5-2-6.72a25.87,25.87,0,0,0-2.21-6.65s.07-.15.1-.1a14,14,0,0,1,1.56,3.06,32.87,32.87,0,0,1,.94,3.3c.29,1.16.54,2.32.86,3.47.17.65.38,1.27.6,1.9a61.72,61.72,0,0,0-1.61-7.11c-.06-.2-.12-.4-.17-.59-.77-2-1.53-3.66-2-4A1,1,0,0,0,9.93,66c-.24.18-.7.84-.22,3.12.58,1.66,1.25,3.52,1.91,5.31C13.37,79.24,13.52,80.84,14.59,80.69Z"/><path class="cls-3" d="M5.28,68.9a13.49,13.49,0,0,1,1.56,2.2A5.6,5.6,0,0,0,5.28,68.9Z"/><path class="cls-3" d="M25.54,77.61l.31-.23Z"/><path class="cls-4" d="M34.69,112.3c-.06-.09-.11-.18-.17-.26-.38.8-1,2-1.77,3.31Z"/><path class="cls-4" d="M43,122.79a32.58,32.58,0,0,1-4.91,6.62,24.56,24.56,0,0,1-3.14,2.7c-2.28,1.63-7.37,4.54-10.18,2.95a8.44,8.44,0,0,1-2.12-2c-.39-.46-.77-.92-1.12-1.38a24.93,24.93,0,0,1-5-10.61c-.41-1.93-.69-3.87-.93-5.82s-.44-3.89-.71-5.84c-.56-4-2-12.17-2-12.17-4-.24-6.26-7.09-7-10S3.81,82.44,2.2,79.51C.74,76.88-.26,75.12.49,74.44l.12.21a.8.8,0,0,1,.27-.18.58.58,0,0,1,.19,0c1,0,3.1,2.44,4.8,5.72.41.79.75,1.41,1,1.89a29.75,29.75,0,0,0-1.3-2.81c-.08-.16-.17-.33-.25-.51.26.44.5.88.73,1.32,1.55,3,2.09,3.64,2.25,3.38s-1.71-5.05-2.49-7C5.16,74.7,3,70.36,3.61,68.93c0,.12.1.25.15.38A1,1,0,0,1,3.82,69a.48.48,0,0,1,.32-.27,1.3,1.3,0,0,1,1,.06s0,0,0,0l.11.12a5.6,5.6,0,0,1,1.56,2.2l.17.31c.43.83.78,1.7,1.13,2.57.75,1.73,1.39,3.18,1.94,4.33A1.72,1.72,0,0,0,10,78.1l-.56-1.7c1.26,2.81,2.47,5.24,2.86,5s-1.41-6.89-2.6-11.3a11.28,11.28,0,0,1-.41-2.17l.41,1.2c-.48-2.28,0-2.94.22-3.12a1,1,0,0,1,1.11.13c.48.31,1.24,1.93,2,4-.2-.7-.41-1.4-.61-2.09a61.68,61.68,0,0,1,3.29,10.21c.7,3.43,1.27,3.24,1.36,2.61,0-.14,0-.31,0-.51-.1-2.89-.26-11-.14-12.46a3.44,3.44,0,0,1,.52-1.6c0,.14,0,.29,0,.44a1.6,1.6,0,0,1,1.27-1.06h0c.4,0,.84.36,1.13,1.18,0-.21,0-.42,0-.61a5.9,5.9,0,0,1,.6,2.92c0,.78,0,1.58.08,2.39.3,5.68,1.3,11.7,1.3,11.7s.58-.16,1.09-1.17a6.05,6.05,0,0,0,.46-1.32A6.27,6.27,0,0,1,22.55,83a4.56,4.56,0,0,0,1.1-2.24,5.69,5.69,0,0,1,.23-.74,5,5,0,0,1,.58-1.24,5.34,5.34,0,0,1,1.08-1.2l.31-.23a3.37,3.37,0,0,1,.31-.21l.38-.2.24-.1A4,4,0,0,1,28,76.55a3.06,3.06,0,0,1,1.42.11,2.42,2.42,0,0,1,.36-.1c.59.39.44,1.08-.16,1.56-.95.76-3.34,4.26-4.71,9.83a21,21,0,0,1-2.15,5.27l-.28.46a11.33,11.33,0,0,1-.73,1,4.51,4.51,0,0,1-.56.56l.2.56-.21.11c.56,1.63,2.2,6.28,3.82,10,.73,1.68,1.66,3.61,2.56,5.47,1.19,2.48,2.33,4.85,2.82,6.28-.05-.4-.11-.8-.19-1.2a5.05,5.05,0,0,1,.55,2,.19.19,0,0,0-.07.15c0,.07,0,.14,0,.21a15.94,15.94,0,0,1-1,7.91c0,.11,0,.22.1.23s.25-.2.29-.29a12.39,12.39,0,0,0,.85-7.78c0-.15-.05-.3-.09-.45s0,0-.07,0l.21-.32a56.35,56.35,0,0,0-3-6.9c-.89-1.86-1.82-3.78-2.55-5.46-1.8-4.18-3.64-9.49-4-10.44.5-.45,2.33-2.39,3.67-7.29,1.38-5.59,3.76-9,4.63-9.7a1.3,1.3,0,0,0,.56-1.46c-.15-.35-.65-.92-2.36-.75a5.66,5.66,0,0,0-4.77,4.59A3.67,3.67,0,0,1,22,82.87a110.28,110.28,0,0,1-1.32-13.73c0-3.6-1.48-3.93-1.92-4h-.05c-1,0-1.92,1.16-2,2.66s.07,10.84.16,13c0,.06,0,.1,0,.14A6.87,6.87,0,0,1,16,78.18c-.64-3.15-3.27-11.54-4.67-12.43a1.41,1.41,0,0,0-1.62-.11c-.53.39-1,1.49-.17,4.52.19.73.41,1.53.64,2.34.85,3.1,2.12,7.69,2,8.63-.72-.66-2.78-5.4-3.69-7.49l-.11-.25C6.79,69.74,5.92,67.72,4,68.28a.94.94,0,0,0-.59.53c-.53,1.13.5,3.71,1.69,6.47.21.48.39.89.52,1.22,1.59,4,2.21,5.8,2.41,6.5a24.42,24.42,0,0,1-1.75-3.06C5.07,77.63,2.36,73.41.71,74a1,1,0,0,0-.64.62c-.32.88.51,2.39,1.77,4.68l.16.29.9,1.6a23.41,23.41,0,0,1,2.77,6.15c.57,2.27,2.74,9.65,7,10.11.21,1.2,1.46,8.32,2,12,.17,1.26.32,2.54.47,3.78.3,2.6.61,5.28,1.17,7.89a26,26,0,0,0,6.15,12.1,8.62,8.62,0,0,0,2.18,2,4.17,4.17,0,0,0,2.05.49c3.43,0,7.79-3,8.37-3.46a29,29,0,0,0,7.92-9Z"/><path class="cls-4" d="M15.71,92.49a4.12,4.12,0,0,1,0-1.65A9.64,9.64,0,0,0,15.25,93C15.36,93.22,15.74,92.64,15.71,92.49Z"/><path class="cls-4" d="M16.64,89.09c.1-.12.2-.25.31-.37s.36-.48.56-.7a9.77,9.77,0,0,1,1.64-1.37l.59-.35a10.17,10.17,0,0,0,1-1,12.68,12.68,0,0,1-1.54,1.27A9.79,9.79,0,0,0,16.64,89.09Z"/><path class="cls-5" d="M32.75,115.35,31,118.09h0C31.67,117.14,32.25,116.21,32.75,115.35Z"/><path class="cls-3" d="M31,118.89a12.39,12.39,0,0,1-.85,7.78c0,.09-.16.3-.29.29s-.13-.12-.1-.23a15.94,15.94,0,0,0,1-7.91.29.29,0,0,1-.05-.13,4.19,4.19,0,0,0-.26-1,22.1,22.1,0,0,1-1.23,10.24s2-1.07,3.05-6.11,1.68-7.93,3.36-5.79,5.75,3.9,5.75,3.9c-.46,2.28-5.93,9.69-10.26,11.74s-6.16,1.94-9.81-4.79-3.76-13.45-4.44-18.92-3-10-.57-10.26a17,17,0,0,0,5-1.79l-.21-.6a.22.22,0,0,1,.08-.25s2.15-1.74,3.64-7.15c1.41-5.75,3.83-9.19,4.78-9.94.37-.3.53-.66.42-.93a.72.72,0,0,0-.47-.36,3.27,3.27,0,0,0-1.83,1.51,23.19,23.19,0,0,0-3.4,7.14C23,89.13,23.43,93,18.75,94.92s-7,1.78-9.18-1.62-3.23-7.57,0-9.1,8.5-3,9.52-1.65.43,2.16-1.87,3.86-3,4.62-2,6.56c-.81-1.78.6-3.86,1.84-5,1.52-1.46,3.35-2.48,4.45-4.35.05-.08.2-.14.16,0a5,5,0,0,1-1,1.73A11.52,11.52,0,0,0,22.55,83a1.69,1.69,0,0,1-.62.42.19.19,0,0,1-.18,0,.21.21,0,0,1-.11-.15,113.14,113.14,0,0,1-1.38-14.13,6.91,6.91,0,0,0-.35-2.31c0,.57.05,1.18.07,1.81,0,.16.05.33.06.5.07.86.06,1.73.05,2.6s.05,1.79.07,2.47c.05,2.38.76,7-.84,6.86s-1.07-1.68-1.45-6.71c-.22-2.85-.33-5.7-.39-7.65a3.34,3.34,0,0,0-.32,1.18c-.12,1.53.08,10.79.16,12.94a.88.88,0,0,1-.15.43,5.25,5.25,0,0,1,.57,0c.16,0,0,.32-.15.33-.95.1-1.91.08-2.86.21A17.95,17.95,0,0,0,6.81,85c-.07.05,0-.09,0-.12a17,17,0,0,1,5.11-2.72,17.87,17.87,0,0,1,2.89-.69c.54-.08,1.12-.15,1.7-.18a7.12,7.12,0,0,1-1-3,62.24,62.24,0,0,0-2.45-8.16c0,.19.11.39.17.59a61.72,61.72,0,0,1,1.61,7.11l.48,1.4c0,.14-.24.5-.33.34,0,.67-.12,1.1-.39,1.14-1.07.15-1.22-1.45-3-6.25-.66-1.79-1.33-3.65-1.91-5.31.06.28.13.58.22.91l.64,2.34c2,7.21,2.34,8.93,1.86,9.22a.36.36,0,0,1-.29,0c-.42-.13-1.08-1.26-2.06-3.32.12.37.22.7.29,1s.34.66.5,1c.06.13-.18.49-.28.35.06,1.47-.71,1.55-1.41.73-1.06-1.23-4.06-8.64-5.42-12.07-.19,1.26,1,4,1.77,5.79.21.48.39.9.52,1.23,2.7,6.86,2.58,7,2.47,7.22a.31.31,0,0,1-.3.16c-.21,0-.48-.17-1.33-1.66l0,.09,0,0a.15.15,0,0,1,0,.07c.35,1,.33,1.56-.15,1.64-.84.16-1.6-.68-3.43-4.19-1.08-2.07-2.11-3.9-2.77-5a.91.91,0,0,0-.11.16c-.25.7.63,2.29,1.74,4.3l.16.29c.31.57.61,1.09.9,1.6a24.34,24.34,0,0,1,2.82,6.27C6.67,89.5,8.81,96.8,12.89,97a.24.24,0,0,1,.21.19c0,.08,1.45,8.18,2,12.18.18,1.26.33,2.55.47,3.79.3,2.58.62,5.25,1.17,7.85a25.54,25.54,0,0,0,6.05,11.89,8.22,8.22,0,0,0,2.06,1.92c3.16,1.79,9.24-2.45,9.93-2.94A29.19,29.19,0,0,0,43,122.28c0-1.67,0-2.83,0-3.23a22.39,22.39,0,0,1-8.16-6.57,47.72,47.72,0,0,1-3.75,6.33A.21.21,0,0,1,31,118.89Z"/><path class="cls-5" d="M31,118.89a12.39,12.39,0,0,1-.85,7.78c0,.09-.16.3-.29.29s-.13-.12-.1-.23a15.94,15.94,0,0,0,1-7.91.29.29,0,0,1-.05-.13,4.19,4.19,0,0,0-.26-1,22.1,22.1,0,0,1-1.23,10.24s2-1.07,3.05-6.11,1.68-7.93,3.36-5.79,5.75,3.9,5.75,3.9c-.46,2.28-5.93,9.69-10.26,11.74s-6.16,1.94-9.81-4.79-3.76-13.45-4.44-18.92-3-10-.57-10.26a17,17,0,0,0,5-1.79l-.21-.6a.22.22,0,0,1,.08-.25s2.15-1.74,3.64-7.15c1.41-5.75,3.83-9.19,4.78-9.94.37-.3.53-.66.42-.93a.72.72,0,0,0-.47-.36,3.27,3.27,0,0,0-1.83,1.51,23.19,23.19,0,0,0-3.4,7.14C23,89.13,23.43,93,18.75,94.92s-7,1.78-9.18-1.62-3.23-7.57,0-9.1,8.5-3,9.52-1.65.43,2.16-1.87,3.86-3,4.62-2,6.56c-.81-1.78.6-3.86,1.84-5,1.52-1.46,3.35-2.48,4.45-4.35.05-.08.2-.14.16,0a5,5,0,0,1-1,1.73A11.52,11.52,0,0,0,22.55,83a1.69,1.69,0,0,1-.62.42.19.19,0,0,1-.18,0,.21.21,0,0,1-.11-.15,113.14,113.14,0,0,1-1.38-14.13,6.91,6.91,0,0,0-.35-2.31c0,.57.05,1.18.07,1.81,0,.16.05.33.06.5.07.86.06,1.73.05,2.6s.05,1.79.07,2.47c.05,2.38.76,7-.84,6.86s-1.07-1.68-1.45-6.71c-.22-2.85-.33-5.7-.39-7.65a3.34,3.34,0,0,0-.32,1.18c-.12,1.53.08,10.79.16,12.94a.88.88,0,0,1-.15.43,5.25,5.25,0,0,1,.57,0c.16,0,0,.32-.15.33-.95.1-1.91.08-2.86.21A17.95,17.95,0,0,0,6.81,85c-.07.05,0-.09,0-.12a17,17,0,0,1,5.11-2.72,17.87,17.87,0,0,1,2.89-.69c.54-.08,1.12-.15,1.7-.18a7.12,7.12,0,0,1-1-3,62.24,62.24,0,0,0-2.45-8.16c0,.19.11.39.17.59a61.72,61.72,0,0,1,1.61,7.11l.48,1.4c0,.14-.24.5-.33.34,0,.67-.12,1.1-.39,1.14-1.07.15-1.22-1.45-3-6.25-.66-1.79-1.33-3.65-1.91-5.31.06.28.13.58.22.91l.64,2.34c2,7.21,2.34,8.93,1.86,9.22a.36.36,0,0,1-.29,0c-.42-.13-1.08-1.26-2.06-3.32.12.37.22.7.29,1s.34.66.5,1c.06.13-.18.49-.28.35.06,1.47-.71,1.55-1.41.73-1.06-1.23-4.06-8.64-5.42-12.07-.19,1.26,1,4,1.77,5.79.21.48.39.9.52,1.23,2.7,6.86,2.58,7,2.47,7.22a.31.31,0,0,1-.3.16c-.21,0-.48-.17-1.33-1.66l0,.09,0,0a.15.15,0,0,1,0,.07c.35,1,.33,1.56-.15,1.64-.84.16-1.6-.68-3.43-4.19-1.08-2.07-2.11-3.9-2.77-5a.91.91,0,0,0-.11.16c-.25.7.63,2.29,1.74,4.3l.16.29c.31.57.61,1.09.9,1.6a24.34,24.34,0,0,1,2.82,6.27C6.67,89.5,8.81,96.8,12.89,97a.24.24,0,0,1,.21.19c0,.08,1.45,8.18,2,12.18.18,1.26.33,2.55.47,3.79.3,2.58.62,5.25,1.17,7.85a25.54,25.54,0,0,0,6.05,11.89,8.22,8.22,0,0,0,2.06,1.92c3.16,1.79,9.24-2.45,9.93-2.94A29.19,29.19,0,0,0,43,122.28c0-1.67,0-2.83,0-3.23a22.39,22.39,0,0,1-8.16-6.57,47.72,47.72,0,0,1-3.75,6.33A.21.21,0,0,1,31,118.89Z"/><path class="cls-3" d="M16.64,89.09a4.3,4.3,0,0,0-.9,1.75A7.82,7.82,0,0,1,16.64,89.09Z"/><path class="cls-5" d="M16.64,89.09a4.3,4.3,0,0,0-.9,1.75A7.82,7.82,0,0,1,16.64,89.09Z"/><path class="cls-4" d="M30.7,118.82c0-.07,0-.14,0-.21a.19.19,0,0,1,.07-.15,5.05,5.05,0,0,0-.55-2c.08.4.14.8.19,1.2a4.19,4.19,0,0,1,.26,1A.29.29,0,0,0,30.7,118.82Z"/><path class="cls-5" d="M30.7,118.82c0-.07,0-.14,0-.21a.19.19,0,0,1,.07-.15,5.05,5.05,0,0,0-.55-2c.08.4.14.8.19,1.2a4.19,4.19,0,0,1,.26,1A.29.29,0,0,0,30.7,118.82Z"/><path class="cls-4" d="M34.78,131.92c-.69.49-6.77,4.73-9.93,2.94a8.22,8.22,0,0,1-2.06-1.92,25.54,25.54,0,0,1-6.05-11.89c-.55-2.6-.87-5.27-1.17-7.85-.14-1.24-.29-2.53-.47-3.79-.55-4-2-12.1-2-12.18a.24.24,0,0,0-.21-.19c-4.08-.24-6.22-7.54-6.77-9.77A24.34,24.34,0,0,0,3.3,81c-.29-.51-.59-1-.9-1.6l-.16-.29c-1.11-2-2-3.6-1.74-4.3a.91.91,0,0,1,.11-.16l-.12-.21c-.75.68.25,2.44,1.71,5.07,1.61,2.93,3,4.95,3.69,7.81s2.93,9.71,7,10c0,0,1.45,8.14,2,12.17.27,2,.47,3.9.71,5.84s.52,3.89.93,5.82a24.93,24.93,0,0,0,5,10.61c.35.46.73.92,1.12,1.38a8.44,8.44,0,0,0,2.12,2c2.81,1.59,7.9-1.32,10.18-2.95a24.56,24.56,0,0,0,3.14-2.7A32.58,32.58,0,0,0,43,122.79v-.51A29.19,29.19,0,0,1,34.78,131.92Z"/><path class="cls-5" d="M34.78,131.92c-.69.49-6.77,4.73-9.93,2.94a8.22,8.22,0,0,1-2.06-1.92,25.54,25.54,0,0,1-6.05-11.89c-.55-2.6-.87-5.27-1.17-7.85-.14-1.24-.29-2.53-.47-3.79-.55-4-2-12.1-2-12.18a.24.24,0,0,0-.21-.19c-4.08-.24-6.22-7.54-6.77-9.77A24.34,24.34,0,0,0,3.3,81c-.29-.51-.59-1-.9-1.6l-.16-.29c-1.11-2-2-3.6-1.74-4.3a.91.91,0,0,1,.11-.16l-.12-.21c-.75.68.25,2.44,1.71,5.07,1.61,2.93,3,4.95,3.69,7.81s2.93,9.71,7,10c0,0,1.45,8.14,2,12.17.27,2,.47,3.9.71,5.84s.52,3.89.93,5.82a24.93,24.93,0,0,0,5,10.61c.35.46.73.92,1.12,1.38a8.44,8.44,0,0,0,2.12,2c2.81,1.59,7.9-1.32,10.18-2.95a24.56,24.56,0,0,0,3.14-2.7A32.58,32.58,0,0,0,43,122.79v-.51A29.19,29.19,0,0,1,34.78,131.92Z"/><path class="cls-4" d="M16.51,81.25c-.58,0-1.16.1-1.7.18a17.87,17.87,0,0,0-2.89.69,17,17,0,0,0-5.11,2.72s-.07.17,0,.12a17.95,17.95,0,0,1,7.92-3.11c.95-.13,1.91-.11,2.86-.21.1,0,.31-.3.15-.33a5.25,5.25,0,0,0-.57,0,.88.88,0,0,0,.15-.43c-.08-2.15-.28-11.41-.16-12.94a3.34,3.34,0,0,1,.32-1.18c0-.15,0-.3,0-.44a3.44,3.44,0,0,0-.52,1.6c-.12,1.43,0,9.57.14,12.46,0,.2,0,.37,0,.51-.09.63-.66.82-1.36-2.61A61.68,61.68,0,0,0,12.44,68c.2.69.41,1.39.61,2.09a62.24,62.24,0,0,1,2.45,8.16A7.12,7.12,0,0,0,16.51,81.25Z"/><path class="cls-5" d="M16.51,81.25c-.58,0-1.16.1-1.7.18a17.87,17.87,0,0,0-2.89.69,17,17,0,0,0-5.11,2.72s-.07.17,0,.12a17.95,17.95,0,0,1,7.92-3.11c.95-.13,1.91-.11,2.86-.21.1,0,.31-.3.15-.33a5.25,5.25,0,0,0-.57,0,.88.88,0,0,0,.15-.43c-.08-2.15-.28-11.41-.16-12.94a3.34,3.34,0,0,1,.32-1.18c0-.15,0-.3,0-.44a3.44,3.44,0,0,0-.52,1.6c-.12,1.43,0,9.57.14,12.46,0,.2,0,.37,0,.51-.09.63-.66.82-1.36-2.61A61.68,61.68,0,0,0,12.44,68c.2.69.41,1.39.61,2.09a62.24,62.24,0,0,1,2.45,8.16A7.12,7.12,0,0,0,16.51,81.25Z"/><path class="cls-4" d="M30.8,118.41s.06,0,.07,0,.06.3.09.45a.21.21,0,0,0,.11-.08,47.72,47.72,0,0,0,3.75-6.33l-.13-.18-1.94,3c-.5.86-1.08,1.79-1.74,2.75h0Z"/><path class="cls-5" d="M30.8,118.41s.06,0,.07,0,.06.3.09.45a.21.21,0,0,0,.11-.08,47.72,47.72,0,0,0,3.75-6.33l-.13-.18-1.94,3c-.5.86-1.08,1.79-1.74,2.75h0Z"/><path class="cls-4" d="M29.9,77c.11.27,0,.63-.42.93-.95.75-3.37,4.19-4.78,9.94C23.21,93.3,21.08,95,21.06,95a.22.22,0,0,0-.08.25l.21.6.21-.11-.2-.56a4.51,4.51,0,0,0,.56-.56,11.33,11.33,0,0,0,.73-1l.28-.46A21,21,0,0,0,24.92,88c1.37-5.57,3.76-9.07,4.71-9.83.6-.48.75-1.17.16-1.56a2.42,2.42,0,0,0-.36.1A.72.72,0,0,1,29.9,77Z"/><path class="cls-5" d="M29.9,77c.11.27,0,.63-.42.93-.95.75-3.37,4.19-4.78,9.94C23.21,93.3,21.08,95,21.06,95a.22.22,0,0,0-.08.25l.21.6.21-.11-.2-.56a4.51,4.51,0,0,0,.56-.56,11.33,11.33,0,0,0,.73-1l.28-.46A21,21,0,0,0,24.92,88c1.37-5.57,3.76-9.07,4.71-9.83.6-.48.75-1.17.16-1.56a2.42,2.42,0,0,0-.36.1A.72.72,0,0,1,29.9,77Z"/><path class="cls-4" d="M8.22,83.71a.31.31,0,0,0,.3-.16c.11-.17.23-.36-2.47-7.22-.13-.33-.31-.75-.52-1.23-.76-1.74-2-4.53-1.77-5.79,0-.13-.11-.26-.15-.38C3,70.36,5.16,74.7,5.83,76.42c.78,2,2.66,6.75,2.49,7s-.7-.4-2.25-3.38c-.23-.44-.47-.88-.73-1.32.08.18.17.35.25.51a29.75,29.75,0,0,1,1.3,2.81C7.74,83.54,8,83.7,8.22,83.71Z"/><path class="cls-5" d="M8.22,83.71a.31.31,0,0,0,.3-.16c.11-.17.23-.36-2.47-7.22-.13-.33-.31-.75-.52-1.23-.76-1.74-2-4.53-1.77-5.79,0-.13-.11-.26-.15-.38C3,70.36,5.16,74.7,5.83,76.42c.78,2,2.66,6.75,2.49,7s-.7-.4-2.25-3.38c-.23-.44-.47-.88-.73-1.32.08.18.17.35.25.51a29.75,29.75,0,0,1,1.3,2.81C7.74,83.54,8,83.7,8.22,83.71Z"/><path class="cls-4" d="M12.14,81.63a.36.36,0,0,0,.29,0c.48-.29.13-2-1.86-9.22L9.93,70c-.09-.33-.16-.63-.22-.91l-.41-1.2a11.28,11.28,0,0,0,.41,2.17c1.19,4.41,3.12,11,2.6,11.3s-1.6-2.19-2.86-5L10,78.1a1.72,1.72,0,0,1,.07.21C11.06,80.37,11.72,81.5,12.14,81.63Z"/><path class="cls-5" d="M12.14,81.63a.36.36,0,0,0,.29,0c.48-.29.13-2-1.86-9.22L9.93,70c-.09-.33-.16-.63-.22-.91l-.41-1.2a11.28,11.28,0,0,0,.41,2.17c1.19,4.41,3.12,11,2.6,11.3s-1.6-2.19-2.86-5L10,78.1a1.72,1.72,0,0,1,.07.21C11.06,80.37,11.72,81.5,12.14,81.63Z"/><path class="cls-4" d="M21.64,83.27a.21.21,0,0,0,.11.15.19.19,0,0,0,.18,0,1.69,1.69,0,0,0,.62-.42,6.27,6.27,0,0,0,.87-2.29A6.05,6.05,0,0,1,23,82.06c-.51,1-1.09,1.17-1.09,1.17s-1-6-1.3-11.7c0-.81-.07-1.61-.08-2.39a5.9,5.9,0,0,0-.6-2.92c0,.19,0,.4,0,.61a6.91,6.91,0,0,1,.35,2.31A113.14,113.14,0,0,0,21.64,83.27Z"/><path class="cls-5" d="M21.64,83.27a.21.21,0,0,0,.11.15.19.19,0,0,0,.18,0,1.69,1.69,0,0,0,.62-.42,6.27,6.27,0,0,0,.87-2.29A6.05,6.05,0,0,1,23,82.06c-.51,1-1.09,1.17-1.09,1.17s-1-6-1.3-11.7c0-.81-.07-1.61-.08-2.39a5.9,5.9,0,0,0-.6-2.92c0,.19,0,.4,0,.61a6.91,6.91,0,0,1,.35,2.31A113.14,113.14,0,0,0,21.64,83.27Z"/><path class="cls-4" d="M16.64,89.09a9.79,9.79,0,0,1,2.54-2.51,12.68,12.68,0,0,0,1.54-1.27,5,5,0,0,0,1-1.73c0-.15-.11-.09-.16,0-1.1,1.87-2.93,2.89-4.45,4.35-1.24,1.19-2.65,3.27-1.84,5a9.64,9.64,0,0,1,.49-2.13A4.3,4.3,0,0,1,16.64,89.09Z"/><path class="cls-5" d="M16.64,89.09a9.79,9.79,0,0,1,2.54-2.51,12.68,12.68,0,0,0,1.54-1.27,5,5,0,0,0,1-1.73c0-.15-.11-.09-.16,0-1.1,1.87-2.93,2.89-4.45,4.35-1.24,1.19-2.65,3.27-1.84,5a9.64,9.64,0,0,1,.49-2.13A4.3,4.3,0,0,1,16.64,89.09Z"/><path class="cls-3" d="M22.75,83.37c-.13.17-.2.65.12.38,1.26-1,1-2.86,1.63-4.23a4.94,4.94,0,0,1,3.7-2.65c.08,0,.23-.28.11-.29a3.93,3.93,0,0,0-1.53.29,1.73,1.73,0,0,0-.24.1l-.38.2a2.11,2.11,0,0,0-.31.21l-.31.23a5.91,5.91,0,0,0-1.66,2.44,9.17,9.17,0,0,0-.27,1A4.92,4.92,0,0,1,22.75,83.37Z"/><path class="cls-6" d="M22.75,83.37c-.13.17-.2.65.12.38,1.26-1,1-2.86,1.63-4.23a4.94,4.94,0,0,1,3.7-2.65c.08,0,.23-.28.11-.29a3.93,3.93,0,0,0-1.53.29,1.73,1.73,0,0,0-.24.1l-.38.2a2.11,2.11,0,0,0-.31.21l-.31.23a5.91,5.91,0,0,0-1.66,2.44,9.17,9.17,0,0,0-.27,1A4.92,4.92,0,0,1,22.75,83.37Z"/><path class="cls-4" d="M25.54,77.61a5.34,5.34,0,0,0-1.08,1.2,5,5,0,0,0-.58,1.24A5.91,5.91,0,0,1,25.54,77.61Z"/><path class="cls-6" d="M25.54,77.61a5.34,5.34,0,0,0-1.08,1.2,5,5,0,0,0-.58,1.24A5.91,5.91,0,0,1,25.54,77.61Z"/><path class="cls-4" d="M25.85,77.38a2.11,2.11,0,0,1,.31-.21A3.37,3.37,0,0,0,25.85,77.38Z"/><path class="cls-6" d="M25.85,77.38a2.11,2.11,0,0,1,.31-.21A3.37,3.37,0,0,0,25.85,77.38Z"/><path class="cls-4" d="M26.54,77a1.73,1.73,0,0,1,.24-.1Z"/><path class="cls-6" d="M26.54,77a1.73,1.73,0,0,1,.24-.1Z"/><path class="cls-3" d="M17,88.72a7.57,7.57,0,0,0-.65,1.1,3.89,3.89,0,0,0-.49,2.05c0,.22.3-.13.32-.2a15.1,15.1,0,0,1,.57-1.88,5.37,5.37,0,0,1,1.13-1.62A11.27,11.27,0,0,1,19.31,87c.55-.37,1.1-.75,1.66-1.11.07,0,.17-.28,0-.21-.31.15-.63.26-.93.43l-.33.2C18.81,87.12,17.76,87.86,17,88.72Z"/><path class="cls-6" d="M17,88.72a7.57,7.57,0,0,0-.65,1.1,3.89,3.89,0,0,0-.49,2.05c0,.22.3-.13.32-.2a15.1,15.1,0,0,1,.57-1.88,5.37,5.37,0,0,1,1.13-1.62A11.27,11.27,0,0,1,19.31,87c.55-.37,1.1-.75,1.66-1.11.07,0,.17-.28,0-.21-.31.15-.63.26-.93.43l-.33.2C18.81,87.12,17.76,87.86,17,88.72Z"/><path class="cls-4" d="M17.51,88c-.2.22-.38.46-.56.7.81-.86,1.86-1.6,2.79-2.42l-.59.35A9.77,9.77,0,0,0,17.51,88Z"/><path class="cls-6" d="M17.51,88c-.2.22-.38.46-.56.7.81-.86,1.86-1.6,2.79-2.42l-.59.35A9.77,9.77,0,0,0,17.51,88Z"/><path class="cls-3" d="M5.09,68.88a23.85,23.85,0,0,1,2.85,5.85,23.17,23.17,0,0,0,2.65,5.92h0a7.67,7.67,0,0,0-.22-1.34c-.31-.62-.63-1.25-.9-1.9-.42-1-.8-2.06-1.2-3.09,0-.11-.09-.22-.13-.34l-.07-.15L8,73.58c-.42-1-.79-1.79-1.12-2.48a13.49,13.49,0,0,0-1.56-2.2l-.15-.11S5.07,68.86,5.09,68.88Z"/><path class="cls-6" d="M5.09,68.88a23.85,23.85,0,0,1,2.85,5.85,23.17,23.17,0,0,0,2.65,5.92h0a7.67,7.67,0,0,0-.22-1.34c-.31-.62-.63-1.25-.9-1.9-.42-1-.8-2.06-1.2-3.09,0-.11-.09-.22-.13-.34l-.07-.15L8,73.58c-.42-1-.79-1.79-1.12-2.48a13.49,13.49,0,0,0-1.56-2.2l-.15-.11S5.07,68.86,5.09,68.88Z"/><path class="cls-4" d="M8.07,73.83l.07.15c-.35-.87-.7-1.74-1.13-2.57l-.17-.31c.33.69.7,1.5,1.12,2.48Z"/><path class="cls-6" d="M8.07,73.83l.07.15c-.35-.87-.7-1.74-1.13-2.57l-.17-.31c.33.69.7,1.5,1.12,2.48Z"/><path class="cls-4" d="M5.17,68.78s0,0,0,0l.15.11Z"/><path class="cls-6" d="M5.17,68.78s0,0,0,0l.15.11Z"/><path class="cls-3" d="M10.87,80.3c-.16-.33-.33-.66-.5-1a7.67,7.67,0,0,1,.22,1.34C10.69,80.79,10.93,80.43,10.87,80.3Z"/><path class="cls-5" d="M10.87,80.3c-.16-.33-.33-.66-.5-1a7.67,7.67,0,0,1,.22,1.34C10.69,80.79,10.93,80.43,10.87,80.3Z"/><path class="cls-6" d="M10.87,80.3c-.16-.33-.33-.66-.5-1a7.67,7.67,0,0,1,.22,1.34C10.69,80.79,10.93,80.43,10.87,80.3Z"/><path class="cls-3" d="M4.41,78.23a20.37,20.37,0,0,0-1.25-1.92,8.73,8.73,0,0,0-1.61-1.66s-.07.06,0,.08a17.24,17.24,0,0,1,2.71,3.83,16.89,16.89,0,0,0,2.57,3.9c.07.07.16-.09.17-.21a.76.76,0,0,0,0-.11c-.44-.62-.9-1.21-1.3-1.85S4.81,78.92,4.41,78.23Z"/><path class="cls-6" d="M4.41,78.23a20.37,20.37,0,0,0-1.25-1.92,8.73,8.73,0,0,0-1.61-1.66s-.07.06,0,.08a17.24,17.24,0,0,1,2.71,3.83,16.89,16.89,0,0,0,2.57,3.9c.07.07.16-.09.17-.21a.76.76,0,0,0,0-.11c-.44-.62-.9-1.21-1.3-1.85S4.81,78.92,4.41,78.23Z"/><path class="cls-3" d="M7,82.18l0,0a.76.76,0,0,1,0,.11A.15.15,0,0,0,7,82.18Z"/><path class="cls-5" d="M7,82.18l0,0a.76.76,0,0,1,0,.11A.15.15,0,0,0,7,82.18Z"/><path class="cls-6" d="M7,82.18l0,0a.76.76,0,0,1,0,.11A.15.15,0,0,0,7,82.18Z"/><path class="cls-3" d="M13.37,72.44a32.87,32.87,0,0,0-.94-3.3,14,14,0,0,0-1.56-3.06s-.12.06-.1.1A25.87,25.87,0,0,1,13,72.83c.52,2.22.9,4.72,2,6.72h0a13.78,13.78,0,0,0-.15-1.74c-.22-.63-.43-1.25-.6-1.9C13.91,74.76,13.66,73.6,13.37,72.44Z"/><path class="cls-6" d="M13.37,72.44a32.87,32.87,0,0,0-.94-3.3,14,14,0,0,0-1.56-3.06s-.12.06-.1.1A25.87,25.87,0,0,1,13,72.83c.52,2.22.9,4.72,2,6.72h0a13.78,13.78,0,0,0-.15-1.74c-.22-.63-.43-1.25-.6-1.9C13.91,74.76,13.66,73.6,13.37,72.44Z"/><path class="cls-3" d="M15.31,79.21l-.48-1.4A13.78,13.78,0,0,1,15,79.55C15.07,79.71,15.36,79.35,15.31,79.21Z"/><path class="cls-5" d="M15.31,79.21l-.48-1.4A13.78,13.78,0,0,1,15,79.55C15.07,79.71,15.36,79.35,15.31,79.21Z"/><path class="cls-6" d="M15.31,79.21l-.48-1.4A13.78,13.78,0,0,1,15,79.55C15.07,79.71,15.36,79.35,15.31,79.21Z"/><path class="cls-3" d="M19.25,66.06a24,24,0,0,1,.37,6.5A23.42,23.42,0,0,0,19.77,79c.05.18.41-.07.4-.21C20.1,77.76,20,76.7,20,75.62s.06-2.2.09-3.3c0-.2,0-.39,0-.58,0-1-.07-2.06-.11-3.1A12.81,12.81,0,0,0,19.36,66S19.24,66,19.25,66.06Z"/><path class="cls-6" d="M19.25,66.06a24,24,0,0,1,.37,6.5A23.42,23.42,0,0,0,19.77,79c.05.18.41-.07.4-.21C20.1,77.76,20,76.7,20,75.62s.06-2.2.09-3.3c0-.2,0-.39,0-.58,0-1-.07-2.06-.11-3.1A12.81,12.81,0,0,0,19.36,66S19.24,66,19.25,66.06Z"/><path class="cls-3" d="M20,69.14c0-.17,0-.34-.06-.5,0,1,.08,2.11.11,3.1C20.1,70.87,20.11,70,20,69.14Z"/><path class="cls-5" d="M20,69.14c0-.17,0-.34-.06-.5,0,1,.08,2.11.11,3.1C20.1,70.87,20.11,70,20,69.14Z"/><path class="cls-6" d="M20,69.14c0-.17,0-.34-.06-.5,0,1,.08,2.11.11,3.1C20.1,70.87,20.11,70,20,69.14Z"/><path class="cls-3" d="M29.45,119.23a11.58,11.58,0,0,1,.39,3,9,9,0,0,1-.69,3c-.14.39.16.39.35.11a8.12,8.12,0,0,0,.74-5.77,30.34,30.34,0,0,0-2.23-6.1c-1.89-4.4-3.65-8.85-5.64-13.2,0,0-.11.07-.1.12,1.55,4.24,3.27,8.41,4.95,12.6A46.83,46.83,0,0,1,29.45,119.23Z"/><path class="cls-6" d="M29.45,119.23a11.58,11.58,0,0,1,.39,3,9,9,0,0,1-.69,3c-.14.39.16.39.35.11a8.12,8.12,0,0,0,.74-5.77,30.34,30.34,0,0,0-2.23-6.1c-1.89-4.4-3.65-8.85-5.64-13.2,0,0-.11.07-.1.12,1.55,4.24,3.27,8.41,4.95,12.6A46.83,46.83,0,0,1,29.45,119.23Z"/><path class="cls-7" d="M117.23,135.74a5.66,5.66,0,0,1-1.4,2.5c-1.1,1-2.59.17-3.36-.79-.42-.51-2.58-3.54-1-3.63h0a9.71,9.71,0,0,0,3.36.52,6.37,6.37,0,0,0,2-.73c-.37-2.09-.76-4.17-1.19-6.25-2.22.38-4.48.66-6.22,2.27s-1.56,4.51-1.41,6.59c.19,2.94.59,5.9.86,8.83a90.54,90.54,0,0,0,1.43,9.41h8.84c-.59-5.08-1.37-10.13-2.05-15.2,0-.11.22-.41.26-.24.59,3,1,5.92,1.46,8.9q.47,3.27.89,6.54h.49c-.71-5.63-1.76-11.2-2.68-16.8C117.44,137,117.34,136.37,117.23,135.74Z"/><path class="cls-5" d="M102.37,130.42c.16.86.32,1.73.46,2.6C102.69,132.15,102.53,131.28,102.37,130.42Z"/><path class="cls-5" d="M101.64,127.07h0c.18.74.36,1.47.51,2.21C102,128.54,101.82,127.81,101.64,127.07Z"/><path class="cls-7" d="M111.47,133.81h0c-1.54.09.62,3.12,1,3.63.77,1,2.26,1.83,3.36.79a5.66,5.66,0,0,0,1.4-2.5l-.36-2.14a6.37,6.37,0,0,1-2,.73A9.71,9.71,0,0,1,111.47,133.81Z"/><path class="cls-5" d="M111.47,133.81h0c-1.54.09.62,3.12,1,3.63.77,1,2.26,1.83,3.36.79a5.66,5.66,0,0,0,1.4-2.5l-.36-2.14a6.37,6.37,0,0,1-2,.73A9.71,9.71,0,0,1,111.47,133.81Z"/><path class="cls-7" d="M108.05,136.21c-.15-2.08-.28-5,1.41-6.59s4-1.89,6.22-2.27c-.06-.29-.11-.59-.18-.89-.69.16-1.38.29-2.09.4a11.57,11.57,0,0,1-1.43.65c-1.11.39-2.25.63-3.36,1a10.13,10.13,0,0,0-4.55,3.13,6,6,0,0,0-.74,1.09c.27,1.46.51,2.94.7,4.42.69,5.26,1,10.58,2.28,15.74.14.53.28,1.06.43,1.59h3.6a90.54,90.54,0,0,1-1.43-9.41C108.64,142.11,108.24,139.15,108.05,136.21Z"/><path class="cls-5" d="M108.05,136.21c-.15-2.08-.28-5,1.41-6.59s4-1.89,6.22-2.27c-.06-.29-.11-.59-.18-.89-.69.16-1.38.29-2.09.4a11.57,11.57,0,0,1-1.43.65c-1.11.39-2.25.63-3.36,1a10.13,10.13,0,0,0-4.55,3.13,6,6,0,0,0-.74,1.09c.27,1.46.51,2.94.7,4.42.69,5.26,1,10.58,2.28,15.74.14.53.28,1.06.43,1.59h3.6a90.54,90.54,0,0,1-1.43-9.41C108.64,142.11,108.24,139.15,108.05,136.21Z"/><path class="cls-7" d="M104.07,131.61a10.13,10.13,0,0,1,4.55-3.13c1.11-.34,2.25-.58,3.36-1a11.57,11.57,0,0,0,1.43-.65,47.83,47.83,0,0,1-11.37.25q.78,2.76,1.29,5.59A6,6,0,0,1,104.07,131.61Z"/><path class="cls-5" d="M104.07,131.61a10.13,10.13,0,0,1,4.55-3.13c1.11-.34,2.25-.58,3.36-1a11.57,11.57,0,0,0,1.43-.65,47.83,47.83,0,0,1-11.37.25q.78,2.76,1.29,5.59A6,6,0,0,1,104.07,131.61Z"/><path class="cls-5" d="M104.07,131.61a10.13,10.13,0,0,1,4.55-3.13c1.11-.34,2.25-.58,3.36-1a11.57,11.57,0,0,0,1.43-.65,47.83,47.83,0,0,1-11.37.25q.78,2.76,1.29,5.59A6,6,0,0,1,104.07,131.61Z"/><path class="cls-8" d="M104,137.12c-.19-1.48-.43-3-.7-4.42q-.51-2.83-1.29-5.59l-.4,0c.18.74.35,1.47.5,2.21.08.38.15.76.23,1.14.16.86.32,1.73.46,2.6.25,1.52.48,3,.68,4.56.63,5,1,10,2.15,15,.15.63.31,1.27.48,1.9h.6c-.15-.53-.29-1.06-.43-1.59C105,147.7,104.72,142.38,104,137.12Z"/><path class="cls-8" d="M115.5,126.46c.07.3.12.6.18.89.43,2.08.82,4.16,1.19,6.25l.36,2.14c.11.63.21,1.27.32,1.91.92,5.6,2,11.17,2.68,16.8h.57c-.69-5.68-1.74-11.32-2.64-17-.59-3.74-1.25-7.48-2.12-11.16Z"/><path class="cls-7" d="M117.39,139c0-.17-.27.13-.26.24.68,5.07,1.46,10.12,2.05,15.2h.56q-.42-3.27-.89-6.54C118.42,144.93,118,142,117.39,139Z"/><path class="cls-6" d="M117.39,139c0-.17-.27.13-.26.24.68,5.07,1.46,10.12,2.05,15.2h.56q-.42-3.27-.89-6.54C118.42,144.93,118,142,117.39,139Z"/><path class="cls-4" d="M64.25,84.41c1.77-.51,3.11-1.06,3-3.46,0-.13,0-.25,0-.38l-.22,0c0-.54,0-1,0-1.42a42.33,42.33,0,0,0,14.8-5.84c0,.65,0,1.35,0,2.05V76c0,.37,0,.74,0,1.09,0,.17,0,.34,0,.5.15,2.58-.29,1.69,6.46,3.48,0-.07.07-.14.11-.2-1.63-.44-2.86-.72-3.75-.92-2.5-.58-2.5-.58-2.57-2l0-.42c-.07-1.27-.08-3-.06-4.34q2.37-1.45,4.76-3.23a.2.2,0,0,1-.13,0,.23.23,0,0,1-.17-.07s0,0,0,0C67,84.28,52.33,79.66,45.35,73.61,32.07,62.1,39.3,50.58,37.83,41c-1.29-10.48-.19-14.16-.19-14.16l-.09.07a7.78,7.78,0,0,1-.59.68l-.05,0,.38-.23c-.26,1.43-.69,5.47.31,13.64a34.37,34.37,0,0,1-.21,8.79c-.79,7.37-1.67,15.73,7.81,24a24.92,24.92,0,0,0,16.09,5.86h.42a30.37,30.37,0,0,0,5-.42c0,.5,0,1.08.06,1.75.12,2-.89,2.48-2.58,3C64.2,84.1,64.23,84.25,64.25,84.41Z"/><path class="cls-3" d="M81.79,77.56c0-.16,0-.33,0-.5,0-.35,0-.72,0-1.09V75.4c0-.7,0-1.4,0-2.05a42.33,42.33,0,0,1-14.8,5.84c0,.42,0,.88,0,1.42l.22,0c0,.13,0,.25,0,.38.14,2.4-1.2,3-3,3.46A10,10,0,0,0,67,90.08,8.3,8.3,0,0,0,73.7,92c8.07-.73,13-8.19,14.55-11C81.5,79.25,81.94,80.14,81.79,77.56Z"/><path class="cls-3" d="M46.86,30.58A23.16,23.16,0,0,1,50.6,42.27a15.53,15.53,0,0,0-.7-4.79c0-.06.09-.11.12,0a15.14,15.14,0,0,1,1.23,8.43c-.3,2.47-1,5.83-3.37,7.15a.19.19,0,0,1-.26-.25,29.48,29.48,0,0,0,1.9-3.71c.1-.27.18-.54.26-.82a11.23,11.23,0,0,1-.87,1.9A8.25,8.25,0,0,1,47.15,53a1.13,1.13,0,0,0,.13.18c1.54.36,5.29,1.35,6.29,2.5h0l0,0a1.12,1.12,0,0,1,.18.31s0,0,0,0c.49,1.31-2.55,3.71-7.4,3.1-2.39-.15-.56,1.68,5.44,2.09s11.08,0,12.1-2.14c.61,1.94,1.32,2.24,2.85,2.75-1.63,0-1.83,1.83-2.24,4.17a10,10,0,0,1-4.78,7.53C56,76,65.57,80.82,78.59,72.27c9.35-5.69,10-13.62,7.93-16.88s-2.44-4.68-1-10S84.28,31,79.2,25.7C78,28.54,76.55,29,76.55,29s-1.22-3.71-2.94-7.75l-.54-.46L73.93,24a.23.23,0,0,1-.39.22,11.2,11.2,0,0,1-3-5.92,21.62,21.62,0,0,1-8.24,3.57C48.53,25.24,43.19,25.39,46.86,30.58ZM68.61,54.12a9.24,9.24,0,0,1,1.46-2.41c.46-.44,1.4-1.11,2-.69a.2.2,0,0,1,0,.28c-.19.28-.53.36-.82.52a4.35,4.35,0,0,0-1,.72c-.58.54-1.07,1.13-1.59,1.72C68.68,54.35,68.56,54.22,68.61,54.12Zm6.31-3.72s0,0,0,0a1.09,1.09,0,0,1-.8.61,1.53,1.53,0,0,1-1.26,0,.37.37,0,0,1-.19-.55,1.29,1.29,0,0,1,.28-.29,1.65,1.65,0,0,1,1.77-.33A.36.36,0,0,1,74.92,50.4ZM73.13,33.62A6.21,6.21,0,0,1,74.28,36s0,0,0,0l0,.11v0l0,.09c.07.26.86,4.81.35,4.54s-.64-.55-1.17-.6a.3.3,0,0,0-.3.35c.27,2.26.78,4.49.48,6.78a6,6,0,0,1-.81,2.31,5,5,0,0,1,1-.06,8.73,8.73,0,0,0-3,1.33,5.23,5.23,0,0,1-.64.5,6.92,6.92,0,0,0-.77.75c-.16.22-.31.44-.45.67H69a4.42,4.42,0,0,0-.45.76,6.13,6.13,0,0,1,.22-.72l-.16,0h0A5.44,5.44,0,0,1,64.05,51a8.52,8.52,0,0,1-1.52-5.08.29.29,0,0,0-.53-.17c-.11.16-.2.33-.29.49a11.36,11.36,0,0,1-.22-1.32.29.29,0,0,0-.47-.16,2.45,2.45,0,0,0-.54.63,11,11,0,0,1,1-5.83c.46-1,0-1.35-1-1.65-2.23-.69-.48-3,.43-4.26a8.12,8.12,0,0,1,5.28-3.52A7.25,7.25,0,0,1,73.13,33.62Z"/><path class="cls-4" d="M96.57,61.41h0a6.52,6.52,0,0,0,1.89-.8,5.54,5.54,0,0,1-2,.68A.24.24,0,0,1,96.57,61.41Z"/><path class="cls-4" d="M103.28,51.3a13.7,13.7,0,0,1-1.72,6,15.52,15.52,0,0,0,1.94-6.14v0A.2.2,0,0,1,103.28,51.3Z"/><path class="cls-5" d="M98.46,60.62a8.54,8.54,0,0,0,3.1-3.31A9.46,9.46,0,0,1,98.46,60.62Z"/><path class="cls-3" d="M51.1,55.4a19.79,19.79,0,0,1,2.31.18.5.5,0,0,1,.16.05c-1-1.15-4.75-2.14-6.29-2.5.19.24.58.71,1,1.16A6,6,0,0,0,51.1,55.4Z"/><path class="cls-5" d="M51.1,55.4a19.79,19.79,0,0,1,2.31.18.5.5,0,0,1,.16.05c-1-1.15-4.75-2.14-6.29-2.5.19.24.58.71,1,1.16A6,6,0,0,0,51.1,55.4Z"/><path class="cls-3" d="M61.3,20.61s0-1.83,2.84-4c0,0-4.57,1.53-6.4,3.36C55,23.15,49.8,23.56,49.8,23.56A7.2,7.2,0,0,0,51.94,21c-1,1.22-2.85,1.83-7.32,2.34s-5.19,6.3-5.19,6.3-.51-.41-.3-2.54c-.54.15-1.09,1-1.57,1.91A58.7,58.7,0,0,0,38.06,41a34.85,34.85,0,0,1-.22,8.91C37,57.5,36.2,65.38,45.5,73.44c12.2,10.57,29.13,5,40.92-3.81l.16-.23c.15-.2.29-.4.44-.62l.27-.41c.12-.19.24-.36.36-.56l.3-.52c.11-.19.22-.37.32-.57s.19-.38.29-.57.21-.4.31-.62.17-.41.26-.61.2-.45.29-.68l.23-.66c.09-.25.18-.48.25-.73s.13-.48.19-.71.15-.51.21-.77c.11-.51.2-1,.28-1.56a.21.21,0,0,1,.19-.2.22.22,0,0,1,.25.14,1.29,1.29,0,0,0,.48.53,9.47,9.47,0,0,0,3.58.88l.08,0c3.94,0,7.26-4.23,7.9-10.06a7.94,7.94,0,0,0-.24-1.28,6,6,0,0,0-4.31-4.36A5.71,5.71,0,0,0,96,46c-3,1.33-5.54,5.53-6.36,10.47l0,0s0,0,0,0l-.06.05,0,0h-.11a.25.25,0,0,1-.16-.08c-2.14-2.67-1.7-5.84-1-10.63.12-.86.25-1.78.37-2.76,0-.34.06-.67.07-1,0-.1,0-.2,0-.3v-.7c0-.11,0-.22,0-.33s0-.44,0-.66l0-.32-.09-.67c0-.1,0-.2,0-.3s-.09-.46-.14-.69a2.38,2.38,0,0,0,0-.26c-.06-.25-.12-.5-.19-.75,0-.06,0-.12,0-.18-.08-.3-.17-.58-.27-.87s-.14-.42-.22-.64a1.07,1.07,0,0,1-.07-.19c-2.34-6.19-7.39-10.92-8.8-12.16a6.14,6.14,0,0,1-1,2.85l-.08.12a6.08,6.08,0,0,1-.39.54.23.23,0,0,1-.23.08.21.21,0,0,1-.17-.17,10.2,10.2,0,0,0-3.13-5.36c1.72,4,2.94,7.75,2.94,7.75S78,28.54,79.2,25.7c5.08,5.28,7.73,14.44,6.3,19.73s-1,6.71,1,10,1.42,11.19-7.93,16.88C65.57,80.82,56,76,59.77,73.5A10,10,0,0,0,64.55,66c.41-2.34.61-4.17,2.24-4.17-1.53-.51-2.24-.81-2.85-2.75-1,2.14-6.1,2.55-12.1,2.14S44,59,46.4,59.1c4.85.61,7.89-1.79,7.4-3.1l-.07,0a.85.85,0,0,1,0,.23,1.86,1.86,0,0,1-.59.52,8.65,8.65,0,0,1-1.77.62c-2.53.68-5.38-2.22-6-4.52-.29-1,.76-2.18,1.1-3.08a2.47,2.47,0,0,0,0-2.09.28.28,0,0,0-.38-.1,5.24,5.24,0,0,0-1,.61,4.65,4.65,0,0,1-.85,1c-1.56,1.38-3.34-.17-3.85-1.75a13,13,0,0,1-.24-4.87c0-.14-.1-.27-.16-.41a.3.3,0,0,0-.39-.1,2,2,0,0,0-.73.67,10.15,10.15,0,0,1,.19-2.4l-.11.21a0,0,0,0,1-.05,0,4.7,4.7,0,0,1,.52-1.48,2,2,0,0,1,1.13-1.28A2,2,0,0,1,41,37.6a2.83,2.83,0,0,1,2.65.77,4.31,4.31,0,0,1,.37.37l1,.66a.29.29,0,0,0,.41-.33C45,37.39,43.78,35.89,41.93,36c-.48,0-1,.13-1.43.18-1.38.13-1.45-1.32-1.26-2.21,0-.05,0-.09,0-.14a3.6,3.6,0,0,1,1.23-2.75A3.27,3.27,0,0,1,44,30.5a5.08,5.08,0,0,1,2.39,2.89,10.34,10.34,0,0,1,.35,1c.14.21.28.42.4.63a18.21,18.21,0,0,1,2.4,7.73,21.51,21.51,0,0,1,0,3.94c.17-.87.21-1.43.21-1.39a11.51,11.51,0,0,1-.84,4.84,11.23,11.23,0,0,0,.87-1.9,18.94,18.94,0,0,0,.65-3.15,24.48,24.48,0,0,0,.17-2.81,23.16,23.16,0,0,0-3.74-11.69c-3.67-5.19,1.67-5.34,15.4-8.7a21.62,21.62,0,0,0,8.24-3.57,8.56,8.56,0,0,1-.11-1.13A14.68,14.68,0,0,1,61.3,20.61ZM93.79,54c.8-2.23,3.24-5.37,5.89-4.48,2.25,2.45-1,7.65-3.69,9-1.15.6-1.83.29-2.19-.4a.09.09,0,0,1-.1-.08V57.9A6.67,6.67,0,0,1,93.79,54ZM59.33,71.5c-1.64,1.62-4,2.53-5.88.82a20.33,20.33,0,0,1-3.21-4c2.65,1.54,5.7,2.78,8.63,1.43a10.59,10.59,0,0,0,3.73-3.07A17.45,17.45,0,0,1,59.33,71.5Zm-3.16-1.42c-1.7.06-3.42-.75-5.9-3.3,0,0,2.95,2.75,6.37,2.27s6.6-5.33,6.6-5.33S60.73,69.92,56.17,70.08Zm-13-9.79a3.68,3.68,0,0,0,2.22,1.48,26.2,26.2,0,0,0,3.43.19c1.71,0,3.41-.08,5.12-.07s7.91,0,9.85-.66c0,0,0-.11-.07-.17a1.44,1.44,0,0,1,.1-1.13h0A4.1,4.1,0,0,0,64.49,62a.06.06,0,0,1-.08,0,2.77,2.77,0,0,1-.52-.56h-.06c-1.54,2.93-4.31,7-8,7a8,8,0,0,1-4.88-1.78,15.89,15.89,0,0,1-3.95-4,11.78,11.78,0,0,1-1.33-.16,2.91,2.91,0,0,1-2.33-1.67C43.14,60.5,43,60.05,43.14,60.29Z"/><path class="cls-5" d="M61.3,20.61s0-1.83,2.84-4c0,0-4.57,1.53-6.4,3.36C55,23.15,49.8,23.56,49.8,23.56A7.2,7.2,0,0,0,51.94,21c-1,1.22-2.85,1.83-7.32,2.34s-5.19,6.3-5.19,6.3-.51-.41-.3-2.54c-.54.15-1.09,1-1.57,1.91A58.7,58.7,0,0,0,38.06,41a34.85,34.85,0,0,1-.22,8.91C37,57.5,36.2,65.38,45.5,73.44c12.2,10.57,29.13,5,40.92-3.81l.16-.23c.15-.2.29-.4.44-.62l.27-.41c.12-.19.24-.36.36-.56l.3-.52c.11-.19.22-.37.32-.57s.19-.38.29-.57.21-.4.31-.62.17-.41.26-.61.2-.45.29-.68l.23-.66c.09-.25.18-.48.25-.73s.13-.48.19-.71.15-.51.21-.77c.11-.51.2-1,.28-1.56a.21.21,0,0,1,.19-.2.22.22,0,0,1,.25.14,1.29,1.29,0,0,0,.48.53,9.47,9.47,0,0,0,3.58.88l.08,0c3.94,0,7.26-4.23,7.9-10.06a7.94,7.94,0,0,0-.24-1.28,6,6,0,0,0-4.31-4.36A5.71,5.71,0,0,0,96,46c-3,1.33-5.54,5.53-6.36,10.47l0,0s0,0,0,0l-.06.05,0,0h-.11a.25.25,0,0,1-.16-.08c-2.14-2.67-1.7-5.84-1-10.63.12-.86.25-1.78.37-2.76,0-.34.06-.67.07-1,0-.1,0-.2,0-.3v-.7c0-.11,0-.22,0-.33s0-.44,0-.66l0-.32-.09-.67c0-.1,0-.2,0-.3s-.09-.46-.14-.69a2.38,2.38,0,0,0,0-.26c-.06-.25-.12-.5-.19-.75,0-.06,0-.12,0-.18-.08-.3-.17-.58-.27-.87s-.14-.42-.22-.64a1.07,1.07,0,0,1-.07-.19c-2.34-6.19-7.39-10.92-8.8-12.16a6.14,6.14,0,0,1-1,2.85l-.08.12a6.08,6.08,0,0,1-.39.54.23.23,0,0,1-.23.08.21.21,0,0,1-.17-.17,10.2,10.2,0,0,0-3.13-5.36c1.72,4,2.94,7.75,2.94,7.75S78,28.54,79.2,25.7c5.08,5.28,7.73,14.44,6.3,19.73s-1,6.71,1,10,1.42,11.19-7.93,16.88C65.57,80.82,56,76,59.77,73.5A10,10,0,0,0,64.55,66c.41-2.34.61-4.17,2.24-4.17-1.53-.51-2.24-.81-2.85-2.75-1,2.14-6.1,2.55-12.1,2.14S44,59,46.4,59.1c4.85.61,7.89-1.79,7.4-3.1l-.07,0a.85.85,0,0,1,0,.23,1.86,1.86,0,0,1-.59.52,8.65,8.65,0,0,1-1.77.62c-2.53.68-5.38-2.22-6-4.52-.29-1,.76-2.18,1.1-3.08a2.47,2.47,0,0,0,0-2.09.28.28,0,0,0-.38-.1,5.24,5.24,0,0,0-1,.61,4.65,4.65,0,0,1-.85,1c-1.56,1.38-3.34-.17-3.85-1.75a13,13,0,0,1-.24-4.87c0-.14-.1-.27-.16-.41a.3.3,0,0,0-.39-.1,2,2,0,0,0-.73.67,10.15,10.15,0,0,1,.19-2.4l-.11.21a0,0,0,0,1-.05,0,4.7,4.7,0,0,1,.52-1.48,2,2,0,0,1,1.13-1.28A2,2,0,0,1,41,37.6a2.83,2.83,0,0,1,2.65.77,4.31,4.31,0,0,1,.37.37l1,.66a.29.29,0,0,0,.41-.33C45,37.39,43.78,35.89,41.93,36c-.48,0-1,.13-1.43.18-1.38.13-1.45-1.32-1.26-2.21,0-.05,0-.09,0-.14a3.6,3.6,0,0,1,1.23-2.75A3.27,3.27,0,0,1,44,30.5a5.08,5.08,0,0,1,2.39,2.89,10.34,10.34,0,0,1,.35,1c.14.21.28.42.4.63a18.21,18.21,0,0,1,2.4,7.73,21.51,21.51,0,0,1,0,3.94c.17-.87.21-1.43.21-1.39a11.51,11.51,0,0,1-.84,4.84,11.23,11.23,0,0,0,.87-1.9,18.94,18.94,0,0,0,.65-3.15,24.48,24.48,0,0,0,.17-2.81,23.16,23.16,0,0,0-3.74-11.69c-3.67-5.19,1.67-5.34,15.4-8.7a21.62,21.62,0,0,0,8.24-3.57,8.56,8.56,0,0,1-.11-1.13A14.68,14.68,0,0,1,61.3,20.61ZM93.79,54c.8-2.23,3.24-5.37,5.89-4.48,2.25,2.45-1,7.65-3.69,9-1.15.6-1.83.29-2.19-.4a.09.09,0,0,1-.1-.08V57.9A6.67,6.67,0,0,1,93.79,54ZM59.33,71.5c-1.64,1.62-4,2.53-5.88.82a20.33,20.33,0,0,1-3.21-4c2.65,1.54,5.7,2.78,8.63,1.43a10.59,10.59,0,0,0,3.73-3.07A17.45,17.45,0,0,1,59.33,71.5Zm-3.16-1.42c-1.7.06-3.42-.75-5.9-3.3,0,0,2.95,2.75,6.37,2.27s6.6-5.33,6.6-5.33S60.73,69.92,56.17,70.08Zm-13-9.79a3.68,3.68,0,0,0,2.22,1.48,26.2,26.2,0,0,0,3.43.19c1.71,0,3.41-.08,5.12-.07s7.91,0,9.85-.66c0,0,0-.11-.07-.17a1.44,1.44,0,0,1,.1-1.13h0A4.1,4.1,0,0,0,64.49,62a.06.06,0,0,1-.08,0,2.77,2.77,0,0,1-.52-.56h-.06c-1.54,2.93-4.31,7-8,7a8,8,0,0,1-4.88-1.78,15.89,15.89,0,0,1-3.95-4,11.78,11.78,0,0,1-1.33-.16,2.91,2.91,0,0,1-2.33-1.67C43.14,60.5,43,60.05,43.14,60.29Z"/><path class="cls-3" d="M53.72,56h.07a1.12,1.12,0,0,0-.18-.31.33.33,0,0,1,.07.13A.58.58,0,0,1,53.72,56Z"/><path class="cls-5" d="M53.72,56h.07a1.12,1.12,0,0,0-.18-.31.33.33,0,0,1,.07.13A.58.58,0,0,1,53.72,56Z"/><path class="cls-4" d="M103.25,51.31a.23.23,0,0,1-.19-.21v0c-.64,5.83-4,10.06-7.9,10.06l-.08,0a9.47,9.47,0,0,1-3.58-.88,8.69,8.69,0,0,0,4.85,1h0a.24.24,0,0,1,.12,0,5.54,5.54,0,0,0,2-.68,9.46,9.46,0,0,0,3.1-3.31,13.7,13.7,0,0,0,1.72-6Z"/><path class="cls-5" d="M103.25,51.31a.23.23,0,0,1-.19-.21v0c-.64,5.83-4,10.06-7.9,10.06l-.08,0a9.47,9.47,0,0,1-3.58-.88,8.69,8.69,0,0,0,4.85,1h0a.24.24,0,0,1,.12,0,5.54,5.54,0,0,0,2-.68,9.46,9.46,0,0,0,3.1-3.31,13.7,13.7,0,0,0,1.72-6Z"/><path class="cls-4" d="M77.53,26.11l.08-.12Z"/><path class="cls-5" d="M77.53,26.11l.08-.12Z"/><path class="cls-4" d="M87.65,67.81c-.12.2-.24.37-.36.56C87.41,68.18,87.53,68,87.65,67.81Z"/><path class="cls-5" d="M87.65,67.81c-.12.2-.24.37-.36.56C87.41,68.18,87.53,68,87.65,67.81Z"/><path class="cls-4" d="M89.35,56.63a.25.25,0,0,1-.16-.08A.25.25,0,0,0,89.35,56.63Z"/><path class="cls-5" d="M89.35,56.63a.25.25,0,0,1-.16-.08A.25.25,0,0,0,89.35,56.63Z"/><path class="cls-4" d="M87,68.78c-.15.22-.29.42-.44.62C86.73,69.2,86.87,69,87,68.78Z"/><path class="cls-5" d="M87,68.78c-.15.22-.29.42-.44.62C86.73,69.2,86.87,69,87,68.78Z"/><path class="cls-4" d="M88.27,66.72c-.1.2-.21.38-.32.57C88.06,67.1,88.17,66.92,88.27,66.72Z"/><path class="cls-5" d="M88.27,66.72c-.1.2-.21.38-.32.57C88.06,67.1,88.17,66.92,88.27,66.72Z"/><path class="cls-4" d="M86.4,69.65l0,0C74.63,78.4,57.7,84,45.5,73.44,36.2,65.38,37,57.5,37.84,49.89A34.85,34.85,0,0,0,38.06,41,58.7,58.7,0,0,1,37.56,29c-.1.19-.19.38-.28.58a14.27,14.27,0,0,1,.36-2.76s-1.1,3.68.19,14.16c1.47,9.57-5.76,21.09,7.52,32.6,7,6,21.67,10.67,41.06-3.69A.23.23,0,0,1,86.4,69.65Z"/><path class="cls-5" d="M86.4,69.65l0,0C74.63,78.4,57.7,84,45.5,73.44,36.2,65.38,37,57.5,37.84,49.89A34.85,34.85,0,0,0,38.06,41,58.7,58.7,0,0,1,37.56,29c-.1.19-.19.38-.28.58a14.27,14.27,0,0,1,.36-2.76s-1.1,3.68.19,14.16c1.47,9.57-5.76,21.09,7.52,32.6,7,6,21.67,10.67,41.06-3.69A.23.23,0,0,1,86.4,69.65Z"/><path class="cls-4" d="M89.49,56.59s0,0,0,0h0Z"/><path class="cls-5" d="M89.49,56.59s0,0,0,0h0Z"/><path class="cls-4" d="M89.42,64.24c-.09.23-.19.45-.29.68C89.23,64.69,89.33,64.47,89.42,64.24Z"/><path class="cls-5" d="M89.42,64.24c-.09.23-.19.45-.29.68C89.23,64.69,89.33,64.47,89.42,64.24Z"/><path class="cls-4" d="M102.82,49.8A6.12,6.12,0,0,0,100.26,46a3.87,3.87,0,0,0-1.75-.52A6,6,0,0,1,102.82,49.8Z"/><path class="cls-5" d="M102.82,49.8A6.12,6.12,0,0,0,100.26,46a3.87,3.87,0,0,0-1.75-.52A6,6,0,0,1,102.82,49.8Z"/><path class="cls-4" d="M89.57,56.49l0,0S89.57,56.51,89.57,56.49Z"/><path class="cls-5" d="M89.57,56.49l0,0S89.57,56.51,89.57,56.49Z"/><path class="cls-4" d="M89.9,62.85c-.07.25-.16.48-.25.73C89.74,63.33,89.83,63.1,89.9,62.85Z"/><path class="cls-5" d="M89.9,62.85c-.07.25-.16.48-.25.73C89.74,63.33,89.83,63.1,89.9,62.85Z"/><path class="cls-4" d="M88.87,65.53c-.1.22-.21.42-.31.62C88.66,66,88.77,65.75,88.87,65.53Z"/><path class="cls-5" d="M88.87,65.53c-.1.22-.21.42-.31.62C88.66,66,88.77,65.75,88.87,65.53Z"/><path class="cls-4" d="M90.3,61.37c-.06.26-.14.51-.21.77C90.16,61.88,90.24,61.63,90.3,61.37Z"/><path class="cls-5" d="M90.3,61.37c-.06.26-.14.51-.21.77C90.16,61.88,90.24,61.63,90.3,61.37Z"/><path class="cls-9" d="M30.53,26.44l.19.12c2.6.4,5.39-1.91,8.08-6.67a.23.23,0,0,1,.41.2,2.76,2.76,0,0,0,0,1.83c.42-1,1.58-2.42,4.82-2,2.84.33,8.31-2.89,11-6.52a.22.22,0,0,1,.17-.09.23.23,0,0,1,.18.06,3.57,3.57,0,0,1,.76,3.15,16.26,16.26,0,0,1,12-5.58.21.21,0,0,1,.21.17.22.22,0,0,1-.08.25,4.26,4.26,0,0,0-1.25,3c.63-.82,2-1.78,5.14-2.28a.23.23,0,0,1,.18,0,.23.23,0,0,1,.08.17,5.72,5.72,0,0,0,1.29,3.41,20.44,20.44,0,0,1,1.89,3.31c1.32-4.12-.29-6.23-.31-6.25a.26.26,0,0,1,0-.29.23.23,0,0,1,.28-.06c.17.08,16.35,8.07,17.24,24.17a24.5,24.5,0,0,0,.2-12,.23.23,0,0,1,.37-.24,24.91,24.91,0,0,1,7.2,12.84,24.49,24.49,0,0,0-2.36-16.82.23.23,0,0,1,.39-.25,32.29,32.29,0,0,0,6,6.53c-.77-2-1.35-3.72-1.86-5.29-1.42-4.38-2.31-7.13-5.55-8.46,1.93,2.73,1.59,4.75,1.57,4.84a.24.24,0,0,1-.21.19.23.23,0,0,1-.24-.16c0-.07-2.06-6.15-8.43-7.55,5.37,1.88,8.25,8.53,9.26,15.08a7.73,7.73,0,0,1,.15,1.06c0-.35-.1-.7-.15-1.06-1-4.74-5.65-9.21-4.32-5.05,1.42,4.48-4.27-2.44-3.46-.61s2.44,3.87.81,9.36C90.59,18.58,85.3,15.12,85.3,15.12c9.76,4.07-.41-3.66,4.68-1.83s2-1.22-3.46-3.66a9.45,9.45,0,0,1,2.59.28.15.15,0,0,1,0-.09.23.23,0,0,1,.14-.24A5.54,5.54,0,0,1,93,9.3C89.91,6.55,79.83-.41,59,1.17h0A49.91,49.91,0,0,0,46.88,4.8c-1.32.64-2.73,1.49-4.23,2.39C38.32,9.8,33.46,12.73,30,10.74a4.71,4.71,0,0,0,2.88,2.33,3.16,3.16,0,0,0,2.54-.65l.17-.14a.22.22,0,0,1,.32,0,.23.23,0,0,1,0,.32l-.19.16c-3.92,3.26-4.55,6.34-4.6,7.75a6.64,6.64,0,0,1,5.2-3.21.23.23,0,0,1,.25.21c0,.22.52,5.52-2.16,7.87A4.72,4.72,0,0,1,30.53,26.44Zm2.86-9.76A45,45,0,0,1,45.5,6.3c6.57-3.94,26.72-8.84,41.71-.39,0,0-6.34-3.07-11.14-2.3s10.76,2.11,3.65,3.07,7.69,2.5.57,2.31-.19,0,3.08,6.34C74.72,8.41,72.22,8.22,72.22,8.22a11.61,11.61,0,0,1,2.88,7.31c-2.88-6.35-5.76-7.12-8.45-6.93-3.85.58-9,5.2-9,5.2a10.06,10.06,0,0,1,2.88-5.39s-1-2.11-5.57,2.31c-4.28,4.1-.58-1.92-4.42,2.31S49,11.3,46.27,10.91s-7.11,7.31-7.11,7.31c-1.16-4,1.92-5.39,1.92-5.39A41.61,41.61,0,0,0,33.39,16.68Z"/><path class="cls-4" d="M93.7,58a.09.09,0,0,0,.1.08,1.47,1.47,0,0,1-.1-.22Z"/><path class="cls-3" d="M68.58,52.9l.16,0h0Z"/><path class="cls-5" d="M68.58,52.9l.16,0h0Z"/><path class="cls-3" d="M61,33.63c-.91,1.24-2.66,3.57-.43,4.26,1,.3,1.42.67,1,1.65a11,11,0,0,0-1,5.83,2.45,2.45,0,0,1,.54-.63.29.29,0,0,1,.47.16,11.36,11.36,0,0,0,.22,1.32c.09-.16.18-.33.29-.49a.29.29,0,0,1,.53.17A8.52,8.52,0,0,0,64.05,51a5.44,5.44,0,0,0,4.5,1.92l-.06-.26a.28.28,0,0,0-.34-.22,3.14,3.14,0,0,1-3.34-1.1l0,0c-1.24-1-1.6-2.88-1.65-4.4v-.49c-.11-.78-.17-1.53-.22-2.15,0-.31-.46-.28-.56,0s-.27.77-.39,1.16a2,2,0,0,0-.34-1c-.16-.19-.3-.22-.42-.17,0-.19.07-.39.11-.58a.06.06,0,0,1-.08-.06,5.51,5.51,0,0,1,3.81-5,5.13,5.13,0,0,1,5.55,1.7,7.47,7.47,0,0,1,.69.8,6.05,6.05,0,0,1,1,1.64A8.49,8.49,0,0,1,73,45c0,.2,0,.81,0,.62s-.06-.3-.09-.45a8.78,8.78,0,0,1-1,4.7,6.31,6.31,0,0,1,1-.26,6,6,0,0,0,.81-2.31c.3-2.29-.21-4.52-.48-6.78a.3.3,0,0,1,.3-.35c.53.05.71.36,1.17.6s-.28-4.28-.35-4.54l0-.09a1.77,1.77,0,0,1,0,.2h0a.57.57,0,0,1-.21.52l-.08,0c.17.57.32,1.31-.12,1a9.65,9.65,0,0,1-1.49-1.37,4.63,4.63,0,0,0-3.22-1.3c-2.71-.09-5.08,3.2-7.77,2.42-.84-.24-.7-1.37-.48-2.21a3,3,0,0,1,.28-1.32,8.42,8.42,0,0,1,4.54-3.81,5.76,5.76,0,0,1,5.49,1.34,11.4,11.4,0,0,1,1.83,1.91,7.25,7.25,0,0,0-6.9-3.51A8.12,8.12,0,0,0,61,33.63Z"/><path class="cls-5" d="M61,33.63c-.91,1.24-2.66,3.57-.43,4.26,1,.3,1.42.67,1,1.65a11,11,0,0,0-1,5.83,2.45,2.45,0,0,1,.54-.63.29.29,0,0,1,.47.16,11.36,11.36,0,0,0,.22,1.32c.09-.16.18-.33.29-.49a.29.29,0,0,1,.53.17A8.52,8.52,0,0,0,64.05,51a5.44,5.44,0,0,0,4.5,1.92l-.06-.26a.28.28,0,0,0-.34-.22,3.14,3.14,0,0,1-3.34-1.1l0,0c-1.24-1-1.6-2.88-1.65-4.4v-.49c-.11-.78-.17-1.53-.22-2.15,0-.31-.46-.28-.56,0s-.27.77-.39,1.16a2,2,0,0,0-.34-1c-.16-.19-.3-.22-.42-.17,0-.19.07-.39.11-.58a.06.06,0,0,1-.08-.06,5.51,5.51,0,0,1,3.81-5,5.13,5.13,0,0,1,5.55,1.7,7.47,7.47,0,0,1,.69.8,6.05,6.05,0,0,1,1,1.64A8.49,8.49,0,0,1,73,45c0,.2,0,.81,0,.62s-.06-.3-.09-.45a8.78,8.78,0,0,1-1,4.7,6.31,6.31,0,0,1,1-.26,6,6,0,0,0,.81-2.31c.3-2.29-.21-4.52-.48-6.78a.3.3,0,0,1,.3-.35c.53.05.71.36,1.17.6s-.28-4.28-.35-4.54l0-.09a1.77,1.77,0,0,1,0,.2h0a.57.57,0,0,1-.21.52l-.08,0c.17.57.32,1.31-.12,1a9.65,9.65,0,0,1-1.49-1.37,4.63,4.63,0,0,0-3.22-1.3c-2.71-.09-5.08,3.2-7.77,2.42-.84-.24-.7-1.37-.48-2.21a3,3,0,0,1,.28-1.32,8.42,8.42,0,0,1,4.54-3.81,5.76,5.76,0,0,1,5.49,1.34,11.4,11.4,0,0,1,1.83,1.91,7.25,7.25,0,0,0-6.9-3.51A8.12,8.12,0,0,0,61,33.63Z"/><path class="cls-3" d="M69.06,52.82c.14-.23.29-.45.45-.67a7.92,7.92,0,0,0-.54.68Z"/><path class="cls-5" d="M69.06,52.82c.14-.23.29-.45.45-.67a7.92,7.92,0,0,0-.54.68Z"/><path class="cls-3" d="M73.81,37h0a.53.53,0,0,1-.47-.29l-.11-.22a.31.31,0,0,1-.17-.1,7.6,7.6,0,0,0-5.85-2.64,6.91,6.91,0,0,0-3.69,1.64,17.35,17.35,0,0,1-1.45,1,.45.45,0,0,1-.35.28.49.49,0,0,1-.54-.26l0-.11h0A2.2,2.2,0,0,1,61,35.5c-.22.84-.36,2,.48,2.21,2.69.78,5.06-2.51,7.77-2.42a4.63,4.63,0,0,1,3.22,1.3A9.65,9.65,0,0,0,74,38c.44.28.29-.46.12-1a.47.47,0,0,1-.1,0A.44.44,0,0,1,73.81,37Z"/><path class="cls-5" d="M73.81,37h0a.53.53,0,0,1-.47-.29l-.11-.22a.31.31,0,0,1-.17-.1,7.6,7.6,0,0,0-5.85-2.64,6.91,6.91,0,0,0-3.69,1.64,17.35,17.35,0,0,1-1.45,1,.45.45,0,0,1-.35.28.49.49,0,0,1-.54-.26l0-.11h0A2.2,2.2,0,0,1,61,35.5c-.22.84-.36,2,.48,2.21,2.69.78,5.06-2.51,7.77-2.42a4.63,4.63,0,0,1,3.22,1.3A9.65,9.65,0,0,0,74,38c.44.28.29-.46.12-1a.47.47,0,0,1-.1,0A.44.44,0,0,1,73.81,37Z"/><path class="cls-10" d="M73.81,37h0a.53.53,0,0,1-.47-.29l-.11-.22a.31.31,0,0,1-.17-.1,7.6,7.6,0,0,0-5.85-2.64,6.91,6.91,0,0,0-3.69,1.64,17.35,17.35,0,0,1-1.45,1,.45.45,0,0,1-.35.28.49.49,0,0,1-.54-.26l0-.11h0A2.2,2.2,0,0,1,61,35.5c-.22.84-.36,2,.48,2.21,2.69.78,5.06-2.51,7.77-2.42a4.63,4.63,0,0,1,3.22,1.3A9.65,9.65,0,0,0,74,38c.44.28.29-.46.12-1a.47.47,0,0,1-.1,0A.44.44,0,0,1,73.81,37Z"/><path class="cls-3" d="M68.55,52.9h0Z"/><path class="cls-10" d="M68.55,52.9h0Z"/><path class="cls-3" d="M69.21,51.93a4.51,4.51,0,0,1-4.4-.61,3.14,3.14,0,0,0,3.34,1.1.28.28,0,0,1,.34.22l.06.26h0l.16,0A6.34,6.34,0,0,1,69.21,51.93Z"/><path class="cls-5" d="M69.21,51.93a4.51,4.51,0,0,1-4.4-.61,3.14,3.14,0,0,0,3.34,1.1.28.28,0,0,1,.34.22l.06.26h0l.16,0A6.34,6.34,0,0,1,69.21,51.93Z"/><path class="cls-10" d="M69.21,51.93a4.51,4.51,0,0,1-4.4-.61,3.14,3.14,0,0,0,3.34,1.1.28.28,0,0,1,.34.22l.06.26h0l.16,0A6.34,6.34,0,0,1,69.21,51.93Z"/><path class="cls-3" d="M71.28,41a8,8,0,0,1,1,1.64A6.05,6.05,0,0,0,71.28,41Z"/><path class="cls-5" d="M71.28,41a8,8,0,0,1,1,1.64A6.05,6.05,0,0,0,71.28,41Z"/><path class="cls-10" d="M71.28,41a8,8,0,0,1,1,1.64A6.05,6.05,0,0,0,71.28,41Z"/><path class="cls-3" d="M72.61,46.83a6.89,6.89,0,0,1-.88,3.1l.13,0a8.78,8.78,0,0,0,1-4.7c-.07-.27-.15-.56-.25-.85A12.19,12.19,0,0,1,72.61,46.83Z"/><path class="cls-5" d="M72.61,46.83a6.89,6.89,0,0,1-.88,3.1l.13,0a8.78,8.78,0,0,0,1-4.7c-.07-.27-.15-.56-.25-.85A12.19,12.19,0,0,1,72.61,46.83Z"/><path class="cls-10" d="M72.61,46.83a6.89,6.89,0,0,1-.88,3.1l.13,0a8.78,8.78,0,0,0,1-4.7c-.07-.27-.15-.56-.25-.85A12.19,12.19,0,0,1,72.61,46.83Z"/><path class="cls-3" d="M64.11,41.47a5,5,0,0,1,1.69-1.93c-2.06.86-3.21,2.93-3.75,5.07a.07.07,0,0,1-.14,0,6.5,6.5,0,0,1,3.54-5.68l-.31.07c-2.24.64-3.55,3.35-3.78,4.59,0,0,0,0,0,0,0,.19-.08.39-.11.58.12,0,.26,0,.42.17a2,2,0,0,1,.34,1c.12-.39.24-.78.39-1.16s.54-.27.56,0c.05.62.11,1.37.22,2.15A11.09,11.09,0,0,1,64.11,41.47Z"/><path class="cls-5" d="M64.11,41.47a5,5,0,0,1,1.69-1.93c-2.06.86-3.21,2.93-3.75,5.07a.07.07,0,0,1-.14,0,6.5,6.5,0,0,1,3.54-5.68l-.31.07c-2.24.64-3.55,3.35-3.78,4.59,0,0,0,0,0,0,0,.19-.08.39-.11.58.12,0,.26,0,.42.17a2,2,0,0,1,.34,1c.12-.39.24-.78.39-1.16s.54-.27.56,0c.05.62.11,1.37.22,2.15A11.09,11.09,0,0,1,64.11,41.47Z"/><path class="cls-10" d="M64.11,41.47a5,5,0,0,1,1.69-1.93c-2.06.86-3.21,2.93-3.75,5.07a.07.07,0,0,1-.14,0,6.5,6.5,0,0,1,3.54-5.68l-.31.07c-2.24.64-3.55,3.35-3.78,4.59,0,0,0,0,0,0,0,.19-.08.39-.11.58.12,0,.26,0,.42.17a2,2,0,0,1,.34,1c.12-.39.24-.78.39-1.16s.54-.27.56,0c.05.62.11,1.37.22,2.15A11.09,11.09,0,0,1,64.11,41.47Z"/><path class="cls-9" d="M71,32.07a5.34,5.34,0,0,0-5.07-1.26,8,8,0,0,0-4.25,3.56,2.37,2.37,0,0,0-.23,1.24,15.14,15.14,0,0,1,1.21-1.55c1.55-1.71,3-2.59,4.47-2.69A6.23,6.23,0,0,1,71.28,33,17.15,17.15,0,0,1,73.47,35,9.62,9.62,0,0,0,71,32.07Z"/><path class="cls-11" d="M71.3,31.71a5.76,5.76,0,0,0-5.49-1.34,8.42,8.42,0,0,0-4.54,3.81A3,3,0,0,0,61,35.5a2.2,2.2,0,0,0,.16.76h0l0,.11a.49.49,0,0,0,.54.26.45.45,0,0,0,.35-.28,17.35,17.35,0,0,0,1.45-1,6.91,6.91,0,0,1,3.69-1.64,7.6,7.6,0,0,1,5.85,2.64.31.31,0,0,0,.17.1l.11.22a.53.53,0,0,0,.47.29h0A.44.44,0,0,0,74,37a.47.47,0,0,0,.1,0l.08,0a.57.57,0,0,0,.21-.52h0a1.77,1.77,0,0,0,0-.2v0l0-.11s0,0,0,0a6.21,6.21,0,0,0-1.15-2.38A11.4,11.4,0,0,0,71.3,31.71Zm-4.12,1.58A7.36,7.36,0,0,0,63.26,35a17.68,17.68,0,0,1-1.5,1,.1.1,0,0,0,0,0A15.07,15.07,0,0,1,63,34.37c1.47-1.62,2.83-2.45,4.16-2.54A5.79,5.79,0,0,1,71,33.34a18.88,18.88,0,0,1,2.86,2.83v.06c0,.07,0,.13,0,.2a.09.09,0,0,1-.08.11.06.06,0,0,1-.08,0l-.17-.33a.19.19,0,0,0-.18-.1h0A8,8,0,0,0,67.18,33.29Zm-5.55,2.87a.43.43,0,0,0,0-.07.24.24,0,0,0,0,.08ZM71.28,33a6.23,6.23,0,0,0-4.14-1.6c-1.46.1-2.92,1-4.47,2.69a15.14,15.14,0,0,0-1.21,1.55,2.37,2.37,0,0,1,.23-1.24,8,8,0,0,1,4.25-3.56A5.34,5.34,0,0,1,71,32.07a9.62,9.62,0,0,1,2.46,3A17.15,17.15,0,0,0,71.28,33Z"/><path class="cls-9" d="M73.4,36.07a.19.19,0,0,1,.18.1l.17.33a.06.06,0,0,0,.08,0,.09.09,0,0,0,.08-.11c0-.07,0-.13,0-.2v-.06A18.88,18.88,0,0,0,71,33.34a5.79,5.79,0,0,0-3.83-1.51c-1.33.09-2.69.92-4.16,2.54A15.07,15.07,0,0,0,61.71,36a.1.1,0,0,1,0,0,17.68,17.68,0,0,0,1.5-1,7.36,7.36,0,0,1,3.92-1.72,8,8,0,0,1,6.2,2.78Z"/><path class="cls-9" d="M61.63,36.16h0a.24.24,0,0,1,0-.08A.43.43,0,0,1,61.63,36.16Z"/><path class="cls-12" d="M66,48.1a9.58,9.58,0,0,1,.8-6.74c.3-.51,1.41-1.45.21-1.53s-2.65,2-2.9,3.08a12.73,12.73,0,0,0-.22,3.64,5.71,5.71,0,0,0,1.55,3.78c.29.28,1.22,1.15,1.69.72a.55.55,0,0,0,.14-.55C67.05,49.7,66.26,48.92,66,48.1Z"/><path class="cls-13" d="M71,50.27a4.33,4.33,0,0,0,1-1.57,7.49,7.49,0,0,0,.24-.9c-.46,2.05-1.89,3.28-3.43,3C67,50.43,66,48.17,66.16,45.43s1.58-4.71,3.22-4.49,3,2.9,3,5.64a14,14,0,0,0-.21-3.28A7.64,7.64,0,0,0,71,41.52s0,0,0,0a9.08,9.08,0,0,1-.69-.79,4.59,4.59,0,0,0-2.89-1.5,4.48,4.48,0,0,0-3.3,3.33,12,12,0,0,0-.48,3.73c0,1.37.14,3.08,1.07,4.2a4.61,4.61,0,0,0,1.79,1.19,4,4,0,0,0,3.26-.41A4.77,4.77,0,0,1,71,50.27Zm-3.8.78c-.47.43-1.4-.44-1.69-.72a5.71,5.71,0,0,1-1.55-3.78,12.73,12.73,0,0,1,.22-3.64c.25-1.1,1.58-3.15,2.9-3.08s.09,1-.21,1.53A9.58,9.58,0,0,0,66,48.1c.22.82,1,1.6,1.27,2.4A.55.55,0,0,1,67.17,51.05Z"/><path class="cls-13" d="M72.34,46.77c0,.17,0,.33,0,.49C72.31,47.1,72.33,46.93,72.34,46.77Z"/><path class="cls-14" d="M71.73,49.93a6.89,6.89,0,0,0,.88-3.1,12.19,12.19,0,0,0,0-2.49c.1.29.18.58.25.85s.07.31.09.45.06-.42,0-.62a8.49,8.49,0,0,0-.72-2.37,8,8,0,0,0-1-1.64,7.47,7.47,0,0,0-.69-.8A5.13,5.13,0,0,0,65,38.51a5.51,5.51,0,0,0-3.81,5,.06.06,0,0,0,.08.06s0,0,0,0c.23-1.24,1.54-4,3.78-4.59l.31-.07a6.5,6.5,0,0,0-3.54,5.68.07.07,0,0,0,.14,0c.54-2.14,1.69-4.21,3.75-5.07a5,5,0,0,0-1.69,1.93,11.09,11.09,0,0,0-1,4.94v.49c0,1.52.41,3.38,1.65,4.4l0,0a4.51,4.51,0,0,0,4.4.61,6.34,6.34,0,0,0-.47.94h0a6.13,6.13,0,0,0-.22.72,4.42,4.42,0,0,1,.45-.76,7.92,7.92,0,0,1,.54-.68,6.92,6.92,0,0,1,.77-.75,5.23,5.23,0,0,0,.64-.5,8.73,8.73,0,0,1,3-1.33,5,5,0,0,0-1,.06,6.31,6.31,0,0,0-1,.26Zm-5.25,1.72a4.61,4.61,0,0,1-1.79-1.19c-.93-1.12-1-2.83-1.07-4.2a12,12,0,0,1,.48-3.73,4.48,4.48,0,0,1,3.3-3.33,4.59,4.59,0,0,1,2.89,1.5,9.08,9.08,0,0,0,.69.79s0,0,0,0a7.64,7.64,0,0,1,1.13,1.78,14,14,0,0,1,.21,3.28v.05a.68.68,0,0,0,0,.14c0,.16,0,.33,0,.49s-.05.37-.09.54a7.49,7.49,0,0,1-.24.9,4.33,4.33,0,0,1-1,1.57,4.77,4.77,0,0,0-1.23,1A4,4,0,0,1,66.48,51.65Z"/><path class="cls-15" d="M68.77,54.26c.52-.59,1-1.18,1.59-1.72a4.35,4.35,0,0,1,1-.72c.29-.16.63-.24.82-.52a.2.2,0,0,0,0-.28c-.64-.42-1.58.25-2,.69a9.24,9.24,0,0,0-1.46,2.41C68.56,54.22,68.68,54.35,68.77,54.26Z"/><path class="cls-15" d="M74.71,49.92a1.65,1.65,0,0,0-1.77.33,1.29,1.29,0,0,0-.28.29.37.37,0,0,0,.19.55,1.53,1.53,0,0,0,1.26,0,1.09,1.09,0,0,0,.8-.61s0,0,0,0A.36.36,0,0,0,74.71,49.92Z"/><path class="cls-16" d="M66.16,45.43c-.16,2.74.79,5,2.61,5.36C67,50.43,66,48.17,66.16,45.43Z"/><path class="cls-16" d="M68.44,49.4a1.87,1.87,0,0,1-.29-.2c.13,0,.14-.09-.09-.25a2.62,2.62,0,0,1-.42-.39,3.66,3.66,0,0,1-.42-1.11,6.11,6.11,0,0,1,.49-3.78c.28-.63.24-1.12-.42-.45a5.14,5.14,0,0,0-.88,3.27A5.67,5.67,0,0,0,67,48.72,1.5,1.5,0,0,0,68.44,49.4Z"/><path class="cls-17" d="M66.41,46.49a5.41,5.41,0,0,0,.22,1.45,2.39,2.39,0,0,0,.41.78A5.67,5.67,0,0,1,66.41,46.49Z"/><path class="cls-18" d="M69.38,40.94c-1.64-.22-3.07,1.74-3.22,4.49s.79,5,2.61,5.36c1.54.29,3-.94,3.43-3,0-.17.06-.35.09-.54s0-.32,0-.49a.68.68,0,0,1,0-.14v-.05C72.42,43.84,71,41.15,69.38,40.94Zm1.69,5.75c-.06,1.39-1,2.29-1.92,2.09S67.59,47.39,67.68,46a2.43,2.43,0,0,1,1.08-2c0,.13,0,.26.09.39.41,1.24,1.42,2.14,2.22,2A2.81,2.81,0,0,1,71.07,46.69Zm.15-.95c-.6.18-1.43-.54-1.76-1.55s-.1-2,.47-2.19,1.32.62,1.67,1.59S71.81,45.56,71.22,45.74Zm-4.81.75a5.14,5.14,0,0,1,.88-3.27c.66-.67.7-.18.42.45a6.11,6.11,0,0,0-.49,3.78,3.66,3.66,0,0,0,.42,1.11,2.62,2.62,0,0,0,.42.39c.23.16.22.25.09.25a1.87,1.87,0,0,0,.29.2,1.5,1.5,0,0,1-1.4-.68,2.39,2.39,0,0,1-.41-.78A5.41,5.41,0,0,1,66.41,46.49Z"/><path class="cls-19" d="M68.85,44.35c0-.13-.06-.26-.09-.39a2.43,2.43,0,0,0-1.08,2c-.09,1.38.5,2.58,1.47,2.77s1.86-.7,1.92-2.09a2.81,2.81,0,0,0,0-.29C70.27,46.49,69.26,45.59,68.85,44.35Z"/><path class="cls-20" d="M69.93,42c-.57.22-.81,1.19-.47,2.19s1.16,1.73,1.76,1.55.74-1.19.38-2.15S70.51,41.78,69.93,42Z"/><path class="cls-3" d="M53.59,55.63h0l0,0Z"/><path class="cls-10" d="M53.59,55.63h0l0,0Z"/><path class="cls-3" d="M42.89,38.59c-1.69-.69-3,1.41-3.65,3,0,.07-.12.05-.11,0C39.4,40,40.26,38.22,41.8,38a1.55,1.55,0,0,0-1.07.2,4.55,4.55,0,0,0-1.66,2.19,10.15,10.15,0,0,0-.19,2.4,2,2,0,0,1,.73-.67.3.3,0,0,1,.39.1c.06.14.11.27.16.41C40.43,40.57,41.21,38.7,42.89,38.59Z"/><path class="cls-5" d="M42.89,38.59c-1.69-.69-3,1.41-3.65,3,0,.07-.12.05-.11,0C39.4,40,40.26,38.22,41.8,38a1.55,1.55,0,0,0-1.07.2,4.55,4.55,0,0,0-1.66,2.19,10.15,10.15,0,0,0-.19,2.4,2,2,0,0,1,.73-.67.3.3,0,0,1,.39.1c.06.14.11.27.16.41C40.43,40.57,41.21,38.7,42.89,38.59Z"/><path class="cls-10" d="M42.89,38.59c-1.69-.69-3,1.41-3.65,3,0,.07-.12.05-.11,0C39.4,40,40.26,38.22,41.8,38a1.55,1.55,0,0,0-1.07.2,4.55,4.55,0,0,0-1.66,2.19,10.15,10.15,0,0,0-.19,2.4,2,2,0,0,1,.73-.67.3.3,0,0,1,.39.1c.06.14.11.27.16.41C40.43,40.57,41.21,38.7,42.89,38.59Z"/><path class="cls-3" d="M49.15,56a10.52,10.52,0,0,1-2.55-3,14.21,14.21,0,0,0,2.94-6.29,21.51,21.51,0,0,0,0-3.94A18.21,18.21,0,0,0,47.12,35c-.12-.21-.26-.42-.4-.63a19.17,19.17,0,0,1,.61,3,.52.52,0,0,1-.46.56h-.23a.47.47,0,0,1-.24-.13l0,0a.72.72,0,0,1-.14-.24v-.08a.51.51,0,0,1-.23-.15c-.25-.37-.48-.77-.71-1.15a6.09,6.09,0,0,0-2-2.44c-1.33-.77-2.15-.32-3.28.85a.3.3,0,0,1-.3.08.33.33,0,0,1-.15-.11.31.31,0,0,1-.13-.17,1.5,1.5,0,0,1-.08-.32.83.83,0,0,1,0-.22h0v0s0,.09,0,.14c-.19.89-.12,2.34,1.26,2.21.47-.05,1-.16,1.43-.18,1.85-.1,3.1,1.4,3.53,3.08a.29.29,0,0,1-.41.33l-1-.66a9.23,9.23,0,0,1,2.38,5.85c0,.06.07,1.44,0,1.37S46.1,44.22,46,44a6.62,6.62,0,0,1-.92,4.21,5.24,5.24,0,0,1,1-.61.28.28,0,0,1,.38.1,2.47,2.47,0,0,1,0,2.09c-.34.9-1.39,2.06-1.1,3.08.64,2.3,3.49,5.2,6,4.52a8.65,8.65,0,0,0,1.77-.62,1.86,1.86,0,0,0,.59-.52.85.85,0,0,0,0-.23,2.59,2.59,0,0,1-.45.19C52,56.56,50.34,56.81,49.15,56Z"/><path class="cls-5" d="M49.15,56a10.52,10.52,0,0,1-2.55-3,14.21,14.21,0,0,0,2.94-6.29,21.51,21.51,0,0,0,0-3.94A18.21,18.21,0,0,0,47.12,35c-.12-.21-.26-.42-.4-.63a19.17,19.17,0,0,1,.61,3,.52.52,0,0,1-.46.56h-.23a.47.47,0,0,1-.24-.13l0,0a.72.72,0,0,1-.14-.24v-.08a.51.51,0,0,1-.23-.15c-.25-.37-.48-.77-.71-1.15a6.09,6.09,0,0,0-2-2.44c-1.33-.77-2.15-.32-3.28.85a.3.3,0,0,1-.3.08.33.33,0,0,1-.15-.11.31.31,0,0,1-.13-.17,1.5,1.5,0,0,1-.08-.32.83.83,0,0,1,0-.22h0v0s0,.09,0,.14c-.19.89-.12,2.34,1.26,2.21.47-.05,1-.16,1.43-.18,1.85-.1,3.1,1.4,3.53,3.08a.29.29,0,0,1-.41.33l-1-.66a9.23,9.23,0,0,1,2.38,5.85c0,.06.07,1.44,0,1.37S46.1,44.22,46,44a6.62,6.62,0,0,1-.92,4.21,5.24,5.24,0,0,1,1-.61.28.28,0,0,1,.38.1,2.47,2.47,0,0,1,0,2.09c-.34.9-1.39,2.06-1.1,3.08.64,2.3,3.49,5.2,6,4.52a8.65,8.65,0,0,0,1.77-.62,1.86,1.86,0,0,0,.59-.52.85.85,0,0,0,0-.23,2.59,2.59,0,0,1-.45.19C52,56.56,50.34,56.81,49.15,56Z"/><path class="cls-10" d="M49.15,56a10.52,10.52,0,0,1-2.55-3,14.21,14.21,0,0,0,2.94-6.29,21.51,21.51,0,0,0,0-3.94A18.21,18.21,0,0,0,47.12,35c-.12-.21-.26-.42-.4-.63a19.17,19.17,0,0,1,.61,3,.52.52,0,0,1-.46.56h-.23a.47.47,0,0,1-.24-.13l0,0a.72.72,0,0,1-.14-.24v-.08a.51.51,0,0,1-.23-.15c-.25-.37-.48-.77-.71-1.15a6.09,6.09,0,0,0-2-2.44c-1.33-.77-2.15-.32-3.28.85a.3.3,0,0,1-.3.08.33.33,0,0,1-.15-.11.31.31,0,0,1-.13-.17,1.5,1.5,0,0,1-.08-.32.83.83,0,0,1,0-.22h0v0s0,.09,0,.14c-.19.89-.12,2.34,1.26,2.21.47-.05,1-.16,1.43-.18,1.85-.1,3.1,1.4,3.53,3.08a.29.29,0,0,1-.41.33l-1-.66a9.23,9.23,0,0,1,2.38,5.85c0,.06.07,1.44,0,1.37S46.1,44.22,46,44a6.62,6.62,0,0,1-.92,4.21,5.24,5.24,0,0,1,1-.61.28.28,0,0,1,.38.1,2.47,2.47,0,0,1,0,2.09c-.34.9-1.39,2.06-1.1,3.08.64,2.3,3.49,5.2,6,4.52a8.65,8.65,0,0,0,1.77-.62,1.86,1.86,0,0,0,.59-.52.85.85,0,0,0,0-.23,2.59,2.59,0,0,1-.45.19C52,56.56,50.34,56.81,49.15,56Z"/><path class="cls-3" d="M51.1,55.4a6,6,0,0,1-2.84-1.11,10,10,0,0,0,.82.81c1.17.95,3.19.95,4.64.88a.58.58,0,0,0,0-.19.33.33,0,0,0-.07-.13l0,0a.5.5,0,0,0-.16-.05A19.79,19.79,0,0,0,51.1,55.4Z"/><path class="cls-5" d="M51.1,55.4a6,6,0,0,1-2.84-1.11,10,10,0,0,0,.82.81c1.17.95,3.19.95,4.64.88a.58.58,0,0,0,0-.19.33.33,0,0,0-.07-.13l0,0a.5.5,0,0,0-.16-.05A19.79,19.79,0,0,0,51.1,55.4Z"/><path class="cls-10" d="M51.1,55.4a6,6,0,0,1-2.84-1.11,10,10,0,0,0,.82.81c1.17.95,3.19.95,4.64.88a.58.58,0,0,0,0-.19.33.33,0,0,0-.07-.13l0,0a.5.5,0,0,0-.16-.05A19.79,19.79,0,0,0,51.1,55.4Z"/><path class="cls-3" d="M40.56,37.79a2,2,0,0,0-1.13,1.28A3.21,3.21,0,0,1,40.56,37.79Z"/><path class="cls-5" d="M40.56,37.79a2,2,0,0,0-1.13,1.28A3.21,3.21,0,0,1,40.56,37.79Z"/><path class="cls-10" d="M40.56,37.79a2,2,0,0,0-1.13,1.28A3.21,3.21,0,0,1,40.56,37.79Z"/><path class="cls-9" d="M40.8,31.42a3.3,3.3,0,0,0-1,1.59v0a3.69,3.69,0,0,1,2.08-1.55,3,3,0,0,1,2.54.93h0a10.32,10.32,0,0,1,2.08,4.19l.31.91s0,0,0,0A16.21,16.21,0,0,0,46,33.57h0a4.71,4.71,0,0,0-2.14-2.65A2.81,2.81,0,0,0,40.8,31.42Z"/><path class="cls-9" d="M45.69,36c.13.22.25.43.38.63a9.63,9.63,0,0,0-1.93-3.88h0A2.55,2.55,0,0,0,42,31.89a3.32,3.32,0,0,0-1.8,1.39L40,33.5l-.29.41a.65.65,0,0,0,0,.21A3.27,3.27,0,0,1,42,32.9a2.91,2.91,0,0,1,1.45.44A6.42,6.42,0,0,1,45.69,36Z"/><path class="cls-11" d="M39.28,33.85h0a.83.83,0,0,0,0,.22,1.5,1.5,0,0,0,.08.32.31.31,0,0,0,.13.17.33.33,0,0,0,.15.11.3.3,0,0,0,.3-.08c1.13-1.17,2-1.62,3.28-.85a6.09,6.09,0,0,1,2,2.44c.23.38.46.78.71,1.15a.51.51,0,0,0,.23.15v.08a.72.72,0,0,0,.14.24l0,0a.47.47,0,0,0,.24.13h.23a.52.52,0,0,0,.46-.56,19.17,19.17,0,0,0-.61-3,10.34,10.34,0,0,0-.35-1A5.08,5.08,0,0,0,44,30.5a3.27,3.27,0,0,0-3.47.57,3.6,3.6,0,0,0-1.23,2.75v0Zm4.53-2.93A4.71,4.71,0,0,1,46,33.57h0a16.21,16.21,0,0,1,.92,3.87s0,0,0,0l-.31-.91a10.32,10.32,0,0,0-2.08-4.19h0a3,3,0,0,0-2.54-.93A3.69,3.69,0,0,0,39.84,33v0a3.3,3.3,0,0,1,1-1.59A2.81,2.81,0,0,1,43.81,30.92ZM42,32.9a3.27,3.27,0,0,0-2.24,1.22.65.65,0,0,1,0-.21L40,33.5l.16-.22A3.32,3.32,0,0,1,42,31.89a2.55,2.55,0,0,1,2.14.81h0a9.63,9.63,0,0,1,1.93,3.88c-.13-.2-.25-.41-.38-.63a6.42,6.42,0,0,0-2.21-2.61A2.91,2.91,0,0,0,42,32.9Z"/><path class="cls-12" d="M42.77,49.28l-.15,0Z"/><path class="cls-12" d="M42.46,49.2l-.14-.05Z"/><path class="cls-12" d="M43.1,49.29h0Z"/><path class="cls-12" d="M42.37,48.54l-.11-.11h0c-1.82-1.68-1.33-6.94.27-8.82.18-.21-.66.23-.87.24A3.09,3.09,0,0,1,42.73,39c-2.13,1-2.46,4.26-2.32,6.31a5.1,5.1,0,0,0,1.76,3.75L42,49C42.3,49.1,43.64,49.34,42.37,48.54Z"/><path class="cls-12" d="M42.81,39a2.46,2.46,0,0,1,.48-.16A2.46,2.46,0,0,0,42.81,39Z"/><path class="cls-12" d="M43.43,49.21l-.15,0Z"/><path class="cls-12" d="M44.13,48.78l-.14.11Z"/><path class="cls-12" d="M43.78,49a.48.48,0,0,1-.16.08A.48.48,0,0,0,43.78,49Z"/><path class="cls-13" d="M43.16,48.77c-1.29-.32-2-2.33-1.85-4.77s1.12-4.21,2.29-4,2,2.21,2.1,4.43c0-.55-.05-1.11-.1-1.67a7.9,7.9,0,0,0-1.67-3.44,4,4,0,0,0-.64-.51,2.46,2.46,0,0,0-.48.16l-.08,0a3.09,3.09,0,0,0-1.08.85c.21,0,1.05-.45.87-.24-1.6,1.88-2.09,7.14-.27,8.82h0l.11.11c1.27.8-.07.56-.34.43l.14.09.15.09.14.05.16.06.15,0,.18,0h.15l.18,0,.15,0a.66.66,0,0,0,.19-.09.48.48,0,0,0,.16-.08,1.37,1.37,0,0,0,.21-.15l.14-.11a3.05,3.05,0,0,0,.36-.36l0,0A1.46,1.46,0,0,1,43.16,48.77Z"/><path class="cls-8" d="M53.79,56h-.07c-1.45.07-3.47.07-4.64-.88a10,10,0,0,1-.82-.81c-.4-.45-.79-.92-1-1.16a1.13,1.13,0,0,1-.13-.18,8.25,8.25,0,0,0,1.76-2.82,11.51,11.51,0,0,0,.84-4.84s0,.52-.21,1.39A14.21,14.21,0,0,1,46.6,53a10.52,10.52,0,0,0,2.55,3c1.19.84,2.81.59,4.13.26a2.59,2.59,0,0,0,.45-.19l.07,0S53.82,56,53.79,56Z"/><path class="cls-14" d="M46,44c.08.2.33,1.74.43,1.94s0-1.31,0-1.37A9.23,9.23,0,0,0,44,38.74a4.31,4.31,0,0,0-.37-.37A2.83,2.83,0,0,0,41,37.6a2,2,0,0,0-.45.19,3.21,3.21,0,0,0-1.13,1.28,4.7,4.7,0,0,0-.52,1.48,0,0,0,0,0,.05,0l.11-.21a4.55,4.55,0,0,1,1.66-2.19A1.55,1.55,0,0,1,41.8,38c-1.54.25-2.4,2-2.67,3.63,0,.07.08.09.11,0,.68-1.62,2-3.72,3.65-3-1.68.11-2.46,2-2.73,4a13,13,0,0,0,.24,4.87c.51,1.58,2.29,3.13,3.85,1.75a4.65,4.65,0,0,0,.85-1A6.62,6.62,0,0,0,46,44Zm-1.51,4.37,0,0a3.05,3.05,0,0,1-.36.36l-.14.11a1.37,1.37,0,0,1-.21.15.48.48,0,0,1-.16.08.66.66,0,0,1-.19.09l-.15,0-.18,0H43l-.18,0-.15,0-.16-.06-.14-.05-.15-.09a5.1,5.1,0,0,1-1.76-3.75c-.14-2.05.19-5.32,2.32-6.31l.08,0a2.46,2.46,0,0,1,.48-.16,4,4,0,0,1,.64.51,7.9,7.9,0,0,1,1.67,3.44c0,.56.09,1.12.1,1.67,0,.22,0,.43,0,.65A4.62,4.62,0,0,1,44.51,48.39Z"/><path class="cls-15" d="M47.62,52.76a.19.19,0,0,0,.26.25c2.38-1.32,3.07-4.68,3.37-7.15A15.14,15.14,0,0,0,50,37.43c0-.06-.14,0-.12,0a15.53,15.53,0,0,1,.7,4.79,24.48,24.48,0,0,1-.17,2.81,18.94,18.94,0,0,1-.65,3.15c-.08.28-.16.55-.26.82A29.48,29.48,0,0,1,47.62,52.76Z"/><path class="cls-16" d="M42.93,47.54a1.24,1.24,0,0,1-.21-.19c.09,0,.1-.07-.06-.22a1.92,1.92,0,0,1-.3-.34,4.37,4.37,0,0,1-.3-1,6.7,6.7,0,0,1,.35-3.36c.2-.57.17-1-.3-.41a5.54,5.54,0,0,0-.63,2.92,6.15,6.15,0,0,0,.45,2C42.29,47.51,42.78,47.61,42.93,47.54Z"/><path class="cls-16" d="M43.16,48.77c-1.29-.32-2-2.33-1.85-4.77C41.19,46.44,41.87,48.45,43.16,48.77Z"/><path class="cls-17" d="M41.48,44.94a6.25,6.25,0,0,0,.16,1.3,2.35,2.35,0,0,0,.29.69A6.15,6.15,0,0,1,41.48,44.94Z"/><path class="cls-18" d="M43.6,40c-1.17-.2-2.19,1.56-2.29,4s.56,4.45,1.85,4.77a1.46,1.46,0,0,0,1.35-.38,4.62,4.62,0,0,0,1.2-3.32c0-.22,0-.43,0-.65C45.58,42.2,44.65,40.17,43.6,40Zm1.2,5.13c0,1.24-.69,2-1.37,1.87s-1.11-1.25-1-2.48a2.29,2.29,0,0,1,.77-1.82,2,2,0,0,0,.06.34c.29,1.11,1,1.91,1.58,1.83ZM44,40.94c.41-.19.94.55,1.18,1.41s.15,1.76-.27,1.92-1-.48-1.24-1.38S43.59,41.13,44,40.94Zm-2.51,4A5.54,5.54,0,0,1,42.11,42c.47-.59.5-.16.3.41a6.7,6.7,0,0,0-.35,3.36,4.37,4.37,0,0,0,.3,1,1.92,1.92,0,0,0,.3.34c.16.15.15.22.06.22a1.24,1.24,0,0,0,.21.19c-.15.07-.64,0-1-.61a2.35,2.35,0,0,1-.29-.69A6.25,6.25,0,0,1,41.48,44.94Z"/><path class="cls-19" d="M43.22,43a2,2,0,0,1-.06-.34,2.29,2.29,0,0,0-.77,1.82c-.07,1.23.35,2.3,1,2.48s1.33-.63,1.37-1.87v-.26C44.23,44.94,43.51,44.14,43.22,43Z"/><path class="cls-20" d="M44.9,44.27c.42-.16.53-1.06.27-1.92s-.77-1.6-1.18-1.41-.58,1.06-.33,2S44.48,44.43,44.9,44.27Z"/><path class="cls-3" d="M58.87,69.74c-2.93,1.35-6,.11-8.63-1.43a20.33,20.33,0,0,0,3.21,4c1.91,1.71,4.24.8,5.88-.82a17.45,17.45,0,0,0,3.27-4.83A10.59,10.59,0,0,1,58.87,69.74Z"/><path class="cls-5" d="M58.87,69.74c-2.93,1.35-6,.11-8.63-1.43a20.33,20.33,0,0,0,3.21,4c1.91,1.71,4.24.8,5.88-.82a17.45,17.45,0,0,0,3.27-4.83A10.59,10.59,0,0,1,58.87,69.74Z"/><path class="cls-10" d="M58.87,69.74c-2.93,1.35-6,.11-8.63-1.43a20.33,20.33,0,0,0,3.21,4c1.91,1.71,4.24.8,5.88-.82a17.45,17.45,0,0,0,3.27-4.83A10.59,10.59,0,0,1,58.87,69.74Z"/><path class="cls-8" d="M45.62,62.5a11.78,11.78,0,0,0,1.33.16,15.89,15.89,0,0,0,3.95,4,8,8,0,0,0,4.88,1.78c3.74,0,6.51-4.08,8-7h.06a2.77,2.77,0,0,0,.52.56.06.06,0,0,0,.08,0,4.1,4.1,0,0,1-.69-2.09h0a1.44,1.44,0,0,0-.1,1.13c0,.06.05.12.07.17-1.94.67-8.07.66-9.85.66S50.5,62,48.79,62a26.2,26.2,0,0,1-3.43-.19,3.68,3.68,0,0,1-2.22-1.48c-.17-.24,0,.21.15.54A2.91,2.91,0,0,0,45.62,62.5Zm4.93.15h0l1.13,0c3.74-.16,9-.33,11.76-1a15.62,15.62,0,0,1-1.29,2A16.47,16.47,0,0,1,60.88,65h0a8.66,8.66,0,0,1-4.75,2.76c-3.69.54-6.4-2.73-8.75-5.11C48.43,62.74,49.5,62.7,50.55,62.65Z"/><path class="cls-3" d="M63.44,61.56a16.83,16.83,0,0,1-1.29,2A15.62,15.62,0,0,0,63.44,61.56Z"/><path class="cls-5" d="M63.44,61.56a16.83,16.83,0,0,1-1.29,2A15.62,15.62,0,0,0,63.44,61.56Z"/><path class="cls-21" d="M63.44,61.56a16.83,16.83,0,0,1-1.29,2A15.62,15.62,0,0,0,63.44,61.56Z"/><path class="cls-3" d="M56.13,67.8A8.66,8.66,0,0,0,60.88,65l-1.74.49-.54.13-.16,0c-2.54.51-6.19.23-6.75-.86-.37-.63-.68-1.3-1-2h0l-.1-.22c-1,.05-2.12.09-3.17,0C49.73,65.07,52.44,68.34,56.13,67.8Z"/><path class="cls-5" d="M56.13,67.8A8.66,8.66,0,0,0,60.88,65l-1.74.49-.54.13-.16,0c-2.54.51-6.19.23-6.75-.86-.37-.63-.68-1.3-1-2h0l-.1-.22c-1,.05-2.12.09-3.17,0C49.73,65.07,52.44,68.34,56.13,67.8Z"/><path class="cls-21" d="M56.13,67.8A8.66,8.66,0,0,0,60.88,65l-1.74.49-.54.13-.16,0c-2.54.51-6.19.23-6.75-.86-.37-.63-.68-1.3-1-2h0l-.1-.22c-1,.05-2.12.09-3.17,0C49.73,65.07,52.44,68.34,56.13,67.8Z"/><path class="cls-12" d="M60.85,63.34c0-.68-2-.3-2.8-.2a18.07,18.07,0,0,1-7.39-.27c.35.66.66,1.33,1,2,.56,1.09,4.21,1.37,6.75.86-.17,0-.34.07-.52.09C58.8,65.35,60.77,64.54,60.85,63.34Z"/><path class="cls-12" d="M59.14,65.53l-.54.13Z"/><polygon class="cls-8" points="50.55 62.65 50.55 62.65 50.55 62.65 50.55 62.65"/><polygon class="cls-22" points="50.55 62.65 50.55 62.65 50.55 62.65 50.55 62.65"/><path class="cls-3" d="M58.6,65.66l-.16,0Z"/><path class="cls-5" d="M58.6,65.66l-.16,0Z"/><path class="cls-21" d="M58.6,65.66l-.16,0Z"/><path class="cls-22" d="M58.6,65.66l-.16,0Z"/><path class="cls-3" d="M50.66,62.87c0-.07-.07-.15-.11-.22h0l.1.22Z"/><path class="cls-5" d="M50.66,62.87c0-.07-.07-.15-.11-.22h0l.1.22Z"/><path class="cls-21" d="M50.66,62.87c0-.07-.07-.15-.11-.22h0l.1.22Z"/><path class="cls-22" d="M50.66,62.87c0-.07-.07-.15-.11-.22h0l.1.22Z"/><path class="cls-12" d="M50.66,62.87a18.07,18.07,0,0,0,7.39.27c.77-.1,2.85-.48,2.8.2-.08,1.2-2.05,2-2.93,2.44.18,0,.35-.06.52-.09l.16,0,.54-.13L60.88,65h0a16.47,16.47,0,0,0,1.27-1.48,16.83,16.83,0,0,0,1.29-2c-2.75.71-8,.88-11.76,1l-1.13,0h0C50.59,62.72,50.62,62.8,50.66,62.87Z"/><path class="cls-22" d="M50.66,62.87a18.07,18.07,0,0,0,7.39.27c.77-.1,2.85-.48,2.8.2-.08,1.2-2.05,2-2.93,2.44.18,0,.35-.06.52-.09l.16,0,.54-.13L60.88,65h0a16.47,16.47,0,0,0,1.27-1.48,16.83,16.83,0,0,0,1.29-2c-2.75.71-8,.88-11.76,1l-1.13,0h0C50.59,62.72,50.62,62.8,50.66,62.87Z"/><path class="cls-7" d="M56.64,69.05c-3.42.48-6.37-2.27-6.37-2.27,2.48,2.55,4.2,3.36,5.9,3.3,4.56-.16,7.07-6.36,7.07-6.36S60.05,68.57,56.64,69.05Z"/><path class="cls-3" d="M37.77,26.66a.23.23,0,0,1,.09.26,13.42,13.42,0,0,0-.3,2.11c.48-.94,1-1.76,1.57-1.91-.21,2.13.3,2.54.3,2.54s.71-5.8,5.19-6.3,6.3-1.12,7.32-2.34a7.2,7.2,0,0,1-2.14,2.54S55,23.15,57.74,20c1.83-1.83,6.4-3.36,6.4-3.36-2.84,2.14-2.84,4-2.84,4a14.68,14.68,0,0,0,9.09-3.43,5.18,5.18,0,0,1,0-.56,17.28,17.28,0,0,1-7.23,2.79.21.21,0,0,1-.25-.17.23.23,0,0,1,.14-.27,2.54,2.54,0,0,0,1.6-1.34,2.62,2.62,0,0,0-.22-2l-1.1.26c-2.6.6-4.65,1.08-6.53,3.48-2.31,2.93-3.84,2.54-3.9,2.52a.22.22,0,0,1-.15-.13.2.2,0,0,1,0-.2,5.7,5.7,0,0,0,.72-2.87c-1.88,2.23-5,3.41-9.06,3.41-2.83,0-4.23,2.68-4.81,4.27a.23.23,0,0,1-.44-.11A2.82,2.82,0,0,0,39,24.6c-.16.34-.33.67-.51,1,0,.1-.11.19-.16.28s-.27.43-.41.63l-.11.16Z"/><path class="cls-5" d="M37.77,26.66a.23.23,0,0,1,.09.26,13.42,13.42,0,0,0-.3,2.11c.48-.94,1-1.76,1.57-1.91-.21,2.13.3,2.54.3,2.54s.71-5.8,5.19-6.3,6.3-1.12,7.32-2.34a7.2,7.2,0,0,1-2.14,2.54S55,23.15,57.74,20c1.83-1.83,6.4-3.36,6.4-3.36-2.84,2.14-2.84,4-2.84,4a14.68,14.68,0,0,0,9.09-3.43,5.18,5.18,0,0,1,0-.56,17.28,17.28,0,0,1-7.23,2.79.21.21,0,0,1-.25-.17.23.23,0,0,1,.14-.27,2.54,2.54,0,0,0,1.6-1.34,2.62,2.62,0,0,0-.22-2l-1.1.26c-2.6.6-4.65,1.08-6.53,3.48-2.31,2.93-3.84,2.54-3.9,2.52a.22.22,0,0,1-.15-.13.2.2,0,0,1,0-.2,5.7,5.7,0,0,0,.72-2.87c-1.88,2.23-5,3.41-9.06,3.41-2.83,0-4.23,2.68-4.81,4.27a.23.23,0,0,1-.44-.11A2.82,2.82,0,0,0,39,24.6c-.16.34-.33.67-.51,1,0,.1-.11.19-.16.28s-.27.43-.41.63l-.11.16Z"/><path class="cls-23" d="M37.77,26.66a.23.23,0,0,1,.09.26,13.42,13.42,0,0,0-.3,2.11c.48-.94,1-1.76,1.57-1.91-.21,2.13.3,2.54.3,2.54s.71-5.8,5.19-6.3,6.3-1.12,7.32-2.34a7.2,7.2,0,0,1-2.14,2.54S55,23.15,57.74,20c1.83-1.83,6.4-3.36,6.4-3.36-2.84,2.14-2.84,4-2.84,4a14.68,14.68,0,0,0,9.09-3.43,5.18,5.18,0,0,1,0-.56,17.28,17.28,0,0,1-7.23,2.79.21.21,0,0,1-.25-.17.23.23,0,0,1,.14-.27,2.54,2.54,0,0,0,1.6-1.34,2.62,2.62,0,0,0-.22-2l-1.1.26c-2.6.6-4.65,1.08-6.53,3.48-2.31,2.93-3.84,2.54-3.9,2.52a.22.22,0,0,1-.15-.13.2.2,0,0,1,0-.2,5.7,5.7,0,0,0,.72-2.87c-1.88,2.23-5,3.41-9.06,3.41-2.83,0-4.23,2.68-4.81,4.27a.23.23,0,0,1-.44-.11A2.82,2.82,0,0,0,39,24.6c-.16.34-.33.67-.51,1,0,.1-.11.19-.16.28s-.27.43-.41.63l-.11.16Z"/><path class="cls-4" d="M37.56,29a13.42,13.42,0,0,1,.3-2.11.23.23,0,0,0-.09-.26h0l.11-.16-.32.43.09-.07a14.27,14.27,0,0,0-.36,2.76C37.37,29.41,37.46,29.22,37.56,29Z"/><path class="cls-5" d="M37.56,29a13.42,13.42,0,0,1,.3-2.11.23.23,0,0,0-.09-.26h0l.11-.16-.32.43.09-.07a14.27,14.27,0,0,0-.36,2.76C37.37,29.41,37.46,29.22,37.56,29Z"/><path class="cls-23" d="M37.56,29a13.42,13.42,0,0,1,.3-2.11.23.23,0,0,0-.09-.26h0l.11-.16-.32.43.09-.07a14.27,14.27,0,0,0-.36,2.76C37.37,29.41,37.46,29.22,37.56,29Z"/><path class="cls-4" d="M38.28,25.86c0-.09.11-.18.16-.28C38.39,25.68,38.33,25.77,38.28,25.86Z"/><path class="cls-5" d="M38.28,25.86c0-.09.11-.18.16-.28C38.39,25.68,38.33,25.77,38.28,25.86Z"/><path class="cls-23" d="M38.28,25.86c0-.09.11-.18.16-.28C38.39,25.68,38.33,25.77,38.28,25.86Z"/><path class="cls-3" d="M96.88,50.23c1.79-1,3.11.3,2.8,2.21a.1.1,0,0,1-.18,0c-.18-.79-.43-2.14-1.56-1.85a3.14,3.14,0,0,0-1.71,1.17,9.2,9.2,0,0,0-1.16,2,5.25,5.25,0,0,1,1.49,1.44A3.62,3.62,0,0,1,97.5,57a.09.09,0,0,1-.15.07A13.51,13.51,0,0,0,96,55.42c-.35-.33-.84-.64-1.21-1a17.11,17.11,0,0,0-.91,3.65s0,.06-.08.06c.36.69,1,1,2.19.4,2.66-1.37,5.94-6.57,3.69-9C97,48.61,94.59,51.75,93.79,54a6.67,6.67,0,0,0-.09,3.92C93.67,55.38,94.44,51.52,96.88,50.23Z"/><path class="cls-5" d="M96.88,50.23c1.79-1,3.11.3,2.8,2.21a.1.1,0,0,1-.18,0c-.18-.79-.43-2.14-1.56-1.85a3.14,3.14,0,0,0-1.71,1.17,9.2,9.2,0,0,0-1.16,2,5.25,5.25,0,0,1,1.49,1.44A3.62,3.62,0,0,1,97.5,57a.09.09,0,0,1-.15.07A13.51,13.51,0,0,0,96,55.42c-.35-.33-.84-.64-1.21-1a17.11,17.11,0,0,0-.91,3.65s0,.06-.08.06c.36.69,1,1,2.19.4,2.66-1.37,5.94-6.57,3.69-9C97,48.61,94.59,51.75,93.79,54a6.67,6.67,0,0,0-.09,3.92C93.67,55.38,94.44,51.52,96.88,50.23Z"/><path class="cls-10" d="M96.88,50.23c1.79-1,3.11.3,2.8,2.21a.1.1,0,0,1-.18,0c-.18-.79-.43-2.14-1.56-1.85a3.14,3.14,0,0,0-1.71,1.17,9.2,9.2,0,0,0-1.16,2,5.25,5.25,0,0,1,1.49,1.44A3.62,3.62,0,0,1,97.5,57a.09.09,0,0,1-.15.07A13.51,13.51,0,0,0,96,55.42c-.35-.33-.84-.64-1.21-1a17.11,17.11,0,0,0-.91,3.65s0,.06-.08.06c.36.69,1,1,2.19.4,2.66-1.37,5.94-6.57,3.69-9C97,48.61,94.59,51.75,93.79,54a6.67,6.67,0,0,0-.09,3.92C93.67,55.38,94.44,51.52,96.88,50.23Z"/><path class="cls-4" d="M93.88,58.06a17.11,17.11,0,0,1,.91-3.65c.37.37.86.68,1.21,1a13.51,13.51,0,0,1,1.35,1.69A.09.09,0,0,0,97.5,57a3.62,3.62,0,0,0-.94-1.88,5.25,5.25,0,0,0-1.49-1.44,9.2,9.2,0,0,1,1.16-2,3.14,3.14,0,0,1,1.71-1.17c1.13-.29,1.38,1.06,1.56,1.85a.1.1,0,0,0,.18,0c.31-1.91-1-3.17-2.8-2.21-2.44,1.29-3.21,5.15-3.18,7.67a1.47,1.47,0,0,0,.1.22S93.87,58.11,93.88,58.06Z"/><path class="cls-10" d="M93.88,58.06a17.11,17.11,0,0,1,.91-3.65c.37.37.86.68,1.21,1a13.51,13.51,0,0,1,1.35,1.69A.09.09,0,0,0,97.5,57a3.62,3.62,0,0,0-.94-1.88,5.25,5.25,0,0,0-1.49-1.44,9.2,9.2,0,0,1,1.16-2,3.14,3.14,0,0,1,1.71-1.17c1.13-.29,1.38,1.06,1.56,1.85a.1.1,0,0,0,.18,0c.31-1.91-1-3.17-2.8-2.21-2.44,1.29-3.21,5.15-3.18,7.67a1.47,1.47,0,0,0,.1.22S93.87,58.11,93.88,58.06Z"/><path class="cls-24" d="M96.48,61.3a.24.24,0,0,0-.12,0h0a8.69,8.69,0,0,1-4.85-1,1.29,1.29,0,0,1-.48-.53.22.22,0,0,0-.25-.14.21.21,0,0,0-.19.2c-.08.53-.17,1-.28,1.56-.06.26-.14.51-.21.77s-.12.48-.19.71-.16.48-.25.73l-.23.66c-.09.23-.19.45-.29.68s-.17.41-.26.61-.21.42-.31.62-.19.39-.29.57-.21.38-.32.57l-.3.52c-.12.2-.24.37-.36.56l-.27.41c-.15.22-.29.42-.44.62l-.16.23,0,0a.23.23,0,0,0,0,.27s0,0,0,0a.23.23,0,0,0,.17.07.2.2,0,0,0,.13,0,97.34,97.34,0,0,0,9.8-8.32.23.23,0,0,0,0-.24h0A.24.24,0,0,0,96.48,61.3Zm-.12.2a96.67,96.67,0,0,1-9.77,8.29,21.85,21.85,0,0,0,4.21-10C91.19,60.76,93.25,61.56,96.36,61.5Z"/><path class="cls-25" d="M91,60.43a21.9,21.9,0,0,1-3.34,8.3,96.09,96.09,0,0,0,8.18-7C93.55,61.7,91.75,61.21,91,60.43Z"/><path class="cls-26" d="M91,60.43a21.9,21.9,0,0,1-3.34,8.3,96.09,96.09,0,0,0,8.18-7C93.55,61.7,91.75,61.21,91,60.43Z"/><path class="cls-24" d="M90.8,59.84a21.85,21.85,0,0,1-4.21,10,96.67,96.67,0,0,0,9.77-8.29C93.25,61.56,91.19,60.76,90.8,59.84Zm-3.19,8.89A21.9,21.9,0,0,0,91,60.43c.8.78,2.6,1.27,4.84,1.3A96.09,96.09,0,0,1,87.61,68.73Z"/><path class="cls-26" d="M90.8,59.84a21.85,21.85,0,0,1-4.21,10,96.67,96.67,0,0,0,9.77-8.29C93.25,61.56,91.19,60.76,90.8,59.84Zm-3.19,8.89A21.9,21.9,0,0,0,91,60.43c.8.78,2.6,1.27,4.84,1.3A96.09,96.09,0,0,1,87.61,68.73Z"/><path class="cls-9" d="M77.76,24.72a4.5,4.5,0,0,0,.39-2,.33.33,0,0,1,0-.14s0,0,0,0,0,0,0,0a.1.1,0,0,1,0,0h.11s.05,0,.08,0h.05C89.7,29.61,91,35.69,91.46,44A13.64,13.64,0,0,0,95,35.44a.22.22,0,0,1,.14-.2.23.23,0,0,1,.24,0,11.8,11.8,0,0,1,3.52,6.8c.39-.66.86-2.21-.38-5.1a.23.23,0,0,1,.08-.28.24.24,0,0,1,.29,0,19.1,19.1,0,0,1,1.49,1.52h0a24.92,24.92,0,0,0-6.7-13.08A25.18,25.18,0,0,1,92.84,38a.23.23,0,0,1-.26.16.24.24,0,0,1-.19-.23c0-14.79-13.15-23-16.33-24.78.46,1,1,3.21-.22,6.53a.22.22,0,0,1-.21.15.24.24,0,0,1-.21-.14,20.18,20.18,0,0,0-2.09-3.77A6.16,6.16,0,0,1,72,12.5c-4.76.84-5,2.71-5,3.09v.07a.24.24,0,0,1-.22.24h0a.24.24,0,0,1-.23-.22V15.6h0c0-.52,0-2.95,1.06-4.23-3.37.06-8.09,1.73-11.9,6.33a.22.22,0,0,1-.3,0,.22.22,0,0,1-.08-.29,3.27,3.27,0,0,0-.09-3.56c-2.83,3.64-8.32,6.83-11.26,6.47-2.45-.3-4.08.5-4.47,2.19a.24.24,0,0,1-.18.17.23.23,0,0,1-.23-.08,2.45,2.45,0,0,1-.49-1.44c-2.31,3.76-4.65,5.72-7,5.87a5.37,5.37,0,0,0,5,.2A10.21,10.21,0,0,0,38.71,24a.23.23,0,0,1,.19-.14.22.22,0,0,1,.22.11,3.86,3.86,0,0,1,.49,1.22c.74-1.52,2.22-3.57,4.81-3.57,4.11,0,7.21-1.23,9-3.57a.23.23,0,0,1,.21-.09.21.21,0,0,1,.18.13c.52,1-.12,2.64-.44,3.33.5-.06,1.61-.44,3.11-2.36,2-2.52,4.1-3,6.78-3.64l1.28-.3a.22.22,0,0,1,.26.12,3.19,3.19,0,0,1,.32,2.58,2.37,2.37,0,0,1-.67.92A16.83,16.83,0,0,0,70.51,16a.23.23,0,0,1,.26,0,.21.21,0,0,1,.11.23,9.86,9.86,0,0,0,2.35,7l-.76-2.92a.21.21,0,0,1,.08-.24.23.23,0,0,1,.25,0,10.13,10.13,0,0,1,4.27,6A7,7,0,0,0,77.76,24.72Z"/><path class="cls-9" d="M96.37,6.37a3.82,3.82,0,0,1,0,3.5.25.25,0,0,1-.2.14.29.29,0,0,1-.21-.11C93.84,6.5,81.54.09,66.17.49c9.58.17,16.22,2.23,20.36,4.14,5.54,2.56,7.84,5.33,7.94,5.45a.22.22,0,0,1,0,.31.24.24,0,0,1-.31,0,4.26,4.26,0,0,0-4-.66,12.3,12.3,0,0,1,8.12,6.69,8.5,8.5,0,0,0-1.9-3.92.22.22,0,0,1,.24-.36c4.07,1.28,5.07,4.36,6.58,9,.57,1.75,1.21,3.73,2.12,6a.23.23,0,0,1-.06.27.24.24,0,0,1-.27,0,24.71,24.71,0,0,1-5.35-5.18,25,25,0,0,1,1.12,16,.24.24,0,0,1-.24.17.15.15,0,0,1-.07,0c2.45,2.84,2.82,5.07,2.83,6.13,1.14-1.28,4.09-5.3,3.55-12-.06-.59-.12-1.18-.21-1.75h0a.2.2,0,0,1,0-.15.08.08,0,0,1,0,0l.06-.06h.09l.1,0,0,0,0,0a5.28,5.28,0,0,0,2,2.11,32.19,32.19,0,0,1-3.17-7.84c-.73-3.63-4.71-10.5-7.77-12.55a.23.23,0,0,1-.1-.24.24.24,0,0,1,.19-.18,6.81,6.81,0,0,1,3.86.29A3.32,3.32,0,0,0,98,10.89a.23.23,0,0,1-.27-.34A2.52,2.52,0,0,0,98,8.5,4.56,4.56,0,0,0,96.37,6.37Z"/><path class="cls-11" d="M37.55,26.92l.32-.43c.14-.2.28-.41.41-.63s.11-.18.16-.28c.18-.31.35-.64.51-1a2.82,2.82,0,0,1,.22,1.62.23.23,0,0,0,.44.11c.58-1.59,2-4.27,4.81-4.27,4.06,0,7.18-1.18,9.06-3.41a5.7,5.7,0,0,1-.72,2.87.2.2,0,0,0,0,.2.22.22,0,0,0,.15.13c.06,0,1.59.41,3.9-2.52,1.88-2.4,3.93-2.88,6.53-3.48l1.1-.26a2.62,2.62,0,0,1,.22,2A2.54,2.54,0,0,1,63.05,19a.23.23,0,0,0-.14.27.21.21,0,0,0,.25.17,17.28,17.28,0,0,0,7.23-2.79,5.18,5.18,0,0,0,0,.56,8.56,8.56,0,0,0,.11,1.13,11.2,11.2,0,0,0,3,5.92.23.23,0,0,0,.39-.22l-.86-3.27.54.46a10.2,10.2,0,0,1,3.13,5.36.21.21,0,0,0,.17.17.23.23,0,0,0,.23-.08,6.08,6.08,0,0,0,.39-.54l.08-.12a6.14,6.14,0,0,0,1-2.85c1.41,1.24,6.46,6,8.8,12.16a1.07,1.07,0,0,0,.07.19c.08.22.15.43.22.64s.19.57.27.87c0,.06,0,.12,0,.18.07.25.13.5.19.75a2.38,2.38,0,0,1,0,.26c0,.23.1.46.14.69s0,.2,0,.3l.09.67,0,.32c0,.22,0,.44,0,.66s0,.22,0,.33v.7c0,.1,0,.2,0,.3,0,.33,0,.66-.07,1-.12,1-.25,1.9-.37,2.76-.67,4.79-1.11,8,1,10.63a.25.25,0,0,0,.16.08h.09s0,0,0,0l.06-.05,0,0,0,0C90.41,51.51,93,47.31,96,46a5.71,5.71,0,0,1,2.56-.54,3.87,3.87,0,0,1,1.75.52,6.12,6.12,0,0,1,2.56,3.84,7.94,7.94,0,0,1,.24,1.28v0a.23.23,0,0,0,.19.21h0a.2.2,0,0,0,.21-.11v0c.37-.7.72-1.42,1-2.16l.06-.15c.31-.71.59-1.44.85-2.18l.09-.25c.24-.72.46-1.46.67-2.2,0-.1.05-.2.08-.31.19-.73.36-1.46.5-2.2,0-.11,0-.23.07-.34.14-.74.25-1.47.34-2.2,0-.12,0-.24,0-.35.08-.74.14-1.47.17-2.19,0-.11,0-.22,0-.33,0-.74,0-1.46,0-2.18,0-.09,0-.19,0-.28,0-.73-.09-1.45-.18-2.15a.22.22,0,0,0,0-.08c1.35,1.74,2.25,1.64,2.36,1.63a.24.24,0,0,0,.17-.13.22.22,0,0,0,0-.21,34.21,34.21,0,0,1-3.37-8.16c-.73-3.61-4.38-10-7.5-12.5,2.63-.3,3.7.72,3.71.73a.23.23,0,0,0,.29,0,.24.24,0,0,0,.09-.28s-1.4-3.24-4.6-2.44a2.83,2.83,0,0,0,.1-1.92c-.55-1.88-2.85-3-3-3.09a.22.22,0,0,0-.16,0l0,0a.21.21,0,0,0-.11.08.2.2,0,0,0,0,.22.14.14,0,0,0,0,.08l.07.07.05,0,.06.07.17.19,0,0a3,3,0,0,1,.22.32.08.08,0,0,1,0,0,2.69,2.69,0,0,1,.19.38l.06.14c0,.12.07.23.1.36a3.06,3.06,0,0,1,.05.32,2.11,2.11,0,0,1,0,.25,2.49,2.49,0,0,1,0,.54s0,.08,0,.12a4.64,4.64,0,0,1-.19.73h0l0-.05c-.11-.13-.22-.27-.35-.41l-.16-.16-.34-.34L95,8.19l-.55-.46h0C89.72,3.9,77.79-1,63.4.17l-.15,0L61.68.34,61,.41,59.94.57,59.05.7H59A50.61,50.61,0,0,0,46.68,4.38C45.35,5,43.92,5.89,42.41,6.8c-4.56,2.75-9.73,5.86-13,3a.24.24,0,0,0-.29,0,.25.25,0,0,0-.07.29c1.26,2.51,2.7,3.26,3.7,3.46a3.33,3.33,0,0,0,1.44,0c-4.27,4.19-3.58,7.79-3.55,8a.25.25,0,0,0,.21.18.24.24,0,0,0,.24-.15,6.22,6.22,0,0,1,5-3.67c.06,1,.17,5.33-2,7.25a4.69,4.69,0,0,1-4.38.76.25.25,0,0,0-.26.12.24.24,0,0,0,.06.28,8.89,8.89,0,0,0,1,.75,0,0,0,0,1,0,0,7.6,7.6,0,0,0,4.39,1.28h0c.22,0,.43-.05.65-.09h0a4.11,4.11,0,0,0,.57-.17l.14-.05a4.12,4.12,0,0,0,.6-.29h0l.05,0A7.78,7.78,0,0,0,37.55,26.92Zm-1-9.38a.23.23,0,0,0-.25-.21,6.64,6.64,0,0,0-5.2,3.21c.05-1.41.68-4.49,4.6-7.75l.19-.16a.23.23,0,0,0,0-.32.22.22,0,0,0-.32,0l-.17.14a3.16,3.16,0,0,1-2.54.65A4.71,4.71,0,0,1,30,10.74c3.5,2,8.36-.94,12.69-3.55,1.5-.9,2.91-1.75,4.23-2.39A49.91,49.91,0,0,1,59,1.17h0C79.83-.41,89.91,6.55,93,9.3a5.54,5.54,0,0,0-3.81.28.23.23,0,0,0-.14.24.15.15,0,0,0,0,.09,7.63,7.63,0,0,1,.81.26c6.37,1.4,8.41,7.48,8.43,7.55a.23.23,0,0,0,.24.16.24.24,0,0,0,.21-.19c0-.09.36-2.11-1.57-4.84,3.24,1.33,4.13,4.08,5.55,8.46.51,1.57,1.09,3.33,1.86,5.29a32.29,32.29,0,0,1-6-6.53.23.23,0,0,0-.39.25,24.49,24.49,0,0,1,2.36,16.82,24.91,24.91,0,0,0-7.2-12.84.23.23,0,0,0-.37.24,24.5,24.5,0,0,1-.2,12c-.89-16.1-17.07-24.09-17.24-24.17a.23.23,0,0,0-.28.06.26.26,0,0,0,0,.29s1.63,2.13.31,6.25a20.44,20.44,0,0,0-1.89-3.31,5.72,5.72,0,0,1-1.29-3.41.23.23,0,0,0-.08-.17.23.23,0,0,0-.18,0c-3.1.5-4.51,1.46-5.14,2.28a4.26,4.26,0,0,1,1.25-3,.22.22,0,0,0,.08-.25.21.21,0,0,0-.21-.17,16.26,16.26,0,0,0-12,5.58,3.57,3.57,0,0,0-.76-3.15.23.23,0,0,0-.18-.06.22.22,0,0,0-.17.09c-2.7,3.63-8.17,6.85-11,6.52-3.24-.39-4.4,1-4.82,2a2.76,2.76,0,0,1,0-1.83.23.23,0,0,0-.41-.2c-2.69,4.76-5.48,7.07-8.08,6.67l-.19-.12a4.72,4.72,0,0,0,3.82-1C37,23.06,36.53,17.76,36.51,17.54ZM98,8.5a2.52,2.52,0,0,1-.3,2.05.23.23,0,0,0,.27.34,3.32,3.32,0,0,1,4.11,1.27,6.81,6.81,0,0,0-3.86-.29.24.24,0,0,0-.19.18.23.23,0,0,0,.1.24c3.06,2.05,7,8.92,7.77,12.55a32.19,32.19,0,0,0,3.17,7.84,5.28,5.28,0,0,1-2-2.11l0,0,0,0-.1,0h-.09l-.06.06a.08.08,0,0,0,0,0,.2.2,0,0,0,0,.15h0c.09.57.15,1.16.21,1.75.54,6.74-2.41,10.76-3.55,12,0-1.06-.38-3.29-2.83-6.13a.15.15,0,0,0,.07,0,.24.24,0,0,0,.24-.17,25,25,0,0,0-1.12-16A24.71,24.71,0,0,0,105,27.42a.24.24,0,0,0,.27,0,.23.23,0,0,0,.06-.27c-.91-2.23-1.55-4.21-2.12-6-1.51-4.66-2.51-7.74-6.58-9a.22.22,0,0,0-.24.36,8.5,8.5,0,0,1,1.9,3.92,12.3,12.3,0,0,0-8.12-6.69,4.26,4.26,0,0,1,4,.66.24.24,0,0,0,.31,0,.22.22,0,0,0,0-.31c-.1-.12-2.4-2.89-7.94-5.45C82.39,2.72,75.75.66,66.17.49c15.37-.4,27.67,6,29.77,9.41a.29.29,0,0,0,.21.11.25.25,0,0,0,.2-.14,3.82,3.82,0,0,0,0-3.5A4.56,4.56,0,0,1,98,8.5Zm-8.8,47.34C87.58,53.42,88,50.56,88.62,46c.11-.86.24-1.78.37-2.77.88-8.13-5-15.35-8.3-18.73,9,6.48,9.94,12,10.34,20.06a.22.22,0,0,0,.14.2.22.22,0,0,0,.23,0c.15-.12,3.41-2.87,4-8.75a11.51,11.51,0,0,1,3.08,6.73.23.23,0,0,0,.14.19.21.21,0,0,0,.23,0c.08-.06,1.7-1.38.45-5.08,4.16,4.22,3.53,7.29,3.52,7.32a.23.23,0,0,0,.38.22,12.43,12.43,0,0,0,2.57-3.67,15.77,15.77,0,0,0,1-2.82,35,35,0,0,1-3.36,11.5,7,7,0,0,0-2.93-4.77,5,5,0,0,0-4.72,0C92.71,46.92,90.17,50.93,89.23,55.84ZM72.8,20a.23.23,0,0,0-.25,0,.21.21,0,0,0-.08.24l.76,2.92a9.86,9.86,0,0,1-2.35-7,.21.21,0,0,0-.11-.23.23.23,0,0,0-.26,0,16.83,16.83,0,0,1-6.1,2.76,2.37,2.37,0,0,0,.67-.92,3.19,3.19,0,0,0-.32-2.58.22.22,0,0,0-.26-.12l-1.28.3c-2.68.63-4.8,1.12-6.78,3.64-1.5,1.92-2.61,2.3-3.11,2.36.32-.69,1-2.3.44-3.33a.21.21,0,0,0-.18-.13.23.23,0,0,0-.21.09c-1.75,2.34-4.85,3.57-9,3.57-2.59,0-4.07,2-4.81,3.57A3.86,3.86,0,0,0,39.12,24a.22.22,0,0,0-.22-.11.23.23,0,0,0-.19.14,10.21,10.21,0,0,1-2.06,3.28,5.37,5.37,0,0,1-5-.2c2.31-.15,4.65-2.11,7-5.87a2.45,2.45,0,0,0,.49,1.44.23.23,0,0,0,.23.08.24.24,0,0,0,.18-.17c.39-1.69,2-2.49,4.47-2.19,2.94.36,8.43-2.83,11.26-6.47a3.27,3.27,0,0,1,.09,3.56.22.22,0,0,0,.08.29.22.22,0,0,0,.3,0c3.81-4.6,8.53-6.27,11.9-6.33-1.07,1.28-1.08,3.71-1.06,4.23h0v.08a.24.24,0,0,0,.23.22h0a.24.24,0,0,0,.22-.24v-.07c0-.38.26-2.25,5-3.09a6.16,6.16,0,0,0,1.35,3.39,20.18,20.18,0,0,1,2.09,3.77.24.24,0,0,0,.21.14.22.22,0,0,0,.21-.15c1.22-3.32.68-5.49.22-6.53,3.18,1.77,16.33,10,16.33,24.78a.24.24,0,0,0,.19.23.23.23,0,0,0,.26-.16,25.18,25.18,0,0,0,.79-12.81,24.92,24.92,0,0,1,6.7,13.08h0a19.1,19.1,0,0,0-1.49-1.52.24.24,0,0,0-.29,0,.23.23,0,0,0-.08.28c1.24,2.89.77,4.44.38,5.1a11.8,11.8,0,0,0-3.52-6.8.23.23,0,0,0-.24,0,.22.22,0,0,0-.14.2A13.64,13.64,0,0,1,91.46,44C91,35.69,89.7,29.61,78.51,22.45h-.05s0,0-.08,0h-.11a.1.1,0,0,0,0,0s0,0,0,0,0,0,0,0a.33.33,0,0,0,0,.14,4.5,4.5,0,0,1-.39,2A7,7,0,0,1,77.07,26,10.13,10.13,0,0,0,72.8,20Z"/><path class="cls-9" d="M39.16,18.22s4.42-7.69,7.11-7.31.38,6.35,4.23,2.12.14,1.79,4.42-2.31c4.61-4.42,5.57-2.31,5.57-2.31a10.06,10.06,0,0,0-2.88,5.39s5.19-4.62,9-5.2c2.69-.19,5.57.58,8.45,6.93a11.61,11.61,0,0,0-2.88-7.31s2.5.19,11.15,7.11C80.1,9,73.18,8.8,80.29,9s-7.68-1.35-.57-2.31-8.46-2.3-3.65-3.07,11.14,2.3,11.14,2.3c-15-8.45-35.14-3.55-41.71.39A45,45,0,0,0,33.39,16.68a41.61,41.61,0,0,1,7.69-3.85S38,14.18,39.16,18.22Z"/><path class="cls-27" d="M39.16,18.22s4.42-7.69,7.11-7.31.38,6.35,4.23,2.12.14,1.79,4.42-2.31c4.61-4.42,5.57-2.31,5.57-2.31a10.06,10.06,0,0,0-2.88,5.39s5.19-4.62,9-5.2c2.69-.19,5.57.58,8.45,6.93a11.61,11.61,0,0,0-2.88-7.31s2.5.19,11.15,7.11C80.1,9,73.18,8.8,80.29,9s-7.68-1.35-.57-2.31-8.46-2.3-3.65-3.07,11.14,2.3,11.14,2.3c-15-8.45-35.14-3.55-41.71.39A45,45,0,0,0,33.39,16.68a41.61,41.61,0,0,1,7.69-3.85S38,14.18,39.16,18.22Z"/><path class="cls-9" d="M99.18,25.25c0,.36.11.71.15,1.06A7.73,7.73,0,0,0,99.18,25.25Z"/><path class="cls-27" d="M99.18,25.25c0,.36.11.71.15,1.06A7.73,7.73,0,0,0,99.18,25.25Z"/><path class="cls-9" d="M90,13.29c-5.09-1.83,5.08,5.9-4.68,1.83,0,0,5.29,3.46,6.91,13.83,1.63-5.49,0-7.53-.81-9.36s4.88,5.09,3.46.61c-1.33-4.16,3.34.31,4.32,5.05-1-6.55-3.89-13.2-9.26-15.08-.22-.05-.43-.11-.66-.15a.19.19,0,0,1-.15-.11,9.45,9.45,0,0,0-2.59-.28C92,12.07,95.06,15.12,90,13.29Z"/><path class="cls-27" d="M90,13.29c-5.09-1.83,5.08,5.9-4.68,1.83,0,0,5.29,3.46,6.91,13.83,1.63-5.49,0-7.53-.81-9.36s4.88,5.09,3.46.61c-1.33-4.16,3.34.31,4.32,5.05-1-6.55-3.89-13.2-9.26-15.08-.22-.05-.43-.11-.66-.15a.19.19,0,0,1-.15-.11,9.45,9.45,0,0,0-2.59-.28C92,12.07,95.06,15.12,90,13.29Z"/><path class="cls-11" d="M89.26,10c.23,0,.44.1.66.15a7.63,7.63,0,0,0-.81-.26A.19.19,0,0,0,89.26,10Z"/><path class="cls-27" d="M89.26,10c.23,0,.44.1.66.15a7.63,7.63,0,0,0-.81-.26A.19.19,0,0,0,89.26,10Z"/><path class="cls-9" d="M100.49,45.56a7,7,0,0,1,2.93,4.77,35,35,0,0,0,3.36-11.5,15.77,15.77,0,0,1-1,2.82,12.43,12.43,0,0,1-2.57,3.67.23.23,0,0,1-.38-.22s.64-3.1-3.52-7.32c1.25,3.7-.37,5-.45,5.08a.21.21,0,0,1-.23,0,.23.23,0,0,1-.14-.19A11.51,11.51,0,0,0,95.37,36c-.56,5.88-3.82,8.63-4,8.75a.22.22,0,0,1-.23,0,.22.22,0,0,1-.14-.2c-.4-8-1.35-13.58-10.34-20.06C84,27.86,89.87,35.08,89,43.21c-.13,1-.26,1.91-.37,2.77-.64,4.58-1,7.44.61,9.86.94-4.91,3.48-8.92,6.54-10.28A5,5,0,0,1,100.49,45.56Z"/><path class="cls-28" d="M86.82,124.55c.31-18.61,5.8-33.26,7.94-34.17s4.18,6.68,5.31,16.4c1.52,13.23,3.74,14.52,10.54,13.58a42.44,42.44,0,0,0,7.93-1.6c-1.78-10.35-5.09-21.73-11.22-27A74,74,0,0,0,99.11,86c-6.74-2.88-8.76-1.15-15.39,5.47-7.58,8.14-19.93,3.65-23-4.49a7,7,0,0,0-2.55-3.22c-3.22.68-6.92,1.47-8.53,1.85-2.45.58-7.71,8.05-14.28,20.19a14.92,14.92,0,0,0,3.93,4.23c1.5.6,5.48-12.55,8.37-17.13,2.69-4.58,1,3,3.48-.1s0,11.29-.31,27.46c-.26,13.75-1.17,29.71,8,34.17h13.3C82,150.89,86.58,139.76,86.82,124.55ZM59.92,154a39.85,39.85,0,0,1-5.77-11.53c-5.22-16.07-2.9-33.26-.1-49.56,0-.12.31-.42.28-.18-.59,4.82-1.19,9.66-1.69,14.49a98.4,98.4,0,0,0,.08,24.73,60.3,60.3,0,0,0,7.61,21.56C60.44,153.67,60.07,154.19,59.92,154Z"/><path class="cls-28" d="M67.85,155.45h-6a14.84,14.84,0,0,0,2.66.22A24.93,24.93,0,0,0,67.85,155.45Z"/><path class="cls-29" d="M43.21,119.71v-.81l-.1,0c-.88-.4-7.55-3.57-9.82-9.69l1.2-2.25h0l.71-1.33c0,.07.1.15.15.22,6.57-12.14,11.83-19.61,14.28-20.19,1.61-.38,5.31-1.17,8.53-1.85l-.24-.18,5.92-1.25s0,.38,0,1c.22,2.55,1.49,9.11,8.92,8.94.29,0,.6,0,.92,0C83.86,91.31,89,80.11,89,80.11s5.46,2.69,11.19,6.31a5.56,5.56,0,0,1-.75-.26L99.11,86a74,74,0,0,1,8.21,5.75c6.13,5.26,9.44,16.64,11.22,27h0l.33,1.8.17-.1c.23,1.44.43,2.88.61,4.3-5.85,2.93-14.38,2.47-18.18,2.08-1.22-.13-1.95-.25-1.95-.25s0,.1.06.25c.44,1.83,3.36,13.9,5.78,27.62h.23c-2.37-13.43-5.22-25.35-5.76-27.55.42.11.83.23,1.26.31.08,0,.18-.06.26-.17l.26,0h0l.4,0a47.83,47.83,0,0,0,11.37-.25c.71-.11,1.4-.24,2.09-.4l.54-.14a19.79,19.79,0,0,0,3.74-1.36.23.23,0,0,0,.12-.24c-1.48-11.65-4.81-26.89-12.28-33.3C100.56,85.57,89.21,80,89.1,79.91a.23.23,0,0,0-.18,0,.2.2,0,0,0-.13.12s-.16.32-.43.82c0,.06-.07.13-.11.2-1.56,2.77-6.48,10.23-14.55,11A8.3,8.3,0,0,1,67,90.08a10,10,0,0,1-2.73-5.67c0-.16,0-.31-.07-.45a12.32,12.32,0,0,1-.11-1.6.24.24,0,0,0-.28-.23c-.11,0-11.12,2.32-14.27,3.06-4,1-12.83,17-16.43,23.88a.23.23,0,0,0,0,.18A13.37,13.37,0,0,0,34.52,112c.06.08.11.17.17.26l.13.18A22.39,22.39,0,0,0,43,119.05c0,.4,0,1.56,0,3.23v1c0,7.66-.13,23.51-.16,31.21H43C43.07,145.16,43.18,124.07,43.21,119.71Z"/><path class="cls-30" d="M92.14,112c1.13-20.49,3.37-17.12,3.37-17.12s.84,2.25,3.22,26.87c7.84,4.71,16,1.25,20.16-1.18l-.33-1.8h0a42.44,42.44,0,0,1-7.93,1.6c-6.8.94-9-.35-10.54-13.58-1.13-9.72-3.18-17.32-5.31-16.4s-7.63,15.56-7.94,34.17c-.24,15.21-4.78,26.34-14.75,29.9H86C96.51,146.6,91,128.91,92.14,112Z"/><path class="cls-30" d="M50.82,120.28c.31-16.17,2.75-30.51.31-27.46s-.79-4.48-3.48.1c-2.89,4.58-6.87,17.73-8.37,17.13a14.92,14.92,0,0,1-3.93-4.23c-.05-.07-.11-.15-.15-.22l-.71,1.33a12.51,12.51,0,0,0,6.57,6.17A121,121,0,0,1,48.36,94c0,4.77-2.81,26.94-2.53,50.8a43.73,43.73,0,0,0,1.06,9.63H58.77C49.65,150,50.56,134,50.82,120.28Z"/><path class="cls-28" d="M60.71,87c3.08,8.14,15.43,12.63,23,4.49,6.63-6.62,8.65-8.35,15.39-5.47-4.69-2.9-9-5.1-10-5.6-.79,1.57-6,11.19-15.36,12a8.74,8.74,0,0,1-7.07-2c-2.76-2.58-3-6.66-3.06-7.78l-5.45,1.14A7,7,0,0,1,60.71,87Z"/><path class="cls-31" d="M60.71,87c3.08,8.14,15.43,12.63,23,4.49,6.63-6.62,8.65-8.35,15.39-5.47-4.69-2.9-9-5.1-10-5.6-.79,1.57-6,11.19-15.36,12a8.74,8.74,0,0,1-7.07-2c-2.76-2.58-3-6.66-3.06-7.78l-5.45,1.14A7,7,0,0,1,60.71,87Z"/><path class="cls-29" d="M66.67,90.42a8.74,8.74,0,0,0,7.07,2c9.37-.85,14.57-10.47,15.36-12,1,.5,5.32,2.7,10,5.6l.33.14a5.56,5.56,0,0,0,.75.26C94.46,82.8,89,80.11,89,80.11s-5.14,11.2-15.28,12.12c-.32,0-.63,0-.92,0-7.43.17-8.7-6.39-8.92-8.94-.05-.61,0-1,0-1L57.92,83.6l.24.18,5.45-1.14C63.63,83.76,63.91,87.84,66.67,90.42Z"/><path class="cls-31" d="M66.67,90.42a8.74,8.74,0,0,0,7.07,2c9.37-.85,14.57-10.47,15.36-12,1,.5,5.32,2.7,10,5.6l.33.14a5.56,5.56,0,0,0,.75.26C94.46,82.8,89,80.11,89,80.11s-5.14,11.2-15.28,12.12c-.32,0-.63,0-.92,0-7.43.17-8.7-6.39-8.92-8.94-.05-.61,0-1,0-1L57.92,83.6l.24.18,5.45-1.14C63.63,83.76,63.91,87.84,66.67,90.42Z"/><path class="cls-29" d="M119.06,120.45l-.17.1.78,4.2C119.49,123.33,119.29,121.89,119.06,120.45Z"/><path class="cls-31" d="M119.06,120.45l-.17.1.78,4.2C119.49,123.33,119.29,121.89,119.06,120.45Z"/><path class="cls-29" d="M34.49,106.92l-1.2,2.25,1.2-2.24Z"/><path class="cls-31" d="M34.49,106.92l-1.2,2.25,1.2-2.24Z"/><path class="cls-30" d="M48.36,94a121,121,0,0,0-7.3,19.08,12.51,12.51,0,0,1-6.57-6.17l-1.2,2.24c2.27,6.12,8.94,9.29,9.82,9.69.5-3.3,1-6.6,1.51-9.9.55-3.55,1.18-7.08,1.78-10.61,0-.13.32-.43.29-.18-.44,3.45-.86,6.9-1.36,10.34s-1,7-1.54,10.47a1,1,0,0,1-.43.69l-.15,0c0,4.36-.14,25.45-.18,34.74h3.86a43.73,43.73,0,0,1-1.06-9.63C45.55,121,48.36,98.79,48.36,94Z"/><path class="cls-31" d="M48.36,94a121,121,0,0,0-7.3,19.08,12.51,12.51,0,0,1-6.57-6.17l-1.2,2.24c2.27,6.12,8.94,9.29,9.82,9.69.5-3.3,1-6.6,1.51-9.9.55-3.55,1.18-7.08,1.78-10.61,0-.13.32-.43.29-.18-.44,3.45-.86,6.9-1.36,10.34s-1,7-1.54,10.47a1,1,0,0,1-.43.69l-.15,0c0,4.36-.14,25.45-.18,34.74h3.86a43.73,43.73,0,0,1-1.06-9.63C45.55,121,48.36,98.79,48.36,94Z"/><path class="cls-30" d="M98,126.34c-.51-.15-1-.32-1.51-.49s-.93-.29-1.36-.48c-.12.14-.25.22-.3.06a5.38,5.38,0,0,1-.14-1.5c0-.53,0-1.07-.07-1.6,0-1.07-.1-2.14-.14-3.21-.1-2.13-.19-4.27-.28-6.4-.19-4.36-.27-8.72-.4-13.08,0-.14.3-.49.32-.29.26,4.25.56,8.5.76,12.75q.15,3.25.31,6.5l.15,3.2a16.93,16.93,0,0,1,.08,3.1h0c.47.07.94.22,1.4.33s1,.25,1.56.39a30.84,30.84,0,0,1,3.11.93c.08,0,.07.15,0,.27,3.8.39,12.33.85,18.18-2.08l-.78-4.2c-4.13,2.43-12.32,5.89-20.16,1.18-2.38-24.62-3.22-26.87-3.22-26.87S93.27,91.49,92.14,112C91,128.91,96.51,146.6,86,154.45h19.41C103,140.73,100,128.66,99.6,126.83,99.05,126.68,98.51,126.51,98,126.34Z"/><path class="cls-31" d="M98,126.34c-.51-.15-1-.32-1.51-.49s-.93-.29-1.36-.48c-.12.14-.25.22-.3.06a5.38,5.38,0,0,1-.14-1.5c0-.53,0-1.07-.07-1.6,0-1.07-.1-2.14-.14-3.21-.1-2.13-.19-4.27-.28-6.4-.19-4.36-.27-8.72-.4-13.08,0-.14.3-.49.32-.29.26,4.25.56,8.5.76,12.75q.15,3.25.31,6.5l.15,3.2a16.93,16.93,0,0,1,.08,3.1h0c.47.07.94.22,1.4.33s1,.25,1.56.39a30.84,30.84,0,0,1,3.11.93c.08,0,.07.15,0,.27,3.8.39,12.33.85,18.18-2.08l-.78-4.2c-4.13,2.43-12.32,5.89-20.16,1.18-2.38-24.62-3.22-26.87-3.22-26.87S93.27,91.49,92.14,112C91,128.91,96.51,146.6,86,154.45h19.41C103,140.73,100,128.66,99.6,126.83,99.05,126.68,98.51,126.51,98,126.34Z"/><path class="cls-29" d="M101.46,126.56a30.84,30.84,0,0,0-3.11-.93c-.52-.14-1-.26-1.56-.39s-.93-.26-1.4-.33h0a16.93,16.93,0,0,0-.08-3.1l-.15-3.2q-.16-3.24-.31-6.5c-.2-4.25-.5-8.5-.76-12.75,0-.2-.33.15-.32.29.13,4.36.21,8.72.4,13.08.09,2.13.18,4.27.28,6.4,0,1.07.09,2.14.14,3.21,0,.53,0,1.07.07,1.6a5.38,5.38,0,0,0,.14,1.5c0,.16.18.08.3-.06.43.19.92.33,1.36.48s1,.34,1.51.49,1.08.34,1.63.49c0-.15-.06-.25-.06-.25s.73.12,1.95.25C101.53,126.71,101.54,126.6,101.46,126.56Z"/><path class="cls-31" d="M101.46,126.56a30.84,30.84,0,0,0-3.11-.93c-.52-.14-1-.26-1.56-.39s-.93-.26-1.4-.33h0a16.93,16.93,0,0,0-.08-3.1l-.15-3.2q-.16-3.24-.31-6.5c-.2-4.25-.5-8.5-.76-12.75,0-.2-.33.15-.32.29.13,4.36.21,8.72.4,13.08.09,2.13.18,4.27.28,6.4,0,1.07.09,2.14.14,3.21,0,.53,0,1.07.07,1.6a5.38,5.38,0,0,0,.14,1.5c0,.16.18.08.3-.06.43.19.92.33,1.36.48s1,.34,1.51.49,1.08.34,1.63.49c0-.15-.06-.25-.06-.25s.73.12,1.95.25C101.53,126.71,101.54,126.6,101.46,126.56Z"/><path class="cls-29" d="M43.36,119.67a1,1,0,0,0,.43-.69c.51-3.49,1-7,1.54-10.47s.92-6.89,1.36-10.34c0-.25-.27,0-.29.18-.6,3.53-1.23,7.06-1.78,10.61-.52,3.3-1,6.6-1.51,9.9l.1,0v.81Z"/><path class="cls-31" d="M43.36,119.67a1,1,0,0,0,.43-.69c.51-3.49,1-7,1.54-10.47s.92-6.89,1.36-10.34c0-.25-.27,0-.29.18-.6,3.53-1.23,7.06-1.78,10.61-.52,3.3-1,6.6-1.51,9.9l.1,0v.81Z"/><path class="cls-28" d="M52.72,131.93a98.4,98.4,0,0,1-.08-24.73c.5-4.83,1.1-9.67,1.69-14.49,0-.24-.26.06-.28.18-2.8,16.3-5.12,33.49.1,49.56A39.85,39.85,0,0,0,59.92,154c.15.21.52-.31.41-.49A60.3,60.3,0,0,1,52.72,131.93Z"/><path class="cls-32" d="M52.72,131.93a98.4,98.4,0,0,1-.08-24.73c.5-4.83,1.1-9.67,1.69-14.49,0-.24-.26.06-.28.18-2.8,16.3-5.12,33.49.1,49.56A39.85,39.85,0,0,0,59.92,154c.15.21.52-.31.41-.49A60.3,60.3,0,0,1,52.72,131.93Z"/></g></g></g></svg>