<svg xmlns="http://www.w3.org/2000/svg" xmlns:xlink="http://www.w3.org/1999/xlink" viewBox="0 0 90.16 165"><defs><style>.cls-1{isolation:isolate;}.cls-2{fill:none;}.cls-3{fill:#771154;}.cls-4,.cls-5{fill:#c63f93;}.cls-12,.cls-15,.cls-18,.cls-24,.cls-27,.cls-29,.cls-32,.cls-5,.cls-8{mix-blend-mode:multiply;}.cls-5{opacity:0.55;}.cls-15,.cls-29,.cls-6{fill:#fbd0b4;}.cls-7{fill:#b56a4d;}.cls-8{fill:#efc2a7;}.cls-9{fill:#fbc98f;}.cls-35,.cls-9{mix-blend-mode:screen;}.cls-15,.cls-32,.cls-9{opacity:0.6;}.cls-10{fill:#3b2066;}.cls-11,.cls-12{fill:#6f4f9c;}.cls-12{opacity:0.5;}.cls-13,.cls-23{fill:#fff;}.cls-13{opacity:0.45;}.cls-14{fill:#9e4c0b;}.cls-16{fill:#fef6ec;}.cls-17{fill:#9e5116;}.cls-18{fill:#bbac9a;}.cls-19{fill:#984c08;}.cls-20{fill:#a0a427;}.cls-21{fill:#9a5648;}.cls-22{fill:#0a010b;}.cls-24,.cls-27{opacity:0.7;}.cls-24{fill:url(#radial-gradient);}.cls-25{fill:#a05b23;}.cls-26{fill:#602e09;}.cls-27{fill:url(#radial-gradient-3);}.cls-28{fill:#fcece3;}.cls-30{fill:#a04c0b;}.cls-31{fill:#8c0c00;}.cls-32{fill:#b8a997;}.cls-33,.cls-35{fill:#582e18;}.cls-34{fill:#33160a;}</style><radialGradient id="radial-gradient" cx="-1082.9" cy="-1682.67" r="12.09" gradientTransform="matrix(-0.78, -0.59, -0.59, 0.78, -1781.9, 730.1)" gradientUnits="userSpaceOnUse"><stop offset="0.12" stop-color="#f6a0a0"/><stop offset="1" stop-color="#fff"/></radialGradient><radialGradient id="radial-gradient-3" cx="-211.23" cy="-1198.65" r="10.64" gradientTransform="translate(641.56 1076.49) rotate(-21.11) scale(0.98)" xlink:href="#radial-gradient"/></defs><g class="cls-1"><g id="Layer_2" data-name="Layer 2"><g id="Layer_1-2" data-name="Layer 1"><path class="cls-2" d="M79.37,161,79,159.83a112.78,112.78,0,0,1-5-16.57,103.69,103.69,0,0,0-3.73-13.18c-.63-1.79-1.49-4.3-2.32-6.72.4,6,1.19,16.44,2.68,32.41a.22.22,0,0,1-.13.22l-.23.09A50.79,50.79,0,0,1,72.61,165H80.7a14.32,14.32,0,0,0-1-3.05Z"/><path class="cls-2" d="M17.72,155.61a.2.2,0,0,1-.12-.2c.18-3.74.79-13.44,1.34-22.09-1,3-1.66,5.69-2.63,9.94a112.41,112.41,0,0,1-5,16.57L10.91,161c-.13.35-.25.68-.38,1A14,14,0,0,0,9.59,165h6.8a91.78,91.78,0,0,1,2.37-8.92Z"/><path class="cls-3" d="M18.7,156.94l.2-.6v0l0-.15-.19-.08A91.78,91.78,0,0,0,16.39,165h.2c.78-3.58,1.55-6.29,2.11-8.05Z"/><path class="cls-3" d="M70.2,156.09l-.15.06A49.61,49.61,0,0,1,72.39,165h.22a50.79,50.79,0,0,0-2.36-8.92Z"/><path class="cls-4" d="M65.22,160.24c-21.07,6.83-39.38.65-46.74-2.58l.22-.71c-.56,1.76-1.33,4.47-2.11,8.05H66.48a8,8,0,0,1,.59-.69C70,161.16,70.22,158,65.22,160.24Z"/><path class="cls-4" d="M19,156.17h0l0,.15C18.92,156.26,18.94,156.21,19,156.17Z"/><path class="cls-4" d="M18.9,156.34l-.2.6Z"/><path class="cls-3" d="M18.91,156.31v0Z"/><path class="cls-5" d="M18.91,156.31v0Z"/><path class="cls-3" d="M18.7,156.94h0Z"/><path class="cls-5" d="M18.7,156.94h0Z"/><path class="cls-4" d="M43.74,161.29A62,62,0,0,1,19,156.17s0,.09,0,.14v0l-.2.6h0l-.22.71c7.36,3.23,25.67,9.41,46.74,2.58,5-2.23,4.82.92,1.85,4.07a8,8,0,0,0-.59.69h5.91a49.61,49.61,0,0,0-2.34-8.85A73.17,73.17,0,0,1,43.74,161.29Z"/><path class="cls-5" d="M43.74,161.29A62,62,0,0,1,19,156.17s0,.09,0,.14v0l-.2.6h0l-.22.71c7.36,3.23,25.67,9.41,46.74,2.58,5-2.23,4.82.92,1.85,4.07a8,8,0,0,0-.59.69h5.91a49.61,49.61,0,0,0-2.34-8.85A73.17,73.17,0,0,1,43.74,161.29Z"/><path class="cls-6" d="M85.94,149.54c-1-4.22-2-7.66-3.06-11-.92-3.05-1.79-5.93-2.58-9.2-1-3.95-2-8.55-2.63-11.72a21.86,21.86,0,0,1-2.46.69c-3.93.87-2.62,3.06,1.31,15,2.77,6.7,1.16,5.54,2.77,14.43s3.35,17.07,8.74,16.69c-.57.19-1.11.37-1.62.56h3.28a27.7,27.7,0,0,1-1.84-6.67C87.45,156.3,86.9,153.51,85.94,149.54Zm-3.37-10.85s3,8,5.71,22.38C86.33,155.05,83.62,141.4,82.57,138.69Z"/><path class="cls-7" d="M79.57,160.87a115.34,115.34,0,0,1-5.39-17.66,104.15,104.15,0,0,0-3.43-12.33c-.09-.28-.2-.57-.3-.87s-.33-.93-.51-1.45c-.62-1.79-1.36-4-2.06-6,0,.25,0,.52.05.8.83,2.42,1.69,4.93,2.32,6.72A103.69,103.69,0,0,1,74,143.26a112.78,112.78,0,0,0,5,16.57l.42,1.12.38,1a14.32,14.32,0,0,1,1,3.05h.21a17.17,17.17,0,0,0-1.13-3.57Z"/><path class="cls-7" d="M77.87,117.56l-.2.07c.67,3.17,1.66,7.77,2.63,11.72.79,3.27,1.66,6.15,2.58,9.2,1,3.33,2.05,6.77,3.06,11,1,4,1.51,6.76,1.91,8.79A27.7,27.7,0,0,0,89.69,165h.47a26.36,26.36,0,0,1-1.9-6.75c-.4-2-1-4.83-1.91-8.81-1-4.23-2.06-7.68-3.07-11-.92-3-1.79-5.91-2.58-9.17-1.23-5-2.52-11.17-3.1-14l-.2.07C77.52,115.94,77.68,116.69,77.87,117.56Z"/><path class="cls-6" d="M79.29,147.75c-1.61-8.89,0-7.73-2.77-14.43-3.93-11.94-5.24-14.13-1.31-15a21.86,21.86,0,0,0,2.46-.69c-.19-.87-.35-1.63-.47-2.24a41.86,41.86,0,0,1-9.63,1.86c0,.51.1,2,.26,4.5,1,2.84,2.06,6,2.82,8.19a104.52,104.52,0,0,1,3.74,13.23,111.83,111.83,0,0,0,5,16.52c.15.39.29.76.41,1.11l.38,1a13.69,13.69,0,0,1,1,3.2h5.29c.51-.19,1-.37,1.62-.56C82.64,164.82,80.89,156.63,79.29,147.75Z"/><path class="cls-8" d="M79.29,147.75c-1.61-8.89,0-7.73-2.77-14.43-3.93-11.94-5.24-14.13-1.31-15a21.86,21.86,0,0,0,2.46-.69c-.19-.87-.35-1.63-.47-2.24a41.86,41.86,0,0,1-9.63,1.86c0,.51.1,2,.26,4.5,1,2.84,2.06,6,2.82,8.19a104.52,104.52,0,0,1,3.74,13.23,111.83,111.83,0,0,0,5,16.52c.15.39.29.76.41,1.11l.38,1a13.69,13.69,0,0,1,1,3.2h5.29c.51-.19,1-.37,1.62-.56C82.64,164.82,80.89,156.63,79.29,147.75Z"/><path class="cls-7" d="M77.87,117.56c-.19-.87-.35-1.62-.47-2.23l-.2.06c.12.61.28,1.37.47,2.24Z"/><path class="cls-8" d="M77.87,117.56c-.19-.87-.35-1.62-.47-2.23l-.2.06c.12.61.28,1.37.47,2.24Z"/><path class="cls-7" d="M79.76,160.8c-.12-.35-.26-.72-.41-1.11a111.83,111.83,0,0,1-5-16.52,104.52,104.52,0,0,0-3.74-13.23c-.76-2.15-1.86-5.35-2.82-8.19,0,.26,0,.53,0,.81.7,2,1.44,4.21,2.06,6,.18.52.35,1,.51,1.45s.21.59.3.87a104.15,104.15,0,0,1,3.43,12.33,115.34,115.34,0,0,0,5.39,17.66l.21.56A17.17,17.17,0,0,1,80.91,165h.21a13.69,13.69,0,0,0-1-3.2Z"/><path class="cls-8" d="M79.76,160.8c-.12-.35-.26-.72-.41-1.11a111.83,111.83,0,0,1-5-16.52,104.52,104.52,0,0,0-3.74-13.23c-.76-2.15-1.86-5.35-2.82-8.19,0,.26,0,.53,0,.81.7,2,1.44,4.21,2.06,6,.18.52.35,1,.51,1.45s.21.59.3.87a104.15,104.15,0,0,1,3.43,12.33,115.34,115.34,0,0,0,5.39,17.66l.21.56A17.17,17.17,0,0,1,80.91,165h.21a13.69,13.69,0,0,0-1-3.2Z"/><path class="cls-6" d="M88.28,161.07c-2.69-14.36-5.71-22.38-5.71-22.38C83.62,141.4,86.33,155.05,88.28,161.07Z"/><path class="cls-9" d="M88.28,161.07c-2.69-14.36-5.71-22.38-5.71-22.38C83.62,141.4,86.33,155.05,88.28,161.07Z"/><path class="cls-6" d="M11,147.75c1.6-8.89,0-7.73,2.77-14.43,3.93-11.94,5.24-14.13,1.31-15a21.28,21.28,0,0,1-2.46-.69C12,120.8,11,125.4,10,129.35c-.8,3.27-1.67,6.15-2.59,9.2-1,3.33-2,6.78-3.06,11-1,4-1.51,6.76-1.91,8.79A27.25,27.25,0,0,1,.59,165H3.87c-.51-.19-1.05-.37-1.61-.56C7.65,164.82,9.4,156.63,11,147.75Zm-3.28-9.06C6.67,141.4,4,155.05,2,161.07,4.69,146.71,7.72,138.69,7.72,138.69Z"/><path class="cls-7" d="M10.91,161l.42-1.12a112.41,112.41,0,0,0,5-16.57c1-4.25,1.68-7,2.63-9.94l0-.84c-1.14,3.47-1.87,6.3-2.89,10.73-1.11,4.89-2.17,8.54-3.1,11.35s-1.71,4.78-2.28,6.31A20.77,20.77,0,0,0,9.38,165h.21a14,14,0,0,1,.94-3.05C10.66,161.63,10.78,161.3,10.91,161Z"/><path class="cls-7" d="M.59,165a27.25,27.25,0,0,0,1.84-6.67c.4-2,.95-4.82,1.91-8.79,1-4.21,2.06-7.66,3.06-11,.92-3.05,1.79-5.93,2.59-9.2,1-3.95,2-8.55,2.63-11.72l-.2-.07c.1-.48.19-.93.28-1.33l-.2-.08c-.64,3.08-1.8,8.53-2.92,13.1-.79,3.26-1.66,6.14-2.58,9.18-1,3.34-2,6.79-3.07,11-1,4-1.51,6.77-1.91,8.81A26.39,26.39,0,0,1,.13,165Z"/><path class="cls-6" d="M10.52,160.8l.42-1.11a113.11,113.11,0,0,0,5-16.52A106.46,106.46,0,0,1,19,131.67c.43-6.73.81-12.51.89-13.81-.71.1-2.79.12-7-1.56-.09.41-.18.85-.28,1.33a21.28,21.28,0,0,0,2.46.69c3.93.87,2.62,3.06-1.31,15C11,140,12.6,138.86,11,147.75s-3.35,17.07-8.74,16.69c.56.19,1.1.37,1.61.56h5.3a14.11,14.11,0,0,1,1-3.2Z"/><path class="cls-8" d="M10.52,160.8l.42-1.11a113.11,113.11,0,0,0,5-16.52A106.46,106.46,0,0,1,19,131.67c.43-6.73.81-12.51.89-13.81-.71.1-2.79.12-7-1.56-.09.41-.18.85-.28,1.33a21.28,21.28,0,0,0,2.46.69c3.93.87,2.62,3.06-1.31,15C11,140,12.6,138.86,11,147.75s-3.35,17.07-8.74,16.69c.56.19,1.1.37,1.61.56h5.3a14.11,14.11,0,0,1,1-3.2Z"/><path class="cls-7" d="M12.7,116.23c-.09.4-.18.85-.28,1.33l.2.07c.1-.48.19-.92.28-1.33Z"/><path class="cls-8" d="M12.7,116.23c-.09.4-.18.85-.28,1.33l.2.07c.1-.48.19-.92.28-1.33Z"/><path class="cls-7" d="M13,154.56c.93-2.81,2-6.46,3.1-11.35,1-4.43,1.75-7.26,2.89-10.73l.05-.81a106.46,106.46,0,0,0-3.14,11.5,113.11,113.11,0,0,1-5,16.52l-.42,1.11-.38,1a14.11,14.11,0,0,0-1,3.2h.21a20.77,20.77,0,0,1,1.34-4.13C11.29,159.34,12.08,157.37,13,154.56Z"/><path class="cls-8" d="M13,154.56c.93-2.81,2-6.46,3.1-11.35,1-4.43,1.75-7.26,2.89-10.73l.05-.81a106.46,106.46,0,0,0-3.14,11.5,113.11,113.11,0,0,1-5,16.52l-.42,1.11-.38,1a14.11,14.11,0,0,0-1,3.2h.21a20.77,20.77,0,0,1,1.34-4.13C11.29,159.34,12.08,157.37,13,154.56Z"/><path class="cls-6" d="M2,161.07c1.94-6,4.66-19.67,5.71-22.38C7.72,138.69,4.69,146.71,2,161.07Z"/><path class="cls-9" d="M2,161.07c1.94-6,4.66-19.67,5.71-22.38C7.72,138.69,4.69,146.71,2,161.07Z"/><path class="cls-7" d="M35,85.54l.15.16a4.11,4.11,0,0,0,.73-.36,1.93,1.93,0,0,0,.62-1.14l-.2-.06c.05-.22.09-.46.13-.71a30.74,30.74,0,0,0,5.78.55l1.08,0a26.48,26.48,0,0,0,8.82-1.78c0,.33.06.66.1,1l-.2.09a3.74,3.74,0,0,0,.86,2.33l.14.07.14-.16a5.12,5.12,0,0,0,.56.26l.15-.17a4.19,4.19,0,0,1-.75-.35c-.43-.29-.68-1.57-.8-3.1,7.92-3.18,12.55-9.87,15.2-15.67A47.39,47.39,0,0,0,69.58,61a3,3,0,0,0,.9.86,4,4,0,0,0,2.37.52,7,7,0,0,0,3.72-1.48,6.54,6.54,0,0,0,2.55-5.13,7.07,7.07,0,0,0-2.63-5.64A5.21,5.21,0,0,0,74,48.89l-.27.15a4.83,4.83,0,0,1,2.69,1.22,7,7,0,0,1,2.54,4.84l-.2-.18a5.7,5.7,0,0,1,0,.83,6.19,6.19,0,0,1-2.41,4.85A6.4,6.4,0,0,1,72.8,62c0,.06.07.13.11.18a3.38,3.38,0,0,1-3.26-1.41c0-.08,0-.16.08-.24A54.6,54.6,0,0,0,71.9,49.81l-.14,0h-.07a52.72,52.72,0,0,1-5.94,19.57c0-.1,0-.2.08-.31.38-.8.72-1.58,1-2.36-3.54,7.51-10.47,16.3-23.61,16.77-14.17.46-21.75-7.91-25.61-15A47.2,47.2,0,0,1,12.6,52.82a.2.2,0,0,1-.11.24.15.15,0,0,1-.09,0,.23.23,0,0,1-.17-.08l0,0a47.3,47.3,0,0,0,2.33,9.54l.07.21a3.47,3.47,0,0,1-3,1.4l.09-.19a6.48,6.48,0,0,1-3.63-1.18A6.19,6.19,0,0,1,5.35,58a5.75,5.75,0,0,1,0-.83l-.19.19a6.93,6.93,0,0,1,2.24-5A4.14,4.14,0,0,1,11.06,51a1.86,1.86,0,0,0-.1-.2l-.27,0a4.6,4.6,0,0,0-3.42,1.48A7.05,7.05,0,0,0,5,58.06a6.55,6.55,0,0,0,2.86,5,7,7,0,0,0,3.81,1.25A4,4,0,0,0,14,63.61a3,3,0,0,0,.7-.67,42.57,42.57,0,0,0,2.59,5.79c3.22,5.91,9,12.67,18.94,14.66A2.52,2.52,0,0,1,35.65,85a8.93,8.93,0,0,1-1.28.56l.15.17Z"/><path class="cls-6" d="M53.15,85.47l-.14.16-.14-.07A3.74,3.74,0,0,1,52,83.23l.2-.09c0-.3-.08-.63-.1-1A26.48,26.48,0,0,1,43.29,84l-1.08,0a30.74,30.74,0,0,1-5.78-.55c0,.25-.08.49-.13.71l.2.06a1.93,1.93,0,0,1-.62,1.14,4.11,4.11,0,0,1-.73.36L35,85.54l-.48.19c1.46,1.61,5,4.92,9.47,5,3.36.06,6.62-1.63,9.72-5A5.12,5.12,0,0,1,53.15,85.47Z"/><path class="cls-10" d="M12.7,116.23l.2.07c4.24,1.68,6.32,1.66,7,1.56-.08,1.3-.46,7.08-.89,13.81l-.05.81,0,.84c-.55,8.65-1.16,18.35-1.34,22.09a.2.2,0,0,0,.12.2l1,.47.19.08h0a62,62,0,0,0,24.79,5.12,73.17,73.17,0,0,0,26.31-5.14l.15-.06h0l.23-.09a.22.22,0,0,0,.13-.22c-1.49-16-2.28-26.43-2.68-32.41,0-.28,0-.55-.05-.8s0-.55,0-.81c-.16-2.53-.24-4-.26-4.5a41.86,41.86,0,0,0,9.63-1.86l.2-.06.2-.07c1.1-.34,1.78-.59,1.8-.6a.2.2,0,0,0,.13-.26c0-.14-4.66-13.37-8.31-19.76-1.55-2.72-4.78-5.23-9.59-7.48a48.19,48.19,0,0,0-6.76-2.57.19.19,0,0,0-.22.07c-.26.32-.53.61-.79.9l-.15.17c-3.1,3.41-6.36,5.1-9.72,5-4.49-.12-8-3.43-9.47-5l-.15-.17c-.37-.42-.58-.7-.59-.71a.2.2,0,0,0-.24-.08,78.24,78.24,0,0,0-13.49,6.48c-4.69,3-8.56,14.72-10.42,20.35-.43,1.29-.73,2.22-.91,2.6a.21.21,0,0,0,.1.27c1.37.68,2.59,1.23,3.68,1.68Zm-3.79-2c.93-2,5.53-19.17,11.25-22.86-.48.47-.91,1-1.33,1.43a8.15,8.15,0,0,1,1.44-1.25A71.68,71.68,0,0,1,31.42,86l-.13-.17c1.41-.57,2.33-.9,2.33-.9s10,13.64,21.19-.18c0,0,12.54,3.5,16.23,9.95s8.29,19.73,8.29,19.73A46.72,46.72,0,0,1,67.88,117h0l-.53,0v.08c.05,1,.59,12.23,3.06,38.66l-2.25.85h0c-1.2.44-2.69.95-4.47,1.48-.81.24-1.67.47-2.58.71l-1.4.34c-10.09,2.38-25.58,3.78-41.87-3.76.22-4.4,1-16.91,1.62-26.34.41-6.46.74-11.48.74-11.48S17.39,118.52,8.91,114.28Z"/><path class="cls-10" d="M16,96.92l-.09.17Z"/><path class="cls-11" d="M68.16,156.64l2.25-.85Z"/><path class="cls-11" d="M20.16,117.6s-.33,5-.74,11.48c-.61,9.43-1.4,21.94-1.62,26.34,16.29,7.54,31.78,6.14,41.87,3.76l1.4-.34c.91-.24,1.77-.47,2.58-.71,1.78-.53,3.27-1,4.47-1.48-.12-5.17-.45-15.07-1.28-23.05-1.19-11.34-3.39-10.66-10.33-12,11.68-.84,8.46-17.26,8.46-17.26s-.18-1.11.57,2.05c0-.11.17-.25.2-.13.38,1.73.66,3.49,1,5.23.51,2.27.89,4.08,1.17,5.55a46.72,46.72,0,0,0,11.45-2.55S74.72,101.19,71,94.74s-16.23-9.95-16.23-9.95C43.57,98.61,33.62,85,33.62,85s-.92.33-2.33.9l.13.17A71.68,71.68,0,0,0,20.27,91.6a8.15,8.15,0,0,0-1.44,1.25c.42-.48.85-1,1.33-1.43-5.72,3.69-10.32,20.83-11.25,22.86C17.39,118.52,20.16,117.6,20.16,117.6Zm.34-4.28c.13-1.47.26-2.93.4-4.4,0-.09.21-.29.2-.12-.07,1.4-.15,2.81-.24,4.21s-.08,2.87-.31,4.27c0,.09-.35.5-.35.26a15.51,15.51,0,0,1,.12-2ZM45.3,154.6c-14.81,2-27.19-1.56-21.59-3.23-.86-6.26-1.7-19.19,3.46-27.29A94.45,94.45,0,0,0,24.49,150C24.49,154,31.37,153.71,45.3,154.6ZM20.1,92.41c.09-.09.1,0,.06.1A40.23,40.23,0,0,0,17.39,97a29.16,29.16,0,0,0-1.91,4.67,27.74,27.74,0,0,0-1.05,4.93c-.1.86-.17,1.72-.19,2.58s.08,1.77,0,2.64c0,.19-.51,1-.65.5a8.7,8.7,0,0,1-.12-2.65c0-.92.11-1.84.23-2.76a29.06,29.06,0,0,1,1.21-5.28,28.6,28.6,0,0,1,2.16-4.91A20.75,20.75,0,0,1,20.1,92.41Zm-4.2,4.68.09-.17Z"/><path class="cls-10" d="M20.2,117.54c0,.24.33-.17.35-.26.23-1.4.22-2.86.31-4.27s.17-2.81.24-4.21c0-.17-.19,0-.2.12-.14,1.47-.27,2.93-.4,4.4l-.18,2.18A15.51,15.51,0,0,0,20.2,117.54Z"/><path class="cls-10" d="M65.74,106.24c0-.12-.16,0-.2.13.26,1.1.63,2.72,1.17,5.1C66.4,109.73,66.12,108,65.74,106.24Z"/><path class="cls-10" d="M68.12,156.65h0Z"/><path class="cls-12" d="M68.12,156.65h0Z"/><path class="cls-11" d="M66.71,111.47c.3,1.76.72,3.55.87,5.33a.5.5,0,0,1-.11.24l.41,0C67.6,115.55,67.22,113.74,66.71,111.47Z"/><path class="cls-12" d="M66.71,111.47c.3,1.76.72,3.55.87,5.33a.5.5,0,0,1-.11.24l.41,0C67.6,115.55,67.22,113.74,66.71,111.47Z"/><path class="cls-11" d="M67.27,117.07a51.83,51.83,0,0,1-.92-5.27c-.3-1.78-.62-3.57-.83-5.36,0,0,0,0,0-.07-.75-3.16-.57-2.05-.57-2.05s3.22,16.42-8.46,17.26c6.94,1.36,9.14.68,10.33,12,.83,8,1.16,17.88,1.28,23.05h0l2.25-.85c-2.47-26.43-3-37.63-3.06-38.66C67.32,117.14,67.29,117.13,67.27,117.07Z"/><path class="cls-12" d="M67.27,117.07a51.83,51.83,0,0,1-.92-5.27c-.3-1.78-.62-3.57-.83-5.36,0,0,0,0,0-.07-.75-3.16-.57-2.05-.57-2.05s3.22,16.42-8.46,17.26c6.94,1.36,9.14.68,10.33,12,.83,8,1.16,17.88,1.28,23.05h0l2.25-.85c-2.47-26.43-3-37.63-3.06-38.66C67.32,117.14,67.29,117.13,67.27,117.07Z"/><path class="cls-10" d="M67.58,116.8c-.15-1.78-.57-3.57-.87-5.33-.54-2.38-.91-4-1.17-5.1,0,0,0,0,0,.07.21,1.79.53,3.58.83,5.36a51.83,51.83,0,0,0,.92,5.27c0,.06,0,.07.08.06v-.08l.53,0h0l-.41,0A.5.5,0,0,0,67.58,116.8Z"/><path class="cls-12" d="M67.58,116.8c-.15-1.78-.57-3.57-.87-5.33-.54-2.38-.91-4-1.17-5.1,0,0,0,0,0,.07.21,1.79.53,3.58.83,5.36a51.83,51.83,0,0,0,.92,5.27c0,.06,0,.07.08.06v-.08l.53,0h0l-.41,0A.5.5,0,0,0,67.58,116.8Z"/><path class="cls-11" d="M24.49,150a94.45,94.45,0,0,1,2.68-25.92c-5.16,8.1-4.32,21-3.46,27.29-5.6,1.67,6.78,5.22,21.59,3.23C31.37,153.71,24.49,154,24.49,150Z"/><path class="cls-13" d="M24.49,150a94.45,94.45,0,0,1,2.68-25.92c-5.16,8.1-4.32,21-3.46,27.29-5.6,1.67,6.78,5.22,21.59,3.23C31.37,153.71,24.49,154,24.49,150Z"/><path class="cls-11" d="M14.89,101.59a29.06,29.06,0,0,0-1.21,5.28c-.12.92-.2,1.84-.23,2.76a8.7,8.7,0,0,0,.12,2.65c.14.46.63-.31.65-.5.1-.87,0-1.76,0-2.64s.09-1.72.19-2.58a27.74,27.74,0,0,1,1.05-4.93A29.16,29.16,0,0,1,17.39,97a40.23,40.23,0,0,1,2.77-4.45c0-.06,0-.19-.06-.1a20.75,20.75,0,0,0-3.05,4.27A28.6,28.6,0,0,0,14.89,101.59Z"/><path class="cls-13" d="M14.89,101.59a29.06,29.06,0,0,0-1.21,5.28c-.12.92-.2,1.84-.23,2.76a8.7,8.7,0,0,0,.12,2.65c.14.46.63-.31.65-.5.1-.87,0-1.76,0-2.64s.09-1.72.19-2.58a27.74,27.74,0,0,1,1.05-4.93A29.16,29.16,0,0,1,17.39,97a40.23,40.23,0,0,1,2.77-4.45c0-.06,0-.19-.06-.1a20.75,20.75,0,0,0-3.05,4.27A28.6,28.6,0,0,0,14.89,101.59Z"/><path class="cls-6" d="M12,61.91a2,2,0,0,0-.34-.68,5.73,5.73,0,0,1-.49.91c-.07.1-.1,0-.07-.09a6.34,6.34,0,0,0,.39-1,1.26,1.26,0,0,0-.86-.38c-.25,0-.49.11-.73.13a1.1,1.1,0,0,1-.77-.25,1.8,1.8,0,0,1-.82-.34c-.14-.09,0-.5.17-.5l.15,0a.74.74,0,0,1,.4-.66,1.14,1.14,0,0,1,.74-.16c.13,0,.52.15.52.31,0,.45.59.13.59-.19-.12-1.39-.68-3-2.25-3.2A4.1,4.1,0,0,0,5.34,57.2a5.75,5.75,0,0,0,0,.83,6.19,6.19,0,0,0,2.7,4.7,6.48,6.48,0,0,0,3.63,1.18A3,3,0,0,0,12,61.91Z"/><path class="cls-6" d="M10.66,51.16h-.2a4.41,4.41,0,0,0-3,1.38A6.76,6.76,0,0,0,5.34,57.2a4.1,4.1,0,0,1,3.31-1.38c1.57.22,2.13,1.81,2.25,3.2,0,.32-.56.64-.59.19,0-.16-.39-.29-.52-.31a1.14,1.14,0,0,0-.74.16.74.74,0,0,0-.4.66,10.89,10.89,0,0,0,1.51.16,1.8,1.8,0,0,0,1.55-1.19,6.94,6.94,0,0,0-.39-1.62,4.63,4.63,0,0,0-1.23-1.82c-.74-.68-1.46-.32-2.3-.22-.23,0-.07-.4,0-.47,2.06-1.25,3.39.72,4,2.52a5.87,5.87,0,0,1-.13,4.15,2,2,0,0,1,.34.68,3,3,0,0,1-.34,2,3.78,3.78,0,0,0,2.1-.6,2.44,2.44,0,0,0,.75-.82A47.3,47.3,0,0,1,12.2,53a17.88,17.88,0,0,1-1-1.71A3.89,3.89,0,0,0,10.66,51.16Z"/><path class="cls-8" d="M10.66,51.16h-.2a4.41,4.41,0,0,0-3,1.38A6.76,6.76,0,0,0,5.34,57.2a4.1,4.1,0,0,1,3.31-1.38c1.57.22,2.13,1.81,2.25,3.2,0,.32-.56.64-.59.19,0-.16-.39-.29-.52-.31a1.14,1.14,0,0,0-.74.16.74.74,0,0,0-.4.66,10.89,10.89,0,0,0,1.51.16,1.8,1.8,0,0,0,1.55-1.19,6.94,6.94,0,0,0-.39-1.62,4.63,4.63,0,0,0-1.23-1.82c-.74-.68-1.46-.32-2.3-.22-.23,0-.07-.4,0-.47,2.06-1.25,3.39.72,4,2.52a5.87,5.87,0,0,1-.13,4.15,2,2,0,0,1,.34.68,3,3,0,0,1-.34,2,3.78,3.78,0,0,0,2.1-.6,2.44,2.44,0,0,0,.75-.82A47.3,47.3,0,0,1,12.2,53a17.88,17.88,0,0,1-1-1.71A3.89,3.89,0,0,0,10.66,51.16Z"/><path class="cls-6" d="M10.89,60.19a2.63,2.63,0,0,1-1.74.35,1.1,1.1,0,0,0,.77.25c.24,0,.48-.12.73-.13a1.26,1.26,0,0,1,.86.38,5.75,5.75,0,0,0,.23-1.92A2.1,2.1,0,0,1,10.89,60.19Z"/><path class="cls-8" d="M10.89,60.19a2.63,2.63,0,0,1-1.74.35,1.1,1.1,0,0,0,.77.25c.24,0,.48-.12.73-.13a1.26,1.26,0,0,1,.86.38,5.75,5.75,0,0,0,.23-1.92A2.1,2.1,0,0,1,10.89,60.19Z"/><path class="cls-7" d="M13.78,63.31a3.78,3.78,0,0,1-2.1.6l-.09.19a3.47,3.47,0,0,0,3-1.4l-.07-.21A2.44,2.44,0,0,1,13.78,63.31Z"/><path class="cls-8" d="M13.78,63.31a3.78,3.78,0,0,1-2.1.6l-.09.19a3.47,3.47,0,0,0,3-1.4l-.07-.21A2.44,2.44,0,0,1,13.78,63.31Z"/><path class="cls-7" d="M10.46,51.16h.2a3.89,3.89,0,0,1,.51.08,2,2,0,0,0-.11-.2,4.14,4.14,0,0,0-3.67,1.37,6.93,6.93,0,0,0-2.24,5l.19-.19a6.76,6.76,0,0,1,2.17-4.66A4.41,4.41,0,0,1,10.46,51.16Z"/><path class="cls-8" d="M10.46,51.16h.2a3.89,3.89,0,0,1,.51.08,2,2,0,0,0-.11-.2,4.14,4.14,0,0,0-3.67,1.37,6.93,6.93,0,0,0-2.24,5l.19-.19a6.76,6.76,0,0,1,2.17-4.66A4.41,4.41,0,0,1,10.46,51.16Z"/><path class="cls-14" d="M8.33,60.2a1.8,1.8,0,0,0,.82.34,2.63,2.63,0,0,0,1.74-.35,2.1,2.1,0,0,0,.85-1.07A5.75,5.75,0,0,1,11.51,61a6.34,6.34,0,0,1-.39,1c0,.05,0,.19.07.09a5.73,5.73,0,0,0,.49-.91,5.87,5.87,0,0,0,.13-4.15c-.6-1.8-1.93-3.77-4-2.52-.1.07-.26.5,0,.47.84-.1,1.56-.46,2.3.22a4.63,4.63,0,0,1,1.23,1.82,6.94,6.94,0,0,1,.39,1.62,1.8,1.8,0,0,1-1.55,1.19,10.89,10.89,0,0,1-1.51-.16l-.15,0C8.32,59.7,8.19,60.11,8.33,60.2Z"/><path class="cls-6" d="M75.33,53.74c-1.56.32-2,1.95-2,3.33,0,.32.6.61.61.16,0-.16.36-.31.49-.34a1.22,1.22,0,0,1,.75.11.74.74,0,0,1,.44.63l.15,0c.17,0,.33.39.2.49a1.87,1.87,0,0,1-.8.39,1.07,1.07,0,0,1-.75.29c-.25,0-.49-.09-.74-.08a1.21,1.21,0,0,0-.83.43,6.1,6.1,0,0,0,.45,1c0,.06,0,.19-.06.1a4.78,4.78,0,0,1-.55-.88,1.86,1.86,0,0,0-.3.7,3,3,0,0,0,.46,2,6.4,6.4,0,0,0,3.55-1.4,6.19,6.19,0,0,0,2.41-4.85,5.7,5.7,0,0,0,0-.83A4.09,4.09,0,0,0,75.33,53.74Z"/><path class="cls-6" d="M76.26,50.4a4.51,4.51,0,0,0-2.88-1.19,9,9,0,0,1-1.48.6,54.6,54.6,0,0,1-2.17,10.72,2.46,2.46,0,0,0,.94,1A3.78,3.78,0,0,0,72.8,62a3,3,0,0,1-.46-2,1.86,1.86,0,0,1,.3-.7,5.85,5.85,0,0,1-.39-4.14c.49-1.82,1.7-3.88,3.83-2.75.1.06.29.47.06.46-.84,0-1.59-.36-2.29.36a4.68,4.68,0,0,0-1.11,1.9,7.45,7.45,0,0,0-.29,1.64,1.84,1.84,0,0,0,1.62,1.09,9.61,9.61,0,0,0,1.5-.26.74.74,0,0,0-.44-.63,1.22,1.22,0,0,0-.75-.11c-.13,0-.5.18-.49.34,0,.45-.59.16-.61-.16,0-1.38.49-3,2-3.33a4.09,4.09,0,0,1,3.39,1.18A6.76,6.76,0,0,0,76.26,50.4Z"/><path class="cls-8" d="M76.26,50.4a4.51,4.51,0,0,0-2.88-1.19,9,9,0,0,1-1.48.6,54.6,54.6,0,0,1-2.17,10.72,2.46,2.46,0,0,0,.94,1A3.78,3.78,0,0,0,72.8,62a3,3,0,0,1-.46-2,1.86,1.86,0,0,1,.3-.7,5.85,5.85,0,0,1-.39-4.14c.49-1.82,1.7-3.88,3.83-2.75.1.06.29.47.06.46-.84,0-1.59-.36-2.29.36a4.68,4.68,0,0,0-1.11,1.9,7.45,7.45,0,0,0-.29,1.64,1.84,1.84,0,0,0,1.62,1.09,9.61,9.61,0,0,0,1.5-.26.74.74,0,0,0-.44-.63,1.22,1.22,0,0,0-.75-.11c-.13,0-.5.18-.49.34,0,.45-.59.16-.61-.16,0-1.38.49-3,2-3.33a4.09,4.09,0,0,1,3.39,1.18A6.76,6.76,0,0,0,76.26,50.4Z"/><path class="cls-6" d="M73.36,58.24a2.13,2.13,0,0,1-.92-1,5.76,5.76,0,0,0,.36,1.9,1.21,1.21,0,0,1,.83-.43c.25,0,.49.07.74.08a1.07,1.07,0,0,0,.75-.29A2.67,2.67,0,0,1,73.36,58.24Z"/><path class="cls-8" d="M73.36,58.24a2.13,2.13,0,0,1-.92-1,5.76,5.76,0,0,0,.36,1.9,1.21,1.21,0,0,1,.83-.43c.25,0,.49.07.74.08a1.07,1.07,0,0,0,.75-.29A2.67,2.67,0,0,1,73.36,58.24Z"/><path class="cls-7" d="M70.67,61.54a2.46,2.46,0,0,1-.94-1c0,.08,0,.16-.08.24a3.38,3.38,0,0,0,3.26,1.41s-.07-.12-.11-.18A3.78,3.78,0,0,1,70.67,61.54Z"/><path class="cls-8" d="M70.67,61.54a2.46,2.46,0,0,1-.94-1c0,.08,0,.16-.08.24a3.38,3.38,0,0,0,3.26,1.41s-.07-.12-.11-.18A3.78,3.78,0,0,1,70.67,61.54Z"/><path class="cls-7" d="M76.26,50.4a6.76,6.76,0,0,1,2.46,4.52l.2.18a7,7,0,0,0-2.54-4.84A4.83,4.83,0,0,0,73.69,49l-.31.17A4.51,4.51,0,0,1,76.26,50.4Z"/><path class="cls-8" d="M76.26,50.4a6.76,6.76,0,0,1,2.46,4.52l.2.18a7,7,0,0,0-2.54-4.84A4.83,4.83,0,0,0,73.69,49l-.31.17A4.51,4.51,0,0,1,76.26,50.4Z"/><path class="cls-14" d="M73.25,60.11a6.1,6.1,0,0,1-.45-1,5.76,5.76,0,0,1-.36-1.9,2.13,2.13,0,0,0,.92,1,2.67,2.67,0,0,0,1.76.25,1.87,1.87,0,0,0,.8-.39c.13-.1,0-.51-.2-.49l-.15,0a9.61,9.61,0,0,1-1.5.26,1.84,1.84,0,0,1-1.62-1.09,7.45,7.45,0,0,1,.29-1.64,4.68,4.68,0,0,1,1.11-1.9c.7-.72,1.45-.41,2.29-.36.23,0,0-.4-.06-.46-2.13-1.13-3.34.93-3.83,2.75a5.85,5.85,0,0,0,.39,4.14,4.78,4.78,0,0,0,.55.88C73.26,60.3,73.28,60.17,73.25,60.11Z"/><path class="cls-6" d="M40.65,57.76l-.1.19.08-.13Z"/><path class="cls-6" d="M68.84,37a6.12,6.12,0,0,1-3.35.83c1.18-1.5,1.34-3.34-1.34-4.18s-5-1.68-5-1.68l1.51,1.51c-3,.17-9.38-1.34-9.72-4.52-1.17,2.85-7,5.19-7,5.19s.67-.84.67-4.35c-1.17,2.34-5,4.52-5,4.52a18.71,18.71,0,0,0,.67-3.85c-2.49,3.3-9.37,5.3-9.54,5.35.12,0,.94-.37,2.33-3-5.19,2.51-14.63,2.1-14.63,2.1a9.19,9.19,0,0,0,4.34,1.45c-4.17,4.77-7.41,5-10.31,3.32q-.6,1.8-1.17,3.21a47.83,47.83,0,0,0,1.37,10,47.2,47.2,0,0,0,5.06,15.72c3.86,7.09,11.44,15.46,25.61,15,13.14-.47,20.07-9.26,23.61-16.77C74.69,48.39,68.84,37,68.84,37Zm-20,5.56c1.74-3.78,4-5.79,6.42-5.67C57.57,37,59.68,39,60.69,42a.16.16,0,0,1-.08.19.15.15,0,0,1-.16,0c.1.24.2.48.28.73-6.07-8.06-11.49.58-11.49.58a16.16,16.16,0,0,1,1.45-2.59,11.05,11.05,0,0,0-1.51,1.82.17.17,0,0,1-.14.07.13.13,0,0,1-.08,0A.17.17,0,0,1,48.89,42.54Zm-8,15.78c1.43-2.09-1.13-6.27-1.13-6.27C44,57.29,40.53,59.18,40.92,58.32ZM38,58.7C41,58,40.33,54,40.33,54a5.94,5.94,0,0,1,.54,3,1.56,1.56,0,0,1-.07.91,1.67,1.67,0,0,1-.37.58,2.26,2.26,0,0,1-.28.25l-.34.21-.37.15-.39.12c-.08,0-.28.07-.32.13a.32.32,0,0,0-.14.22.83.83,0,0,0,0,.46c3.08,2.23,4.53-1.29,5.09-.22s-.82,2.85-3.23,2.57C36.22,61.46,36.18,59.28,38,58.7Zm1.8.94c-.27.19-.55.25-.64.13s.06-.38.33-.56.55-.25.63-.13S40.08,59.45,39.82,59.64ZM25.16,37.91c2.39-.09,4.6,2.21,5.52,4.51a.16.16,0,0,1-.25.18l-.18-.15a7.53,7.53,0,0,1,.52,1.07c-6.82-6.09-10.26.9-10.26.9a12.75,12.75,0,0,1,1.19-2.68,7.5,7.5,0,0,0-1.29,1.71.14.14,0,0,1-.14.09h-.06a.18.18,0,0,1-.09-.2C21.57,38.94,23.66,38,25.16,37.91ZM27.43,58.3a12.61,12.61,0,0,0-2.49-1.93c2.6,2.34,3.34,5.42,1.68,8.54s-4.19,2.65-6.46.8c-4-3.27-5.41-7.22-4-9.38a4.62,4.62,0,0,1,3.68-2.18,5,5,0,0,1,2.08-1,17.27,17.27,0,0,1-.26-3,15.52,15.52,0,0,1,.74-4.23c.83-2.08,2.93-3.77,5.33-3,2.14.71,3.57,4.25,3.76,6.31.63,7-4.24,7.76-4.24,7.76Zm9.83,17.34h0c1.53.89,3.14.35,4.77.45a7.14,7.14,0,0,1-.86.68,4.87,4.87,0,0,1-2.5.19l-.34-.09A2,2,0,0,1,37.26,75.64Zm3.65,3.52a9.3,9.3,0,0,1-1.3-.38,5.38,5.38,0,0,1-1.18-1.37l0,0,.31.08a3.08,3.08,0,0,1-.24-.27,7.51,7.51,0,0,0,2.52.25,20.18,20.18,0,0,0,2.34-.08l-.08.06c.34-.08.68-.16,1-.26-.29.48-.61.93-.94,1.38A3.21,3.21,0,0,1,40.91,79.16Zm13.7-7.64a5.07,5.07,0,0,1-.33-1,6.35,6.35,0,0,0-.41-1l-.08-.17c0-.09,0-.18-.08-.27l0,0c-.25-.5-.58-1.06-1.18-.78A3.89,3.89,0,0,0,51,70l-.18.32-.42.71c-.43.71-.84,1.42-1.29,2.11A4.37,4.37,0,0,1,46.88,75a23.9,23.9,0,0,1-4.55.57c-1.34.1-3.19.51-4.49,0-1.47-.55-2.11-1.95-3.05-3.11-.28-.35-.58-.68-.89-1-.1-.13-.19-.26-.29-.38a7.43,7.43,0,0,0-1.34-1.25l-.14-.11c-.54-.38-1.11-.73-1.7-1.11,0-.1.08-.19.12-.29a2.06,2.06,0,0,1,.43-.83l.09-.05s.06-.1.1-.15l.21-.08a4.79,4.79,0,0,1,.57-.21.35.35,0,0,1-.05.08l.05,0-.07,0a.75.75,0,0,1-.07.12c-.08.15,0,.42.16.47a1.81,1.81,0,0,1,.23,0,.51.51,0,0,1-.28-.54h0a9,9,0,0,0,3.64.7h.63c1.92.06,3.84,0,5.77-.12,1.7-.08,3.41-.14,5.11-.3,1.36-.12,2.66-.47,4-.68l-.32-.15.18,0c.09,0-2-.5-3.06-.74a1,1,0,0,1,.32-.22c1.76-.12,4.16-.37,5.44,1.07a5.67,5.67,0,0,1,1.27,2.79A6.8,6.8,0,0,1,54.61,71.52Zm6.82-4.94c-3,1.32-6,1.06-6.81-2.88-.94-4.42,1.42-7.83,5.91-9.4a9.24,9.24,0,0,1,2.13-.49,13.11,13.11,0,0,0-8.2,3.6l.17-1.36s-5.36-.89-4.57-8.23c.23-2.17,1.65-5,4-5.76,2.65-.8,5,1,5.84,3.21a12.75,12.75,0,0,1,.92,4,13.88,13.88,0,0,1-.28,2.85,5.5,5.5,0,0,1,2.95,1.67,5.25,5.25,0,0,1,5.19,3.82C69.59,60.39,66.78,64.25,61.43,66.58Z"/><path class="cls-6" d="M60.56,52.09a13.88,13.88,0,0,0,.28-2.85,12.75,12.75,0,0,0-.92-4c-.89-2.21-3.19-4-5.84-3.21-2.37.73-3.79,3.59-4,5.76-.79,7.34,4.57,8.23,4.57,8.23l-.17,1.36a13.11,13.11,0,0,1,8.2-3.6,5,5,0,0,1,.85-.05A5.5,5.5,0,0,0,60.56,52.09Zm1.85,1.42c-.24,0-.57.06-1,.09-.2,0-.41.08-.64.12a3.89,3.89,0,0,0-.71.18l-.74.22a6.81,6.81,0,0,0-.74.31c-.25.11-.5.2-.74.32l-.67.39-.64.35a6.08,6.08,0,0,0-.53.39c-.66.48-1.12.79-1.12.79s.37-.4,1-1c.16-.13.31-.3.5-.44l.18-.12-.07,0a4.22,4.22,0,0,1-2.82-.52,4.78,4.78,0,0,1-1.07-.81c-.14-.16-.26-.32-.39-.49l-.3-.53a8.24,8.24,0,0,1-.7-2c-.06-.32-.09-.62-.12-.9s0-.53,0-.76,0-.47,0-.66a1.5,1.5,0,0,1,0-.22c0-.06,0-.14,0-.19,0-.24,0-.37,0-.37l.08-.37c.06-.21.12-.52.22-.89,0,0,0,0,0-.06h0l0-.09a2.6,2.6,0,0,1,.1-.25l.05-.14a7.18,7.18,0,0,1,.37-.73l0,0a3.79,3.79,0,0,1,.2-.34,5.18,5.18,0,0,1,1.55-1.5,3.29,3.29,0,0,1,2.49-.45,4.44,4.44,0,0,1,2.39,1.58A7,7,0,0,1,60,47.22a9.74,9.74,0,0,1,.17,3.19,6.2,6.2,0,0,1-1.12,3,3.78,3.78,0,0,1-.59.67h0c.27-.1.51-.24.78-.31l.78-.2a3.26,3.26,0,0,1,.74-.12c.24,0,.47-.06.67-.06a6.64,6.64,0,0,1,1,.06,1.47,1.47,0,0,1,.37.07Z"/><path class="cls-15" d="M60.56,52.09a13.88,13.88,0,0,0,.28-2.85,12.75,12.75,0,0,0-.92-4c-.89-2.21-3.19-4-5.84-3.21-2.37.73-3.79,3.59-4,5.76-.79,7.34,4.57,8.23,4.57,8.23l-.17,1.36a13.11,13.11,0,0,1,8.2-3.6,5,5,0,0,1,.85-.05A5.5,5.5,0,0,0,60.56,52.09Zm1.85,1.42c-.24,0-.57.06-1,.09-.2,0-.41.08-.64.12a3.89,3.89,0,0,0-.71.18l-.74.22a6.81,6.81,0,0,0-.74.31c-.25.11-.5.2-.74.32l-.67.39-.64.35a6.08,6.08,0,0,0-.53.39c-.66.48-1.12.79-1.12.79s.37-.4,1-1c.16-.13.31-.3.5-.44l.18-.12-.07,0a4.22,4.22,0,0,1-2.82-.52,4.78,4.78,0,0,1-1.07-.81c-.14-.16-.26-.32-.39-.49l-.3-.53a8.24,8.24,0,0,1-.7-2c-.06-.32-.09-.62-.12-.9s0-.53,0-.76,0-.47,0-.66a1.5,1.5,0,0,1,0-.22c0-.06,0-.14,0-.19,0-.24,0-.37,0-.37l.08-.37c.06-.21.12-.52.22-.89,0,0,0,0,0-.06h0l0-.09a2.6,2.6,0,0,1,.1-.25l.05-.14a7.18,7.18,0,0,1,.37-.73l0,0a3.79,3.79,0,0,1,.2-.34,5.18,5.18,0,0,1,1.55-1.5,3.29,3.29,0,0,1,2.49-.45,4.44,4.44,0,0,1,2.39,1.58A7,7,0,0,1,60,47.22a9.74,9.74,0,0,1,.17,3.19,6.2,6.2,0,0,1-1.12,3,3.78,3.78,0,0,1-.59.67h0c.27-.1.51-.24.78-.31l.78-.2a3.26,3.26,0,0,1,.74-.12c.24,0,.47-.06.67-.06a6.64,6.64,0,0,1,1,.06,1.47,1.47,0,0,1,.37.07Z"/><path class="cls-7" d="M61.41,53.38c-.2,0-.43,0-.67.06a3.26,3.26,0,0,0-.74.12l-.78.2c-.27.07-.51.21-.78.31h0a5.7,5.7,0,0,1-.52.46,6,6,0,0,1-.69.39c-.23.07-.42.17-.66.22l-.18.12c-.19.14-.34.31-.5.44-.61.57-1,1-1,1s.46-.31,1.12-.79a6.08,6.08,0,0,1,.53-.39l.64-.35.67-.39c.24-.12.49-.21.74-.32a6.81,6.81,0,0,1,.74-.31l.74-.22a3.89,3.89,0,0,1,.71-.18c.23,0,.44-.1.64-.12.41,0,.74-.1,1-.09h.38a1.47,1.47,0,0,0-.37-.07A6.64,6.64,0,0,0,61.41,53.38Z"/><polygon class="cls-16" points="51.49 46.35 51.49 46.35 51.49 46.35 51.49 46.35"/><path class="cls-16" d="M51.62,46a1.21,1.21,0,0,1,.05-.14Z"/><path class="cls-16" d="M51.37,47.18a7.41,7.41,0,0,0,1,5.2,3.68,3.68,0,0,0,1.28,1.11,5.65,5.65,0,0,1-1.39-4.55c.16-2.68,1.65-4.6,3.36-4.38s3.18,2.86,3.1,5.55a4.6,4.6,0,0,1-1.43,3.36,4.93,4.93,0,0,0,2-3.06A7.72,7.72,0,0,0,57.9,44a3.78,3.78,0,0,0-1.65-1,3.19,3.19,0,0,0-2.4.35,5,5,0,0,0-1.56,1.45,7,7,0,0,0-.58,1.05s0,.09-.05.13A8.07,8.07,0,0,0,51.37,47.18Z"/><path class="cls-16" d="M52,45.14l0,0Z"/><path class="cls-17" d="M51.26,47.3l-.08.37a8.89,8.89,0,0,1,.3-1.26C51.38,46.78,51.32,47.09,51.26,47.3Z"/><path class="cls-17" d="M51.13,48c0,.05,0,.13,0,.19,0-.19,0-.38.07-.56C51.18,47.67,51.16,47.8,51.13,48Z"/><path class="cls-17" d="M57.91,54.53a5.7,5.7,0,0,0,.52-.46A3.78,3.78,0,0,0,59,53.4a6.2,6.2,0,0,0,1.12-3A9.74,9.74,0,0,0,60,47.22a7,7,0,0,0-1.28-2.81,4.44,4.44,0,0,0-2.39-1.58,3.29,3.29,0,0,0-2.49.45,5.18,5.18,0,0,0-1.55,1.5,3.79,3.79,0,0,0-.2.34l0,0a7.18,7.18,0,0,0-.37.73,1.21,1.21,0,0,0-.05.14,2.6,2.6,0,0,0-.1.25l0,.09h0a5.42,5.42,0,0,1,.35-.83c-.05.11-.09.22-.13.33a7,7,0,0,1,.58-1.05,5,5,0,0,1,1.56-1.45,3.19,3.19,0,0,1,2.4-.35,3.78,3.78,0,0,1,1.65,1A4.13,4.13,0,0,0,56.67,43l.25.1c2.76,1.3,3.5,5.26,2.91,8A5.05,5.05,0,0,1,56.61,55a4.35,4.35,0,0,1-4.35-1.67,7.82,7.82,0,0,1-1.17-4.88c0,.19,0,.41,0,.66s0,.49,0,.76.06.58.12.9a8.24,8.24,0,0,0,.7,2l.3.53c.13.17.25.33.39.49a4.78,4.78,0,0,0,1.07.81,4.22,4.22,0,0,0,2.82.52l.07,0c.24,0,.43-.15.66-.22A6,6,0,0,0,57.91,54.53Z"/><path class="cls-16" d="M51.49,46.35s0,0,0,.06,0,0,0-.06Z"/><path class="cls-18" d="M51.49,46.35s0,0,0,.06,0,0,0-.06Z"/><path class="cls-16" d="M51.08,49.11c0,.23,0,.48,0,.76s.07.58.13.89a7.58,7.58,0,0,0,.73,2,3.88,3.88,0,0,0,1.77,1.72,4,4,0,0,0,2.68.41,4.19,4.19,0,0,0,2.31-1.7,5.8,5.8,0,0,0,1-2.84,9.51,9.51,0,0,0-.13-3.06,7.06,7.06,0,0,0-1.16-2.72A4.91,4.91,0,0,0,57.9,44a7.72,7.72,0,0,1,1.41,6.46,4.93,4.93,0,0,1-2,3.06,2.75,2.75,0,0,1-2.31.7,2.78,2.78,0,0,1-1.33-.68,3.68,3.68,0,0,1-1.28-1.11,7.41,7.41,0,0,1-1-5.2,8.07,8.07,0,0,1,.29-1.2s0-.09.05-.13c-.06.14-.13.29-.18.42-.13.44-.2.79-.26,1l-.09.37s0,.13,0,.37A9.42,9.42,0,0,0,51.08,49.11Z"/><path class="cls-18" d="M51.08,49.11c0,.23,0,.48,0,.76s.07.58.13.89a7.58,7.58,0,0,0,.73,2,3.88,3.88,0,0,0,1.77,1.72,4,4,0,0,0,2.68.41,4.19,4.19,0,0,0,2.31-1.7,5.8,5.8,0,0,0,1-2.84,9.51,9.51,0,0,0-.13-3.06,7.06,7.06,0,0,0-1.16-2.72A4.91,4.91,0,0,0,57.9,44a7.72,7.72,0,0,1,1.41,6.46,4.93,4.93,0,0,1-2,3.06,2.75,2.75,0,0,1-2.31.7,2.78,2.78,0,0,1-1.33-.68,3.68,3.68,0,0,1-1.28-1.11,7.41,7.41,0,0,1-1-5.2,8.07,8.07,0,0,1,.29-1.2s0-.09.05-.13c-.06.14-.13.29-.18.42-.13.44-.2.79-.26,1l-.09.37s0,.13,0,.37A9.42,9.42,0,0,0,51.08,49.11Z"/><path class="cls-16" d="M51.09,48.45a1.38,1.38,0,0,1,0-.22A1.5,1.5,0,0,0,51.09,48.45Z"/><path class="cls-18" d="M51.09,48.45a1.38,1.38,0,0,1,0-.22A1.5,1.5,0,0,0,51.09,48.45Z"/><path class="cls-17" d="M51.53,46.27c0-.13.12-.28.18-.42s.08-.22.13-.33a5.42,5.42,0,0,0-.35.83s0,0,0,.06a8.89,8.89,0,0,0-.3,1.26l.09-.37C51.33,47.06,51.4,46.71,51.53,46.27Z"/><path class="cls-18" d="M51.53,46.27c0-.13.12-.28.18-.42s.08-.22.13-.33a5.42,5.42,0,0,0-.35.83s0,0,0,.06a8.89,8.89,0,0,0-.3,1.26l.09-.37C51.33,47.06,51.4,46.71,51.53,46.27Z"/><path class="cls-17" d="M52.26,53.33A4.35,4.35,0,0,0,56.61,55a5.05,5.05,0,0,0,3.22-3.82c.59-2.79-.15-6.75-2.91-8l-.25-.1A4.13,4.13,0,0,1,57.9,44a4.91,4.91,0,0,1,.57.63,7.06,7.06,0,0,1,1.16,2.72,9.51,9.51,0,0,1,.13,3.06,5.8,5.8,0,0,1-1,2.84,4.19,4.19,0,0,1-2.31,1.7,4,4,0,0,1-2.68-.41A3.88,3.88,0,0,1,52,52.77a7.58,7.58,0,0,1-.73-2c-.06-.31-.1-.61-.13-.89s0-.53,0-.76A9.42,9.42,0,0,1,51.13,48c0-.24,0-.37,0-.37,0,.18,0,.37-.07.56a1.38,1.38,0,0,0,0,.22A7.82,7.82,0,0,0,52.26,53.33Z"/><path class="cls-18" d="M52.26,53.33A4.35,4.35,0,0,0,56.61,55a5.05,5.05,0,0,0,3.22-3.82c.59-2.79-.15-6.75-2.91-8l-.25-.1A4.13,4.13,0,0,1,57.9,44a4.91,4.91,0,0,1,.57.63,7.06,7.06,0,0,1,1.16,2.72,9.51,9.51,0,0,1,.13,3.06,5.8,5.8,0,0,1-1,2.84,4.19,4.19,0,0,1-2.31,1.7,4,4,0,0,1-2.68-.41A3.88,3.88,0,0,1,52,52.77a7.58,7.58,0,0,1-.73-2c-.06-.31-.1-.61-.13-.89s0-.53,0-.76A9.42,9.42,0,0,1,51.13,48c0-.24,0-.37,0-.37,0,.18,0,.37-.07.56a1.38,1.38,0,0,0,0,.22A7.82,7.82,0,0,0,52.26,53.33Z"/><path class="cls-19" d="M54.64,52.82a2,2,0,0,1-.3-.2c.13,0,.14-.09-.1-.25a2,2,0,0,1-.43-.37,3.66,3.66,0,0,1-.44-1.09,5.58,5.58,0,0,1,.51-3.68c.29-.62.25-1.1-.44-.45a4.9,4.9,0,0,0-.92,3.2,5.38,5.38,0,0,0,.66,2.17A1.65,1.65,0,0,0,54.64,52.82Z"/><path class="cls-19" d="M52.26,48.94a5.65,5.65,0,0,0,1.39,4.55,2.78,2.78,0,0,0,1.33.68C53.08,53.82,52.1,51.62,52.26,48.94Z"/><path class="cls-20" d="M52.52,50a5.14,5.14,0,0,0,.24,1.41,2.12,2.12,0,0,0,.42.76A5.38,5.38,0,0,1,52.52,50Z"/><path class="cls-21" d="M58.72,50.11c.08-2.69-1.41-5.34-3.1-5.55s-3.2,1.7-3.36,4.38.82,4.88,2.72,5.23a2.75,2.75,0,0,0,2.31-.7A4.6,4.6,0,0,0,58.72,50.11Zm-1.34.06c-.07,1.36-1,2.24-2,2s-1.62-1.36-1.52-2.71a2.34,2.34,0,0,1,1.12-2c0,.12.06.25.1.38.42,1.21,1.47,2.09,2.3,2A1.31,1.31,0,0,1,57.38,50.17ZM56.2,45.6c.6-.22,1.37.6,1.73,1.54s.21,1.93-.4,2.1-1.48-.53-1.83-1.51S55.6,45.81,56.2,45.6ZM52.52,50a4.9,4.9,0,0,1,.92-3.2c.69-.65.73-.17.44.45a5.58,5.58,0,0,0-.51,3.68A3.66,3.66,0,0,0,53.81,52a2,2,0,0,0,.43.37c.24.16.23.25.1.25a2,2,0,0,0,.3.2,1.65,1.65,0,0,1-1.46-.67,2.12,2.12,0,0,1-.42-.76A5.14,5.14,0,0,1,52.52,50Z"/><path class="cls-22" d="M55.07,47.89c0-.13-.07-.26-.1-.38a2.34,2.34,0,0,0-1.12,2c-.1,1.35.51,2.52,1.52,2.71s1.94-.68,2-2a1.31,1.31,0,0,0,0-.28C56.54,50,55.49,49.1,55.07,47.89Z"/><path class="cls-23" d="M57.53,49.24c.61-.17.77-1.16.4-2.1S56.8,45.38,56.2,45.6s-.85,1.15-.5,2.13S56.91,49.42,57.53,49.24Z"/><path class="cls-6" d="M63.51,53.76l.05,0a8.89,8.89,0,0,0-.9,0,9.24,9.24,0,0,0-2.13.49c-4.49,1.57-6.85,5-5.91,9.4.85,3.94,3.76,4.2,6.81,2.88,5.35-2.33,8.16-6.19,7.27-9A5.25,5.25,0,0,0,63.51,53.76ZM63,56.67c-.83.09-1.56-.16-1.68-.54s.48-.74,1.3-.82,1.57.14,1.68.53S63.77,56.59,63,56.67Zm2.53.14c-.3-.06-.51-.25-.47-.43s.32-.3.62-.25.5.25.45.44S65.78,56.86,65.48,56.81Z"/><path class="cls-24" d="M63.51,53.76l.05,0a8.89,8.89,0,0,0-.9,0,9.24,9.24,0,0,0-2.13.49c-4.49,1.57-6.85,5-5.91,9.4.85,3.94,3.76,4.2,6.81,2.88,5.35-2.33,8.16-6.19,7.27-9A5.25,5.25,0,0,0,63.51,53.76ZM63,56.67c-.83.09-1.56-.16-1.68-.54s.48-.74,1.3-.82,1.57.14,1.68.53S63.77,56.59,63,56.67Zm2.53.14c-.3-.06-.51-.25-.47-.43s.32-.3.62-.25.5.25.45.44S65.78,56.86,65.48,56.81Z"/><path class="cls-6" d="M63.56,53.8l-.05,0a5,5,0,0,0-.85.05A8.89,8.89,0,0,1,63.56,53.8Z"/><path class="cls-15" d="M63.56,53.8l-.05,0a5,5,0,0,0-.85.05A8.89,8.89,0,0,1,63.56,53.8Z"/><path class="cls-24" d="M63.56,53.8l-.05,0a5,5,0,0,0-.85.05A8.89,8.89,0,0,1,63.56,53.8Z"/><path class="cls-23" d="M62.57,55.31c-.82.08-1.4.46-1.3.82s.85.63,1.68.54,1.4-.46,1.3-.83S63.39,55.22,62.57,55.31Z"/><path class="cls-23" d="M65.63,56.13c-.3-.05-.57.06-.62.25s.17.37.47.43.56-.06.6-.24S65.92,56.18,65.63,56.13Z"/><path class="cls-6" d="M55.09,38.76H54.9a6.7,6.7,0,0,0-4.21,2.12,16.16,16.16,0,0,0-1.45,2.59s5.42-8.64,11.49-.58c-.08-.25-.18-.49-.28-.73l-.05,0C58.72,39.89,56.93,38.76,55.09,38.76Z"/><path class="cls-8" d="M55.09,38.76H54.9a6.7,6.7,0,0,0-4.21,2.12,16.16,16.16,0,0,0-1.45,2.59s5.42-8.64,11.49-.58c-.08-.25-.18-.49-.28-.73l-.05,0C58.72,39.89,56.93,38.76,55.09,38.76Z"/><path class="cls-25" d="M54.88,38.44c1.77-.08,3.5.82,5.12,2.68-1-2.32-2.83-3.82-4.71-3.92H55.1c-1.85,0-3.63,1.38-5.12,4A7.42,7.42,0,0,1,54.88,38.44Z"/><path class="cls-26" d="M49,42.77a.17.17,0,0,0,.14-.07,11.05,11.05,0,0,1,1.51-1.82,6.7,6.7,0,0,1,4.21-2.12h.19c1.84,0,3.63,1.13,5.31,3.37l.05,0a.15.15,0,0,0,.16,0,.16.16,0,0,0,.08-.19c-1-3-3.12-5-5.38-5.11-2.41-.12-4.68,1.89-6.42,5.67a.17.17,0,0,0,.07.21A.13.13,0,0,0,49,42.77Zm6.06-5.58h.19c1.88.1,3.66,1.6,4.71,3.92-1.62-1.86-3.35-2.76-5.12-2.68a7.42,7.42,0,0,0-4.9,2.7C51.47,38.57,53.25,37.19,55.1,37.19Z"/><path class="cls-6" d="M31.52,49.25c-.19-2.06-1.62-5.6-3.76-6.31-2.4-.8-4.5.89-5.33,3a15.52,15.52,0,0,0-.74,4.23,17.27,17.27,0,0,0,.26,3,5,5,0,0,0-2.08,1,5.28,5.28,0,0,1,2.07.34,1.93,1.93,0,0,1,.52.11l.71.2a6.32,6.32,0,0,1,.6.25,4.89,4.89,0,0,1-.65-.78,6.58,6.58,0,0,1-1-3,10.13,10.13,0,0,1,.2-3.21,7.29,7.29,0,0,1,1.25-2.84,4.34,4.34,0,0,1,2.36-1.63,3.05,3.05,0,0,1,2.48.49,5.32,5.32,0,0,1,1.49,1.56,6.94,6.94,0,0,1,.56,1.13l0,.08c0,.1.08.21.11.31.21.9.31,1.42.31,1.42s0,.13,0,.38a2,2,0,0,1,0,.26c0,.05,0,.09,0,.14s0,.41,0,.68a10,10,0,0,1-.16,1.66,8.55,8.55,0,0,1-.68,2.06c-.09.18-.19.36-.29.54s-.25.33-.38.51l-.49.46-.56.38a4,4,0,0,1-2.82.51h-.05l.18.13c.17.14.31.3.45.43.54.53.87.91.87.91s-.42-.29-1-.76c-.15-.11-.3-.25-.48-.37s-.38-.21-.57-.34l-.6-.38a6.54,6.54,0,0,0-.6-.28l.1.07a9.9,9.9,0,0,1,1.05.84,12.61,12.61,0,0,1,2.49,1.93L27.28,57S32.15,56.22,31.52,49.25Z"/><path class="cls-15" d="M31.52,49.25c-.19-2.06-1.62-5.6-3.76-6.31-2.4-.8-4.5.89-5.33,3a15.52,15.52,0,0,0-.74,4.23,17.27,17.27,0,0,0,.26,3,5,5,0,0,0-2.08,1,5.28,5.28,0,0,1,2.07.34,1.93,1.93,0,0,1,.52.11l.71.2a6.32,6.32,0,0,1,.6.25,4.89,4.89,0,0,1-.65-.78,6.58,6.58,0,0,1-1-3,10.13,10.13,0,0,1,.2-3.21,7.29,7.29,0,0,1,1.25-2.84,4.34,4.34,0,0,1,2.36-1.63,3.05,3.05,0,0,1,2.48.49,5.32,5.32,0,0,1,1.49,1.56,6.94,6.94,0,0,1,.56,1.13l0,.08c0,.1.08.21.11.31.21.9.31,1.42.31,1.42s0,.13,0,.38a2,2,0,0,1,0,.26c0,.05,0,.09,0,.14s0,.41,0,.68a10,10,0,0,1-.16,1.66,8.55,8.55,0,0,1-.68,2.06c-.09.18-.19.36-.29.54s-.25.33-.38.51l-.49.46-.56.38a4,4,0,0,1-2.82.51h-.05l.18.13c.17.14.31.3.45.43.54.53.87.91.87.91s-.42-.29-1-.76c-.15-.11-.3-.25-.48-.37s-.38-.21-.57-.34l-.6-.38a6.54,6.54,0,0,0-.6-.28l.1.07a9.9,9.9,0,0,1,1.05.84,12.61,12.61,0,0,1,2.49,1.93L27.28,57S32.15,56.22,31.52,49.25Z"/><path class="cls-6" d="M30.87,48.55s0-.12-.08-.35C30.81,48.32,30.85,48.43,30.87,48.55Z"/><path class="cls-15" d="M30.87,48.55s0-.12-.08-.35C30.81,48.32,30.85,48.43,30.87,48.55Z"/><path class="cls-7" d="M24.39,55.74l.6.38c.19.13.39.24.57.34s.33.26.48.37c.58.47,1,.76,1,.76s-.33-.38-.87-.91c-.14-.13-.28-.29-.45-.43l-.18-.13a5.84,5.84,0,0,1-.67-.25,6.92,6.92,0,0,1-.68-.42c-.14-.12-.28-.26-.42-.4a6.32,6.32,0,0,0-.6-.25l-.71-.2a1.93,1.93,0,0,0-.52-.11,8.07,8.07,0,0,1,1.85,1A6.54,6.54,0,0,1,24.39,55.74Z"/><path class="cls-16" d="M30.42,46.74l0,.08Z"/><path class="cls-16" d="M22.9,51.25a4.7,4.7,0,0,0,2.84,3.62l.34.07c-1.72-.5-2.62-2.6-2.46-5.15s1.64-4.6,3.35-4.38,3.19,2.86,3.1,5.55a4.64,4.64,0,0,1-1.33,3.28,3.36,3.36,0,0,0,.91-.89,7.78,7.78,0,0,0,1-5.3,9.94,9.94,0,0,0-.26-1.23,1.12,1.12,0,0,1-.05-.13,6.18,6.18,0,0,0-.54-1,4.9,4.9,0,0,0-1.5-1.51,3,3,0,0,0-2.39-.41,3.84,3.84,0,0,0-1.59,1C22.88,46.3,22.49,49.13,22.9,51.25Z"/><path class="cls-17" d="M30.91,48.93c0-.25,0-.38,0-.38,0,.21.05.43.06.64A2,2,0,0,0,30.91,48.93Z"/><path class="cls-17" d="M24.87,55.87a5.84,5.84,0,0,0,.67.25h.05a4,4,0,0,0,2.82-.51l.56-.38.49-.46c.13-.18.27-.33.38-.51s.2-.36.29-.54a8.55,8.55,0,0,0,.68-2.06A10,10,0,0,0,31,50c0-.27,0-.49,0-.68a8.36,8.36,0,0,1-1.2,5A4.15,4.15,0,0,1,25.48,56,5.08,5.08,0,0,1,22.39,52c-.56-2.85.22-6.89,2.92-8.18l.25-.1a4.18,4.18,0,0,0-1.21.92,3.84,3.84,0,0,1,1.59-1,3,3,0,0,1,2.39.41,4.9,4.9,0,0,1,1.5,1.51,6.18,6.18,0,0,1,.54,1l-.12-.34a6.92,6.92,0,0,1,.33.86c.09.32.15.65.21,1s.08.35.08.35-.1-.52-.31-1.42c0-.1-.08-.21-.11-.31l0-.08a6.94,6.94,0,0,0-.56-1.13,5.32,5.32,0,0,0-1.49-1.56,3.05,3.05,0,0,0-2.48-.49,4.34,4.34,0,0,0-2.36,1.63A7.29,7.29,0,0,0,22.28,48a10.13,10.13,0,0,0-.2,3.21,6.58,6.58,0,0,0,1,3,4.89,4.89,0,0,0,.65.78c.14.14.28.28.42.4A6.92,6.92,0,0,0,24.87,55.87Z"/><path class="cls-16" d="M30.93,49.19c0,.05,0,.09,0,.14S30.94,49.24,30.93,49.19Z"/><path class="cls-18" d="M30.93,49.19c0,.05,0,.09,0,.14S30.94,49.24,30.93,49.19Z"/><path class="cls-16" d="M30.54,47.13c0-.13-.11-.29-.17-.44a1.12,1.12,0,0,0,.05.13,9.94,9.94,0,0,1,.26,1.23,7.78,7.78,0,0,1-1,5.3,3.36,3.36,0,0,1-.91.89,2.75,2.75,0,0,1-2.4.78l-.26-.08-.34-.07a4.7,4.7,0,0,1-2.84-3.62c-.41-2.12,0-5,1.45-6.58a4.87,4.87,0,0,0-.6.68,8.93,8.93,0,0,0-1.29,5.84,6.16,6.16,0,0,0,.95,2.89,4.09,4.09,0,0,0,2.25,1.79,3.77,3.77,0,0,0,2.66-.4c.2-.11.38-.24.56-.35l.48-.42c.13-.17.28-.32.39-.49l.31-.52a8,8,0,0,0,.71-2,9.42,9.42,0,0,0,.14-2.73c0-.25,0-.38,0-.38s-.06-.23-.08-.35S30.66,47.6,30.54,47.13Z"/><path class="cls-18" d="M30.54,47.13c0-.13-.11-.29-.17-.44a1.12,1.12,0,0,0,.05.13,9.94,9.94,0,0,1,.26,1.23,7.78,7.78,0,0,1-1,5.3,3.36,3.36,0,0,1-.91.89,2.75,2.75,0,0,1-2.4.78l-.26-.08-.34-.07a4.7,4.7,0,0,1-2.84-3.62c-.41-2.12,0-5,1.45-6.58a4.87,4.87,0,0,0-.6.68,8.93,8.93,0,0,0-1.29,5.84,6.16,6.16,0,0,0,.95,2.89,4.09,4.09,0,0,0,2.25,1.79,3.77,3.77,0,0,0,2.66-.4c.2-.11.38-.24.56-.35l.48-.42c.13-.17.28-.32.39-.49l.31-.52a8,8,0,0,0,.71-2,9.42,9.42,0,0,0,.14-2.73c0-.25,0-.38,0-.38s-.06-.23-.08-.35S30.66,47.6,30.54,47.13Z"/><path class="cls-17" d="M30.79,48.2c-.06-.34-.12-.67-.21-1a6.92,6.92,0,0,0-.33-.86l.12.34c.06.15.13.31.17.44C30.66,47.6,30.74,48,30.79,48.2Z"/><path class="cls-18" d="M30.79,48.2c-.06-.34-.12-.67-.21-1a6.92,6.92,0,0,0-.33-.86l.12.34c.06.15.13.31.17.44C30.66,47.6,30.74,48,30.79,48.2Z"/><path class="cls-17" d="M31,50a10.05,10.05,0,0,1-.18,1.65,8,8,0,0,1-.71,2l-.31.52c-.11.17-.26.32-.39.49l-.48.42c-.18.11-.36.24-.56.35a3.77,3.77,0,0,1-2.66.4,4.09,4.09,0,0,1-2.25-1.79,6.16,6.16,0,0,1-.95-2.89,8.93,8.93,0,0,1,1.29-5.84,4.87,4.87,0,0,1,.6-.68,4.18,4.18,0,0,1,1.21-.92l-.25.1c-2.7,1.29-3.48,5.33-2.92,8.18A5.08,5.08,0,0,0,25.48,56a4.15,4.15,0,0,0,4.27-1.65,8.36,8.36,0,0,0,1.2-5s0-.09,0-.14c0-.21,0-.43-.06-.64,0,0,0,.13,0,.38A10,10,0,0,1,31,50Z"/><path class="cls-18" d="M31,50a10.05,10.05,0,0,1-.18,1.65,8,8,0,0,1-.71,2l-.31.52c-.11.17-.26.32-.39.49l-.48.42c-.18.11-.36.24-.56.35a3.77,3.77,0,0,1-2.66.4,4.09,4.09,0,0,1-2.25-1.79,6.16,6.16,0,0,1-.95-2.89,8.93,8.93,0,0,1,1.29-5.84,4.87,4.87,0,0,1,.6-.68,4.18,4.18,0,0,1,1.21-.92l-.25.1c-2.7,1.29-3.48,5.33-2.92,8.18A5.08,5.08,0,0,0,25.48,56a4.15,4.15,0,0,0,4.27-1.65,8.36,8.36,0,0,0,1.2-5s0-.09,0-.14c0-.21,0-.43-.06-.64,0,0,0,.13,0,.38A10,10,0,0,1,31,50Z"/><path class="cls-19" d="M23.62,49.79c-.16,2.55.74,4.65,2.46,5.15l.26.08C24.44,54.67,23.45,52.47,23.62,49.79Z"/><path class="cls-19" d="M26,53.67l-.31-.19c.14,0,.15-.1-.1-.26a2.16,2.16,0,0,1-.43-.37,3.55,3.55,0,0,1-.43-1.09,5.47,5.47,0,0,1,.51-3.68c.29-.62.24-1.1-.44-.44a4.81,4.81,0,0,0-.92,3.19A5.22,5.22,0,0,0,24.53,53,1.65,1.65,0,0,0,26,53.67Z"/><path class="cls-20" d="M23.88,50.83a4.85,4.85,0,0,0,.23,1.42,2.33,2.33,0,0,0,.42.75A5.22,5.22,0,0,1,23.88,50.83Z"/><path class="cls-21" d="M30.07,51c.09-2.69-1.41-5.34-3.1-5.55s-3.2,1.7-3.35,4.38.82,4.88,2.72,5.23a2.75,2.75,0,0,0,2.4-.78A4.64,4.64,0,0,0,30.07,51ZM28.74,51c-.07,1.36-1,2.24-2,2s-1.63-1.36-1.52-2.71a2.32,2.32,0,0,1,1.12-2,1.78,1.78,0,0,0,.1.38c.41,1.21,1.47,2.09,2.3,2C28.73,50.84,28.74,50.93,28.74,51Zm-1.19-4.57c.6-.21,1.37.6,1.73,1.54s.22,1.93-.4,2.11-1.48-.53-1.82-1.52S27,46.66,27.55,46.45Zm-3.67,4.38a4.81,4.81,0,0,1,.92-3.19c.68-.66.73-.18.44.44a5.47,5.47,0,0,0-.51,3.68,3.55,3.55,0,0,0,.43,1.09,2.16,2.16,0,0,0,.43.37c.25.16.24.26.1.26l.31.19A1.65,1.65,0,0,1,24.53,53a2.33,2.33,0,0,1-.42-.75A4.85,4.85,0,0,1,23.88,50.83Z"/><path class="cls-22" d="M26.43,48.74a1.78,1.78,0,0,1-.1-.38,2.32,2.32,0,0,0-1.12,2c-.11,1.35.51,2.51,1.52,2.71s1.94-.69,2-2c0-.09,0-.18,0-.28C27.9,50.83,26.84,50,26.43,48.74Z"/><path class="cls-23" d="M28.88,50.1c.62-.18.78-1.16.4-2.11s-1.13-1.75-1.73-1.54-.85,1.16-.49,2.13S28.26,50.27,28.88,50.1Z"/><path class="cls-6" d="M19.21,54.77a4.26,4.26,0,0,1,.66-.62,4.62,4.62,0,0,0-3.68,2.18c-1.44,2.16,0,6.11,4,9.38,2.27,1.85,4.79,2.33,6.46-.8s.92-6.2-1.68-8.54A10.74,10.74,0,0,0,19.21,54.77Zm-.62,1.85c-.27,0-.47-.18-.46-.35s.24-.28.49-.25.47.19.46.35S18.85,56.65,18.59,56.62Zm1.27-.52c.19-.3.88-.31,1.55,0s1.08.73.9,1-.87.34-1.55.06S19.69,56.39,19.86,56.1Z"/><path class="cls-27" d="M19.21,54.77a4.26,4.26,0,0,1,.66-.62,4.62,4.62,0,0,0-3.68,2.18c-1.44,2.16,0,6.11,4,9.38,2.27,1.85,4.79,2.33,6.46-.8s.92-6.2-1.68-8.54A10.74,10.74,0,0,0,19.21,54.77Zm-.62,1.85c-.27,0-.47-.18-.46-.35s.24-.28.49-.25.47.19.46.35S18.85,56.65,18.59,56.62Zm1.27-.52c.19-.3.88-.31,1.55,0s1.08.73.9,1-.87.34-1.55.06S19.69,56.39,19.86,56.1Z"/><path class="cls-6" d="M23.79,55.46l-.07,0c-.22-.1-.44-.23-.67-.31l-.67-.22a4.36,4.36,0,0,0-.64-.17l-.59-.13c-.37,0-.68-.1-.89-.09h-.35a1.66,1.66,0,0,1,.34-.06,4.9,4.9,0,0,1,.92,0c.19,0,.4,0,.61.07l.16,0a5.28,5.28,0,0,0-2.07-.34,4.26,4.26,0,0,0-.66.62,10.74,10.74,0,0,1,5.73,1.6,9.9,9.9,0,0,0-1.05-.84Z"/><path class="cls-15" d="M23.79,55.46l-.07,0c-.22-.1-.44-.23-.67-.31l-.67-.22a4.36,4.36,0,0,0-.64-.17l-.59-.13c-.37,0-.68-.1-.89-.09h-.35a1.66,1.66,0,0,1,.34-.06,4.9,4.9,0,0,1,.92,0c.19,0,.4,0,.61.07l.16,0a5.28,5.28,0,0,0-2.07-.34,4.26,4.26,0,0,0-.66.62,10.74,10.74,0,0,1,5.73,1.6,9.9,9.9,0,0,0-1.05-.84Z"/><path class="cls-27" d="M23.79,55.46l-.07,0c-.22-.1-.44-.23-.67-.31l-.67-.22a4.36,4.36,0,0,0-.64-.17l-.59-.13c-.37,0-.68-.1-.89-.09h-.35a1.66,1.66,0,0,1,.34-.06,4.9,4.9,0,0,1,.92,0c.19,0,.4,0,.61.07l.16,0a5.28,5.28,0,0,0-2.07-.34,4.26,4.26,0,0,0-.66.62,10.74,10.74,0,0,1,5.73,1.6,9.9,9.9,0,0,0-1.05-.84Z"/><path class="cls-7" d="M21.17,54.4a4.9,4.9,0,0,0-.92,0,1.66,1.66,0,0,0-.34.06h.35c.21,0,.52.06.89.09l.59.13a4.36,4.36,0,0,1,.64.17l.67.22c.23.08.45.21.67.31l.07,0a8.07,8.07,0,0,0-1.85-1l-.16,0C21.57,54.44,21.36,54.41,21.17,54.4Z"/><path class="cls-27" d="M21.17,54.4a4.9,4.9,0,0,0-.92,0,1.66,1.66,0,0,0-.34.06h.35c.21,0,.52.06.89.09l.59.13a4.36,4.36,0,0,1,.64.17l.67.22c.23.08.45.21.67.31l.07,0a8.07,8.07,0,0,0-1.85-1l-.16,0C21.57,54.44,21.36,54.41,21.17,54.4Z"/><path class="cls-23" d="M20.76,57.12c.68.28,1.36.24,1.55-.06s-.22-.73-.9-1-1.36-.26-1.55,0S20.09,56.85,20.76,57.12Z"/><path class="cls-23" d="M18.62,56c-.25,0-.48.08-.49.25s.19.33.46.35.48-.08.49-.25S18.89,56.05,18.62,56Z"/><path class="cls-6" d="M24.39,40.24a5.25,5.25,0,0,0-2.69,1.5,12.75,12.75,0,0,0-1.19,2.68s3.44-7,10.26-.9a7.53,7.53,0,0,0-.52-1.07C28.16,40.64,26.18,39.89,24.39,40.24Z"/><path class="cls-8" d="M24.39,40.24a5.25,5.25,0,0,0-2.69,1.5,12.75,12.75,0,0,0-1.19,2.68s3.44-7,10.26-.9a7.53,7.53,0,0,0-.52-1.07C28.16,40.64,26.18,39.89,24.39,40.24Z"/><path class="cls-25" d="M24.32,39.93c1.79-.35,3.73.31,5.78,2-1-1.93-2.83-3.67-4.82-3.67h-.11c-1.24,0-2.92.78-4.26,3.9A5.93,5.93,0,0,1,24.32,39.93Z"/><path class="cls-26" d="M20.21,43.53h.06a.14.14,0,0,0,.14-.09,7.5,7.5,0,0,1,1.29-1.71,5.25,5.25,0,0,1,2.69-1.5c1.79-.35,3.77.4,5.86,2.21l.18.15a.16.16,0,0,0,.25-.18c-.92-2.3-3.13-4.6-5.52-4.51-1.5.05-3.59,1-5,5.42A.18.18,0,0,0,20.21,43.53Zm5-5.3h.11c2,0,3.84,1.74,4.82,3.67-2.05-1.66-4-2.32-5.78-2a5.93,5.93,0,0,0-3.41,2.2C22.25,39,23.93,38.27,25.17,38.23Z"/><path class="cls-7" d="M40.63,57.82l-.08.13a2.59,2.59,0,0,1-.46.6c-1.07,1-2.17.59-1.56,1.39l.1.07a.83.83,0,0,1,0-.46.32.32,0,0,1,.14-.22c0-.06.24-.1.32-.13l.39-.12.37-.15.34-.21a2.26,2.26,0,0,0,.28-.25,1.67,1.67,0,0,0,.37-.58,1.56,1.56,0,0,0,.07-.91,2.91,2.91,0,0,1-.22.78Z"/><path class="cls-28" d="M40.92,58.32c-.39.86,3.1-1-1.13-6.27C39.79,52.05,42.35,56.23,40.92,58.32Z"/><path class="cls-28" d="M39.51,59.21c-.27.18-.41.43-.33.56s.37.06.64-.13.41-.44.32-.56S39.77,59,39.51,59.21Z"/><path class="cls-6" d="M40.49,62.36c2.41.28,3.79-1.49,3.23-2.57s-2,2.45-5.09.22c0,.07,0,.14.07.21a3.43,3.43,0,0,0,.37.64,4.73,4.73,0,0,0,.46.53,2.91,2.91,0,0,0,.48.4,3.38,3.38,0,0,0,.46.27,1.62,1.62,0,0,0,.39.15l.37.06h-.38a1.51,1.51,0,0,1-.42-.09,2.24,2.24,0,0,1-.52-.22,3.72,3.72,0,0,1-.55-.39,3.79,3.79,0,0,1-.53-.53,3.36,3.36,0,0,1-.43-.69,1.44,1.44,0,0,1-.14-.88.65.65,0,0,1,.3-.43,1.51,1.51,0,0,1,.41-.16l.37-.09.34-.13.32-.17c.08-.07.18-.12.26-.19a1.86,1.86,0,0,0,.29-.35l.1-.19a1.68,1.68,0,0,0,.14-.86,1.58,1.58,0,0,0,0-.36,2,2,0,0,1,.12.35s0,.06,0,.09a5.94,5.94,0,0,0-.54-3S41,58,38,58.7C36.18,59.28,36.22,61.46,40.49,62.36Z"/><path class="cls-15" d="M40.49,62.36c2.41.28,3.79-1.49,3.23-2.57s-2,2.45-5.09.22c0,.07,0,.14.07.21a3.43,3.43,0,0,0,.37.64,4.73,4.73,0,0,0,.46.53,2.91,2.91,0,0,0,.48.4,3.38,3.38,0,0,0,.46.27,1.62,1.62,0,0,0,.39.15l.37.06h-.38a1.51,1.51,0,0,1-.42-.09,2.24,2.24,0,0,1-.52-.22,3.72,3.72,0,0,1-.55-.39,3.79,3.79,0,0,1-.53-.53,3.36,3.36,0,0,1-.43-.69,1.44,1.44,0,0,1-.14-.88.65.65,0,0,1,.3-.43,1.51,1.51,0,0,1,.41-.16l.37-.09.34-.13.32-.17c.08-.07.18-.12.26-.19a1.86,1.86,0,0,0,.29-.35l.1-.19a1.68,1.68,0,0,0,.14-.86,1.58,1.58,0,0,0,0-.36,2,2,0,0,1,.12.35s0,.06,0,.09a5.94,5.94,0,0,0-.54-3S41,58,38,58.7C36.18,59.28,36.22,61.46,40.49,62.36Z"/><path class="cls-7" d="M40.09,58.55a2.59,2.59,0,0,0,.46-.6,1.86,1.86,0,0,1-.29.35c-.08.07-.18.12-.26.19l-.32.17-.34.13-.37.09a1.51,1.51,0,0,0-.41.16.65.65,0,0,0-.3.43,1.44,1.44,0,0,0,.14.88,3.36,3.36,0,0,0,.43.69,3.79,3.79,0,0,0,.53.53,3.72,3.72,0,0,0,.55.39,2.24,2.24,0,0,0,.52.22,1.51,1.51,0,0,0,.42.09h.38l-.37-.06a1.62,1.62,0,0,1-.39-.15,3.38,3.38,0,0,1-.46-.27,2.91,2.91,0,0,1-.48-.4,4.73,4.73,0,0,1-.46-.53,3.43,3.43,0,0,1-.37-.64c0-.07,0-.14-.07-.21l-.1-.07C37.92,59.14,39,59.55,40.09,58.55Z"/><path class="cls-15" d="M40.09,58.55a2.59,2.59,0,0,0,.46-.6,1.86,1.86,0,0,1-.29.35c-.08.07-.18.12-.26.19l-.32.17-.34.13-.37.09a1.51,1.51,0,0,0-.41.16.65.65,0,0,0-.3.43,1.44,1.44,0,0,0,.14.88,3.36,3.36,0,0,0,.43.69,3.79,3.79,0,0,0,.53.53,3.72,3.72,0,0,0,.55.39,2.24,2.24,0,0,0,.52.22,1.51,1.51,0,0,0,.42.09h.38l-.37-.06a1.62,1.62,0,0,1-.39-.15,3.38,3.38,0,0,1-.46-.27,2.91,2.91,0,0,1-.48-.4,4.73,4.73,0,0,1-.46-.53,3.43,3.43,0,0,1-.37-.64c0-.07,0-.14-.07-.21l-.1-.07C37.92,59.14,39,59.55,40.09,58.55Z"/><path class="cls-7" d="M40.74,56.54a1.58,1.58,0,0,1,0,.36,1.68,1.68,0,0,1-.14.86,2.91,2.91,0,0,0,.22-.78s0-.06,0-.09A2,2,0,0,0,40.74,56.54Z"/><path class="cls-15" d="M40.74,56.54a1.58,1.58,0,0,1,0,.36,1.68,1.68,0,0,1-.14.86,2.91,2.91,0,0,0,.22-.78s0-.06,0-.09A2,2,0,0,0,40.74,56.54Z"/><path class="cls-6" d="M48.2,65.68a1,1,0,0,0-.32.22c1.06.24,3.15.72,3.06.74l-.18,0,.32.15c-1.34.21-2.64.56-4,.68-1.7.16-3.41.22-5.11.3-1.93.08-3.85.18-5.77.12h-.63l.5,0c1.35.06,2.71,0,4.06,0,.09,0,0,.17-.08.17-.83,0-6.51.52-7.85-.35a1.81,1.81,0,0,0-.23,0c-.21,0-.24-.32-.16-.47a.75.75,0,0,0,.07-.12l-.26.21a.38.38,0,0,0,.14.63,12.43,12.43,0,0,0,3.46.41,85.3,85.3,0,0,0,10.39-.24,47.77,47.77,0,0,0,5.33-.61,9.46,9.46,0,0,0,1.48-.45l-.11,0a4.65,4.65,0,0,1-.85-.4c.4-.06.79-.16,1-.19a1.31,1.31,0,0,1,1.23.61c0,.16.11.32.16.49.13.42.06.87.15,1.29h0c-.47-.22-.5-.65-.7-1.08a.93.93,0,0,0-.29-.36,4.62,4.62,0,0,1-.47.19c-2.42,1.33-3,4.08-4.56,6.22-.39.53-.87.58-1.6.75a32.17,32.17,0,0,1-5.93.6c-1.6.16-3.25.33-4.1-.94-1.22-1.82-3.21-5.38-5.68-5.7a.56.56,0,0,0-.18.07,2.33,2.33,0,0,1,.07-.25c0,.1-.09.19-.12.29.59.38,1.16.73,1.7,1.11l.14.11a7.43,7.43,0,0,1,1.34,1.25c.1.12.19.25.29.38.31.33.61.66.89,1,.94,1.16,1.58,2.56,3.05,3.11,1.3.48,3.15.07,4.49,0A23.9,23.9,0,0,0,46.88,75a4.37,4.37,0,0,0,2.27-1.86c.45-.69.86-1.4,1.29-2.11l.42-.71L51,70a3.89,3.89,0,0,1,1.46-1.74c.6-.28.93.28,1.18.78l0,0c0,.09,0,.18.08.27l.08.17a6.35,6.35,0,0,1,.41,1,5.07,5.07,0,0,0,.33,1,6.8,6.8,0,0,0,.3-2,5.67,5.67,0,0,0-1.27-2.79C52.36,65.31,50,65.56,48.2,65.68Z"/><path class="cls-29" d="M48.2,65.68a1,1,0,0,0-.32.22c1.06.24,3.15.72,3.06.74l-.18,0,.32.15c-1.34.21-2.64.56-4,.68-1.7.16-3.41.22-5.11.3-1.93.08-3.85.18-5.77.12h-.63l.5,0c1.35.06,2.71,0,4.06,0,.09,0,0,.17-.08.17-.83,0-6.51.52-7.85-.35a1.81,1.81,0,0,0-.23,0c-.21,0-.24-.32-.16-.47a.75.75,0,0,0,.07-.12l-.26.21a.38.38,0,0,0,.14.63,12.43,12.43,0,0,0,3.46.41,85.3,85.3,0,0,0,10.39-.24,47.77,47.77,0,0,0,5.33-.61,9.46,9.46,0,0,0,1.48-.45l-.11,0a4.65,4.65,0,0,1-.85-.4c.4-.06.79-.16,1-.19a1.31,1.31,0,0,1,1.23.61c0,.16.11.32.16.49.13.42.06.87.15,1.29h0c-.47-.22-.5-.65-.7-1.08a.93.93,0,0,0-.29-.36,4.62,4.62,0,0,1-.47.19c-2.42,1.33-3,4.08-4.56,6.22-.39.53-.87.58-1.6.75a32.17,32.17,0,0,1-5.93.6c-1.6.16-3.25.33-4.1-.94-1.22-1.82-3.21-5.38-5.68-5.7a.56.56,0,0,0-.18.07,2.33,2.33,0,0,1,.07-.25c0,.1-.09.19-.12.29.59.38,1.16.73,1.7,1.11l.14.11a7.43,7.43,0,0,1,1.34,1.25c.1.12.19.25.29.38.31.33.61.66.89,1,.94,1.16,1.58,2.56,3.05,3.11,1.3.48,3.15.07,4.49,0A23.9,23.9,0,0,0,46.88,75a4.37,4.37,0,0,0,2.27-1.86c.45-.69.86-1.4,1.29-2.11l.42-.71L51,70a3.89,3.89,0,0,1,1.46-1.74c.6-.28.93.28,1.18.78l0,0c0,.09,0,.18.08.27l.08.17a6.35,6.35,0,0,1,.41,1,5.07,5.07,0,0,0,.33,1,6.8,6.8,0,0,0,.3-2,5.67,5.67,0,0,0-1.27-2.79C52.36,65.31,50,65.56,48.2,65.68Z"/><path class="cls-6" d="M32,67.05a4.79,4.79,0,0,0-.57.21l-.21.08s-.06.11-.1.15a2.26,2.26,0,0,1,.83-.36A.35.35,0,0,0,32,67.05Z"/><path class="cls-29" d="M32,67.05a4.79,4.79,0,0,0-.57.21l-.21.08s-.06.11-.1.15a2.26,2.26,0,0,1,.83-.36A.35.35,0,0,0,32,67.05Z"/><path class="cls-6" d="M44.32,77.21c-.34.1-.68.18-1,.26s-.42.32-.64.47a6.26,6.26,0,0,1-3.17.21,3.69,3.69,0,0,1-.73-.64l-.31-.08,0,0a5.38,5.38,0,0,0,1.18,1.37,9.3,9.3,0,0,0,1.3.38,3.21,3.21,0,0,0,2.47-.57C43.71,78.14,44,77.69,44.32,77.21Z"/><path class="cls-8" d="M44.32,77.21c-.34.1-.68.18-1,.26s-.42.32-.64.47a6.26,6.26,0,0,1-3.17.21,3.69,3.69,0,0,1-.73-.64l-.31-.08,0,0a5.38,5.38,0,0,0,1.18,1.37,9.3,9.3,0,0,0,1.3.38,3.21,3.21,0,0,0,2.47-.57C43.71,78.14,44,77.69,44.32,77.21Z"/><path class="cls-30" d="M30.66,68.55c2.47.32,4.46,3.88,5.68,5.7.85,1.27,2.5,1.1,4.1.94a32.17,32.17,0,0,0,5.93-.6c.73-.17,1.21-.22,1.6-.75,1.59-2.14,2.14-4.89,4.56-6.22a4.62,4.62,0,0,0,.47-.19.93.93,0,0,1,.29.36c.2.43.23.86.7,1.08h0c-.09-.42,0-.87-.15-1.29,0-.17-.11-.33-.16-.49a1.31,1.31,0,0,0-1.23-.61c-.23,0-.62.13-1,.19a4.65,4.65,0,0,0,.85.4l.11,0a9.46,9.46,0,0,1-1.48.45,47.77,47.77,0,0,1-5.33.61,85.3,85.3,0,0,1-10.39.24A12.43,12.43,0,0,1,31.76,68a.38.38,0,0,1-.14-.63l.26-.21.07,0-.05,0a2.26,2.26,0,0,0-.83.36l-.09.05a2.06,2.06,0,0,0-.43.83,2.33,2.33,0,0,0-.07.25A.56.56,0,0,1,30.66,68.55Zm5.26.22h3.6l.47,0c3.27-.15,6.45-.29,9.71-.68l.23,0h0c.49,0,1.07-.09,1.65-.18a7.38,7.38,0,0,0-1.95,2.25c-.24.39-.46.8-.67,1.21s-.46.89-.69,1.33c-.09.16-.18.31-.27.44l0,0a3.12,3.12,0,0,1-2,1.23c-1.21,0-2.43.16-3.64.26-1.55.12-3.41.57-4.92,0a3.7,3.7,0,0,1-.49-.48L36.82,74c-.15-.19-.29-.39-.43-.59h0c-.42-.64-.77-1.37-1.18-2a8,8,0,0,0-2.68-2.74l2.14.09H35Z"/><path class="cls-31" d="M38.19,68.77h0Z"/><path class="cls-31" d="M36.39,68.77h0Z"/><path class="cls-31" d="M35,68.75l.88,0Z"/><path class="cls-31" d="M39.52,68.75l.47,0Z"/><path class="cls-31" d="M48.75,70.33a5.22,5.22,0,0,1,.24.89l0,.08c.21-.41.43-.82.67-1.21a7.38,7.38,0,0,1,1.95-2.25c-.58.09-1.16.13-1.65.18A4,4,0,0,1,49,70.11,1.79,1.79,0,0,1,48.75,70.33Z"/><path class="cls-31" d="M36.29,71.4v-.16a1.94,1.94,0,0,1,0-.24,5.45,5.45,0,0,1-2.38-2.28l.74,0-2.14-.09a8,8,0,0,1,2.68,2.74c.41.62.76,1.35,1.18,2,0-.09,0-.18,0-.27C36.35,72.53,36.28,72,36.29,71.4Z"/><path class="cls-31" d="M38.91,68.76h0Z"/><path class="cls-31" d="M37.79,68.78h0Z"/><path class="cls-31" d="M36.82,74c-.15-.19-.29-.39-.43-.59C36.53,73.59,36.67,73.79,36.82,74Z"/><path class="cls-31" d="M37.38,74.54a3.7,3.7,0,0,1-.49-.48A3.7,3.7,0,0,0,37.38,74.54Z"/><path class="cls-23" d="M48.27,72.63c-.09.16-.18.31-.27.44C48.09,72.94,48.18,72.79,48.27,72.63Z"/><path class="cls-23" d="M47.46,71.57c-.37-.23-.54-.18-1,0a16.92,16.92,0,0,1-4,.38c-1.88,0-3.82-.35-5.66-.2a.72.72,0,0,0-.5.26c0-.18,0-.37,0-.56,0,.56.06,1.13.09,1.71,0,.09,0,.18,0,.27h0c.14.2.28.4.43.59l.07.08a3.7,3.7,0,0,0,.49.48c1.51.62,3.37.17,4.92,0,1.21-.1,2.43-.24,3.64-.26a3.12,3.12,0,0,0,2-1.23,3.17,3.17,0,0,1-.28.34C47.85,72.73,48,71.89,47.46,71.57Z"/><path class="cls-30" d="M48,73.07l0,0Z"/><path class="cls-32" d="M48,73.07l0,0Z"/><path class="cls-31" d="M36.29,71.4v0Z"/><path class="cls-32" d="M36.29,71.4v0Z"/><path class="cls-23" d="M48.75,70.33a7.65,7.65,0,0,1-2.48.68,23.86,23.86,0,0,1-2.78.4,27.35,27.35,0,0,1-5.93-.09A4.58,4.58,0,0,1,36.31,71c0,.07,0,.15,0,.23v.16c0,.19,0,.38,0,.56a.72.72,0,0,1,.5-.26c1.84-.15,3.78.25,5.66.2a16.92,16.92,0,0,0,4-.38c.44-.13.61-.18,1,0s.39,1.16.23,1.87A3.17,3.17,0,0,0,48,73.1l0,0c.09-.13.18-.28.27-.44.23-.44.45-.89.69-1.33l0-.08A5.22,5.22,0,0,0,48.75,70.33Z"/><path class="cls-32" d="M48.75,70.33a7.65,7.65,0,0,1-2.48.68,23.86,23.86,0,0,1-2.78.4,27.35,27.35,0,0,1-5.93-.09A4.58,4.58,0,0,1,36.31,71c0,.07,0,.15,0,.23v.16c0,.19,0,.38,0,.56a.72.72,0,0,1,.5-.26c1.84-.15,3.78.25,5.66.2a16.92,16.92,0,0,0,4-.38c.44-.13.61-.18,1,0s.39,1.16.23,1.87A3.17,3.17,0,0,0,48,73.1l0,0c.09-.13.18-.28.27-.44.23-.44.45-.89.69-1.33l0-.08A5.22,5.22,0,0,0,48.75,70.33Z"/><path class="cls-23" d="M33.93,68.72A5.45,5.45,0,0,0,36.31,71a1.94,1.94,0,0,0,0,.24c0-.08,0-.16,0-.23a4.58,4.58,0,0,0,1.25.31,27.35,27.35,0,0,0,5.93.09,23.86,23.86,0,0,0,2.78-.4,7.65,7.65,0,0,0,2.48-.68,1.79,1.79,0,0,0,.25-.22A4,4,0,0,0,49.93,68h0l-.23,0c-3.26.39-6.44.53-9.71.68l-.47,0h-3.6l-.88,0h-.37Z"/><path class="cls-30" d="M39.49,78.15a6.26,6.26,0,0,0,3.17-.21c.22-.15.43-.31.64-.47l.08-.06a20.18,20.18,0,0,1-2.34.08,7.51,7.51,0,0,1-2.52-.25,3.08,3.08,0,0,0,.24.27A3.69,3.69,0,0,0,39.49,78.15Z"/><path class="cls-28" d="M40.05,68.13c.08,0,.17-.15.08-.17-1.35,0-2.71.06-4.06,0l-.5,0a9,9,0,0,1-3.64-.7h0a.51.51,0,0,0,.28.54C33.54,68.65,39.22,68.14,40.05,68.13Z"/><path class="cls-28" d="M38.69,77a4.87,4.87,0,0,0,2.5-.19,7.14,7.14,0,0,0,.86-.68c-1.63-.1-3.24.44-4.77-.45h0a2,2,0,0,0,1.09,1.23Z"/><path class="cls-33" d="M11.55,25.36s-2.33,2.5.67,5c-.34-3.17,3.33-5.17,5.33-5.17-2.17,2.67,7.66,9.17,19.49-.66a31.73,31.73,0,0,1-.17,4s5-4.16,3.67-7.66a7,7,0,0,1,2.33,4.5s1-4,.17-6c4.33,4.5,4.66,7.5,4.66,7.5a10.19,10.19,0,0,0,2.17-7.5S51.2,24.53,54,26.52a4.62,4.62,0,0,1,2.17-5.33s-1.5,3.34,3.67,5.5,7,3.83,7.33,5.17a4.16,4.16,0,0,0-1-4.5c5.66,3.66,7.66,7,7.66,10.83,3.5-7.83,2.83-15.5-2.67-19.33,3.5,1.17,4.5,2.5,5.67,2.5C74,18,67.36,7,57.53,6.87c6.23,2.14,6.66,4.9,6.66,4.9S56.53,6.37,45.37,9.2c1.83-3.33,7.33-3,7.33-3A31,31,0,0,0,41,3c-16.34-.53-25.74,8.13-30.2,14-2.82,3.69-5.54,4.82-7.33,5.12A6.66,6.66,0,0,1,.58,22c.49.92,2.17,3,7.18,1.86A.22.22,0,0,1,8,24a.22.22,0,0,1-.08.26A8.81,8.81,0,0,0,4,29.9,8.66,8.66,0,0,1,11.55,25.36ZM56.06,11.62c4.07,12.78.58.29,5.52,3.2s3.2-1-1.31-3.63A16,16,0,0,1,72.33,24.26c-1-5.23-4.94-9.59-4.21-5.81s-2.62-2.61-2.91.29-7-.87-3.19,1.89,2.32,5.81,2.32,5.81-.29-1.89-4.5-4.94A9.34,9.34,0,0,1,56.06,11.62ZM5.39,22.36s3,0,8.33-7C18.88,8.2,33.71,1.2,45.7,5c-6.16-.66-9.83-.16-10,2.17s8-2.83,4.16,2.33S47.2,6,44.54,10.7s2.83,2.33,4.33.16,4.83,1.84,4.5,9C52,14.92,48,15.07,48,15.07a7,7,0,0,1-.17,8.29c-.33-2.17-3.83-6.17-8.5-6.83,2.34,3.16-.83,8.33-.83,8.33s.83-4.67-1.5-7c.17,2.5-.67,6.17-5.83,6.17,5-4,2.5-8.17-.33-5.17s-6,3-7-1-5,3-9.66,4.83c2.66-2.16,2.16-4,2.16-4C10.88,24,5.39,22.36,5.39,22.36Z"/><path class="cls-34" d="M11.17,51.24a17.88,17.88,0,0,0,1,1.71l0,0a.23.23,0,0,0,.17.08.15.15,0,0,0,.09,0,.2.2,0,0,0,.11-.24,47.83,47.83,0,0,1-1.37-10c-.06.17-.13.35-.2.51,0-.44,0-.89,0-1.34A46.29,46.29,0,0,0,12.4,52.87,26.11,26.11,0,0,1,8.17,38S4.28,39.11,2.62,36.7c4.44,0,6.48-3.15,5.92-8-3.89.19-4.81,4.63-4.81,4.63a8.11,8.11,0,0,1-.1-2.82c.09-.21.21-.43.32-.64a8.81,8.81,0,0,1,4-5.62A.22.22,0,0,0,8,24a.22.22,0,0,0-.24-.12C2.75,25,1.07,23,.58,22a6.66,6.66,0,0,0,2.84.09c1.79-.3,4.51-1.43,7.33-5.12C15.21,11.17,24.61,2.51,41,3A32.14,32.14,0,0,0,27.54,4.87a21.58,21.58,0,0,1-2.4.73C31.58,2.92,40,1.71,50.59,4.1,51,1.32,47.07,1,47.07,1s4.44-3,6.85,3c.93-2.22,5-3.33,6.85-.55A3.5,3.5,0,0,0,56.88,5S72.44,6.32,76.7,19.84c1.67,3.71,4.26,2.23,4.26-.18.93,3-1.11,5-3.52,3.52,3.52,4.26,1.86,9.44,1.49,11.11s3,1.67,3.51-.19c-.74,4.26-2.59,4.64-4.26,3.71,1.49,2.59-.18,10-6.48,11.85,0,0,0,.08,0,.21h.07l.14,0a9,9,0,0,0,1.48-.6l.31-.17.27-.15a10.34,10.34,0,0,0,4.17-5,8.58,8.58,0,0,0,.48-5.67,2.36,2.36,0,0,0,1.9,0c1-.49,1.75-1.87,2.14-4.09a.21.21,0,0,0-.16-.24.21.21,0,0,0-.25.14,2.1,2.1,0,0,1-2.46,1.21.74.74,0,0,1-.65-.91c0-.14.07-.3.11-.47.47-1.93,1.54-6.3-1.12-10.14a2.38,2.38,0,0,0,2.27-.31,3.41,3.41,0,0,0,.77-3.82.21.21,0,0,0-.23-.15.22.22,0,0,0-.18.21,2.11,2.11,0,0,1-1.38,2.19c-.88.18-1.8-.6-2.47-2.07C73,7.39,59.53,5.15,57.24,4.86a3.26,3.26,0,0,1,3.49-1.3A.2.2,0,0,0,61,3.48a.21.21,0,0,0,0-.24,3.92,3.92,0,0,0-3.73-1.72,4.38,4.38,0,0,0-3.28,1.9A5.46,5.46,0,0,0,50.76.17,4.89,4.89,0,0,0,47,.78a.19.19,0,0,0-.08.22.2.2,0,0,0,.18.16A4.85,4.85,0,0,1,50,2.5a2,2,0,0,1,.42,1.34C28-1.11,15.73,9.79,10.42,16.75,5.22,23.56.34,21.53.29,21.5a.22.22,0,0,0-.22,0,.21.21,0,0,0-.06.21s1.11,3.68,6.9,2.74a9,9,0,0,0-3.38,8.93.19.19,0,0,0,.2.15.2.2,0,0,0,.2-.16S4.84,29.27,8.36,29c.25,2.51-.23,4.53-1.39,5.83a5.53,5.53,0,0,1-4.35,1.7.21.21,0,0,0-.19.11.22.22,0,0,0,0,.22C3.94,39,7,38.47,8,38.26a27.11,27.11,0,0,0,3,12.58,1.86,1.86,0,0,1,.1.2A2,2,0,0,1,11.17,51.24Z"/><path class="cls-34" d="M11.13,39.44c0,.38-.07.76-.08,1.14C11.06,40.2,11.09,39.82,11.13,39.44Z"/><path class="cls-34" d="M11,42c0-.41,0-.82,0-1.24C11,41.17,11,41.58,11,42Z"/><path class="cls-34" d="M11.32,37.81c-.07.45-.13.91-.17,1.37C11.19,38.72,11.25,38.26,11.32,37.81Z"/><path class="cls-6" d="M71.49,49.65v0h0c.09-.63.16-1.24.22-1.83,0-.38.06-.74.08-1.1.55-8.07-1.93-11.58-3-12.71a2.93,2.93,0,0,1,0,.61v.08l0,.26a1.09,1.09,0,0,1,0,.17.85.85,0,0,1,0,.17,1.76,1.76,0,0,1-.09.2,1,1,0,0,1-.2.33.71.71,0,0,1-.1.14,1.29,1.29,0,0,1-.21.19.63.63,0,0,1-.12.11,2.14,2.14,0,0,1-.42.26.21.21,0,0,1-.29-.26,2.23,2.23,0,0,0,.13-1.81c-.45-.94-2-1.83-4.82-2.73-4.54-1.46-6-3.5-6.45-4.36-.11.43,0,1.43,1.32,3.49a.2.2,0,0,1,0,.24.22.22,0,0,1-.23.08,9.6,9.6,0,0,1-5.85-5.36,6.49,6.49,0,0,1-5,4.07.23.23,0,0,1-.19-.09.2.2,0,0,1,0-.21,3.5,3.5,0,0,0-.92-3.88,4.71,4.71,0,0,1-2.51,3.6.18.18,0,0,1-.16,0,.2.2,0,0,1-.12-.12l-1-2.39a10.44,10.44,0,0,1-6.59,4.37.23.23,0,0,1-.18-.05.21.21,0,0,1-.06-.18l.28-2c-5.64,5.14-17.82,4.79-20.38,4.66.67.83,2.58,2.84,5.11,2.7a.25.25,0,0,1,.2.12.21.21,0,0,1,0,.23C18.15,38.5,15.43,39,11.5,38.06a28.81,28.81,0,0,0-.27,4.81q.57-1.41,1.17-3.21c2.9,1.71,6.14,1.45,10.31-3.32a9.19,9.19,0,0,1-4.34-1.45s9.44.41,14.63-2.1c-1.39,2.64-2.21,3-2.33,3,.17,0,7-2,9.54-5.35a18.71,18.71,0,0,1-.67,3.85s3.85-2.18,5-4.52c0,3.51-.67,4.35-.67,4.35s5.86-2.34,7-5.19c.34,3.18,6.7,4.69,9.72,4.52L59.13,32s2.35.84,5,1.68,2.52,2.68,1.34,4.18A6.12,6.12,0,0,0,68.84,37s5.85,11.41-2,29.79c.08-.16.17-.33.24-.49A53.93,53.93,0,0,0,71.49,49.65Z"/><path class="cls-8" d="M71.49,49.65v0h0c.09-.63.16-1.24.22-1.83,0-.38.06-.74.08-1.1.55-8.07-1.93-11.58-3-12.71a2.93,2.93,0,0,1,0,.61v.08l0,.26a1.09,1.09,0,0,1,0,.17.85.85,0,0,1,0,.17,1.76,1.76,0,0,1-.09.2,1,1,0,0,1-.2.33.71.71,0,0,1-.1.14,1.29,1.29,0,0,1-.21.19.63.63,0,0,1-.12.11,2.14,2.14,0,0,1-.42.26.21.21,0,0,1-.29-.26,2.23,2.23,0,0,0,.13-1.81c-.45-.94-2-1.83-4.82-2.73-4.54-1.46-6-3.5-6.45-4.36-.11.43,0,1.43,1.32,3.49a.2.2,0,0,1,0,.24.22.22,0,0,1-.23.08,9.6,9.6,0,0,1-5.85-5.36,6.49,6.49,0,0,1-5,4.07.23.23,0,0,1-.19-.09.2.2,0,0,1,0-.21,3.5,3.5,0,0,0-.92-3.88,4.71,4.71,0,0,1-2.51,3.6.18.18,0,0,1-.16,0,.2.2,0,0,1-.12-.12l-1-2.39a10.44,10.44,0,0,1-6.59,4.37.23.23,0,0,1-.18-.05.21.21,0,0,1-.06-.18l.28-2c-5.64,5.14-17.82,4.79-20.38,4.66.67.83,2.58,2.84,5.11,2.7a.25.25,0,0,1,.2.12.21.21,0,0,1,0,.23C18.15,38.5,15.43,39,11.5,38.06a28.81,28.81,0,0,0-.27,4.81q.57-1.41,1.17-3.21c2.9,1.71,6.14,1.45,10.31-3.32a9.19,9.19,0,0,1-4.34-1.45s9.44.41,14.63-2.1c-1.39,2.64-2.21,3-2.33,3,.17,0,7-2,9.54-5.35a18.71,18.71,0,0,1-.67,3.85s3.85-2.18,5-4.52c0,3.51-.67,4.35-.67,4.35s5.86-2.34,7-5.19c.34,3.18,6.7,4.69,9.72,4.52L59.13,32s2.35.84,5,1.68,2.52,2.68,1.34,4.18A6.12,6.12,0,0,0,68.84,37s5.85,11.41-2,29.79c.08-.16.17-.33.24-.49A53.93,53.93,0,0,0,71.49,49.65Z"/><path class="cls-7" d="M71.8,46.7c0,.36,0,.72-.08,1.1C71.76,47.42,71.78,47.06,71.8,46.7Z"/><path class="cls-8" d="M71.8,46.7c0,.36,0,.72-.08,1.1C71.76,47.42,71.78,47.06,71.8,46.7Z"/><polygon class="cls-7" points="34.92 28.94 34.92 28.94 34.64 30.93 34.92 28.94"/><polygon class="cls-8" points="34.92 28.94 34.92 28.94 34.64 30.93 34.92 28.94"/><path class="cls-7" d="M68.76,34h0a2.93,2.93,0,0,1,0,.61A2.93,2.93,0,0,0,68.76,34Z"/><path class="cls-8" d="M68.76,34h0a2.93,2.93,0,0,1,0,.61A2.93,2.93,0,0,0,68.76,34Z"/><path class="cls-7" d="M68.39,35.81a.71.71,0,0,1-.1.14A.71.71,0,0,0,68.39,35.81Z"/><path class="cls-8" d="M68.39,35.81a.71.71,0,0,1-.1.14A.71.71,0,0,0,68.39,35.81Z"/><path class="cls-7" d="M68,36.25a.63.63,0,0,0,.12-.11A.63.63,0,0,1,68,36.25Z"/><path class="cls-8" d="M68,36.25a.63.63,0,0,0,.12-.11A.63.63,0,0,1,68,36.25Z"/><path class="cls-7" d="M68.68,35.28a.85.85,0,0,0,0-.17A.85.85,0,0,1,68.68,35.28Z"/><path class="cls-8" d="M68.68,35.28a.85.85,0,0,0,0-.17A.85.85,0,0,1,68.68,35.28Z"/><path class="cls-7" d="M68.52,35.63a1,1,0,0,0,.07-.15A1,1,0,0,1,68.52,35.63Z"/><path class="cls-8" d="M68.52,35.63a1,1,0,0,0,.07-.15A1,1,0,0,1,68.52,35.63Z"/><path class="cls-7" d="M68.77,34.94l0-.26Z"/><path class="cls-8" d="M68.77,34.94l0-.26Z"/><path class="cls-7" d="M71.56,49.82a.19.19,0,0,1-.06-.19v0a53.93,53.93,0,0,1-4.37,16.63c-.07.16-.16.33-.24.49-.33.78-.67,1.56-1,2.36,0,.11,0,.21-.08.31a52.72,52.72,0,0,0,5.94-19.57A.29.29,0,0,1,71.56,49.82Z"/><path class="cls-8" d="M71.56,49.82a.19.19,0,0,1-.06-.19v0a53.93,53.93,0,0,1-4.37,16.63c-.07.16-.16.33-.24.49-.33.78-.67,1.56-1,2.36,0,.11,0,.21-.08.31a52.72,52.72,0,0,0,5.94-19.57A.29.29,0,0,1,71.56,49.82Z"/><path class="cls-34" d="M71.7,49.66c1.85-13-3.33-16.3-3.33-16.3s.92,2-.93,3c.56-1.48.93-3-4.81-4.82s-6.49-4.63-6.49-4.63S55,27.62,57.26,31a9.41,9.41,0,0,1-5.93-5.75,6.24,6.24,0,0,1-5,4.45s1.11-2.22-1.3-4.45a4.42,4.42,0,0,1-2.41,3.89l-1.11-2.77A10.28,10.28,0,0,1,34.84,31l.38-2.6c-5.93,6.12-21.12,5-21.12,5s2.22,3.34,5.56,3.15c-1.67,1.85-4.45,2.23-8.34,1.3-.07.45-.13.91-.17,1.37,0,.09,0,.17,0,.26,0,.38-.07.76-.08,1.14a1,1,0,0,0,0,.17c0,.42,0,.83,0,1.24v0c0,.45,0,.9,0,1.34.07-.16.14-.34.2-.51a28.81,28.81,0,0,1,.27-4.81c3.93.9,6.65.44,8.31-1.41a.21.21,0,0,0,0-.23.25.25,0,0,0-.2-.12c-2.53.14-4.44-1.87-5.11-2.7,2.56.13,14.74.48,20.38-4.66h0l-.28,2a.21.21,0,0,0,.06.18.23.23,0,0,0,.18.05,10.44,10.44,0,0,0,6.59-4.37l1,2.39a.2.2,0,0,0,.12.12.18.18,0,0,0,.16,0,4.71,4.71,0,0,0,2.51-3.6,3.5,3.5,0,0,1,.92,3.88.2.2,0,0,0,0,.21.23.23,0,0,0,.19.09,6.49,6.49,0,0,0,5-4.07,9.6,9.6,0,0,0,5.85,5.36.22.22,0,0,0,.23-.08.2.2,0,0,0,0-.24c-1.37-2.06-1.43-3.06-1.32-3.49.44.86,1.91,2.9,6.45,4.36,2.79.9,4.37,1.79,4.82,2.73a2.23,2.23,0,0,1-.13,1.81.21.21,0,0,0,.29.26,2.14,2.14,0,0,0,.42-.26.63.63,0,0,0,.12-.11,1.29,1.29,0,0,0,.21-.19.71.71,0,0,0,.1-.14,1,1,0,0,0,.2-.33,1.76,1.76,0,0,0,.09-.2.85.85,0,0,0,0-.17,1.09,1.09,0,0,0,0-.17l0-.26V34.6a2.93,2.93,0,0,0,0-.61h0c1.11,1.13,3.59,4.64,3,12.71,0,.36,0,.72-.08,1.1-.06.59-.13,1.2-.22,1.83h0a.19.19,0,0,0,.06.19.29.29,0,0,0,.13,0C71.7,49.74,71.7,49.66,71.7,49.66Z"/><path class="cls-8" d="M71.7,49.66c1.85-13-3.33-16.3-3.33-16.3s.92,2-.93,3c.56-1.48.93-3-4.81-4.82s-6.49-4.63-6.49-4.63S55,27.62,57.26,31a9.41,9.41,0,0,1-5.93-5.75,6.24,6.24,0,0,1-5,4.45s1.11-2.22-1.3-4.45a4.42,4.42,0,0,1-2.41,3.89l-1.11-2.77A10.28,10.28,0,0,1,34.84,31l.38-2.6c-5.93,6.12-21.12,5-21.12,5s2.22,3.34,5.56,3.15c-1.67,1.85-4.45,2.23-8.34,1.3-.07.45-.13.91-.17,1.37,0,.09,0,.17,0,.26,0,.38-.07.76-.08,1.14a1,1,0,0,0,0,.17c0,.42,0,.83,0,1.24v0c0,.45,0,.9,0,1.34.07-.16.14-.34.2-.51a28.81,28.81,0,0,1,.27-4.81c3.93.9,6.65.44,8.31-1.41a.21.21,0,0,0,0-.23.25.25,0,0,0-.2-.12c-2.53.14-4.44-1.87-5.11-2.7,2.56.13,14.74.48,20.38-4.66h0l-.28,2a.21.21,0,0,0,.06.18.23.23,0,0,0,.18.05,10.44,10.44,0,0,0,6.59-4.37l1,2.39a.2.2,0,0,0,.12.12.18.18,0,0,0,.16,0,4.71,4.71,0,0,0,2.51-3.6,3.5,3.5,0,0,1,.92,3.88.2.2,0,0,0,0,.21.23.23,0,0,0,.19.09,6.49,6.49,0,0,0,5-4.07,9.6,9.6,0,0,0,5.85,5.36.22.22,0,0,0,.23-.08.2.2,0,0,0,0-.24c-1.37-2.06-1.43-3.06-1.32-3.49.44.86,1.91,2.9,6.45,4.36,2.79.9,4.37,1.79,4.82,2.73a2.23,2.23,0,0,1-.13,1.81.21.21,0,0,0,.29.26,2.14,2.14,0,0,0,.42-.26.63.63,0,0,0,.12-.11,1.29,1.29,0,0,0,.21-.19.71.71,0,0,0,.1-.14,1,1,0,0,0,.2-.33,1.76,1.76,0,0,0,.09-.2.85.85,0,0,0,0-.17,1.09,1.09,0,0,0,0-.17l0-.26V34.6a2.93,2.93,0,0,0,0-.61h0c1.11,1.13,3.59,4.64,3,12.71,0,.36,0,.72-.08,1.1-.06.59-.13,1.2-.22,1.83h0a.19.19,0,0,0,.06.19.29.29,0,0,0,.13,0C71.7,49.74,71.7,49.66,71.7,49.66Z"/><path class="cls-25" d="M11,40.75a1,1,0,0,1,0-.17c0-.38,0-.76.08-1.14,0-.09,0-.17,0-.26,0-.46.1-.92.17-1.37,3.89.93,6.67.55,8.34-1.3-3.34.19-5.56-3.15-5.56-3.15s15.19,1.12,21.12-5L34.84,31a10.28,10.28,0,0,0,6.67-4.63l1.11,2.77A4.42,4.42,0,0,0,45,25.21c2.41,2.23,1.3,4.45,1.3,4.45a6.24,6.24,0,0,0,5-4.45A9.41,9.41,0,0,0,57.26,31c-2.23-3.34-1.12-4.08-1.12-4.08s.74,2.78,6.49,4.63,5.37,3.34,4.81,4.82c1.85-.93.93-3,.93-3s5.18,3.34,3.33,16.3c6.3-1.85,8-9.26,6.48-11.85,1.67.93,3.52.55,4.26-3.71-.55,1.86-3.88,1.86-3.51.19s2-6.85-1.49-11.11c2.41,1.48,4.45-.56,3.52-3.52,0,2.41-2.59,3.89-4.26.18C72.44,6.32,56.88,5,56.88,5a3.5,3.5,0,0,1,3.89-1.67c-1.85-2.78-5.92-1.67-6.85.55C51.51-2,47.07,1,47.07,1S51,1.32,50.59,4.1C40,1.71,31.58,2.92,25.14,5.6a21.58,21.58,0,0,0,2.4-.73A32.14,32.14,0,0,1,41,3,31,31,0,0,1,52.7,6.2s-5.5-.33-7.33,3c11.16-2.83,18.82,2.57,18.82,2.57S63.76,9,57.53,6.87C67.36,7,74,18,76.86,21.36c-1.17,0-2.17-1.33-5.67-2.5,5.5,3.83,6.17,11.5,2.67,19.33,0-3.83-2-7.17-7.66-10.83a4.16,4.16,0,0,1,1,4.5c-.34-1.34-2.17-3-7.33-5.17s-3.67-5.5-3.67-5.5A4.62,4.62,0,0,0,54,26.52c-2.83-2-4.16-7.16-4.16-7.16a10.19,10.19,0,0,1-2.17,7.5s-.33-3-4.66-7.5c.83,2-.17,6-.17,6a7,7,0,0,0-2.33-4.5c1.33,3.5-3.67,7.66-3.67,7.66a31.73,31.73,0,0,0,.17-4c-11.83,9.83-21.66,3.33-19.49.66-2,0-5.67,2-5.33,5.17-3-2.5-.67-5-.67-5A8.66,8.66,0,0,0,4,29.9c-.11.21-.23.43-.32.64a8.11,8.11,0,0,0,.1,2.82s.92-4.44,4.81-4.63c.56,4.82-1.48,8-5.92,8C4.28,39.11,8.17,38,8.17,38A26.11,26.11,0,0,0,12.4,52.87,46.29,46.29,0,0,1,11,42v0C11,41.58,11,41.17,11,40.75Z"/><path class="cls-33" d="M14.22,22.69c4.66-1.83,8.66-8.83,9.66-4.83s4.16,4,7,1S36.21,20,31.21,24c5.16,0,6-3.67,5.83-6.17,2.33,2.33,1.5,7,1.5,7s3.17-5.17.83-8.33c4.67.66,8.17,4.66,8.5,6.83A7,7,0,0,0,48,15.07s4-.15,5.33,4.79c.33-7.16-3-11.16-4.5-9s-7,4.5-4.33-.16-8.5,4-4.67-1.17-4.33,0-4.16-2.33S39.54,4.37,45.7,5c-12-3.83-26.82,3.17-32,10.33-5.33,7-8.33,7-8.33,7s5.49,1.67,11-3.67C16.38,18.69,16.88,20.53,14.22,22.69Z"/><path class="cls-35" d="M14.22,22.69c4.66-1.83,8.66-8.83,9.66-4.83s4.16,4,7,1S36.21,20,31.21,24c5.16,0,6-3.67,5.83-6.17,2.33,2.33,1.5,7,1.5,7s3.17-5.17.83-8.33c4.67.66,8.17,4.66,8.5,6.83A7,7,0,0,0,48,15.07s4-.15,5.33,4.79c.33-7.16-3-11.16-4.5-9s-7,4.5-4.33-.16-8.5,4-4.67-1.17-4.33,0-4.16-2.33S39.54,4.37,45.7,5c-12-3.83-26.82,3.17-32,10.33-5.33,7-8.33,7-8.33,7s5.49,1.67,11-3.67C16.38,18.69,16.88,20.53,14.22,22.69Z"/><path class="cls-33" d="M59.84,21.5c4.21,3.05,4.5,4.94,4.5,4.94s1.45-3.05-2.32-5.81,2.9,1,3.19-1.89,3.63,3.49,2.91-.29,3.19.58,4.21,5.81A16,16,0,0,0,60.27,11.19c4.51,2.61,6.25,6.53,1.31,3.63s-1.45,9.58-5.52-3.2A9.34,9.34,0,0,0,59.84,21.5Z"/><path class="cls-35" d="M59.84,21.5c4.21,3.05,4.5,4.94,4.5,4.94s1.45-3.05-2.32-5.81,2.9,1,3.19-1.89,3.63,3.49,2.91-.29,3.19.58,4.21,5.81A16,16,0,0,0,60.27,11.19c4.51,2.61,6.25,6.53,1.31,3.63s-1.45,9.58-5.52-3.2A9.34,9.34,0,0,0,59.84,21.5Z"/></g></g></g></svg>