<svg width="508" height="508" viewBox="0 0 508 508" fill="none" xmlns="http://www.w3.org/2000/svg">
<g clip-path="url(#clip0_13_211)">
<path d="M0 258.233C0.702348 301.383 12.3942 343.641 33.9714 381.017C55.5486 418.394 86.2989 449.655 123.318 471.847L183.597 367.453C211.628 318.914 176.594 258.233 120.524 258.233H0Z" fill="#F7B619"/>
<path d="M123.31 36.1527C86.2915 58.346 55.5424 89.607 33.9666 126.983C12.3909 164.36 0.700666 206.618 0 249.767H120.524C176.594 249.767 211.628 189.086 183.597 140.547L123.31 36.1527Z" fill="#F89406"/>
<path d="M508.009 249.767C507.306 206.617 495.614 164.359 474.037 126.983C452.46 89.6063 421.71 58.3455 384.69 36.1527L324.411 140.547C296.381 189.086 331.415 249.767 387.485 249.767H508.009Z" fill="#009688"/>
<path d="M254.004 -4.69102e-05C210.833 -0.0628707 168.364 10.9258 130.644 31.9193L190.931 136.313C218.962 184.853 289.047 184.853 317.112 136.313L377.399 31.9193C339.668 10.9202 297.187 -0.0686551 254.004 -4.69102e-05Z" fill="#E74C3C"/>
<path d="M254.004 508C297.176 508.063 339.644 497.074 377.365 476.081L317.078 371.687C289.047 323.147 218.962 323.147 190.897 371.687L130.644 476.081C168.364 497.074 210.833 508.063 254.004 508Z" fill="#C0CA33"/>
<path d="M384.69 471.847C457.468 428.109 506.518 348.962 508.009 258.233H387.485C331.415 258.233 296.381 318.914 324.411 367.453L384.69 471.847Z" fill="#7CB342"/>
<g style="mix-blend-mode:multiply" opacity="0.65">
<path d="M120.524 258.233H118.635C119.317 280.568 125.519 302.386 136.689 321.739C147.859 341.093 163.649 357.38 182.649 369.147L183.597 367.453C211.662 318.914 176.594 258.233 120.524 258.233Z" fill="#F7B619"/>
</g>
<g style="mix-blend-mode:multiply" opacity="0.65">
<path d="M183.597 140.547L182.649 138.896C163.649 150.662 147.859 166.949 136.689 186.303C125.519 205.657 119.317 227.475 118.635 249.809H120.524C176.594 249.767 211.662 189.086 183.597 140.547Z" fill="#F89406"/>
</g>
<g style="mix-blend-mode:multiply" opacity="0.65">
<path d="M387.485 249.767H389.373C388.685 227.44 382.479 205.63 371.309 186.285C360.14 166.939 344.354 150.658 325.36 138.896L324.411 140.547C296.347 189.086 331.415 249.767 387.485 249.767Z" fill="#009688"/>
</g>
<g style="mix-blend-mode:multiply" opacity="0.65">
<path d="M317.078 136.313L318.035 134.62C298.34 124.076 276.345 118.559 254.004 118.559C231.664 118.559 209.669 124.076 189.974 134.62L190.931 136.313C218.962 184.853 289.047 184.853 317.078 136.313Z" fill="#E74C3C"/>
</g>
<g style="mix-blend-mode:multiply" opacity="0.65">
<path d="M190.931 371.687L189.974 373.38C209.669 383.924 231.664 389.441 254.004 389.441C276.345 389.441 298.34 383.924 318.035 373.38L317.078 371.687C289.047 323.147 218.962 323.147 190.931 371.687Z" fill="#C0CA33"/>
</g>
<g style="mix-blend-mode:multiply" opacity="0.65">
<path d="M389.373 258.233H387.485C331.415 258.233 296.381 318.914 324.411 367.453L325.36 369.147C344.359 357.38 360.149 341.093 371.319 321.739C382.489 302.386 388.692 280.568 389.373 258.233Z" fill="#7CB342"/>
</g>
<g filter="url(#filter0_d_13_211)">
<circle cx="254" cy="254" r="67" fill="#F4F4F4"/>
</g>
</g>
<defs>
<filter id="filter0_d_13_211" x="184" y="186" width="140" height="140" filterUnits="userSpaceOnUse" color-interpolation-filters="sRGB">
<feFlood flood-opacity="0" result="BackgroundImageFix"/>
<feColorMatrix in="SourceAlpha" type="matrix" values="0 0 0 0 0 0 0 0 0 0 0 0 0 0 0 0 0 0 127 0" result="hardAlpha"/>
<feOffset dy="2"/>
<feGaussianBlur stdDeviation="1.5"/>
<feComposite in2="hardAlpha" operator="out"/>
<feColorMatrix type="matrix" values="0 0 0 0 0 0 0 0 0 0 0 0 0 0 0 0 0 0 0.25 0"/>
<feBlend mode="normal" in2="BackgroundImageFix" result="effect1_dropShadow_13_211"/>
<feBlend mode="normal" in="SourceGraphic" in2="effect1_dropShadow_13_211" result="shape"/>
</filter>
<clipPath id="clip0_13_211">
<rect width="508" height="508" fill="white"/>
</clipPath>
</defs>
</svg>
