<svg xmlns="http://www.w3.org/2000/svg" viewBox="0 0 1100.09 1100.09" width='150' height='150'><defs><style>.cls-1{fill:#ee2a7b;}.cls-2{fill:#262234;}.cls-3{fill:#ffd2b4;}.cls-4{fill:#fff;opacity:0.2;}.cls-5{opacity:0.1;}</style></defs><g id="Layer_2" data-name="Layer 2"><g id="Layer_1-2" data-name="Layer 1"><circle class="cls-1" cx="550.04" cy="550.04" r="550.04"/><path class="cls-2" d="M848.69,683.73C773,597.15,783,513.12,783,513.12,763.57,290.74,559,261.05,550,259.84v0l-.21,0-.22,0v0c-9,1.21-213.6,30.9-233,253.28,0,0,10,84-65.66,170.61-75.07,85.86,292.77,37.78,298.93,37C555.92,721.51,923.75,769.59,848.69,683.73Z"/><path class="cls-2" d="M891.27,981.11a548.81,548.81,0,0,1-682.46,0l16.3-54.18A185.86,185.86,0,0,1,403.16,794.51H696.93A185.86,185.86,0,0,1,875,926.93Z"/><path class="cls-3" d="M550,208C775.15,208,755.9,427.81,755.9,427.81c32.94-3.55,59,10,59,58.34,0,48.06-20.29,58.16-46.12,60.9a5.78,5.78,0,0,0-5.27,5.46c-7.64,75.09-59,130.25-109.62,167.12a175,175,0,0,1-207.65,0c-50.6-36.87-102-92-109.63-167.12a5.76,5.76,0,0,0-5.27-5.46c-25.82-2.74-46.11-12.84-46.11-60.9,0-48.33,24.91-61.89,57.85-58.34C343.06,427.81,324.8,208,550,208Z"/><path class="cls-2" d="M784.25,350.33C774.79,210.6,649.33,163.64,549.9,163.64s-224.87,47-234,186.69c-2.93,43.07-.7,53.22,2.06,69.6,1.42,25.15,3.85,59.83,7.12,74.36,3.59,15.95,21.87,15.33,24.14,1.08,2-12.63,8.59-97.78,51.27-170.9l16.39,54.89a20.38,20.38,0,0,0,19.53,14.54H663.73a20.36,20.36,0,0,0,19.52-14.54l16.3-54.58c42.53,73.05,49.07,158,51.09,170.59,2.27,14.25,20.55,14.87,24.14-1.08,3.2-14.21,5.59-47.64,7-72.63C784.72,403.86,787.3,394.93,784.25,350.33Z"/><path class="cls-3" d="M631.53,692.65V810a40.92,40.92,0,0,1-22.62,36.6h0a131.61,131.61,0,0,1-117.73,0h0A40.9,40.9,0,0,1,468.56,810V692.65Z"/><path class="cls-4" d="M631.53,794.51V810a41.29,41.29,0,0,1-22.61,36.67,132.06,132.06,0,0,1-117.75,0A41.29,41.29,0,0,1,468.56,810V794.51H427.81V810A80.89,80.89,0,0,0,473,882.92a170.83,170.83,0,0,0,154,0A80.89,80.89,0,0,0,672.28,810V794.51Z"/><g class="cls-5"><path class="cls-2" d="M631.53,735v30.56a186.53,186.53,0,0,1-163,0V735a186.53,186.53,0,0,0,163,0Z"/></g></g></g></svg>