<svg xmlns="http://www.w3.org/2000/svg" viewBox="0 0 1100.09 1100.09" width='150' height='150'><defs><style>.cls-1{fill:#27aae1;}.cls-2{fill:#262234;}.cls-3{fill:#ffd2b4;}.cls-4{fill:#fff;opacity:0.2;}.cls-5{opacity:0.1;}</style></defs><g id="Layer_2" data-name="Layer 2"><g id="Layer_1-2" data-name="Layer 1"><circle class="cls-1" cx="550.04" cy="550.04" r="550.04"/><path class="cls-2" d="M891.27,981.11a548.81,548.81,0,0,1-682.46,0l16.3-54.18A185.86,185.86,0,0,1,403.16,794.51H696.93A185.87,185.87,0,0,1,875,926.93Z"/><path class="cls-3" d="M631.53,692.65V810a40.92,40.92,0,0,1-22.62,36.6h0a131.61,131.61,0,0,1-117.73,0h0A40.9,40.9,0,0,1,468.56,810V692.65Z"/><path class="cls-4" d="M631.53,794.51V810a41.29,41.29,0,0,1-22.61,36.67,132.06,132.06,0,0,1-117.75,0A41.29,41.29,0,0,1,468.56,810V794.51H427.81V810A80.89,80.89,0,0,0,473,882.92a170.83,170.83,0,0,0,154,0A80.89,80.89,0,0,0,672.28,810V794.51Z"/><path class="cls-3" d="M550,208c233.34,0,213.39,219.85,213.39,219.85,34.13-3.55,61.11,10,61.11,58.34,0,48.06-21,58.16-47.78,60.9a5.87,5.87,0,0,0-5.47,5.46c-7.91,75.09-61.16,130.25-113.59,167.12a186.66,186.66,0,0,1-215.19,0c-52.43-36.87-105.68-92-113.6-167.12a5.86,5.86,0,0,0-5.46-5.46c-26.76-2.74-47.79-12.84-47.79-60.9,0-48.33,25.82-61.89,60-58.34C335.56,427.81,316.64,208,550,208Z"/><g class="cls-5"><path class="cls-2" d="M631.53,735v30.56a186.53,186.53,0,0,1-163,0V735a186.53,186.53,0,0,0,163,0Z"/></g><path class="cls-2" d="M550.14,175.71c-180,0-230.48,136.66-230.48,259A194.82,194.82,0,0,0,325,478c3.59,14.65,42.24,14.08,44.52,1,1.84-10.6-6-76.93,22.55-139.56.32-.7.86-1.22,1.24-1.88,17,17.65,44.09,38.13,87.37,56.35a7.81,7.81,0,0,0,10.44-9.67,362,362,0,0,1-10.08-35.61c17.7,17.34,46.4,37.53,92.62,54.35a7.8,7.8,0,0,0,9.95-10.17c-3.14-7.89-6.85-18.17-10.19-29.25,20.06,15.11,53.41,32.27,107.39,41.41a7.81,7.81,0,0,0,7.95-11.8A342.83,342.83,0,0,1,668.43,356a269.73,269.73,0,0,0,51.78,17.52C734,424.28,729.13,470.34,730.64,479c2.27,13.09,40.92,13.66,44.51-1a194.72,194.72,0,0,0,5.38-43.28C780.53,312.37,730.09,175.71,550.14,175.71Z"/><path class="cls-2" d="M552.61,224.64s-28.32-50.1-139.39-60.84a7.8,7.8,0,0,0-7.09,12.33c4,5.47,8.74,12.31,13.54,19.85a316.76,316.76,0,0,0-58.05,6.08,7.8,7.8,0,0,0-3.31,13.83c24.84,19,73.27,60.72,62.27,89.49Z"/></g></g></svg>